%FSLAX45Y45*%
G04 Gerber Fmt 4.5, Leading zero omitted, Abs format (unit mm)*
G04 Created by KiCad (PCBNEW (2015-01-19 BZR 5380)-product) date Mon 16 Feb 2015 20:04:20 CET*
%MOMM*%
G01*
G04 APERTURE LIST*
%ADD10C,0.127000*%
%ADD11C,0.150000*%
%ADD12C,0.200000*%
%ADD13C,0.300000*%
G04 APERTURE END LIST*
D10*
D11*
X22700000Y-2800000D02*
X2700000Y-2800000D01*
X22700000Y-22800000D02*
X22700000Y-2800000D01*
X14700000Y-22800000D02*
X22700000Y-22800000D01*
X14700000Y-10800000D02*
X14700000Y-22800000D01*
X2700000Y-10800000D02*
X14700000Y-10800000D01*
X2700000Y-2800000D02*
X2700000Y-10800000D01*
D12*
X12264390Y-9622790D02*
X12327890Y-9686290D01*
X12327890Y-9622790D02*
X12264390Y-9686290D01*
X15932150Y-6470650D02*
X15995650Y-6534150D01*
X15995650Y-6470650D02*
X15932150Y-6534150D01*
X15944850Y-7169150D02*
X16008350Y-7232650D01*
X16008350Y-7169150D02*
X15944850Y-7232650D01*
X16148050Y-5403850D02*
X16211550Y-5467350D01*
X16211550Y-5403850D02*
X16148050Y-5467350D01*
X16656050Y-7981950D02*
X16719550Y-8045450D01*
X16719550Y-7981950D02*
X16656050Y-8045450D01*
X16656050Y-9213850D02*
X16719550Y-9277350D01*
X16719550Y-9213850D02*
X16656050Y-9277350D01*
X16821150Y-7969250D02*
X16884650Y-8032750D01*
X16884650Y-7969250D02*
X16821150Y-8032750D01*
X16821150Y-8959850D02*
X16884650Y-9023350D01*
X16884650Y-8959850D02*
X16821150Y-9023350D01*
X17151350Y-4756150D02*
X17214850Y-4819650D01*
X17214850Y-4756150D02*
X17151350Y-4819650D01*
X17189450Y-5251450D02*
X17252950Y-5314950D01*
X17252950Y-5251450D02*
X17189450Y-5314950D01*
X17214850Y-6889750D02*
X17278350Y-6953250D01*
X17278350Y-6889750D02*
X17214850Y-6953250D01*
X17367250Y-5810250D02*
X17430750Y-5873750D01*
X17430750Y-5810250D02*
X17367250Y-5873750D01*
X17468850Y-6381750D02*
X17532350Y-6445250D01*
X17532350Y-6381750D02*
X17468850Y-6445250D01*
X17494250Y-6254750D02*
X17557750Y-6318250D01*
X17557750Y-6254750D02*
X17494250Y-6318250D01*
X17570450Y-3956050D02*
X17633950Y-4019550D01*
X17633950Y-3956050D02*
X17570450Y-4019550D01*
X17570450Y-7867650D02*
X17633950Y-7931150D01*
X17633950Y-7867650D02*
X17570450Y-7931150D01*
X17659350Y-3130550D02*
X17722850Y-3194050D01*
X17722850Y-3130550D02*
X17659350Y-3194050D01*
X18014950Y-6432550D02*
X18078450Y-6496050D01*
X18078450Y-6432550D02*
X18014950Y-6496050D01*
X18053050Y-6318250D02*
X18116550Y-6381750D01*
X18116550Y-6318250D02*
X18053050Y-6381750D01*
X18116550Y-4578350D02*
X18180050Y-4641850D01*
X18180050Y-4578350D02*
X18116550Y-4641850D01*
X18167350Y-7816850D02*
X18230850Y-7880350D01*
X18230850Y-7816850D02*
X18167350Y-7880350D01*
X18294350Y-5149850D02*
X18357850Y-5213350D01*
X18357850Y-5149850D02*
X18294350Y-5213350D01*
X18357850Y-5810250D02*
X18421350Y-5873750D01*
X18421350Y-5810250D02*
X18357850Y-5873750D01*
X18446750Y-4286250D02*
X18510250Y-4349750D01*
X18510250Y-4286250D02*
X18446750Y-4349750D01*
X18459450Y-7791450D02*
X18522950Y-7854950D01*
X18522950Y-7791450D02*
X18459450Y-7854950D01*
X18611850Y-4540250D02*
X18675350Y-4603750D01*
X18675350Y-4540250D02*
X18611850Y-4603750D01*
X18624550Y-6775450D02*
X18688050Y-6838950D01*
X18688050Y-6775450D02*
X18624550Y-6838950D01*
X18649950Y-5708650D02*
X18713450Y-5772150D01*
X18713450Y-5708650D02*
X18649950Y-5772150D01*
X18798250Y-6378250D02*
X18861750Y-6441750D01*
X18861750Y-6378250D02*
X18798250Y-6441750D01*
X18992850Y-12630150D02*
X19056350Y-12693650D01*
X19056350Y-12630150D02*
X18992850Y-12693650D01*
X19338250Y-6378250D02*
X19401750Y-6441750D01*
X19401750Y-6378250D02*
X19338250Y-6441750D01*
X19526250Y-9163050D02*
X19589750Y-9226550D01*
X19589750Y-9163050D02*
X19526250Y-9226550D01*
X19551650Y-5429250D02*
X19615150Y-5492750D01*
X19615150Y-5429250D02*
X19551650Y-5492750D01*
X19729450Y-6775450D02*
X19792950Y-6838950D01*
X19792950Y-6775450D02*
X19729450Y-6838950D01*
X19831050Y-10610850D02*
X19894550Y-10674350D01*
X19894550Y-10610850D02*
X19831050Y-10674350D01*
X19856450Y-9493250D02*
X19919950Y-9556750D01*
X19919950Y-9493250D02*
X19856450Y-9556750D01*
X19983450Y-6496050D02*
X20046950Y-6559550D01*
X20046950Y-6496050D02*
X19983450Y-6559550D01*
X20085050Y-7080250D02*
X20148550Y-7143750D01*
X20148550Y-7080250D02*
X20085050Y-7143750D01*
X20085050Y-10788650D02*
X20148550Y-10852150D01*
X20148550Y-10788650D02*
X20085050Y-10852150D01*
X20186650Y-10585450D02*
X20250150Y-10648950D01*
X20250150Y-10585450D02*
X20186650Y-10648950D01*
X20288250Y-6927850D02*
X20351750Y-6991350D01*
X20351750Y-6927850D02*
X20288250Y-6991350D01*
X20339050Y-10407650D02*
X20402550Y-10471150D01*
X20402550Y-10407650D02*
X20339050Y-10471150D01*
X20389850Y-6800850D02*
X20453350Y-6864350D01*
X20453350Y-6800850D02*
X20389850Y-6864350D01*
X20389850Y-10814050D02*
X20453350Y-10877550D01*
X20453350Y-10814050D02*
X20389850Y-10877550D01*
X20402550Y-10953750D02*
X20466050Y-11017250D01*
X20466050Y-10953750D02*
X20402550Y-11017250D01*
X20440650Y-6419850D02*
X20504150Y-6483350D01*
X20504150Y-6419850D02*
X20440650Y-6483350D01*
X20466050Y-7893050D02*
X20529550Y-7956550D01*
X20529550Y-7893050D02*
X20466050Y-7956550D01*
X20897850Y-10179050D02*
X20961350Y-10242550D01*
X20961350Y-10179050D02*
X20897850Y-10242550D01*
X20897850Y-10344150D02*
X20961350Y-10407650D01*
X20961350Y-10344150D02*
X20897850Y-10407650D01*
X21101050Y-9696450D02*
X21164550Y-9759950D01*
X21164550Y-9696450D02*
X21101050Y-9759950D01*
X21126450Y-13404850D02*
X21189950Y-13468350D01*
X21189950Y-13404850D02*
X21126450Y-13468350D01*
X5086005Y-5150000D02*
G75*
G03X5086005Y-5150000I-40005J0D01*
G01*
X5594005Y-5150000D02*
G75*
G03X5594005Y-5150000I-40005J0D01*
G01*
X5836005Y-7900000D02*
G75*
G03X5836005Y-7900000I-40005J0D01*
G01*
X6344005Y-7900000D02*
G75*
G03X6344005Y-7900000I-40005J0D01*
G01*
X6486005Y-5600000D02*
G75*
G03X6486005Y-5600000I-40005J0D01*
G01*
X6994005Y-5600000D02*
G75*
G03X6994005Y-5600000I-40005J0D01*
G01*
X7999505Y-5800000D02*
G75*
G03X7999505Y-5800000I-40005J0D01*
G01*
X8380505Y-5800000D02*
G75*
G03X8380505Y-5800000I-40005J0D01*
G01*
X9799505Y-5850000D02*
G75*
G03X9799505Y-5850000I-40005J0D01*
G01*
X10180505Y-5850000D02*
G75*
G03X10180505Y-5850000I-40005J0D01*
G01*
X11536005Y-5450000D02*
G75*
G03X11536005Y-5450000I-40005J0D01*
G01*
X12044005Y-5450000D02*
G75*
G03X12044005Y-5450000I-40005J0D01*
G01*
X12540005Y-6796000D02*
G75*
G03X12540005Y-6796000I-40005J0D01*
G01*
X12540005Y-7304000D02*
G75*
G03X12540005Y-7304000I-40005J0D01*
G01*
X12940005Y-7846000D02*
G75*
G03X12940005Y-7846000I-40005J0D01*
G01*
X12940005Y-8354000D02*
G75*
G03X12940005Y-8354000I-40005J0D01*
G01*
X17890005Y-20046000D02*
G75*
G03X17890005Y-20046000I-40005J0D01*
G01*
X17890005Y-20554000D02*
G75*
G03X17890005Y-20554000I-40005J0D01*
G01*
X18290005Y-16296000D02*
G75*
G03X18290005Y-16296000I-40005J0D01*
G01*
X18290005Y-16804000D02*
G75*
G03X18290005Y-16804000I-40005J0D01*
G01*
X18990005Y-13146000D02*
G75*
G03X18990005Y-13146000I-40005J0D01*
G01*
X18990005Y-13654000D02*
G75*
G03X18990005Y-13654000I-40005J0D01*
G01*
X19386005Y-11350000D02*
G75*
G03X19386005Y-11350000I-40005J0D01*
G01*
X19894005Y-11350000D02*
G75*
G03X19894005Y-11350000I-40005J0D01*
G01*
X20259005Y-16350000D02*
G75*
G03X20259005Y-16350000I-40005J0D01*
G01*
X21021005Y-16350000D02*
G75*
G03X21021005Y-16350000I-40005J0D01*
G01*
X21290005Y-10396000D02*
G75*
G03X21290005Y-10396000I-40005J0D01*
G01*
X21290005Y-10904000D02*
G75*
G03X21290005Y-10904000I-40005J0D01*
G01*
X6173000Y-5109360D02*
X6173000Y-5190640D01*
X6132360Y-5150000D02*
X6213640Y-5150000D01*
X6250000Y-8282360D02*
X6250000Y-8363640D01*
X6209360Y-8323000D02*
X6290640Y-8323000D01*
X6250000Y-8536360D02*
X6250000Y-8617640D01*
X6209360Y-8577000D02*
X6290640Y-8577000D01*
X6427000Y-5109360D02*
X6427000Y-5190640D01*
X6386360Y-5150000D02*
X6467640Y-5150000D01*
X11823000Y-4859360D02*
X11823000Y-4940640D01*
X11782360Y-4900000D02*
X11863640Y-4900000D01*
X12077000Y-4859360D02*
X12077000Y-4940640D01*
X12036360Y-4900000D02*
X12117640Y-4900000D01*
X12350000Y-7782360D02*
X12350000Y-7863640D01*
X12309360Y-7823000D02*
X12390640Y-7823000D01*
X12350000Y-8036360D02*
X12350000Y-8117640D01*
X12309360Y-8077000D02*
X12390640Y-8077000D01*
X16967200Y-5852160D02*
X16967200Y-5933440D01*
X16926560Y-5892800D02*
X17007840Y-5892800D01*
X16967200Y-6106160D02*
X16967200Y-6187440D01*
X16926560Y-6146800D02*
X17007840Y-6146800D01*
X20243800Y-13446760D02*
X20243800Y-13528040D01*
X20203160Y-13487400D02*
X20284440Y-13487400D01*
X20243800Y-13700760D02*
X20243800Y-13782040D01*
X20203160Y-13741400D02*
X20284440Y-13741400D01*
X4985356Y-5705356D02*
X4985356Y-5634644D01*
X4914644Y-5634644D01*
X4914644Y-5705356D01*
X4985356Y-5705356D01*
X4985356Y-6045356D02*
X4985356Y-5974644D01*
X4914644Y-5974644D01*
X4914644Y-6045356D01*
X4985356Y-6045356D01*
X4985356Y-6385356D02*
X4985356Y-6314644D01*
X4914644Y-6314644D01*
X4914644Y-6385356D01*
X4985356Y-6385356D01*
X4985356Y-6725356D02*
X4985356Y-6654644D01*
X4914644Y-6654644D01*
X4914644Y-6725356D01*
X4985356Y-6725356D01*
X4985356Y-7065356D02*
X4985356Y-6994644D01*
X4914644Y-6994644D01*
X4914644Y-7065356D01*
X4985356Y-7065356D01*
X5493356Y-5535356D02*
X5493356Y-5464644D01*
X5422644Y-5464644D01*
X5422644Y-5535356D01*
X5493356Y-5535356D01*
X5493356Y-5875356D02*
X5493356Y-5804644D01*
X5422644Y-5804644D01*
X5422644Y-5875356D01*
X5493356Y-5875356D01*
X5493356Y-6215356D02*
X5493356Y-6144644D01*
X5422644Y-6144644D01*
X5422644Y-6215356D01*
X5493356Y-6215356D01*
X5493356Y-6555356D02*
X5493356Y-6484644D01*
X5422644Y-6484644D01*
X5422644Y-6555356D01*
X5493356Y-6555356D01*
X5493356Y-6895356D02*
X5493356Y-6824644D01*
X5422644Y-6824644D01*
X5422644Y-6895356D01*
X5493356Y-6895356D01*
X5493356Y-7235356D02*
X5493356Y-7164644D01*
X5422644Y-7164644D01*
X5422644Y-7235356D01*
X5493356Y-7235356D01*
X13027356Y-5535356D02*
X13027356Y-5464644D01*
X12956644Y-5464644D01*
X12956644Y-5535356D01*
X13027356Y-5535356D01*
X13027356Y-5875356D02*
X13027356Y-5804644D01*
X12956644Y-5804644D01*
X12956644Y-5875356D01*
X13027356Y-5875356D01*
X13027356Y-6215356D02*
X13027356Y-6144644D01*
X12956644Y-6144644D01*
X12956644Y-6215356D01*
X13027356Y-6215356D01*
X13027356Y-6555356D02*
X13027356Y-6484644D01*
X12956644Y-6484644D01*
X12956644Y-6555356D01*
X13027356Y-6555356D01*
X13027356Y-6895356D02*
X13027356Y-6824644D01*
X12956644Y-6824644D01*
X12956644Y-6895356D01*
X13027356Y-6895356D01*
X13027356Y-7235356D02*
X13027356Y-7164644D01*
X12956644Y-7164644D01*
X12956644Y-7235356D01*
X13027356Y-7235356D01*
X13535356Y-5705356D02*
X13535356Y-5634644D01*
X13464644Y-5634644D01*
X13464644Y-5705356D01*
X13535356Y-5705356D01*
X13535356Y-6045356D02*
X13535356Y-5974644D01*
X13464644Y-5974644D01*
X13464644Y-6045356D01*
X13535356Y-6045356D01*
X13535356Y-6385356D02*
X13535356Y-6314644D01*
X13464644Y-6314644D01*
X13464644Y-6385356D01*
X13535356Y-6385356D01*
X13535356Y-6725356D02*
X13535356Y-6654644D01*
X13464644Y-6654644D01*
X13464644Y-6725356D01*
X13535356Y-6725356D01*
X13535356Y-7065356D02*
X13535356Y-6994644D01*
X13464644Y-6994644D01*
X13464644Y-7065356D01*
X13535356Y-7065356D01*
X16890356Y-12930356D02*
X16890356Y-12859644D01*
X16819644Y-12859644D01*
X16819644Y-12930356D01*
X16890356Y-12930356D01*
X16890356Y-14130356D02*
X16890356Y-14059644D01*
X16819644Y-14059644D01*
X16819644Y-14130356D01*
X16890356Y-14130356D01*
X4492000Y-8150038D02*
X4542038Y-8100000D01*
X4492000Y-8049962D01*
X4441962Y-8100000D01*
X4492000Y-8150038D01*
X4650000Y-8692038D02*
X4700038Y-8642000D01*
X4650000Y-8591962D01*
X4599962Y-8642000D01*
X4650000Y-8692038D01*
X4650000Y-9708038D02*
X4700038Y-9658000D01*
X4650000Y-9607962D01*
X4599962Y-9658000D01*
X4650000Y-9708038D01*
X5508000Y-8150038D02*
X5558038Y-8100000D01*
X5508000Y-8049962D01*
X5457962Y-8100000D01*
X5508000Y-8150038D01*
X6042000Y-6050038D02*
X6092038Y-6000000D01*
X6042000Y-5949962D01*
X5991962Y-6000000D01*
X6042000Y-6050038D01*
X6100000Y-6642038D02*
X6150038Y-6592000D01*
X6100000Y-6541962D01*
X6049962Y-6592000D01*
X6100000Y-6642038D01*
X6100000Y-7658038D02*
X6150038Y-7608000D01*
X6100000Y-7557962D01*
X6049962Y-7608000D01*
X6100000Y-7658038D01*
X7058000Y-6050038D02*
X7108038Y-6000000D01*
X7058000Y-5949962D01*
X7007962Y-6000000D01*
X7058000Y-6050038D01*
X7600000Y-3642038D02*
X7650038Y-3592000D01*
X7600000Y-3541962D01*
X7549962Y-3592000D01*
X7600000Y-3642038D01*
X7600000Y-4658038D02*
X7650038Y-4608000D01*
X7600000Y-4557962D01*
X7549962Y-4608000D01*
X7600000Y-4658038D01*
X7750000Y-7092038D02*
X7800038Y-7042000D01*
X7750000Y-6991962D01*
X7699962Y-7042000D01*
X7750000Y-7092038D01*
X7750000Y-8108038D02*
X7800038Y-8058000D01*
X7750000Y-8007962D01*
X7699962Y-8058000D01*
X7750000Y-8108038D01*
X9942000Y-4150038D02*
X9992038Y-4100000D01*
X9942000Y-4049962D01*
X9891962Y-4100000D01*
X9942000Y-4150038D01*
X10600000Y-7092038D02*
X10650038Y-7042000D01*
X10600000Y-6991962D01*
X10549962Y-7042000D01*
X10600000Y-7092038D01*
X10600000Y-8108038D02*
X10650038Y-8058000D01*
X10600000Y-8007962D01*
X10549962Y-8058000D01*
X10600000Y-8108038D01*
X10958000Y-4150038D02*
X11008038Y-4100000D01*
X10958000Y-4049962D01*
X10907962Y-4100000D01*
X10958000Y-4150038D01*
X10992000Y-6050038D02*
X11042038Y-6000000D01*
X10992000Y-5949962D01*
X10941962Y-6000000D01*
X10992000Y-6050038D01*
X12008000Y-6050038D02*
X12058038Y-6000000D01*
X12008000Y-5949962D01*
X11957962Y-6000000D01*
X12008000Y-6050038D01*
X12450000Y-5242038D02*
X12500038Y-5192000D01*
X12450000Y-5141962D01*
X12399962Y-5192000D01*
X12450000Y-5242038D01*
X12450000Y-6258038D02*
X12500038Y-6208000D01*
X12450000Y-6157962D01*
X12399962Y-6208000D01*
X12450000Y-6258038D01*
X13400000Y-7542038D02*
X13450038Y-7492000D01*
X13400000Y-7441962D01*
X13349962Y-7492000D01*
X13400000Y-7542038D01*
X13400000Y-8558038D02*
X13450038Y-8508000D01*
X13400000Y-8457962D01*
X13349962Y-8508000D01*
X13400000Y-8558038D01*
X13900000Y-7642038D02*
X13950038Y-7592000D01*
X13900000Y-7541962D01*
X13849962Y-7592000D01*
X13900000Y-7642038D01*
X13900000Y-8658038D02*
X13950038Y-8608000D01*
X13900000Y-8557962D01*
X13849962Y-8608000D01*
X13900000Y-8658038D01*
X17100000Y-18250104D02*
X17150038Y-18200066D01*
X17100000Y-18150028D01*
X17049962Y-18200066D01*
X17100000Y-18250104D01*
X17550000Y-12992038D02*
X17600038Y-12942000D01*
X17550000Y-12891962D01*
X17499962Y-12942000D01*
X17550000Y-12992038D01*
X18800000Y-11308038D02*
X18850038Y-11258000D01*
X18800000Y-11207962D01*
X18749962Y-11258000D01*
X18800000Y-11308038D01*
X19381000Y-16300038D02*
X19431038Y-16250000D01*
X19381000Y-16199962D01*
X19330962Y-16250000D01*
X19381000Y-16300038D01*
X6599200Y-9095200D02*
X6700800Y-9196800D01*
X6700800Y-9095200D02*
X6599200Y-9196800D01*
X6700800Y-9146000D02*
G75*
G03X6700800Y-9146000I-50800J0D01*
G01*
X6599200Y-9349200D02*
X6700800Y-9450800D01*
X6700800Y-9349200D02*
X6599200Y-9450800D01*
X6700800Y-9400000D02*
G75*
G03X6700800Y-9400000I-50800J0D01*
G01*
X6599200Y-9603200D02*
X6700800Y-9704800D01*
X6700800Y-9603200D02*
X6599200Y-9704800D01*
X6700800Y-9654000D02*
G75*
G03X6700800Y-9654000I-50800J0D01*
G01*
X13549200Y-9045200D02*
X13650800Y-9146800D01*
X13650800Y-9045200D02*
X13549200Y-9146800D01*
X13650800Y-9096000D02*
G75*
G03X13650800Y-9096000I-50800J0D01*
G01*
X13549200Y-9299200D02*
X13650800Y-9400800D01*
X13650800Y-9299200D02*
X13549200Y-9400800D01*
X13650800Y-9350000D02*
G75*
G03X13650800Y-9350000I-50800J0D01*
G01*
X13549200Y-9553200D02*
X13650800Y-9654800D01*
X13650800Y-9553200D02*
X13549200Y-9654800D01*
X13650800Y-9604000D02*
G75*
G03X13650800Y-9604000I-50800J0D01*
G01*
X16349200Y-8118200D02*
X16450800Y-8219800D01*
X16450800Y-8118200D02*
X16349200Y-8219800D01*
X16450800Y-8169000D02*
G75*
G03X16450800Y-8169000I-50800J0D01*
G01*
X16349200Y-8372200D02*
X16450800Y-8473800D01*
X16450800Y-8372200D02*
X16349200Y-8473800D01*
X16450800Y-8423000D02*
G75*
G03X16450800Y-8423000I-50800J0D01*
G01*
X16349200Y-8626200D02*
X16450800Y-8727800D01*
X16450800Y-8626200D02*
X16349200Y-8727800D01*
X16450800Y-8677000D02*
G75*
G03X16450800Y-8677000I-50800J0D01*
G01*
X16349200Y-8880200D02*
X16450800Y-8981800D01*
X16450800Y-8880200D02*
X16349200Y-8981800D01*
X16450800Y-8931000D02*
G75*
G03X16450800Y-8931000I-50800J0D01*
G01*
X18099200Y-13045200D02*
X18200800Y-13146800D01*
X18200800Y-13045200D02*
X18099200Y-13146800D01*
X18200800Y-13096000D02*
G75*
G03X18200800Y-13096000I-50800J0D01*
G01*
X18099200Y-13299200D02*
X18200800Y-13400800D01*
X18200800Y-13299200D02*
X18099200Y-13400800D01*
X18200800Y-13350000D02*
G75*
G03X18200800Y-13350000I-50800J0D01*
G01*
X18099200Y-13553200D02*
X18200800Y-13654800D01*
X18200800Y-13553200D02*
X18099200Y-13654800D01*
X18200800Y-13604000D02*
G75*
G03X18200800Y-13604000I-50800J0D01*
G01*
X18389600Y-12192000D02*
X18491200Y-12293600D01*
X18491200Y-12192000D02*
X18389600Y-12293600D01*
X18491200Y-12242800D02*
G75*
G03X18491200Y-12242800I-50800J0D01*
G01*
X18643600Y-12192000D02*
X18745200Y-12293600D01*
X18745200Y-12192000D02*
X18643600Y-12293600D01*
X18745200Y-12242800D02*
G75*
G03X18745200Y-12242800I-50800J0D01*
G01*
X18897600Y-12192000D02*
X18999200Y-12293600D01*
X18999200Y-12192000D02*
X18897600Y-12293600D01*
X18999200Y-12242800D02*
G75*
G03X18999200Y-12242800I-50800J0D01*
G01*
X20199200Y-11941200D02*
X20300800Y-12042800D01*
X20300800Y-11941200D02*
X20199200Y-12042800D01*
X20300800Y-11992000D02*
G75*
G03X20300800Y-11992000I-50800J0D01*
G01*
X20199200Y-12195200D02*
X20300800Y-12296800D01*
X20300800Y-12195200D02*
X20199200Y-12296800D01*
X20300800Y-12246000D02*
G75*
G03X20300800Y-12246000I-50800J0D01*
G01*
X20199200Y-12449200D02*
X20300800Y-12550800D01*
X20300800Y-12449200D02*
X20199200Y-12550800D01*
X20300800Y-12500000D02*
G75*
G03X20300800Y-12500000I-50800J0D01*
G01*
X20199200Y-12703200D02*
X20300800Y-12804800D01*
X20300800Y-12703200D02*
X20199200Y-12804800D01*
X20300800Y-12754000D02*
G75*
G03X20300800Y-12754000I-50800J0D01*
G01*
X20199200Y-12957200D02*
X20300800Y-13058800D01*
X20300800Y-12957200D02*
X20199200Y-13058800D01*
X20300800Y-13008000D02*
G75*
G03X20300800Y-13008000I-50800J0D01*
G01*
X21072200Y-3936200D02*
X21173800Y-4037800D01*
X21173800Y-3936200D02*
X21072200Y-4037800D01*
X21173800Y-3987000D02*
G75*
G03X21173800Y-3987000I-50800J0D01*
G01*
X21072200Y-4190200D02*
X21173800Y-4291800D01*
X21173800Y-4190200D02*
X21072200Y-4291800D01*
X21173800Y-4241000D02*
G75*
G03X21173800Y-4241000I-50800J0D01*
G01*
X21072200Y-4444200D02*
X21173800Y-4545800D01*
X21173800Y-4444200D02*
X21072200Y-4545800D01*
X21173800Y-4495000D02*
G75*
G03X21173800Y-4495000I-50800J0D01*
G01*
X21072200Y-4698200D02*
X21173800Y-4799800D01*
X21173800Y-4698200D02*
X21072200Y-4799800D01*
X21173800Y-4749000D02*
G75*
G03X21173800Y-4749000I-50800J0D01*
G01*
X21072200Y-4952200D02*
X21173800Y-5053800D01*
X21173800Y-4952200D02*
X21072200Y-5053800D01*
X21173800Y-5003000D02*
G75*
G03X21173800Y-5003000I-50800J0D01*
G01*
X21072200Y-5206200D02*
X21173800Y-5307800D01*
X21173800Y-5206200D02*
X21072200Y-5307800D01*
X21173800Y-5257000D02*
G75*
G03X21173800Y-5257000I-50800J0D01*
G01*
X21072200Y-5460200D02*
X21173800Y-5561800D01*
X21173800Y-5460200D02*
X21072200Y-5561800D01*
X21173800Y-5511000D02*
G75*
G03X21173800Y-5511000I-50800J0D01*
G01*
X21072200Y-5714200D02*
X21173800Y-5815800D01*
X21173800Y-5714200D02*
X21072200Y-5815800D01*
X21173800Y-5765000D02*
G75*
G03X21173800Y-5765000I-50800J0D01*
G01*
X21072200Y-5968200D02*
X21173800Y-6069800D01*
X21173800Y-5968200D02*
X21072200Y-6069800D01*
X21173800Y-6019000D02*
G75*
G03X21173800Y-6019000I-50800J0D01*
G01*
X21072200Y-6222200D02*
X21173800Y-6323800D01*
X21173800Y-6222200D02*
X21072200Y-6323800D01*
X21173800Y-6273000D02*
G75*
G03X21173800Y-6273000I-50800J0D01*
G01*
X21072200Y-6476200D02*
X21173800Y-6577800D01*
X21173800Y-6476200D02*
X21072200Y-6577800D01*
X21173800Y-6527000D02*
G75*
G03X21173800Y-6527000I-50800J0D01*
G01*
X21072200Y-6730200D02*
X21173800Y-6831800D01*
X21173800Y-6730200D02*
X21072200Y-6831800D01*
X21173800Y-6781000D02*
G75*
G03X21173800Y-6781000I-50800J0D01*
G01*
X21072200Y-6984200D02*
X21173800Y-7085800D01*
X21173800Y-6984200D02*
X21072200Y-7085800D01*
X21173800Y-7035000D02*
G75*
G03X21173800Y-7035000I-50800J0D01*
G01*
X21072200Y-7238200D02*
X21173800Y-7339800D01*
X21173800Y-7238200D02*
X21072200Y-7339800D01*
X21173800Y-7289000D02*
G75*
G03X21173800Y-7289000I-50800J0D01*
G01*
X21072200Y-7492200D02*
X21173800Y-7593800D01*
X21173800Y-7492200D02*
X21072200Y-7593800D01*
X21173800Y-7543000D02*
G75*
G03X21173800Y-7543000I-50800J0D01*
G01*
X21072200Y-7746200D02*
X21173800Y-7847800D01*
X21173800Y-7746200D02*
X21072200Y-7847800D01*
X21173800Y-7797000D02*
G75*
G03X21173800Y-7797000I-50800J0D01*
G01*
X21072200Y-8000200D02*
X21173800Y-8101800D01*
X21173800Y-8000200D02*
X21072200Y-8101800D01*
X21173800Y-8051000D02*
G75*
G03X21173800Y-8051000I-50800J0D01*
G01*
X21072200Y-8254200D02*
X21173800Y-8355800D01*
X21173800Y-8254200D02*
X21072200Y-8355800D01*
X21173800Y-8305000D02*
G75*
G03X21173800Y-8305000I-50800J0D01*
G01*
X21072200Y-8508200D02*
X21173800Y-8609800D01*
X21173800Y-8508200D02*
X21072200Y-8609800D01*
X21173800Y-8559000D02*
G75*
G03X21173800Y-8559000I-50800J0D01*
G01*
X21072200Y-8762200D02*
X21173800Y-8863800D01*
X21173800Y-8762200D02*
X21072200Y-8863800D01*
X21173800Y-8813000D02*
G75*
G03X21173800Y-8813000I-50800J0D01*
G01*
X21326200Y-3936200D02*
X21427800Y-4037800D01*
X21427800Y-3936200D02*
X21326200Y-4037800D01*
X21427800Y-3987000D02*
G75*
G03X21427800Y-3987000I-50800J0D01*
G01*
X21326200Y-4190200D02*
X21427800Y-4291800D01*
X21427800Y-4190200D02*
X21326200Y-4291800D01*
X21427800Y-4241000D02*
G75*
G03X21427800Y-4241000I-50800J0D01*
G01*
X21326200Y-4444200D02*
X21427800Y-4545800D01*
X21427800Y-4444200D02*
X21326200Y-4545800D01*
X21427800Y-4495000D02*
G75*
G03X21427800Y-4495000I-50800J0D01*
G01*
X21326200Y-4698200D02*
X21427800Y-4799800D01*
X21427800Y-4698200D02*
X21326200Y-4799800D01*
X21427800Y-4749000D02*
G75*
G03X21427800Y-4749000I-50800J0D01*
G01*
X21326200Y-4952200D02*
X21427800Y-5053800D01*
X21427800Y-4952200D02*
X21326200Y-5053800D01*
X21427800Y-5003000D02*
G75*
G03X21427800Y-5003000I-50800J0D01*
G01*
X21326200Y-5206200D02*
X21427800Y-5307800D01*
X21427800Y-5206200D02*
X21326200Y-5307800D01*
X21427800Y-5257000D02*
G75*
G03X21427800Y-5257000I-50800J0D01*
G01*
X21326200Y-5460200D02*
X21427800Y-5561800D01*
X21427800Y-5460200D02*
X21326200Y-5561800D01*
X21427800Y-5511000D02*
G75*
G03X21427800Y-5511000I-50800J0D01*
G01*
X21326200Y-5714200D02*
X21427800Y-5815800D01*
X21427800Y-5714200D02*
X21326200Y-5815800D01*
X21427800Y-5765000D02*
G75*
G03X21427800Y-5765000I-50800J0D01*
G01*
X21326200Y-5968200D02*
X21427800Y-6069800D01*
X21427800Y-5968200D02*
X21326200Y-6069800D01*
X21427800Y-6019000D02*
G75*
G03X21427800Y-6019000I-50800J0D01*
G01*
X21326200Y-6222200D02*
X21427800Y-6323800D01*
X21427800Y-6222200D02*
X21326200Y-6323800D01*
X21427800Y-6273000D02*
G75*
G03X21427800Y-6273000I-50800J0D01*
G01*
X21326200Y-6476200D02*
X21427800Y-6577800D01*
X21427800Y-6476200D02*
X21326200Y-6577800D01*
X21427800Y-6527000D02*
G75*
G03X21427800Y-6527000I-50800J0D01*
G01*
X21326200Y-6730200D02*
X21427800Y-6831800D01*
X21427800Y-6730200D02*
X21326200Y-6831800D01*
X21427800Y-6781000D02*
G75*
G03X21427800Y-6781000I-50800J0D01*
G01*
X21326200Y-6984200D02*
X21427800Y-7085800D01*
X21427800Y-6984200D02*
X21326200Y-7085800D01*
X21427800Y-7035000D02*
G75*
G03X21427800Y-7035000I-50800J0D01*
G01*
X21326200Y-7238200D02*
X21427800Y-7339800D01*
X21427800Y-7238200D02*
X21326200Y-7339800D01*
X21427800Y-7289000D02*
G75*
G03X21427800Y-7289000I-50800J0D01*
G01*
X21326200Y-7492200D02*
X21427800Y-7593800D01*
X21427800Y-7492200D02*
X21326200Y-7593800D01*
X21427800Y-7543000D02*
G75*
G03X21427800Y-7543000I-50800J0D01*
G01*
X21326200Y-7746200D02*
X21427800Y-7847800D01*
X21427800Y-7746200D02*
X21326200Y-7847800D01*
X21427800Y-7797000D02*
G75*
G03X21427800Y-7797000I-50800J0D01*
G01*
X21326200Y-8000200D02*
X21427800Y-8101800D01*
X21427800Y-8000200D02*
X21326200Y-8101800D01*
X21427800Y-8051000D02*
G75*
G03X21427800Y-8051000I-50800J0D01*
G01*
X21326200Y-8254200D02*
X21427800Y-8355800D01*
X21427800Y-8254200D02*
X21326200Y-8355800D01*
X21427800Y-8305000D02*
G75*
G03X21427800Y-8305000I-50800J0D01*
G01*
X21326200Y-8508200D02*
X21427800Y-8609800D01*
X21427800Y-8508200D02*
X21326200Y-8609800D01*
X21427800Y-8559000D02*
G75*
G03X21427800Y-8559000I-50800J0D01*
G01*
X21326200Y-8762200D02*
X21427800Y-8863800D01*
X21427800Y-8762200D02*
X21326200Y-8863800D01*
X21427800Y-8813000D02*
G75*
G03X21427800Y-8813000I-50800J0D01*
G01*
X21412200Y-11582400D02*
X21513800Y-11684000D01*
X21513800Y-11582400D02*
X21412200Y-11684000D01*
X21513800Y-11633200D02*
G75*
G03X21513800Y-11633200I-50800J0D01*
G01*
X21412200Y-12090400D02*
X21513800Y-12192000D01*
X21513800Y-12090400D02*
X21412200Y-12192000D01*
X21513800Y-12141200D02*
G75*
G03X21513800Y-12141200I-50800J0D01*
G01*
X21412200Y-12598400D02*
X21513800Y-12700000D01*
X21513800Y-12598400D02*
X21412200Y-12700000D01*
X21513800Y-12649200D02*
G75*
G03X21513800Y-12649200I-50800J0D01*
G01*
X21412200Y-13081000D02*
X21513800Y-13182600D01*
X21513800Y-13081000D02*
X21412200Y-13182600D01*
X21513800Y-13131800D02*
G75*
G03X21513800Y-13131800I-50800J0D01*
G01*
X21412200Y-13614400D02*
X21513800Y-13716000D01*
X21513800Y-13614400D02*
X21412200Y-13716000D01*
X21513800Y-13665200D02*
G75*
G03X21513800Y-13665200I-50800J0D01*
G01*
X21412200Y-14173200D02*
X21513800Y-14274800D01*
X21513800Y-14173200D02*
X21412200Y-14274800D01*
X21513800Y-14224000D02*
G75*
G03X21513800Y-14224000I-50800J0D01*
G01*
X21412200Y-14427200D02*
X21513800Y-14528800D01*
X21513800Y-14427200D02*
X21412200Y-14528800D01*
X21513800Y-14478000D02*
G75*
G03X21513800Y-14478000I-50800J0D01*
G01*
X21412200Y-14681200D02*
X21513800Y-14782800D01*
X21513800Y-14681200D02*
X21412200Y-14782800D01*
X21513800Y-14732000D02*
G75*
G03X21513800Y-14732000I-50800J0D01*
G01*
X21666200Y-11582400D02*
X21767800Y-11684000D01*
X21767800Y-11582400D02*
X21666200Y-11684000D01*
X21767800Y-11633200D02*
G75*
G03X21767800Y-11633200I-50800J0D01*
G01*
X21666200Y-12090400D02*
X21767800Y-12192000D01*
X21767800Y-12090400D02*
X21666200Y-12192000D01*
X21767800Y-12141200D02*
G75*
G03X21767800Y-12141200I-50800J0D01*
G01*
X21666200Y-12598400D02*
X21767800Y-12700000D01*
X21767800Y-12598400D02*
X21666200Y-12700000D01*
X21767800Y-12649200D02*
G75*
G03X21767800Y-12649200I-50800J0D01*
G01*
X21666200Y-13081000D02*
X21767800Y-13182600D01*
X21767800Y-13081000D02*
X21666200Y-13182600D01*
X21767800Y-13131800D02*
G75*
G03X21767800Y-13131800I-50800J0D01*
G01*
X21666200Y-13614400D02*
X21767800Y-13716000D01*
X21767800Y-13614400D02*
X21666200Y-13716000D01*
X21767800Y-13665200D02*
G75*
G03X21767800Y-13665200I-50800J0D01*
G01*
X21920200Y-13081000D02*
X22021800Y-13182600D01*
X22021800Y-13081000D02*
X21920200Y-13182600D01*
X22021800Y-13131800D02*
G75*
G03X22021800Y-13131800I-50800J0D01*
G01*
X22174200Y-13081000D02*
X22275800Y-13182600D01*
X22275800Y-13081000D02*
X22174200Y-13182600D01*
X22275800Y-13131800D02*
G75*
G03X22275800Y-13131800I-50800J0D01*
G01*
X19696500Y-17307500D02*
X19803500Y-17414500D01*
X19803500Y-17307500D02*
X19696500Y-17414500D01*
X19750000Y-17307500D02*
X19750000Y-17414500D01*
X19696500Y-17361000D02*
X19803500Y-17361000D01*
X19696500Y-19085500D02*
X19803500Y-19192500D01*
X19803500Y-19085500D02*
X19696500Y-19192500D01*
X19750000Y-19085500D02*
X19750000Y-19192500D01*
X19696500Y-19139000D02*
X19803500Y-19139000D01*
X16350056Y-10340056D02*
X16469944Y-10459944D01*
X16469944Y-10340056D02*
X16350056Y-10459944D01*
X16452387Y-10442387D02*
X16452387Y-10357613D01*
X16367613Y-10357613D01*
X16367613Y-10442387D01*
X16452387Y-10442387D01*
X16350056Y-11102056D02*
X16469944Y-11221944D01*
X16469944Y-11102056D02*
X16350056Y-11221944D01*
X16452387Y-11204387D02*
X16452387Y-11119613D01*
X16367613Y-11119613D01*
X16367613Y-11204387D01*
X16452387Y-11204387D01*
X16858056Y-10340056D02*
X16977944Y-10459944D01*
X16977944Y-10340056D02*
X16858056Y-10459944D01*
X16960387Y-10442387D02*
X16960387Y-10357613D01*
X16875613Y-10357613D01*
X16875613Y-10442387D01*
X16960387Y-10442387D01*
X16858056Y-11102056D02*
X16977944Y-11221944D01*
X16977944Y-11102056D02*
X16858056Y-11221944D01*
X16960387Y-11204387D02*
X16960387Y-11119613D01*
X16875613Y-11119613D01*
X16875613Y-11204387D01*
X16960387Y-11204387D01*
X17040056Y-20639990D02*
X17159944Y-20759878D01*
X17159944Y-20639990D02*
X17040056Y-20759878D01*
X17142387Y-20742321D02*
X17142387Y-20657547D01*
X17057613Y-20657547D01*
X17057613Y-20742321D01*
X17142387Y-20742321D01*
X17366056Y-10340056D02*
X17485944Y-10459944D01*
X17485944Y-10340056D02*
X17366056Y-10459944D01*
X17468387Y-10442387D02*
X17468387Y-10357613D01*
X17383613Y-10357613D01*
X17383613Y-10442387D01*
X17468387Y-10442387D01*
X17366056Y-11102056D02*
X17485944Y-11221944D01*
X17485944Y-11102056D02*
X17366056Y-11221944D01*
X17468387Y-11204387D02*
X17468387Y-11119613D01*
X17383613Y-11119613D01*
X17383613Y-11204387D01*
X17468387Y-11204387D01*
X18128056Y-10340056D02*
X18247944Y-10459944D01*
X18247944Y-10340056D02*
X18128056Y-10459944D01*
X18230387Y-10442387D02*
X18230387Y-10357613D01*
X18145613Y-10357613D01*
X18145613Y-10442387D01*
X18230387Y-10442387D01*
X18128056Y-11102056D02*
X18247944Y-11221944D01*
X18247944Y-11102056D02*
X18128056Y-11221944D01*
X18230387Y-11204387D02*
X18230387Y-11119613D01*
X18145613Y-11119613D01*
X18145613Y-11204387D01*
X18230387Y-11204387D01*
X18190044Y-15520040D02*
X18309932Y-15639928D01*
X18309932Y-15520040D02*
X18190044Y-15639928D01*
X18292375Y-15622371D02*
X18292375Y-15537597D01*
X18207601Y-15537597D01*
X18207601Y-15622371D01*
X18292375Y-15622371D01*
X18359970Y-15220066D02*
X18479858Y-15339954D01*
X18479858Y-15220066D02*
X18359970Y-15339954D01*
X18462301Y-15322397D02*
X18462301Y-15237623D01*
X18377527Y-15237623D01*
X18377527Y-15322397D01*
X18462301Y-15322397D01*
X18540056Y-15520040D02*
X18659944Y-15639928D01*
X18659944Y-15520040D02*
X18540056Y-15639928D01*
X18642387Y-15622371D02*
X18642387Y-15537597D01*
X18557613Y-15537597D01*
X18557613Y-15622371D01*
X18642387Y-15622371D01*
X18720142Y-15220066D02*
X18840030Y-15339954D01*
X18840030Y-15220066D02*
X18720142Y-15339954D01*
X18822473Y-15322397D02*
X18822473Y-15237623D01*
X18737699Y-15237623D01*
X18737699Y-15322397D01*
X18822473Y-15322397D01*
X18890068Y-15520040D02*
X19009956Y-15639928D01*
X19009956Y-15520040D02*
X18890068Y-15639928D01*
X18992399Y-15622371D02*
X18992399Y-15537597D01*
X18907625Y-15537597D01*
X18907625Y-15622371D01*
X18992399Y-15622371D01*
X5182500Y-9444500D02*
X5309500Y-9571500D01*
X5309500Y-9444500D02*
X5182500Y-9571500D01*
X5246000Y-9571500D02*
X5309500Y-9508000D01*
X5246000Y-9444500D01*
X5182500Y-9508000D01*
X5246000Y-9571500D01*
X5436500Y-8428500D02*
X5563500Y-8555500D01*
X5563500Y-8428500D02*
X5436500Y-8555500D01*
X5500000Y-8555500D02*
X5563500Y-8492000D01*
X5500000Y-8428500D01*
X5436500Y-8492000D01*
X5500000Y-8555500D01*
X5690500Y-9444500D02*
X5817500Y-9571500D01*
X5817500Y-9444500D02*
X5690500Y-9571500D01*
X5754000Y-9571500D02*
X5817500Y-9508000D01*
X5754000Y-9444500D01*
X5690500Y-9508000D01*
X5754000Y-9571500D01*
X11928500Y-8682500D02*
X12055500Y-8809500D01*
X12055500Y-8682500D02*
X11928500Y-8809500D01*
X11992000Y-8809500D02*
X12055500Y-8746000D01*
X11992000Y-8682500D01*
X11928500Y-8746000D01*
X11992000Y-8809500D01*
X11928500Y-9190500D02*
X12055500Y-9317500D01*
X12055500Y-9190500D02*
X11928500Y-9317500D01*
X11992000Y-9317500D02*
X12055500Y-9254000D01*
X11992000Y-9190500D01*
X11928500Y-9254000D01*
X11992000Y-9317500D01*
X12944500Y-8936500D02*
X13071500Y-9063500D01*
X13071500Y-8936500D02*
X12944500Y-9063500D01*
X13008000Y-9063500D02*
X13071500Y-9000000D01*
X13008000Y-8936500D01*
X12944500Y-9000000D01*
X13008000Y-9063500D01*
X17486500Y-13894500D02*
X17613500Y-14021500D01*
X17613500Y-13894500D02*
X17486500Y-14021500D01*
X17550000Y-14021500D02*
X17613500Y-13958000D01*
X17550000Y-13894500D01*
X17486500Y-13958000D01*
X17550000Y-14021500D01*
X18736500Y-10178500D02*
X18863500Y-10305500D01*
X18863500Y-10178500D02*
X18736500Y-10305500D01*
X18800000Y-10305500D02*
X18863500Y-10242000D01*
X18800000Y-10178500D01*
X18736500Y-10242000D01*
X18800000Y-10305500D01*
X18936500Y-16186500D02*
X19063500Y-16313500D01*
X19063500Y-16186500D02*
X18936500Y-16313500D01*
X19000000Y-16313500D02*
X19063500Y-16250000D01*
X19000000Y-16186500D01*
X18936500Y-16250000D01*
X19000000Y-16313500D01*
X15630000Y-14035000D02*
X15630000Y-14165000D01*
X15565000Y-14100000D02*
X15695000Y-14100000D01*
X15695000Y-14100000D02*
G75*
G03X15695000Y-14100000I-65000J0D01*
G01*
X15635000Y-12830000D02*
X15635000Y-12960000D01*
X15570000Y-12895000D02*
X15700000Y-12895000D01*
X15700000Y-12895000D02*
G75*
G03X15700000Y-12895000I-65000J0D01*
G01*
X17050000Y-13435000D02*
X17050000Y-13565000D01*
X16985000Y-13500000D02*
X17115000Y-13500000D01*
X17115000Y-13500000D02*
G75*
G03X17115000Y-13500000I-65000J0D01*
G01*
X4644098Y-3755098D02*
X4644098Y-3661702D01*
X4550702Y-3661702D01*
X4550702Y-3755098D01*
X4644098Y-3755098D01*
X4663440Y-3708400D02*
G75*
G03X4663440Y-3708400I-66040J0D01*
G01*
X5144098Y-3755098D02*
X5144098Y-3661702D01*
X5050702Y-3661702D01*
X5050702Y-3755098D01*
X5144098Y-3755098D01*
X5163440Y-3708400D02*
G75*
G03X5163440Y-3708400I-66040J0D01*
G01*
X13389698Y-3755098D02*
X13389698Y-3661702D01*
X13296302Y-3661702D01*
X13296302Y-3755098D01*
X13389698Y-3755098D01*
X13409040Y-3708400D02*
G75*
G03X13409040Y-3708400I-66040J0D01*
G01*
X13889698Y-3755098D02*
X13889698Y-3661702D01*
X13796302Y-3661702D01*
X13796302Y-3755098D01*
X13889698Y-3755098D01*
X13909040Y-3708400D02*
G75*
G03X13909040Y-3708400I-66040J0D01*
G01*
X15796698Y-18696698D02*
X15796698Y-18603302D01*
X15703302Y-18603302D01*
X15703302Y-18696698D01*
X15796698Y-18696698D01*
X15816040Y-18650000D02*
G75*
G03X15816040Y-18650000I-66040J0D01*
G01*
X15796698Y-19196698D02*
X15796698Y-19103302D01*
X15703302Y-19103302D01*
X15703302Y-19196698D01*
X15796698Y-19196698D01*
X15816040Y-19150000D02*
G75*
G03X15816040Y-19150000I-66040J0D01*
G01*
X15796698Y-19696698D02*
X15796698Y-19603302D01*
X15703302Y-19603302D01*
X15703302Y-19696698D01*
X15796698Y-19696698D01*
X15816040Y-19650000D02*
G75*
G03X15816040Y-19650000I-66040J0D01*
G01*
X15796698Y-20196698D02*
X15796698Y-20103302D01*
X15703302Y-20103302D01*
X15703302Y-20196698D01*
X15796698Y-20196698D01*
X15816040Y-20150000D02*
G75*
G03X15816040Y-20150000I-66040J0D01*
G01*
X15796698Y-20996698D02*
X15796698Y-20903302D01*
X15703302Y-20903302D01*
X15703302Y-20996698D01*
X15796698Y-20996698D01*
X15816040Y-20950000D02*
G75*
G03X15816040Y-20950000I-66040J0D01*
G01*
X15796698Y-21496698D02*
X15796698Y-21403302D01*
X15703302Y-21403302D01*
X15703302Y-21496698D01*
X15796698Y-21496698D01*
X15816040Y-21450000D02*
G75*
G03X15816040Y-21450000I-66040J0D01*
G01*
X16946698Y-21946698D02*
X16946698Y-21853302D01*
X16853302Y-21853302D01*
X16853302Y-21946698D01*
X16946698Y-21946698D01*
X16966040Y-21900000D02*
G75*
G03X16966040Y-21900000I-66040J0D01*
G01*
X17446698Y-21946698D02*
X17446698Y-21853302D01*
X17353302Y-21853302D01*
X17353302Y-21946698D01*
X17446698Y-21946698D01*
X17466040Y-21900000D02*
G75*
G03X17466040Y-21900000I-66040J0D01*
G01*
X21146698Y-21846698D02*
X21146698Y-21753302D01*
X21053302Y-21753302D01*
X21053302Y-21846698D01*
X21146698Y-21846698D01*
X21166040Y-21800000D02*
G75*
G03X21166040Y-21800000I-66040J0D01*
G01*
X21646698Y-21846698D02*
X21646698Y-21753302D01*
X21553302Y-21753302D01*
X21553302Y-21846698D01*
X21646698Y-21846698D01*
X21666040Y-21800000D02*
G75*
G03X21666040Y-21800000I-66040J0D01*
G01*
X22146698Y-21846698D02*
X22146698Y-21753302D01*
X22053302Y-21753302D01*
X22053302Y-21846698D01*
X22146698Y-21846698D01*
X22166040Y-21800000D02*
G75*
G03X22166040Y-21800000I-66040J0D01*
G01*
X18149926Y-22025057D02*
X18224983Y-21950000D01*
X18149926Y-21874943D01*
X18074869Y-21950000D01*
X18149926Y-22025057D01*
X18224983Y-21950000D02*
G75*
G03X18224983Y-21950000I-75057J0D01*
G01*
X20350074Y-22025057D02*
X20425131Y-21950000D01*
X20350074Y-21874943D01*
X20275017Y-21950000D01*
X20350074Y-22025057D01*
X20425131Y-21950000D02*
G75*
G03X20425131Y-21950000I-75057J0D01*
G01*
X7938000Y-10073800D02*
X7938000Y-10226200D01*
X7861800Y-10150000D02*
X8014200Y-10150000D01*
X7991882Y-10203882D02*
X7991882Y-10096118D01*
X7884118Y-10096118D01*
X7884118Y-10203882D01*
X7991882Y-10203882D01*
X8446000Y-10073800D02*
X8446000Y-10226200D01*
X8369800Y-10150000D02*
X8522200Y-10150000D01*
X8499882Y-10203882D02*
X8499882Y-10096118D01*
X8392118Y-10096118D01*
X8392118Y-10203882D01*
X8499882Y-10203882D01*
X8954000Y-10073800D02*
X8954000Y-10226200D01*
X8877800Y-10150000D02*
X9030200Y-10150000D01*
X9007882Y-10203882D02*
X9007882Y-10096118D01*
X8900118Y-10096118D01*
X8900118Y-10203882D01*
X9007882Y-10203882D01*
X9462000Y-10073800D02*
X9462000Y-10226200D01*
X9385800Y-10150000D02*
X9538200Y-10150000D01*
X9515882Y-10203882D02*
X9515882Y-10096118D01*
X9408118Y-10096118D01*
X9408118Y-10203882D01*
X9515882Y-10203882D01*
X10238000Y-10073800D02*
X10238000Y-10226200D01*
X10161800Y-10150000D02*
X10314200Y-10150000D01*
X10291882Y-10203882D02*
X10291882Y-10096118D01*
X10184118Y-10096118D01*
X10184118Y-10203882D01*
X10291882Y-10203882D01*
X10746000Y-10073800D02*
X10746000Y-10226200D01*
X10669800Y-10150000D02*
X10822200Y-10150000D01*
X10799882Y-10203882D02*
X10799882Y-10096118D01*
X10692118Y-10096118D01*
X10692118Y-10203882D01*
X10799882Y-10203882D01*
X11254000Y-10073800D02*
X11254000Y-10226200D01*
X11177800Y-10150000D02*
X11330200Y-10150000D01*
X11307882Y-10203882D02*
X11307882Y-10096118D01*
X11200118Y-10096118D01*
X11200118Y-10203882D01*
X11307882Y-10203882D01*
X11762000Y-10073800D02*
X11762000Y-10226200D01*
X11685800Y-10150000D02*
X11838200Y-10150000D01*
X11815882Y-10203882D02*
X11815882Y-10096118D01*
X11708118Y-10096118D01*
X11708118Y-10203882D01*
X11815882Y-10203882D01*
X15234000Y-16469990D02*
X15234000Y-16630010D01*
X15153990Y-16550000D02*
X15314010Y-16550000D01*
X15234000Y-16630010D02*
X15314010Y-16550000D01*
X15234000Y-16469990D01*
X15153990Y-16550000D01*
X15234000Y-16630010D01*
X15634000Y-15169990D02*
X15634000Y-15330010D01*
X15553990Y-15250000D02*
X15714010Y-15250000D01*
X15634000Y-15330010D02*
X15714010Y-15250000D01*
X15634000Y-15169990D01*
X15553990Y-15250000D01*
X15634000Y-15330010D01*
X17266000Y-16469990D02*
X17266000Y-16630010D01*
X17185990Y-16550000D02*
X17346010Y-16550000D01*
X17266000Y-16630010D02*
X17346010Y-16550000D01*
X17266000Y-16469990D01*
X17185990Y-16550000D01*
X17266000Y-16630010D01*
X17666000Y-15169990D02*
X17666000Y-15330010D01*
X17585990Y-15250000D02*
X17746010Y-15250000D01*
X17666000Y-15330010D02*
X17746010Y-15250000D01*
X17666000Y-15169990D01*
X17585990Y-15250000D01*
X17666000Y-15330010D01*
X18600000Y-19857990D02*
X18600000Y-20018010D01*
X18519990Y-19938000D02*
X18680010Y-19938000D01*
X18600000Y-20018010D02*
X18680010Y-19938000D01*
X18600000Y-19857990D01*
X18519990Y-19938000D01*
X18600000Y-20018010D01*
X18600000Y-20619990D02*
X18600000Y-20780010D01*
X18519990Y-20700000D02*
X18680010Y-20700000D01*
X18600000Y-20780010D02*
X18680010Y-20700000D01*
X18600000Y-20619990D01*
X18519990Y-20700000D01*
X18600000Y-20780010D01*
X19650000Y-19869990D02*
X19650000Y-20030010D01*
X19569990Y-19950000D02*
X19730010Y-19950000D01*
X19650000Y-20030010D02*
X19730010Y-19950000D01*
X19650000Y-19869990D01*
X19569990Y-19950000D01*
X19650000Y-20030010D01*
X19650000Y-20631990D02*
X19650000Y-20792010D01*
X19569990Y-20712000D02*
X19730010Y-20712000D01*
X19650000Y-20792010D02*
X19730010Y-20712000D01*
X19650000Y-20631990D01*
X19569990Y-20712000D01*
X19650000Y-20792010D01*
X3407600Y-6543987D02*
X3557587Y-6394000D01*
X3407600Y-6244013D01*
X3257613Y-6394000D01*
X3407600Y-6543987D01*
X3513658Y-6500058D02*
X3513658Y-6287942D01*
X3301542Y-6287942D01*
X3301542Y-6500058D01*
X3513658Y-6500058D01*
X6207600Y-10343987D02*
X6357587Y-10194000D01*
X6207600Y-10044013D01*
X6057613Y-10194000D01*
X6207600Y-10343987D01*
X6313658Y-10300058D02*
X6313658Y-10087942D01*
X6101542Y-10087942D01*
X6101542Y-10300058D01*
X6313658Y-10300058D01*
X15407600Y-22343987D02*
X15557587Y-22194000D01*
X15407600Y-22044013D01*
X15257613Y-22194000D01*
X15407600Y-22343987D01*
X15513658Y-22300058D02*
X15513658Y-22087942D01*
X15301542Y-22087942D01*
X15301542Y-22300058D01*
X15513658Y-22300058D01*
X16307600Y-3643987D02*
X16457587Y-3494000D01*
X16307600Y-3344013D01*
X16157613Y-3494000D01*
X16307600Y-3643987D01*
X16413658Y-3600058D02*
X16413658Y-3387942D01*
X16201542Y-3387942D01*
X16201542Y-3600058D01*
X16413658Y-3600058D01*
X17307600Y-3643987D02*
X17457587Y-3494000D01*
X17307600Y-3344013D01*
X17157613Y-3494000D01*
X17307600Y-3643987D01*
X17413658Y-3600058D02*
X17413658Y-3387942D01*
X17201542Y-3387942D01*
X17201542Y-3600058D01*
X17413658Y-3600058D01*
X17307600Y-9443987D02*
X17457587Y-9294000D01*
X17307600Y-9144013D01*
X17157613Y-9294000D01*
X17307600Y-9443987D01*
X17413658Y-9400058D02*
X17413658Y-9187942D01*
X17201542Y-9187942D01*
X17201542Y-9400058D01*
X17413658Y-9400058D01*
X17607600Y-12443987D02*
X17757587Y-12294000D01*
X17607600Y-12144013D01*
X17457613Y-12294000D01*
X17607600Y-12443987D01*
X17713658Y-12400058D02*
X17713658Y-12187942D01*
X17501542Y-12187942D01*
X17501542Y-12400058D01*
X17713658Y-12400058D01*
X21707600Y-20143987D02*
X21857587Y-19994000D01*
X21707600Y-19844013D01*
X21557613Y-19994000D01*
X21707600Y-20143987D01*
X21813658Y-20100058D02*
X21813658Y-19887942D01*
X21601542Y-19887942D01*
X21601542Y-20100058D01*
X21813658Y-20100058D01*
X22207600Y-3643987D02*
X22357587Y-3494000D01*
X22207600Y-3344013D01*
X22057613Y-3494000D01*
X22207600Y-3643987D01*
X22313658Y-3600058D02*
X22313658Y-3387942D01*
X22101542Y-3387942D01*
X22101542Y-3600058D01*
X22313658Y-3600058D01*
X22207600Y-9443987D02*
X22357587Y-9294000D01*
X22207600Y-9144013D01*
X22057613Y-9294000D01*
X22207600Y-9443987D01*
X22313658Y-9400058D02*
X22313658Y-9187942D01*
X22101542Y-9187942D01*
X22101542Y-9400058D01*
X22313658Y-9400058D01*
D13*
X2963928Y-23273214D02*
X2963928Y-22973214D01*
X3035357Y-22973214D01*
X3078214Y-22987500D01*
X3106786Y-23016071D01*
X3121071Y-23044643D01*
X3135357Y-23101786D01*
X3135357Y-23144643D01*
X3121071Y-23201786D01*
X3106786Y-23230357D01*
X3078214Y-23258929D01*
X3035357Y-23273214D01*
X2963928Y-23273214D01*
X3263928Y-23273214D02*
X3263928Y-23073214D01*
X3263928Y-23130357D02*
X3278214Y-23101786D01*
X3292500Y-23087500D01*
X3321071Y-23073214D01*
X3349643Y-23073214D01*
X3449643Y-23273214D02*
X3449643Y-23073214D01*
X3449643Y-22973214D02*
X3435357Y-22987500D01*
X3449643Y-23001786D01*
X3463928Y-22987500D01*
X3449643Y-22973214D01*
X3449643Y-23001786D01*
X3635357Y-23273214D02*
X3606786Y-23258929D01*
X3592500Y-23230357D01*
X3592500Y-22973214D01*
X3792500Y-23273214D02*
X3763928Y-23258929D01*
X3749643Y-23230357D01*
X3749643Y-22973214D01*
X4135357Y-23273214D02*
X4135357Y-22973214D01*
X4235357Y-23187500D01*
X4335357Y-22973214D01*
X4335357Y-23273214D01*
X4606786Y-23273214D02*
X4606786Y-23116071D01*
X4592500Y-23087500D01*
X4563929Y-23073214D01*
X4506786Y-23073214D01*
X4478214Y-23087500D01*
X4606786Y-23258929D02*
X4578214Y-23273214D01*
X4506786Y-23273214D01*
X4478214Y-23258929D01*
X4463929Y-23230357D01*
X4463929Y-23201786D01*
X4478214Y-23173214D01*
X4506786Y-23158929D01*
X4578214Y-23158929D01*
X4606786Y-23144643D01*
X4749643Y-23073214D02*
X4749643Y-23373214D01*
X4749643Y-23087500D02*
X4778214Y-23073214D01*
X4835357Y-23073214D01*
X4863929Y-23087500D01*
X4878214Y-23101786D01*
X4892500Y-23130357D01*
X4892500Y-23216071D01*
X4878214Y-23244643D01*
X4863929Y-23258929D01*
X4835357Y-23273214D01*
X4778214Y-23273214D01*
X4749643Y-23258929D01*
X5021071Y-23244643D02*
X5035357Y-23258929D01*
X5021071Y-23273214D01*
X5006786Y-23258929D01*
X5021071Y-23244643D01*
X5021071Y-23273214D01*
X5021071Y-23087500D02*
X5035357Y-23101786D01*
X5021071Y-23116071D01*
X5006786Y-23101786D01*
X5021071Y-23087500D01*
X5021071Y-23116071D01*
X2629000Y-23735750D02*
X2692500Y-23799250D01*
X2692500Y-23735750D02*
X2629000Y-23799250D01*
X3021071Y-23603214D02*
X3049643Y-23603214D01*
X3078214Y-23617500D01*
X3092500Y-23631786D01*
X3106786Y-23660357D01*
X3121071Y-23717500D01*
X3121071Y-23788929D01*
X3106786Y-23846071D01*
X3092500Y-23874643D01*
X3078214Y-23888929D01*
X3049643Y-23903214D01*
X3021071Y-23903214D01*
X2992500Y-23888929D01*
X2978214Y-23874643D01*
X2963928Y-23846071D01*
X2949643Y-23788929D01*
X2949643Y-23717500D01*
X2963928Y-23660357D01*
X2978214Y-23631786D01*
X2992500Y-23617500D01*
X3021071Y-23603214D01*
X3249643Y-23874643D02*
X3263928Y-23888929D01*
X3249643Y-23903214D01*
X3235357Y-23888929D01*
X3249643Y-23874643D01*
X3249643Y-23903214D01*
X3521071Y-23603214D02*
X3463928Y-23603214D01*
X3435357Y-23617500D01*
X3421071Y-23631786D01*
X3392500Y-23674643D01*
X3378214Y-23731786D01*
X3378214Y-23846071D01*
X3392500Y-23874643D01*
X3406786Y-23888929D01*
X3435357Y-23903214D01*
X3492500Y-23903214D01*
X3521071Y-23888929D01*
X3535357Y-23874643D01*
X3549643Y-23846071D01*
X3549643Y-23774643D01*
X3535357Y-23746071D01*
X3521071Y-23731786D01*
X3492500Y-23717500D01*
X3435357Y-23717500D01*
X3406786Y-23731786D01*
X3392500Y-23746071D01*
X3378214Y-23774643D01*
X3806786Y-23703214D02*
X3806786Y-23903214D01*
X3735357Y-23588929D02*
X3663928Y-23803214D01*
X3849643Y-23803214D01*
X3963928Y-23903214D02*
X3963928Y-23703214D01*
X3963928Y-23731786D02*
X3978214Y-23717500D01*
X4006786Y-23703214D01*
X4049643Y-23703214D01*
X4078214Y-23717500D01*
X4092500Y-23746071D01*
X4092500Y-23903214D01*
X4092500Y-23746071D02*
X4106786Y-23717500D01*
X4135357Y-23703214D01*
X4178214Y-23703214D01*
X4206786Y-23717500D01*
X4221071Y-23746071D01*
X4221071Y-23903214D01*
X4363929Y-23903214D02*
X4363929Y-23703214D01*
X4363929Y-23731786D02*
X4378214Y-23717500D01*
X4406786Y-23703214D01*
X4449643Y-23703214D01*
X4478214Y-23717500D01*
X4492500Y-23746071D01*
X4492500Y-23903214D01*
X4492500Y-23746071D02*
X4506786Y-23717500D01*
X4535357Y-23703214D01*
X4578214Y-23703214D01*
X4606786Y-23717500D01*
X4621071Y-23746071D01*
X4621071Y-23903214D01*
X5206786Y-23588929D02*
X4949643Y-23974643D01*
X5592500Y-23603214D02*
X5621071Y-23603214D01*
X5649643Y-23617500D01*
X5663928Y-23631786D01*
X5678214Y-23660357D01*
X5692500Y-23717500D01*
X5692500Y-23788929D01*
X5678214Y-23846071D01*
X5663928Y-23874643D01*
X5649643Y-23888929D01*
X5621071Y-23903214D01*
X5592500Y-23903214D01*
X5563928Y-23888929D01*
X5549643Y-23874643D01*
X5535357Y-23846071D01*
X5521071Y-23788929D01*
X5521071Y-23717500D01*
X5535357Y-23660357D01*
X5549643Y-23631786D01*
X5563928Y-23617500D01*
X5592500Y-23603214D01*
X5821071Y-23874643D02*
X5835357Y-23888929D01*
X5821071Y-23903214D01*
X5806786Y-23888929D01*
X5821071Y-23874643D01*
X5821071Y-23903214D01*
X6021071Y-23603214D02*
X6049643Y-23603214D01*
X6078214Y-23617500D01*
X6092500Y-23631786D01*
X6106785Y-23660357D01*
X6121071Y-23717500D01*
X6121071Y-23788929D01*
X6106785Y-23846071D01*
X6092500Y-23874643D01*
X6078214Y-23888929D01*
X6049643Y-23903214D01*
X6021071Y-23903214D01*
X5992500Y-23888929D01*
X5978214Y-23874643D01*
X5963928Y-23846071D01*
X5949643Y-23788929D01*
X5949643Y-23717500D01*
X5963928Y-23660357D01*
X5978214Y-23631786D01*
X5992500Y-23617500D01*
X6021071Y-23603214D01*
X6235357Y-23631786D02*
X6249643Y-23617500D01*
X6278214Y-23603214D01*
X6349643Y-23603214D01*
X6378214Y-23617500D01*
X6392500Y-23631786D01*
X6406785Y-23660357D01*
X6406785Y-23688929D01*
X6392500Y-23731786D01*
X6221071Y-23903214D01*
X6406785Y-23903214D01*
X6678214Y-23603214D02*
X6535357Y-23603214D01*
X6521071Y-23746071D01*
X6535357Y-23731786D01*
X6563928Y-23717500D01*
X6635357Y-23717500D01*
X6663928Y-23731786D01*
X6678214Y-23746071D01*
X6692500Y-23774643D01*
X6692500Y-23846071D01*
X6678214Y-23874643D01*
X6663928Y-23888929D01*
X6635357Y-23903214D01*
X6563928Y-23903214D01*
X6535357Y-23888929D01*
X6521071Y-23874643D01*
X6806786Y-23603214D02*
X6806786Y-23660357D01*
X6921071Y-23603214D02*
X6921071Y-23660357D01*
X7363928Y-24017500D02*
X7349643Y-24003214D01*
X7321071Y-23960357D01*
X7306785Y-23931786D01*
X7292500Y-23888929D01*
X7278214Y-23817500D01*
X7278214Y-23760357D01*
X7292500Y-23688929D01*
X7306785Y-23646071D01*
X7321071Y-23617500D01*
X7349643Y-23574643D01*
X7363928Y-23560357D01*
X7621071Y-23603214D02*
X7478214Y-23603214D01*
X7463928Y-23746071D01*
X7478214Y-23731786D01*
X7506785Y-23717500D01*
X7578214Y-23717500D01*
X7606785Y-23731786D01*
X7621071Y-23746071D01*
X7635357Y-23774643D01*
X7635357Y-23846071D01*
X7621071Y-23874643D01*
X7606785Y-23888929D01*
X7578214Y-23903214D01*
X7506785Y-23903214D01*
X7478214Y-23888929D01*
X7463928Y-23874643D01*
X7921071Y-23903214D02*
X7749643Y-23903214D01*
X7835357Y-23903214D02*
X7835357Y-23603214D01*
X7806785Y-23646071D01*
X7778214Y-23674643D01*
X7749643Y-23688929D01*
X8278214Y-23903214D02*
X8278214Y-23603214D01*
X8406786Y-23903214D02*
X8406786Y-23746071D01*
X8392500Y-23717500D01*
X8363928Y-23703214D01*
X8321071Y-23703214D01*
X8292500Y-23717500D01*
X8278214Y-23731786D01*
X8592500Y-23903214D02*
X8563928Y-23888929D01*
X8549643Y-23874643D01*
X8535357Y-23846071D01*
X8535357Y-23760357D01*
X8549643Y-23731786D01*
X8563928Y-23717500D01*
X8592500Y-23703214D01*
X8635357Y-23703214D01*
X8663928Y-23717500D01*
X8678214Y-23731786D01*
X8692500Y-23760357D01*
X8692500Y-23846071D01*
X8678214Y-23874643D01*
X8663928Y-23888929D01*
X8635357Y-23903214D01*
X8592500Y-23903214D01*
X8863928Y-23903214D02*
X8835357Y-23888929D01*
X8821071Y-23860357D01*
X8821071Y-23603214D01*
X9092500Y-23888929D02*
X9063929Y-23903214D01*
X9006786Y-23903214D01*
X8978214Y-23888929D01*
X8963929Y-23860357D01*
X8963929Y-23746071D01*
X8978214Y-23717500D01*
X9006786Y-23703214D01*
X9063929Y-23703214D01*
X9092500Y-23717500D01*
X9106786Y-23746071D01*
X9106786Y-23774643D01*
X8963929Y-23803214D01*
X9221071Y-23888929D02*
X9249643Y-23903214D01*
X9306786Y-23903214D01*
X9335357Y-23888929D01*
X9349643Y-23860357D01*
X9349643Y-23846071D01*
X9335357Y-23817500D01*
X9306786Y-23803214D01*
X9263929Y-23803214D01*
X9235357Y-23788929D01*
X9221071Y-23760357D01*
X9221071Y-23746071D01*
X9235357Y-23717500D01*
X9263929Y-23703214D01*
X9306786Y-23703214D01*
X9335357Y-23717500D01*
X9449643Y-24017500D02*
X9463929Y-24003214D01*
X9492500Y-23960357D01*
X9506786Y-23931786D01*
X9521071Y-23888929D01*
X9535357Y-23817500D01*
X9535357Y-23760357D01*
X9521071Y-23688929D01*
X9506786Y-23646071D01*
X9492500Y-23617500D01*
X9463929Y-23574643D01*
X9449643Y-23560357D01*
X2692500Y-24163500D02*
G75*
G03X2692500Y-24163500I-40005J0D01*
G01*
X3021071Y-23999214D02*
X3049643Y-23999214D01*
X3078214Y-24013500D01*
X3092500Y-24027786D01*
X3106786Y-24056357D01*
X3121071Y-24113500D01*
X3121071Y-24184929D01*
X3106786Y-24242071D01*
X3092500Y-24270643D01*
X3078214Y-24284929D01*
X3049643Y-24299214D01*
X3021071Y-24299214D01*
X2992500Y-24284929D01*
X2978214Y-24270643D01*
X2963928Y-24242071D01*
X2949643Y-24184929D01*
X2949643Y-24113500D01*
X2963928Y-24056357D01*
X2978214Y-24027786D01*
X2992500Y-24013500D01*
X3021071Y-23999214D01*
X3249643Y-24270643D02*
X3263928Y-24284929D01*
X3249643Y-24299214D01*
X3235357Y-24284929D01*
X3249643Y-24270643D01*
X3249643Y-24299214D01*
X3435357Y-24127786D02*
X3406786Y-24113500D01*
X3392500Y-24099214D01*
X3378214Y-24070643D01*
X3378214Y-24056357D01*
X3392500Y-24027786D01*
X3406786Y-24013500D01*
X3435357Y-23999214D01*
X3492500Y-23999214D01*
X3521071Y-24013500D01*
X3535357Y-24027786D01*
X3549643Y-24056357D01*
X3549643Y-24070643D01*
X3535357Y-24099214D01*
X3521071Y-24113500D01*
X3492500Y-24127786D01*
X3435357Y-24127786D01*
X3406786Y-24142071D01*
X3392500Y-24156357D01*
X3378214Y-24184929D01*
X3378214Y-24242071D01*
X3392500Y-24270643D01*
X3406786Y-24284929D01*
X3435357Y-24299214D01*
X3492500Y-24299214D01*
X3521071Y-24284929D01*
X3535357Y-24270643D01*
X3549643Y-24242071D01*
X3549643Y-24184929D01*
X3535357Y-24156357D01*
X3521071Y-24142071D01*
X3492500Y-24127786D01*
X3735357Y-23999214D02*
X3763928Y-23999214D01*
X3792500Y-24013500D01*
X3806786Y-24027786D01*
X3821071Y-24056357D01*
X3835357Y-24113500D01*
X3835357Y-24184929D01*
X3821071Y-24242071D01*
X3806786Y-24270643D01*
X3792500Y-24284929D01*
X3763928Y-24299214D01*
X3735357Y-24299214D01*
X3706786Y-24284929D01*
X3692500Y-24270643D01*
X3678214Y-24242071D01*
X3663928Y-24184929D01*
X3663928Y-24113500D01*
X3678214Y-24056357D01*
X3692500Y-24027786D01*
X3706786Y-24013500D01*
X3735357Y-23999214D01*
X3963928Y-24299214D02*
X3963928Y-24099214D01*
X3963928Y-24127786D02*
X3978214Y-24113500D01*
X4006786Y-24099214D01*
X4049643Y-24099214D01*
X4078214Y-24113500D01*
X4092500Y-24142071D01*
X4092500Y-24299214D01*
X4092500Y-24142071D02*
X4106786Y-24113500D01*
X4135357Y-24099214D01*
X4178214Y-24099214D01*
X4206786Y-24113500D01*
X4221071Y-24142071D01*
X4221071Y-24299214D01*
X4363929Y-24299214D02*
X4363929Y-24099214D01*
X4363929Y-24127786D02*
X4378214Y-24113500D01*
X4406786Y-24099214D01*
X4449643Y-24099214D01*
X4478214Y-24113500D01*
X4492500Y-24142071D01*
X4492500Y-24299214D01*
X4492500Y-24142071D02*
X4506786Y-24113500D01*
X4535357Y-24099214D01*
X4578214Y-24099214D01*
X4606786Y-24113500D01*
X4621071Y-24142071D01*
X4621071Y-24299214D01*
X5206786Y-23984929D02*
X4949643Y-24370643D01*
X5592500Y-23999214D02*
X5621071Y-23999214D01*
X5649643Y-24013500D01*
X5663928Y-24027786D01*
X5678214Y-24056357D01*
X5692500Y-24113500D01*
X5692500Y-24184929D01*
X5678214Y-24242071D01*
X5663928Y-24270643D01*
X5649643Y-24284929D01*
X5621071Y-24299214D01*
X5592500Y-24299214D01*
X5563928Y-24284929D01*
X5549643Y-24270643D01*
X5535357Y-24242071D01*
X5521071Y-24184929D01*
X5521071Y-24113500D01*
X5535357Y-24056357D01*
X5549643Y-24027786D01*
X5563928Y-24013500D01*
X5592500Y-23999214D01*
X5821071Y-24270643D02*
X5835357Y-24284929D01*
X5821071Y-24299214D01*
X5806786Y-24284929D01*
X5821071Y-24270643D01*
X5821071Y-24299214D01*
X6021071Y-23999214D02*
X6049643Y-23999214D01*
X6078214Y-24013500D01*
X6092500Y-24027786D01*
X6106785Y-24056357D01*
X6121071Y-24113500D01*
X6121071Y-24184929D01*
X6106785Y-24242071D01*
X6092500Y-24270643D01*
X6078214Y-24284929D01*
X6049643Y-24299214D01*
X6021071Y-24299214D01*
X5992500Y-24284929D01*
X5978214Y-24270643D01*
X5963928Y-24242071D01*
X5949643Y-24184929D01*
X5949643Y-24113500D01*
X5963928Y-24056357D01*
X5978214Y-24027786D01*
X5992500Y-24013500D01*
X6021071Y-23999214D01*
X6221071Y-23999214D02*
X6406785Y-23999214D01*
X6306785Y-24113500D01*
X6349643Y-24113500D01*
X6378214Y-24127786D01*
X6392500Y-24142071D01*
X6406785Y-24170643D01*
X6406785Y-24242071D01*
X6392500Y-24270643D01*
X6378214Y-24284929D01*
X6349643Y-24299214D01*
X6263928Y-24299214D01*
X6235357Y-24284929D01*
X6221071Y-24270643D01*
X6521071Y-24027786D02*
X6535357Y-24013500D01*
X6563928Y-23999214D01*
X6635357Y-23999214D01*
X6663928Y-24013500D01*
X6678214Y-24027786D01*
X6692500Y-24056357D01*
X6692500Y-24084929D01*
X6678214Y-24127786D01*
X6506785Y-24299214D01*
X6692500Y-24299214D01*
X6806786Y-23999214D02*
X6806786Y-24056357D01*
X6921071Y-23999214D02*
X6921071Y-24056357D01*
X7363928Y-24413500D02*
X7349643Y-24399214D01*
X7321071Y-24356357D01*
X7306785Y-24327786D01*
X7292500Y-24284929D01*
X7278214Y-24213500D01*
X7278214Y-24156357D01*
X7292500Y-24084929D01*
X7306785Y-24042071D01*
X7321071Y-24013500D01*
X7349643Y-23970643D01*
X7363928Y-23956357D01*
X7463928Y-24027786D02*
X7478214Y-24013500D01*
X7506785Y-23999214D01*
X7578214Y-23999214D01*
X7606785Y-24013500D01*
X7621071Y-24027786D01*
X7635357Y-24056357D01*
X7635357Y-24084929D01*
X7621071Y-24127786D01*
X7449643Y-24299214D01*
X7635357Y-24299214D01*
X7806785Y-24127786D02*
X7778214Y-24113500D01*
X7763928Y-24099214D01*
X7749643Y-24070643D01*
X7749643Y-24056357D01*
X7763928Y-24027786D01*
X7778214Y-24013500D01*
X7806785Y-23999214D01*
X7863928Y-23999214D01*
X7892500Y-24013500D01*
X7906785Y-24027786D01*
X7921071Y-24056357D01*
X7921071Y-24070643D01*
X7906785Y-24099214D01*
X7892500Y-24113500D01*
X7863928Y-24127786D01*
X7806785Y-24127786D01*
X7778214Y-24142071D01*
X7763928Y-24156357D01*
X7749643Y-24184929D01*
X7749643Y-24242071D01*
X7763928Y-24270643D01*
X7778214Y-24284929D01*
X7806785Y-24299214D01*
X7863928Y-24299214D01*
X7892500Y-24284929D01*
X7906785Y-24270643D01*
X7921071Y-24242071D01*
X7921071Y-24184929D01*
X7906785Y-24156357D01*
X7892500Y-24142071D01*
X7863928Y-24127786D01*
X8278214Y-24299214D02*
X8278214Y-23999214D01*
X8406786Y-24299214D02*
X8406786Y-24142071D01*
X8392500Y-24113500D01*
X8363928Y-24099214D01*
X8321071Y-24099214D01*
X8292500Y-24113500D01*
X8278214Y-24127786D01*
X8592500Y-24299214D02*
X8563928Y-24284929D01*
X8549643Y-24270643D01*
X8535357Y-24242071D01*
X8535357Y-24156357D01*
X8549643Y-24127786D01*
X8563928Y-24113500D01*
X8592500Y-24099214D01*
X8635357Y-24099214D01*
X8663928Y-24113500D01*
X8678214Y-24127786D01*
X8692500Y-24156357D01*
X8692500Y-24242071D01*
X8678214Y-24270643D01*
X8663928Y-24284929D01*
X8635357Y-24299214D01*
X8592500Y-24299214D01*
X8863928Y-24299214D02*
X8835357Y-24284929D01*
X8821071Y-24256357D01*
X8821071Y-23999214D01*
X9092500Y-24284929D02*
X9063929Y-24299214D01*
X9006786Y-24299214D01*
X8978214Y-24284929D01*
X8963929Y-24256357D01*
X8963929Y-24142071D01*
X8978214Y-24113500D01*
X9006786Y-24099214D01*
X9063929Y-24099214D01*
X9092500Y-24113500D01*
X9106786Y-24142071D01*
X9106786Y-24170643D01*
X8963929Y-24199214D01*
X9221071Y-24284929D02*
X9249643Y-24299214D01*
X9306786Y-24299214D01*
X9335357Y-24284929D01*
X9349643Y-24256357D01*
X9349643Y-24242071D01*
X9335357Y-24213500D01*
X9306786Y-24199214D01*
X9263929Y-24199214D01*
X9235357Y-24184929D01*
X9221071Y-24156357D01*
X9221071Y-24142071D01*
X9235357Y-24113500D01*
X9263929Y-24099214D01*
X9306786Y-24099214D01*
X9335357Y-24113500D01*
X9449643Y-24413500D02*
X9463929Y-24399214D01*
X9492500Y-24356357D01*
X9506786Y-24327786D01*
X9521071Y-24284929D01*
X9535357Y-24213500D01*
X9535357Y-24156357D01*
X9521071Y-24084929D01*
X9506786Y-24042071D01*
X9492500Y-24013500D01*
X9463929Y-23970643D01*
X9449643Y-23956357D01*
X2651860Y-24518860D02*
X2651860Y-24600140D01*
X2611220Y-24559500D02*
X2692500Y-24559500D01*
X3021071Y-24395214D02*
X3049643Y-24395214D01*
X3078214Y-24409500D01*
X3092500Y-24423786D01*
X3106786Y-24452357D01*
X3121071Y-24509500D01*
X3121071Y-24580929D01*
X3106786Y-24638071D01*
X3092500Y-24666643D01*
X3078214Y-24680929D01*
X3049643Y-24695214D01*
X3021071Y-24695214D01*
X2992500Y-24680929D01*
X2978214Y-24666643D01*
X2963928Y-24638071D01*
X2949643Y-24580929D01*
X2949643Y-24509500D01*
X2963928Y-24452357D01*
X2978214Y-24423786D01*
X2992500Y-24409500D01*
X3021071Y-24395214D01*
X3249643Y-24666643D02*
X3263928Y-24680929D01*
X3249643Y-24695214D01*
X3235357Y-24680929D01*
X3249643Y-24666643D01*
X3249643Y-24695214D01*
X3435357Y-24523786D02*
X3406786Y-24509500D01*
X3392500Y-24495214D01*
X3378214Y-24466643D01*
X3378214Y-24452357D01*
X3392500Y-24423786D01*
X3406786Y-24409500D01*
X3435357Y-24395214D01*
X3492500Y-24395214D01*
X3521071Y-24409500D01*
X3535357Y-24423786D01*
X3549643Y-24452357D01*
X3549643Y-24466643D01*
X3535357Y-24495214D01*
X3521071Y-24509500D01*
X3492500Y-24523786D01*
X3435357Y-24523786D01*
X3406786Y-24538071D01*
X3392500Y-24552357D01*
X3378214Y-24580929D01*
X3378214Y-24638071D01*
X3392500Y-24666643D01*
X3406786Y-24680929D01*
X3435357Y-24695214D01*
X3492500Y-24695214D01*
X3521071Y-24680929D01*
X3535357Y-24666643D01*
X3549643Y-24638071D01*
X3549643Y-24580929D01*
X3535357Y-24552357D01*
X3521071Y-24538071D01*
X3492500Y-24523786D01*
X3835357Y-24695214D02*
X3663928Y-24695214D01*
X3749643Y-24695214D02*
X3749643Y-24395214D01*
X3721071Y-24438071D01*
X3692500Y-24466643D01*
X3663928Y-24480929D01*
X3963928Y-24695214D02*
X3963928Y-24495214D01*
X3963928Y-24523786D02*
X3978214Y-24509500D01*
X4006786Y-24495214D01*
X4049643Y-24495214D01*
X4078214Y-24509500D01*
X4092500Y-24538071D01*
X4092500Y-24695214D01*
X4092500Y-24538071D02*
X4106786Y-24509500D01*
X4135357Y-24495214D01*
X4178214Y-24495214D01*
X4206786Y-24509500D01*
X4221071Y-24538071D01*
X4221071Y-24695214D01*
X4363929Y-24695214D02*
X4363929Y-24495214D01*
X4363929Y-24523786D02*
X4378214Y-24509500D01*
X4406786Y-24495214D01*
X4449643Y-24495214D01*
X4478214Y-24509500D01*
X4492500Y-24538071D01*
X4492500Y-24695214D01*
X4492500Y-24538071D02*
X4506786Y-24509500D01*
X4535357Y-24495214D01*
X4578214Y-24495214D01*
X4606786Y-24509500D01*
X4621071Y-24538071D01*
X4621071Y-24695214D01*
X5206786Y-24380929D02*
X4949643Y-24766643D01*
X5592500Y-24395214D02*
X5621071Y-24395214D01*
X5649643Y-24409500D01*
X5663928Y-24423786D01*
X5678214Y-24452357D01*
X5692500Y-24509500D01*
X5692500Y-24580929D01*
X5678214Y-24638071D01*
X5663928Y-24666643D01*
X5649643Y-24680929D01*
X5621071Y-24695214D01*
X5592500Y-24695214D01*
X5563928Y-24680929D01*
X5549643Y-24666643D01*
X5535357Y-24638071D01*
X5521071Y-24580929D01*
X5521071Y-24509500D01*
X5535357Y-24452357D01*
X5549643Y-24423786D01*
X5563928Y-24409500D01*
X5592500Y-24395214D01*
X5821071Y-24666643D02*
X5835357Y-24680929D01*
X5821071Y-24695214D01*
X5806786Y-24680929D01*
X5821071Y-24666643D01*
X5821071Y-24695214D01*
X6021071Y-24395214D02*
X6049643Y-24395214D01*
X6078214Y-24409500D01*
X6092500Y-24423786D01*
X6106785Y-24452357D01*
X6121071Y-24509500D01*
X6121071Y-24580929D01*
X6106785Y-24638071D01*
X6092500Y-24666643D01*
X6078214Y-24680929D01*
X6049643Y-24695214D01*
X6021071Y-24695214D01*
X5992500Y-24680929D01*
X5978214Y-24666643D01*
X5963928Y-24638071D01*
X5949643Y-24580929D01*
X5949643Y-24509500D01*
X5963928Y-24452357D01*
X5978214Y-24423786D01*
X5992500Y-24409500D01*
X6021071Y-24395214D01*
X6221071Y-24395214D02*
X6406785Y-24395214D01*
X6306785Y-24509500D01*
X6349643Y-24509500D01*
X6378214Y-24523786D01*
X6392500Y-24538071D01*
X6406785Y-24566643D01*
X6406785Y-24638071D01*
X6392500Y-24666643D01*
X6378214Y-24680929D01*
X6349643Y-24695214D01*
X6263928Y-24695214D01*
X6235357Y-24680929D01*
X6221071Y-24666643D01*
X6521071Y-24423786D02*
X6535357Y-24409500D01*
X6563928Y-24395214D01*
X6635357Y-24395214D01*
X6663928Y-24409500D01*
X6678214Y-24423786D01*
X6692500Y-24452357D01*
X6692500Y-24480929D01*
X6678214Y-24523786D01*
X6506785Y-24695214D01*
X6692500Y-24695214D01*
X6806786Y-24395214D02*
X6806786Y-24452357D01*
X6921071Y-24395214D02*
X6921071Y-24452357D01*
X7363928Y-24809500D02*
X7349643Y-24795214D01*
X7321071Y-24752357D01*
X7306785Y-24723786D01*
X7292500Y-24680929D01*
X7278214Y-24609500D01*
X7278214Y-24552357D01*
X7292500Y-24480929D01*
X7306785Y-24438071D01*
X7321071Y-24409500D01*
X7349643Y-24366643D01*
X7363928Y-24352357D01*
X7635357Y-24695214D02*
X7463928Y-24695214D01*
X7549643Y-24695214D02*
X7549643Y-24395214D01*
X7521071Y-24438071D01*
X7492500Y-24466643D01*
X7463928Y-24480929D01*
X7749643Y-24423786D02*
X7763928Y-24409500D01*
X7792500Y-24395214D01*
X7863928Y-24395214D01*
X7892500Y-24409500D01*
X7906785Y-24423786D01*
X7921071Y-24452357D01*
X7921071Y-24480929D01*
X7906785Y-24523786D01*
X7735357Y-24695214D01*
X7921071Y-24695214D01*
X8278214Y-24695214D02*
X8278214Y-24395214D01*
X8406786Y-24695214D02*
X8406786Y-24538071D01*
X8392500Y-24509500D01*
X8363928Y-24495214D01*
X8321071Y-24495214D01*
X8292500Y-24509500D01*
X8278214Y-24523786D01*
X8592500Y-24695214D02*
X8563928Y-24680929D01*
X8549643Y-24666643D01*
X8535357Y-24638071D01*
X8535357Y-24552357D01*
X8549643Y-24523786D01*
X8563928Y-24509500D01*
X8592500Y-24495214D01*
X8635357Y-24495214D01*
X8663928Y-24509500D01*
X8678214Y-24523786D01*
X8692500Y-24552357D01*
X8692500Y-24638071D01*
X8678214Y-24666643D01*
X8663928Y-24680929D01*
X8635357Y-24695214D01*
X8592500Y-24695214D01*
X8863928Y-24695214D02*
X8835357Y-24680929D01*
X8821071Y-24652357D01*
X8821071Y-24395214D01*
X9092500Y-24680929D02*
X9063929Y-24695214D01*
X9006786Y-24695214D01*
X8978214Y-24680929D01*
X8963929Y-24652357D01*
X8963929Y-24538071D01*
X8978214Y-24509500D01*
X9006786Y-24495214D01*
X9063929Y-24495214D01*
X9092500Y-24509500D01*
X9106786Y-24538071D01*
X9106786Y-24566643D01*
X8963929Y-24595214D01*
X9221071Y-24680929D02*
X9249643Y-24695214D01*
X9306786Y-24695214D01*
X9335357Y-24680929D01*
X9349643Y-24652357D01*
X9349643Y-24638071D01*
X9335357Y-24609500D01*
X9306786Y-24595214D01*
X9263929Y-24595214D01*
X9235357Y-24580929D01*
X9221071Y-24552357D01*
X9221071Y-24538071D01*
X9235357Y-24509500D01*
X9263929Y-24495214D01*
X9306786Y-24495214D01*
X9335357Y-24509500D01*
X9449643Y-24809500D02*
X9463929Y-24795214D01*
X9492500Y-24752357D01*
X9506786Y-24723786D01*
X9521071Y-24680929D01*
X9535357Y-24609500D01*
X9535357Y-24552357D01*
X9521071Y-24480929D01*
X9506786Y-24438071D01*
X9492500Y-24409500D01*
X9463929Y-24366643D01*
X9449643Y-24352357D01*
X2677856Y-24990856D02*
X2677856Y-24920144D01*
X2607144Y-24920144D01*
X2607144Y-24990856D01*
X2677856Y-24990856D01*
X3121071Y-25091214D02*
X2949643Y-25091214D01*
X3035357Y-25091214D02*
X3035357Y-24791214D01*
X3006786Y-24834071D01*
X2978214Y-24862643D01*
X2949643Y-24876929D01*
X3249643Y-25062643D02*
X3263928Y-25076929D01*
X3249643Y-25091214D01*
X3235357Y-25076929D01*
X3249643Y-25062643D01*
X3249643Y-25091214D01*
X3449643Y-24791214D02*
X3478214Y-24791214D01*
X3506786Y-24805500D01*
X3521071Y-24819786D01*
X3535357Y-24848357D01*
X3549643Y-24905500D01*
X3549643Y-24976929D01*
X3535357Y-25034071D01*
X3521071Y-25062643D01*
X3506786Y-25076929D01*
X3478214Y-25091214D01*
X3449643Y-25091214D01*
X3421071Y-25076929D01*
X3406786Y-25062643D01*
X3392500Y-25034071D01*
X3378214Y-24976929D01*
X3378214Y-24905500D01*
X3392500Y-24848357D01*
X3406786Y-24819786D01*
X3421071Y-24805500D01*
X3449643Y-24791214D01*
X3735357Y-24791214D02*
X3763928Y-24791214D01*
X3792500Y-24805500D01*
X3806786Y-24819786D01*
X3821071Y-24848357D01*
X3835357Y-24905500D01*
X3835357Y-24976929D01*
X3821071Y-25034071D01*
X3806786Y-25062643D01*
X3792500Y-25076929D01*
X3763928Y-25091214D01*
X3735357Y-25091214D01*
X3706786Y-25076929D01*
X3692500Y-25062643D01*
X3678214Y-25034071D01*
X3663928Y-24976929D01*
X3663928Y-24905500D01*
X3678214Y-24848357D01*
X3692500Y-24819786D01*
X3706786Y-24805500D01*
X3735357Y-24791214D01*
X3963928Y-25091214D02*
X3963928Y-24891214D01*
X3963928Y-24919786D02*
X3978214Y-24905500D01*
X4006786Y-24891214D01*
X4049643Y-24891214D01*
X4078214Y-24905500D01*
X4092500Y-24934071D01*
X4092500Y-25091214D01*
X4092500Y-24934071D02*
X4106786Y-24905500D01*
X4135357Y-24891214D01*
X4178214Y-24891214D01*
X4206786Y-24905500D01*
X4221071Y-24934071D01*
X4221071Y-25091214D01*
X4363929Y-25091214D02*
X4363929Y-24891214D01*
X4363929Y-24919786D02*
X4378214Y-24905500D01*
X4406786Y-24891214D01*
X4449643Y-24891214D01*
X4478214Y-24905500D01*
X4492500Y-24934071D01*
X4492500Y-25091214D01*
X4492500Y-24934071D02*
X4506786Y-24905500D01*
X4535357Y-24891214D01*
X4578214Y-24891214D01*
X4606786Y-24905500D01*
X4621071Y-24934071D01*
X4621071Y-25091214D01*
X5206786Y-24776929D02*
X4949643Y-25162643D01*
X5592500Y-24791214D02*
X5621071Y-24791214D01*
X5649643Y-24805500D01*
X5663928Y-24819786D01*
X5678214Y-24848357D01*
X5692500Y-24905500D01*
X5692500Y-24976929D01*
X5678214Y-25034071D01*
X5663928Y-25062643D01*
X5649643Y-25076929D01*
X5621071Y-25091214D01*
X5592500Y-25091214D01*
X5563928Y-25076929D01*
X5549643Y-25062643D01*
X5535357Y-25034071D01*
X5521071Y-24976929D01*
X5521071Y-24905500D01*
X5535357Y-24848357D01*
X5549643Y-24819786D01*
X5563928Y-24805500D01*
X5592500Y-24791214D01*
X5821071Y-25062643D02*
X5835357Y-25076929D01*
X5821071Y-25091214D01*
X5806786Y-25076929D01*
X5821071Y-25062643D01*
X5821071Y-25091214D01*
X6021071Y-24791214D02*
X6049643Y-24791214D01*
X6078214Y-24805500D01*
X6092500Y-24819786D01*
X6106785Y-24848357D01*
X6121071Y-24905500D01*
X6121071Y-24976929D01*
X6106785Y-25034071D01*
X6092500Y-25062643D01*
X6078214Y-25076929D01*
X6049643Y-25091214D01*
X6021071Y-25091214D01*
X5992500Y-25076929D01*
X5978214Y-25062643D01*
X5963928Y-25034071D01*
X5949643Y-24976929D01*
X5949643Y-24905500D01*
X5963928Y-24848357D01*
X5978214Y-24819786D01*
X5992500Y-24805500D01*
X6021071Y-24791214D01*
X6221071Y-24791214D02*
X6406785Y-24791214D01*
X6306785Y-24905500D01*
X6349643Y-24905500D01*
X6378214Y-24919786D01*
X6392500Y-24934071D01*
X6406785Y-24962643D01*
X6406785Y-25034071D01*
X6392500Y-25062643D01*
X6378214Y-25076929D01*
X6349643Y-25091214D01*
X6263928Y-25091214D01*
X6235357Y-25076929D01*
X6221071Y-25062643D01*
X6549643Y-25091214D02*
X6606785Y-25091214D01*
X6635357Y-25076929D01*
X6649643Y-25062643D01*
X6678214Y-25019786D01*
X6692500Y-24962643D01*
X6692500Y-24848357D01*
X6678214Y-24819786D01*
X6663928Y-24805500D01*
X6635357Y-24791214D01*
X6578214Y-24791214D01*
X6549643Y-24805500D01*
X6535357Y-24819786D01*
X6521071Y-24848357D01*
X6521071Y-24919786D01*
X6535357Y-24948357D01*
X6549643Y-24962643D01*
X6578214Y-24976929D01*
X6635357Y-24976929D01*
X6663928Y-24962643D01*
X6678214Y-24948357D01*
X6692500Y-24919786D01*
X6806786Y-24791214D02*
X6806786Y-24848357D01*
X6921071Y-24791214D02*
X6921071Y-24848357D01*
X7363928Y-25205500D02*
X7349643Y-25191214D01*
X7321071Y-25148357D01*
X7306785Y-25119786D01*
X7292500Y-25076929D01*
X7278214Y-25005500D01*
X7278214Y-24948357D01*
X7292500Y-24876929D01*
X7306785Y-24834071D01*
X7321071Y-24805500D01*
X7349643Y-24762643D01*
X7363928Y-24748357D01*
X7463928Y-24819786D02*
X7478214Y-24805500D01*
X7506785Y-24791214D01*
X7578214Y-24791214D01*
X7606785Y-24805500D01*
X7621071Y-24819786D01*
X7635357Y-24848357D01*
X7635357Y-24876929D01*
X7621071Y-24919786D01*
X7449643Y-25091214D01*
X7635357Y-25091214D01*
X7892500Y-24891214D02*
X7892500Y-25091214D01*
X7821071Y-24776929D02*
X7749643Y-24991214D01*
X7935357Y-24991214D01*
X8278214Y-25091214D02*
X8278214Y-24791214D01*
X8406786Y-25091214D02*
X8406786Y-24934071D01*
X8392500Y-24905500D01*
X8363928Y-24891214D01*
X8321071Y-24891214D01*
X8292500Y-24905500D01*
X8278214Y-24919786D01*
X8592500Y-25091214D02*
X8563928Y-25076929D01*
X8549643Y-25062643D01*
X8535357Y-25034071D01*
X8535357Y-24948357D01*
X8549643Y-24919786D01*
X8563928Y-24905500D01*
X8592500Y-24891214D01*
X8635357Y-24891214D01*
X8663928Y-24905500D01*
X8678214Y-24919786D01*
X8692500Y-24948357D01*
X8692500Y-25034071D01*
X8678214Y-25062643D01*
X8663928Y-25076929D01*
X8635357Y-25091214D01*
X8592500Y-25091214D01*
X8863928Y-25091214D02*
X8835357Y-25076929D01*
X8821071Y-25048357D01*
X8821071Y-24791214D01*
X9092500Y-25076929D02*
X9063929Y-25091214D01*
X9006786Y-25091214D01*
X8978214Y-25076929D01*
X8963929Y-25048357D01*
X8963929Y-24934071D01*
X8978214Y-24905500D01*
X9006786Y-24891214D01*
X9063929Y-24891214D01*
X9092500Y-24905500D01*
X9106786Y-24934071D01*
X9106786Y-24962643D01*
X8963929Y-24991214D01*
X9221071Y-25076929D02*
X9249643Y-25091214D01*
X9306786Y-25091214D01*
X9335357Y-25076929D01*
X9349643Y-25048357D01*
X9349643Y-25034071D01*
X9335357Y-25005500D01*
X9306786Y-24991214D01*
X9263929Y-24991214D01*
X9235357Y-24976929D01*
X9221071Y-24948357D01*
X9221071Y-24934071D01*
X9235357Y-24905500D01*
X9263929Y-24891214D01*
X9306786Y-24891214D01*
X9335357Y-24905500D01*
X9449643Y-25205500D02*
X9463929Y-25191214D01*
X9492500Y-25148357D01*
X9506786Y-25119786D01*
X9521071Y-25076929D01*
X9535357Y-25005500D01*
X9535357Y-24948357D01*
X9521071Y-24876929D01*
X9506786Y-24834071D01*
X9492500Y-24805500D01*
X9463929Y-24762643D01*
X9449643Y-24748357D01*
X2642462Y-25401538D02*
X2692500Y-25351500D01*
X2642462Y-25301462D01*
X2592424Y-25351500D01*
X2642462Y-25401538D01*
X3121071Y-25487214D02*
X2949643Y-25487214D01*
X3035357Y-25487214D02*
X3035357Y-25187214D01*
X3006786Y-25230071D01*
X2978214Y-25258643D01*
X2949643Y-25272929D01*
X3249643Y-25458643D02*
X3263928Y-25472929D01*
X3249643Y-25487214D01*
X3235357Y-25472929D01*
X3249643Y-25458643D01*
X3249643Y-25487214D01*
X3449643Y-25187214D02*
X3478214Y-25187214D01*
X3506786Y-25201500D01*
X3521071Y-25215786D01*
X3535357Y-25244357D01*
X3549643Y-25301500D01*
X3549643Y-25372929D01*
X3535357Y-25430071D01*
X3521071Y-25458643D01*
X3506786Y-25472929D01*
X3478214Y-25487214D01*
X3449643Y-25487214D01*
X3421071Y-25472929D01*
X3406786Y-25458643D01*
X3392500Y-25430071D01*
X3378214Y-25372929D01*
X3378214Y-25301500D01*
X3392500Y-25244357D01*
X3406786Y-25215786D01*
X3421071Y-25201500D01*
X3449643Y-25187214D01*
X3735357Y-25187214D02*
X3763928Y-25187214D01*
X3792500Y-25201500D01*
X3806786Y-25215786D01*
X3821071Y-25244357D01*
X3835357Y-25301500D01*
X3835357Y-25372929D01*
X3821071Y-25430071D01*
X3806786Y-25458643D01*
X3792500Y-25472929D01*
X3763928Y-25487214D01*
X3735357Y-25487214D01*
X3706786Y-25472929D01*
X3692500Y-25458643D01*
X3678214Y-25430071D01*
X3663928Y-25372929D01*
X3663928Y-25301500D01*
X3678214Y-25244357D01*
X3692500Y-25215786D01*
X3706786Y-25201500D01*
X3735357Y-25187214D01*
X3963928Y-25487214D02*
X3963928Y-25287214D01*
X3963928Y-25315786D02*
X3978214Y-25301500D01*
X4006786Y-25287214D01*
X4049643Y-25287214D01*
X4078214Y-25301500D01*
X4092500Y-25330071D01*
X4092500Y-25487214D01*
X4092500Y-25330071D02*
X4106786Y-25301500D01*
X4135357Y-25287214D01*
X4178214Y-25287214D01*
X4206786Y-25301500D01*
X4221071Y-25330071D01*
X4221071Y-25487214D01*
X4363929Y-25487214D02*
X4363929Y-25287214D01*
X4363929Y-25315786D02*
X4378214Y-25301500D01*
X4406786Y-25287214D01*
X4449643Y-25287214D01*
X4478214Y-25301500D01*
X4492500Y-25330071D01*
X4492500Y-25487214D01*
X4492500Y-25330071D02*
X4506786Y-25301500D01*
X4535357Y-25287214D01*
X4578214Y-25287214D01*
X4606786Y-25301500D01*
X4621071Y-25330071D01*
X4621071Y-25487214D01*
X5206786Y-25172929D02*
X4949643Y-25558643D01*
X5592500Y-25187214D02*
X5621071Y-25187214D01*
X5649643Y-25201500D01*
X5663928Y-25215786D01*
X5678214Y-25244357D01*
X5692500Y-25301500D01*
X5692500Y-25372929D01*
X5678214Y-25430071D01*
X5663928Y-25458643D01*
X5649643Y-25472929D01*
X5621071Y-25487214D01*
X5592500Y-25487214D01*
X5563928Y-25472929D01*
X5549643Y-25458643D01*
X5535357Y-25430071D01*
X5521071Y-25372929D01*
X5521071Y-25301500D01*
X5535357Y-25244357D01*
X5549643Y-25215786D01*
X5563928Y-25201500D01*
X5592500Y-25187214D01*
X5821071Y-25458643D02*
X5835357Y-25472929D01*
X5821071Y-25487214D01*
X5806786Y-25472929D01*
X5821071Y-25458643D01*
X5821071Y-25487214D01*
X6021071Y-25187214D02*
X6049643Y-25187214D01*
X6078214Y-25201500D01*
X6092500Y-25215786D01*
X6106785Y-25244357D01*
X6121071Y-25301500D01*
X6121071Y-25372929D01*
X6106785Y-25430071D01*
X6092500Y-25458643D01*
X6078214Y-25472929D01*
X6049643Y-25487214D01*
X6021071Y-25487214D01*
X5992500Y-25472929D01*
X5978214Y-25458643D01*
X5963928Y-25430071D01*
X5949643Y-25372929D01*
X5949643Y-25301500D01*
X5963928Y-25244357D01*
X5978214Y-25215786D01*
X5992500Y-25201500D01*
X6021071Y-25187214D01*
X6221071Y-25187214D02*
X6406785Y-25187214D01*
X6306785Y-25301500D01*
X6349643Y-25301500D01*
X6378214Y-25315786D01*
X6392500Y-25330071D01*
X6406785Y-25358643D01*
X6406785Y-25430071D01*
X6392500Y-25458643D01*
X6378214Y-25472929D01*
X6349643Y-25487214D01*
X6263928Y-25487214D01*
X6235357Y-25472929D01*
X6221071Y-25458643D01*
X6549643Y-25487214D02*
X6606785Y-25487214D01*
X6635357Y-25472929D01*
X6649643Y-25458643D01*
X6678214Y-25415786D01*
X6692500Y-25358643D01*
X6692500Y-25244357D01*
X6678214Y-25215786D01*
X6663928Y-25201500D01*
X6635357Y-25187214D01*
X6578214Y-25187214D01*
X6549643Y-25201500D01*
X6535357Y-25215786D01*
X6521071Y-25244357D01*
X6521071Y-25315786D01*
X6535357Y-25344357D01*
X6549643Y-25358643D01*
X6578214Y-25372929D01*
X6635357Y-25372929D01*
X6663928Y-25358643D01*
X6678214Y-25344357D01*
X6692500Y-25315786D01*
X6806786Y-25187214D02*
X6806786Y-25244357D01*
X6921071Y-25187214D02*
X6921071Y-25244357D01*
X7363928Y-25601500D02*
X7349643Y-25587214D01*
X7321071Y-25544357D01*
X7306785Y-25515786D01*
X7292500Y-25472929D01*
X7278214Y-25401500D01*
X7278214Y-25344357D01*
X7292500Y-25272929D01*
X7306785Y-25230071D01*
X7321071Y-25201500D01*
X7349643Y-25158643D01*
X7363928Y-25144357D01*
X7463928Y-25215786D02*
X7478214Y-25201500D01*
X7506785Y-25187214D01*
X7578214Y-25187214D01*
X7606785Y-25201500D01*
X7621071Y-25215786D01*
X7635357Y-25244357D01*
X7635357Y-25272929D01*
X7621071Y-25315786D01*
X7449643Y-25487214D01*
X7635357Y-25487214D01*
X7806785Y-25315786D02*
X7778214Y-25301500D01*
X7763928Y-25287214D01*
X7749643Y-25258643D01*
X7749643Y-25244357D01*
X7763928Y-25215786D01*
X7778214Y-25201500D01*
X7806785Y-25187214D01*
X7863928Y-25187214D01*
X7892500Y-25201500D01*
X7906785Y-25215786D01*
X7921071Y-25244357D01*
X7921071Y-25258643D01*
X7906785Y-25287214D01*
X7892500Y-25301500D01*
X7863928Y-25315786D01*
X7806785Y-25315786D01*
X7778214Y-25330071D01*
X7763928Y-25344357D01*
X7749643Y-25372929D01*
X7749643Y-25430071D01*
X7763928Y-25458643D01*
X7778214Y-25472929D01*
X7806785Y-25487214D01*
X7863928Y-25487214D01*
X7892500Y-25472929D01*
X7906785Y-25458643D01*
X7921071Y-25430071D01*
X7921071Y-25372929D01*
X7906785Y-25344357D01*
X7892500Y-25330071D01*
X7863928Y-25315786D01*
X8278214Y-25487214D02*
X8278214Y-25187214D01*
X8406786Y-25487214D02*
X8406786Y-25330071D01*
X8392500Y-25301500D01*
X8363928Y-25287214D01*
X8321071Y-25287214D01*
X8292500Y-25301500D01*
X8278214Y-25315786D01*
X8592500Y-25487214D02*
X8563928Y-25472929D01*
X8549643Y-25458643D01*
X8535357Y-25430071D01*
X8535357Y-25344357D01*
X8549643Y-25315786D01*
X8563928Y-25301500D01*
X8592500Y-25287214D01*
X8635357Y-25287214D01*
X8663928Y-25301500D01*
X8678214Y-25315786D01*
X8692500Y-25344357D01*
X8692500Y-25430071D01*
X8678214Y-25458643D01*
X8663928Y-25472929D01*
X8635357Y-25487214D01*
X8592500Y-25487214D01*
X8863928Y-25487214D02*
X8835357Y-25472929D01*
X8821071Y-25444357D01*
X8821071Y-25187214D01*
X9092500Y-25472929D02*
X9063929Y-25487214D01*
X9006786Y-25487214D01*
X8978214Y-25472929D01*
X8963929Y-25444357D01*
X8963929Y-25330071D01*
X8978214Y-25301500D01*
X9006786Y-25287214D01*
X9063929Y-25287214D01*
X9092500Y-25301500D01*
X9106786Y-25330071D01*
X9106786Y-25358643D01*
X8963929Y-25387214D01*
X9221071Y-25472929D02*
X9249643Y-25487214D01*
X9306786Y-25487214D01*
X9335357Y-25472929D01*
X9349643Y-25444357D01*
X9349643Y-25430071D01*
X9335357Y-25401500D01*
X9306786Y-25387214D01*
X9263929Y-25387214D01*
X9235357Y-25372929D01*
X9221071Y-25344357D01*
X9221071Y-25330071D01*
X9235357Y-25301500D01*
X9263929Y-25287214D01*
X9306786Y-25287214D01*
X9335357Y-25301500D01*
X9449643Y-25601500D02*
X9463929Y-25587214D01*
X9492500Y-25544357D01*
X9506786Y-25515786D01*
X9521071Y-25472929D01*
X9535357Y-25401500D01*
X9535357Y-25344357D01*
X9521071Y-25272929D01*
X9506786Y-25230071D01*
X9492500Y-25201500D01*
X9463929Y-25158643D01*
X9449643Y-25144357D01*
X2590900Y-25696700D02*
X2692500Y-25798300D01*
X2692500Y-25696700D02*
X2590900Y-25798300D01*
X2692500Y-25747500D02*
G75*
G03X2692500Y-25747500I-50800J0D01*
G01*
X3121071Y-25883214D02*
X2949643Y-25883214D01*
X3035357Y-25883214D02*
X3035357Y-25583214D01*
X3006786Y-25626071D01*
X2978214Y-25654643D01*
X2949643Y-25668929D01*
X3249643Y-25854643D02*
X3263928Y-25868929D01*
X3249643Y-25883214D01*
X3235357Y-25868929D01*
X3249643Y-25854643D01*
X3249643Y-25883214D01*
X3449643Y-25583214D02*
X3478214Y-25583214D01*
X3506786Y-25597500D01*
X3521071Y-25611786D01*
X3535357Y-25640357D01*
X3549643Y-25697500D01*
X3549643Y-25768929D01*
X3535357Y-25826071D01*
X3521071Y-25854643D01*
X3506786Y-25868929D01*
X3478214Y-25883214D01*
X3449643Y-25883214D01*
X3421071Y-25868929D01*
X3406786Y-25854643D01*
X3392500Y-25826071D01*
X3378214Y-25768929D01*
X3378214Y-25697500D01*
X3392500Y-25640357D01*
X3406786Y-25611786D01*
X3421071Y-25597500D01*
X3449643Y-25583214D01*
X3663928Y-25611786D02*
X3678214Y-25597500D01*
X3706786Y-25583214D01*
X3778214Y-25583214D01*
X3806786Y-25597500D01*
X3821071Y-25611786D01*
X3835357Y-25640357D01*
X3835357Y-25668929D01*
X3821071Y-25711786D01*
X3649643Y-25883214D01*
X3835357Y-25883214D01*
X3963928Y-25883214D02*
X3963928Y-25683214D01*
X3963928Y-25711786D02*
X3978214Y-25697500D01*
X4006786Y-25683214D01*
X4049643Y-25683214D01*
X4078214Y-25697500D01*
X4092500Y-25726071D01*
X4092500Y-25883214D01*
X4092500Y-25726071D02*
X4106786Y-25697500D01*
X4135357Y-25683214D01*
X4178214Y-25683214D01*
X4206786Y-25697500D01*
X4221071Y-25726071D01*
X4221071Y-25883214D01*
X4363929Y-25883214D02*
X4363929Y-25683214D01*
X4363929Y-25711786D02*
X4378214Y-25697500D01*
X4406786Y-25683214D01*
X4449643Y-25683214D01*
X4478214Y-25697500D01*
X4492500Y-25726071D01*
X4492500Y-25883214D01*
X4492500Y-25726071D02*
X4506786Y-25697500D01*
X4535357Y-25683214D01*
X4578214Y-25683214D01*
X4606786Y-25697500D01*
X4621071Y-25726071D01*
X4621071Y-25883214D01*
X5206786Y-25568929D02*
X4949643Y-25954643D01*
X5592500Y-25583214D02*
X5621071Y-25583214D01*
X5649643Y-25597500D01*
X5663928Y-25611786D01*
X5678214Y-25640357D01*
X5692500Y-25697500D01*
X5692500Y-25768929D01*
X5678214Y-25826071D01*
X5663928Y-25854643D01*
X5649643Y-25868929D01*
X5621071Y-25883214D01*
X5592500Y-25883214D01*
X5563928Y-25868929D01*
X5549643Y-25854643D01*
X5535357Y-25826071D01*
X5521071Y-25768929D01*
X5521071Y-25697500D01*
X5535357Y-25640357D01*
X5549643Y-25611786D01*
X5563928Y-25597500D01*
X5592500Y-25583214D01*
X5821071Y-25854643D02*
X5835357Y-25868929D01*
X5821071Y-25883214D01*
X5806786Y-25868929D01*
X5821071Y-25854643D01*
X5821071Y-25883214D01*
X6021071Y-25583214D02*
X6049643Y-25583214D01*
X6078214Y-25597500D01*
X6092500Y-25611786D01*
X6106785Y-25640357D01*
X6121071Y-25697500D01*
X6121071Y-25768929D01*
X6106785Y-25826071D01*
X6092500Y-25854643D01*
X6078214Y-25868929D01*
X6049643Y-25883214D01*
X6021071Y-25883214D01*
X5992500Y-25868929D01*
X5978214Y-25854643D01*
X5963928Y-25826071D01*
X5949643Y-25768929D01*
X5949643Y-25697500D01*
X5963928Y-25640357D01*
X5978214Y-25611786D01*
X5992500Y-25597500D01*
X6021071Y-25583214D01*
X6378214Y-25683214D02*
X6378214Y-25883214D01*
X6306785Y-25568929D02*
X6235357Y-25783214D01*
X6421071Y-25783214D01*
X6592500Y-25583214D02*
X6621071Y-25583214D01*
X6649643Y-25597500D01*
X6663928Y-25611786D01*
X6678214Y-25640357D01*
X6692500Y-25697500D01*
X6692500Y-25768929D01*
X6678214Y-25826071D01*
X6663928Y-25854643D01*
X6649643Y-25868929D01*
X6621071Y-25883214D01*
X6592500Y-25883214D01*
X6563928Y-25868929D01*
X6549643Y-25854643D01*
X6535357Y-25826071D01*
X6521071Y-25768929D01*
X6521071Y-25697500D01*
X6535357Y-25640357D01*
X6549643Y-25611786D01*
X6563928Y-25597500D01*
X6592500Y-25583214D01*
X6806786Y-25583214D02*
X6806786Y-25640357D01*
X6921071Y-25583214D02*
X6921071Y-25640357D01*
X7363928Y-25997500D02*
X7349643Y-25983214D01*
X7321071Y-25940357D01*
X7306785Y-25911786D01*
X7292500Y-25868929D01*
X7278214Y-25797500D01*
X7278214Y-25740357D01*
X7292500Y-25668929D01*
X7306785Y-25626071D01*
X7321071Y-25597500D01*
X7349643Y-25554643D01*
X7363928Y-25540357D01*
X7449643Y-25583214D02*
X7649643Y-25583214D01*
X7521071Y-25883214D01*
X7892500Y-25583214D02*
X7835357Y-25583214D01*
X7806785Y-25597500D01*
X7792500Y-25611786D01*
X7763928Y-25654643D01*
X7749643Y-25711786D01*
X7749643Y-25826071D01*
X7763928Y-25854643D01*
X7778214Y-25868929D01*
X7806785Y-25883214D01*
X7863928Y-25883214D01*
X7892500Y-25868929D01*
X7906785Y-25854643D01*
X7921071Y-25826071D01*
X7921071Y-25754643D01*
X7906785Y-25726071D01*
X7892500Y-25711786D01*
X7863928Y-25697500D01*
X7806785Y-25697500D01*
X7778214Y-25711786D01*
X7763928Y-25726071D01*
X7749643Y-25754643D01*
X8278214Y-25883214D02*
X8278214Y-25583214D01*
X8406786Y-25883214D02*
X8406786Y-25726071D01*
X8392500Y-25697500D01*
X8363928Y-25683214D01*
X8321071Y-25683214D01*
X8292500Y-25697500D01*
X8278214Y-25711786D01*
X8592500Y-25883214D02*
X8563928Y-25868929D01*
X8549643Y-25854643D01*
X8535357Y-25826071D01*
X8535357Y-25740357D01*
X8549643Y-25711786D01*
X8563928Y-25697500D01*
X8592500Y-25683214D01*
X8635357Y-25683214D01*
X8663928Y-25697500D01*
X8678214Y-25711786D01*
X8692500Y-25740357D01*
X8692500Y-25826071D01*
X8678214Y-25854643D01*
X8663928Y-25868929D01*
X8635357Y-25883214D01*
X8592500Y-25883214D01*
X8863928Y-25883214D02*
X8835357Y-25868929D01*
X8821071Y-25840357D01*
X8821071Y-25583214D01*
X9092500Y-25868929D02*
X9063929Y-25883214D01*
X9006786Y-25883214D01*
X8978214Y-25868929D01*
X8963929Y-25840357D01*
X8963929Y-25726071D01*
X8978214Y-25697500D01*
X9006786Y-25683214D01*
X9063929Y-25683214D01*
X9092500Y-25697500D01*
X9106786Y-25726071D01*
X9106786Y-25754643D01*
X8963929Y-25783214D01*
X9221071Y-25868929D02*
X9249643Y-25883214D01*
X9306786Y-25883214D01*
X9335357Y-25868929D01*
X9349643Y-25840357D01*
X9349643Y-25826071D01*
X9335357Y-25797500D01*
X9306786Y-25783214D01*
X9263929Y-25783214D01*
X9235357Y-25768929D01*
X9221071Y-25740357D01*
X9221071Y-25726071D01*
X9235357Y-25697500D01*
X9263929Y-25683214D01*
X9306786Y-25683214D01*
X9335357Y-25697500D01*
X9449643Y-25997500D02*
X9463929Y-25983214D01*
X9492500Y-25940357D01*
X9506786Y-25911786D01*
X9521071Y-25868929D01*
X9535357Y-25797500D01*
X9535357Y-25740357D01*
X9521071Y-25668929D01*
X9506786Y-25626071D01*
X9492500Y-25597500D01*
X9463929Y-25554643D01*
X9449643Y-25540357D01*
X2585500Y-26090000D02*
X2692500Y-26197000D01*
X2692500Y-26090000D02*
X2585500Y-26197000D01*
X2639000Y-26090000D02*
X2639000Y-26197000D01*
X2585500Y-26143500D02*
X2692500Y-26143500D01*
X3121071Y-26279214D02*
X2949643Y-26279214D01*
X3035357Y-26279214D02*
X3035357Y-25979214D01*
X3006786Y-26022071D01*
X2978214Y-26050643D01*
X2949643Y-26064929D01*
X3249643Y-26250643D02*
X3263928Y-26264929D01*
X3249643Y-26279214D01*
X3235357Y-26264929D01*
X3249643Y-26250643D01*
X3249643Y-26279214D01*
X3449643Y-25979214D02*
X3478214Y-25979214D01*
X3506786Y-25993500D01*
X3521071Y-26007786D01*
X3535357Y-26036357D01*
X3549643Y-26093500D01*
X3549643Y-26164929D01*
X3535357Y-26222071D01*
X3521071Y-26250643D01*
X3506786Y-26264929D01*
X3478214Y-26279214D01*
X3449643Y-26279214D01*
X3421071Y-26264929D01*
X3406786Y-26250643D01*
X3392500Y-26222071D01*
X3378214Y-26164929D01*
X3378214Y-26093500D01*
X3392500Y-26036357D01*
X3406786Y-26007786D01*
X3421071Y-25993500D01*
X3449643Y-25979214D01*
X3649643Y-25979214D02*
X3849643Y-25979214D01*
X3721071Y-26279214D01*
X3963928Y-26279214D02*
X3963928Y-26079214D01*
X3963928Y-26107786D02*
X3978214Y-26093500D01*
X4006786Y-26079214D01*
X4049643Y-26079214D01*
X4078214Y-26093500D01*
X4092500Y-26122071D01*
X4092500Y-26279214D01*
X4092500Y-26122071D02*
X4106786Y-26093500D01*
X4135357Y-26079214D01*
X4178214Y-26079214D01*
X4206786Y-26093500D01*
X4221071Y-26122071D01*
X4221071Y-26279214D01*
X4363929Y-26279214D02*
X4363929Y-26079214D01*
X4363929Y-26107786D02*
X4378214Y-26093500D01*
X4406786Y-26079214D01*
X4449643Y-26079214D01*
X4478214Y-26093500D01*
X4492500Y-26122071D01*
X4492500Y-26279214D01*
X4492500Y-26122071D02*
X4506786Y-26093500D01*
X4535357Y-26079214D01*
X4578214Y-26079214D01*
X4606786Y-26093500D01*
X4621071Y-26122071D01*
X4621071Y-26279214D01*
X5206786Y-25964929D02*
X4949643Y-26350643D01*
X5592500Y-25979214D02*
X5621071Y-25979214D01*
X5649643Y-25993500D01*
X5663928Y-26007786D01*
X5678214Y-26036357D01*
X5692500Y-26093500D01*
X5692500Y-26164929D01*
X5678214Y-26222071D01*
X5663928Y-26250643D01*
X5649643Y-26264929D01*
X5621071Y-26279214D01*
X5592500Y-26279214D01*
X5563928Y-26264929D01*
X5549643Y-26250643D01*
X5535357Y-26222071D01*
X5521071Y-26164929D01*
X5521071Y-26093500D01*
X5535357Y-26036357D01*
X5549643Y-26007786D01*
X5563928Y-25993500D01*
X5592500Y-25979214D01*
X5821071Y-26250643D02*
X5835357Y-26264929D01*
X5821071Y-26279214D01*
X5806786Y-26264929D01*
X5821071Y-26250643D01*
X5821071Y-26279214D01*
X6021071Y-25979214D02*
X6049643Y-25979214D01*
X6078214Y-25993500D01*
X6092500Y-26007786D01*
X6106785Y-26036357D01*
X6121071Y-26093500D01*
X6121071Y-26164929D01*
X6106785Y-26222071D01*
X6092500Y-26250643D01*
X6078214Y-26264929D01*
X6049643Y-26279214D01*
X6021071Y-26279214D01*
X5992500Y-26264929D01*
X5978214Y-26250643D01*
X5963928Y-26222071D01*
X5949643Y-26164929D01*
X5949643Y-26093500D01*
X5963928Y-26036357D01*
X5978214Y-26007786D01*
X5992500Y-25993500D01*
X6021071Y-25979214D01*
X6378214Y-26079214D02*
X6378214Y-26279214D01*
X6306785Y-25964929D02*
X6235357Y-26179214D01*
X6421071Y-26179214D01*
X6521071Y-26007786D02*
X6535357Y-25993500D01*
X6563928Y-25979214D01*
X6635357Y-25979214D01*
X6663928Y-25993500D01*
X6678214Y-26007786D01*
X6692500Y-26036357D01*
X6692500Y-26064929D01*
X6678214Y-26107786D01*
X6506785Y-26279214D01*
X6692500Y-26279214D01*
X6806786Y-25979214D02*
X6806786Y-26036357D01*
X6921071Y-25979214D02*
X6921071Y-26036357D01*
X7363928Y-26393500D02*
X7349643Y-26379214D01*
X7321071Y-26336357D01*
X7306785Y-26307786D01*
X7292500Y-26264929D01*
X7278214Y-26193500D01*
X7278214Y-26136357D01*
X7292500Y-26064929D01*
X7306785Y-26022071D01*
X7321071Y-25993500D01*
X7349643Y-25950643D01*
X7363928Y-25936357D01*
X7463928Y-26007786D02*
X7478214Y-25993500D01*
X7506785Y-25979214D01*
X7578214Y-25979214D01*
X7606785Y-25993500D01*
X7621071Y-26007786D01*
X7635357Y-26036357D01*
X7635357Y-26064929D01*
X7621071Y-26107786D01*
X7449643Y-26279214D01*
X7635357Y-26279214D01*
X7992500Y-26279214D02*
X7992500Y-25979214D01*
X8121071Y-26279214D02*
X8121071Y-26122071D01*
X8106785Y-26093500D01*
X8078214Y-26079214D01*
X8035357Y-26079214D01*
X8006785Y-26093500D01*
X7992500Y-26107786D01*
X8306785Y-26279214D02*
X8278214Y-26264929D01*
X8263928Y-26250643D01*
X8249643Y-26222071D01*
X8249643Y-26136357D01*
X8263928Y-26107786D01*
X8278214Y-26093500D01*
X8306785Y-26079214D01*
X8349643Y-26079214D01*
X8378214Y-26093500D01*
X8392500Y-26107786D01*
X8406786Y-26136357D01*
X8406786Y-26222071D01*
X8392500Y-26250643D01*
X8378214Y-26264929D01*
X8349643Y-26279214D01*
X8306785Y-26279214D01*
X8578214Y-26279214D02*
X8549643Y-26264929D01*
X8535357Y-26236357D01*
X8535357Y-25979214D01*
X8806786Y-26264929D02*
X8778214Y-26279214D01*
X8721071Y-26279214D01*
X8692500Y-26264929D01*
X8678214Y-26236357D01*
X8678214Y-26122071D01*
X8692500Y-26093500D01*
X8721071Y-26079214D01*
X8778214Y-26079214D01*
X8806786Y-26093500D01*
X8821071Y-26122071D01*
X8821071Y-26150643D01*
X8678214Y-26179214D01*
X8935357Y-26264929D02*
X8963929Y-26279214D01*
X9021071Y-26279214D01*
X9049643Y-26264929D01*
X9063929Y-26236357D01*
X9063929Y-26222071D01*
X9049643Y-26193500D01*
X9021071Y-26179214D01*
X8978214Y-26179214D01*
X8949643Y-26164929D01*
X8935357Y-26136357D01*
X8935357Y-26122071D01*
X8949643Y-26093500D01*
X8978214Y-26079214D01*
X9021071Y-26079214D01*
X9049643Y-26093500D01*
X9163928Y-26393500D02*
X9178214Y-26379214D01*
X9206786Y-26336357D01*
X9221071Y-26307786D01*
X9235357Y-26264929D01*
X9249643Y-26193500D01*
X9249643Y-26136357D01*
X9235357Y-26064929D01*
X9221071Y-26022071D01*
X9206786Y-25993500D01*
X9178214Y-25950643D01*
X9163928Y-25936357D01*
X2572612Y-26479556D02*
X2692500Y-26599444D01*
X2692500Y-26479556D02*
X2572612Y-26599444D01*
X2674943Y-26581887D02*
X2674943Y-26497113D01*
X2590169Y-26497113D01*
X2590169Y-26581887D01*
X2674943Y-26581887D01*
X3121071Y-26675214D02*
X2949643Y-26675214D01*
X3035357Y-26675214D02*
X3035357Y-26375214D01*
X3006786Y-26418071D01*
X2978214Y-26446643D01*
X2949643Y-26460929D01*
X3249643Y-26646643D02*
X3263928Y-26660929D01*
X3249643Y-26675214D01*
X3235357Y-26660929D01*
X3249643Y-26646643D01*
X3249643Y-26675214D01*
X3378214Y-26403786D02*
X3392500Y-26389500D01*
X3421071Y-26375214D01*
X3492500Y-26375214D01*
X3521071Y-26389500D01*
X3535357Y-26403786D01*
X3549643Y-26432357D01*
X3549643Y-26460929D01*
X3535357Y-26503786D01*
X3363928Y-26675214D01*
X3549643Y-26675214D01*
X3735357Y-26375214D02*
X3763928Y-26375214D01*
X3792500Y-26389500D01*
X3806786Y-26403786D01*
X3821071Y-26432357D01*
X3835357Y-26489500D01*
X3835357Y-26560929D01*
X3821071Y-26618071D01*
X3806786Y-26646643D01*
X3792500Y-26660929D01*
X3763928Y-26675214D01*
X3735357Y-26675214D01*
X3706786Y-26660929D01*
X3692500Y-26646643D01*
X3678214Y-26618071D01*
X3663928Y-26560929D01*
X3663928Y-26489500D01*
X3678214Y-26432357D01*
X3692500Y-26403786D01*
X3706786Y-26389500D01*
X3735357Y-26375214D01*
X3963928Y-26675214D02*
X3963928Y-26475214D01*
X3963928Y-26503786D02*
X3978214Y-26489500D01*
X4006786Y-26475214D01*
X4049643Y-26475214D01*
X4078214Y-26489500D01*
X4092500Y-26518071D01*
X4092500Y-26675214D01*
X4092500Y-26518071D02*
X4106786Y-26489500D01*
X4135357Y-26475214D01*
X4178214Y-26475214D01*
X4206786Y-26489500D01*
X4221071Y-26518071D01*
X4221071Y-26675214D01*
X4363929Y-26675214D02*
X4363929Y-26475214D01*
X4363929Y-26503786D02*
X4378214Y-26489500D01*
X4406786Y-26475214D01*
X4449643Y-26475214D01*
X4478214Y-26489500D01*
X4492500Y-26518071D01*
X4492500Y-26675214D01*
X4492500Y-26518071D02*
X4506786Y-26489500D01*
X4535357Y-26475214D01*
X4578214Y-26475214D01*
X4606786Y-26489500D01*
X4621071Y-26518071D01*
X4621071Y-26675214D01*
X5206786Y-26360929D02*
X4949643Y-26746643D01*
X5592500Y-26375214D02*
X5621071Y-26375214D01*
X5649643Y-26389500D01*
X5663928Y-26403786D01*
X5678214Y-26432357D01*
X5692500Y-26489500D01*
X5692500Y-26560929D01*
X5678214Y-26618071D01*
X5663928Y-26646643D01*
X5649643Y-26660929D01*
X5621071Y-26675214D01*
X5592500Y-26675214D01*
X5563928Y-26660929D01*
X5549643Y-26646643D01*
X5535357Y-26618071D01*
X5521071Y-26560929D01*
X5521071Y-26489500D01*
X5535357Y-26432357D01*
X5549643Y-26403786D01*
X5563928Y-26389500D01*
X5592500Y-26375214D01*
X5821071Y-26646643D02*
X5835357Y-26660929D01*
X5821071Y-26675214D01*
X5806786Y-26660929D01*
X5821071Y-26646643D01*
X5821071Y-26675214D01*
X6021071Y-26375214D02*
X6049643Y-26375214D01*
X6078214Y-26389500D01*
X6092500Y-26403786D01*
X6106785Y-26432357D01*
X6121071Y-26489500D01*
X6121071Y-26560929D01*
X6106785Y-26618071D01*
X6092500Y-26646643D01*
X6078214Y-26660929D01*
X6049643Y-26675214D01*
X6021071Y-26675214D01*
X5992500Y-26660929D01*
X5978214Y-26646643D01*
X5963928Y-26618071D01*
X5949643Y-26560929D01*
X5949643Y-26489500D01*
X5963928Y-26432357D01*
X5978214Y-26403786D01*
X5992500Y-26389500D01*
X6021071Y-26375214D01*
X6378214Y-26475214D02*
X6378214Y-26675214D01*
X6306785Y-26360929D02*
X6235357Y-26575214D01*
X6421071Y-26575214D01*
X6506785Y-26375214D02*
X6706785Y-26375214D01*
X6578214Y-26675214D01*
X6806786Y-26375214D02*
X6806786Y-26432357D01*
X6921071Y-26375214D02*
X6921071Y-26432357D01*
X7363928Y-26789500D02*
X7349643Y-26775214D01*
X7321071Y-26732357D01*
X7306785Y-26703786D01*
X7292500Y-26660929D01*
X7278214Y-26589500D01*
X7278214Y-26532357D01*
X7292500Y-26460929D01*
X7306785Y-26418071D01*
X7321071Y-26389500D01*
X7349643Y-26346643D01*
X7363928Y-26332357D01*
X7635357Y-26675214D02*
X7463928Y-26675214D01*
X7549643Y-26675214D02*
X7549643Y-26375214D01*
X7521071Y-26418071D01*
X7492500Y-26446643D01*
X7463928Y-26460929D01*
X7892500Y-26475214D02*
X7892500Y-26675214D01*
X7821071Y-26360929D02*
X7749643Y-26575214D01*
X7935357Y-26575214D01*
X8278214Y-26675214D02*
X8278214Y-26375214D01*
X8406786Y-26675214D02*
X8406786Y-26518071D01*
X8392500Y-26489500D01*
X8363928Y-26475214D01*
X8321071Y-26475214D01*
X8292500Y-26489500D01*
X8278214Y-26503786D01*
X8592500Y-26675214D02*
X8563928Y-26660929D01*
X8549643Y-26646643D01*
X8535357Y-26618071D01*
X8535357Y-26532357D01*
X8549643Y-26503786D01*
X8563928Y-26489500D01*
X8592500Y-26475214D01*
X8635357Y-26475214D01*
X8663928Y-26489500D01*
X8678214Y-26503786D01*
X8692500Y-26532357D01*
X8692500Y-26618071D01*
X8678214Y-26646643D01*
X8663928Y-26660929D01*
X8635357Y-26675214D01*
X8592500Y-26675214D01*
X8863928Y-26675214D02*
X8835357Y-26660929D01*
X8821071Y-26632357D01*
X8821071Y-26375214D01*
X9092500Y-26660929D02*
X9063929Y-26675214D01*
X9006786Y-26675214D01*
X8978214Y-26660929D01*
X8963929Y-26632357D01*
X8963929Y-26518071D01*
X8978214Y-26489500D01*
X9006786Y-26475214D01*
X9063929Y-26475214D01*
X9092500Y-26489500D01*
X9106786Y-26518071D01*
X9106786Y-26546643D01*
X8963929Y-26575214D01*
X9221071Y-26660929D02*
X9249643Y-26675214D01*
X9306786Y-26675214D01*
X9335357Y-26660929D01*
X9349643Y-26632357D01*
X9349643Y-26618071D01*
X9335357Y-26589500D01*
X9306786Y-26575214D01*
X9263929Y-26575214D01*
X9235357Y-26560929D01*
X9221071Y-26532357D01*
X9221071Y-26518071D01*
X9235357Y-26489500D01*
X9263929Y-26475214D01*
X9306786Y-26475214D01*
X9335357Y-26489500D01*
X9449643Y-26789500D02*
X9463929Y-26775214D01*
X9492500Y-26732357D01*
X9506786Y-26703786D01*
X9521071Y-26660929D01*
X9535357Y-26589500D01*
X9535357Y-26532357D01*
X9521071Y-26460929D01*
X9506786Y-26418071D01*
X9492500Y-26389500D01*
X9463929Y-26346643D01*
X9449643Y-26332357D01*
X2565500Y-26872000D02*
X2692500Y-26999000D01*
X2692500Y-26872000D02*
X2565500Y-26999000D01*
X2629000Y-26999000D02*
X2692500Y-26935500D01*
X2629000Y-26872000D01*
X2565500Y-26935500D01*
X2629000Y-26999000D01*
X3121071Y-27071214D02*
X2949643Y-27071214D01*
X3035357Y-27071214D02*
X3035357Y-26771214D01*
X3006786Y-26814071D01*
X2978214Y-26842643D01*
X2949643Y-26856929D01*
X3249643Y-27042643D02*
X3263928Y-27056929D01*
X3249643Y-27071214D01*
X3235357Y-27056929D01*
X3249643Y-27042643D01*
X3249643Y-27071214D01*
X3378214Y-26799786D02*
X3392500Y-26785500D01*
X3421071Y-26771214D01*
X3492500Y-26771214D01*
X3521071Y-26785500D01*
X3535357Y-26799786D01*
X3549643Y-26828357D01*
X3549643Y-26856929D01*
X3535357Y-26899786D01*
X3363928Y-27071214D01*
X3549643Y-27071214D01*
X3649643Y-26771214D02*
X3849643Y-26771214D01*
X3721071Y-27071214D01*
X3963928Y-27071214D02*
X3963928Y-26871214D01*
X3963928Y-26899786D02*
X3978214Y-26885500D01*
X4006786Y-26871214D01*
X4049643Y-26871214D01*
X4078214Y-26885500D01*
X4092500Y-26914071D01*
X4092500Y-27071214D01*
X4092500Y-26914071D02*
X4106786Y-26885500D01*
X4135357Y-26871214D01*
X4178214Y-26871214D01*
X4206786Y-26885500D01*
X4221071Y-26914071D01*
X4221071Y-27071214D01*
X4363929Y-27071214D02*
X4363929Y-26871214D01*
X4363929Y-26899786D02*
X4378214Y-26885500D01*
X4406786Y-26871214D01*
X4449643Y-26871214D01*
X4478214Y-26885500D01*
X4492500Y-26914071D01*
X4492500Y-27071214D01*
X4492500Y-26914071D02*
X4506786Y-26885500D01*
X4535357Y-26871214D01*
X4578214Y-26871214D01*
X4606786Y-26885500D01*
X4621071Y-26914071D01*
X4621071Y-27071214D01*
X5206786Y-26756929D02*
X4949643Y-27142643D01*
X5592500Y-26771214D02*
X5621071Y-26771214D01*
X5649643Y-26785500D01*
X5663928Y-26799786D01*
X5678214Y-26828357D01*
X5692500Y-26885500D01*
X5692500Y-26956929D01*
X5678214Y-27014071D01*
X5663928Y-27042643D01*
X5649643Y-27056929D01*
X5621071Y-27071214D01*
X5592500Y-27071214D01*
X5563928Y-27056929D01*
X5549643Y-27042643D01*
X5535357Y-27014071D01*
X5521071Y-26956929D01*
X5521071Y-26885500D01*
X5535357Y-26828357D01*
X5549643Y-26799786D01*
X5563928Y-26785500D01*
X5592500Y-26771214D01*
X5821071Y-27042643D02*
X5835357Y-27056929D01*
X5821071Y-27071214D01*
X5806786Y-27056929D01*
X5821071Y-27042643D01*
X5821071Y-27071214D01*
X6021071Y-26771214D02*
X6049643Y-26771214D01*
X6078214Y-26785500D01*
X6092500Y-26799786D01*
X6106785Y-26828357D01*
X6121071Y-26885500D01*
X6121071Y-26956929D01*
X6106785Y-27014071D01*
X6092500Y-27042643D01*
X6078214Y-27056929D01*
X6049643Y-27071214D01*
X6021071Y-27071214D01*
X5992500Y-27056929D01*
X5978214Y-27042643D01*
X5963928Y-27014071D01*
X5949643Y-26956929D01*
X5949643Y-26885500D01*
X5963928Y-26828357D01*
X5978214Y-26799786D01*
X5992500Y-26785500D01*
X6021071Y-26771214D01*
X6392500Y-26771214D02*
X6249643Y-26771214D01*
X6235357Y-26914071D01*
X6249643Y-26899786D01*
X6278214Y-26885500D01*
X6349643Y-26885500D01*
X6378214Y-26899786D01*
X6392500Y-26914071D01*
X6406785Y-26942643D01*
X6406785Y-27014071D01*
X6392500Y-27042643D01*
X6378214Y-27056929D01*
X6349643Y-27071214D01*
X6278214Y-27071214D01*
X6249643Y-27056929D01*
X6235357Y-27042643D01*
X6592500Y-26771214D02*
X6621071Y-26771214D01*
X6649643Y-26785500D01*
X6663928Y-26799786D01*
X6678214Y-26828357D01*
X6692500Y-26885500D01*
X6692500Y-26956929D01*
X6678214Y-27014071D01*
X6663928Y-27042643D01*
X6649643Y-27056929D01*
X6621071Y-27071214D01*
X6592500Y-27071214D01*
X6563928Y-27056929D01*
X6549643Y-27042643D01*
X6535357Y-27014071D01*
X6521071Y-26956929D01*
X6521071Y-26885500D01*
X6535357Y-26828357D01*
X6549643Y-26799786D01*
X6563928Y-26785500D01*
X6592500Y-26771214D01*
X6806786Y-26771214D02*
X6806786Y-26828357D01*
X6921071Y-26771214D02*
X6921071Y-26828357D01*
X7363928Y-27185500D02*
X7349643Y-27171214D01*
X7321071Y-27128357D01*
X7306785Y-27099786D01*
X7292500Y-27056929D01*
X7278214Y-26985500D01*
X7278214Y-26928357D01*
X7292500Y-26856929D01*
X7306785Y-26814071D01*
X7321071Y-26785500D01*
X7349643Y-26742643D01*
X7363928Y-26728357D01*
X7492500Y-27071214D02*
X7549643Y-27071214D01*
X7578214Y-27056929D01*
X7592500Y-27042643D01*
X7621071Y-26999786D01*
X7635357Y-26942643D01*
X7635357Y-26828357D01*
X7621071Y-26799786D01*
X7606785Y-26785500D01*
X7578214Y-26771214D01*
X7521071Y-26771214D01*
X7492500Y-26785500D01*
X7478214Y-26799786D01*
X7463928Y-26828357D01*
X7463928Y-26899786D01*
X7478214Y-26928357D01*
X7492500Y-26942643D01*
X7521071Y-26956929D01*
X7578214Y-26956929D01*
X7606785Y-26942643D01*
X7621071Y-26928357D01*
X7635357Y-26899786D01*
X7992500Y-27071214D02*
X7992500Y-26771214D01*
X8121071Y-27071214D02*
X8121071Y-26914071D01*
X8106785Y-26885500D01*
X8078214Y-26871214D01*
X8035357Y-26871214D01*
X8006785Y-26885500D01*
X7992500Y-26899786D01*
X8306785Y-27071214D02*
X8278214Y-27056929D01*
X8263928Y-27042643D01*
X8249643Y-27014071D01*
X8249643Y-26928357D01*
X8263928Y-26899786D01*
X8278214Y-26885500D01*
X8306785Y-26871214D01*
X8349643Y-26871214D01*
X8378214Y-26885500D01*
X8392500Y-26899786D01*
X8406786Y-26928357D01*
X8406786Y-27014071D01*
X8392500Y-27042643D01*
X8378214Y-27056929D01*
X8349643Y-27071214D01*
X8306785Y-27071214D01*
X8578214Y-27071214D02*
X8549643Y-27056929D01*
X8535357Y-27028357D01*
X8535357Y-26771214D01*
X8806786Y-27056929D02*
X8778214Y-27071214D01*
X8721071Y-27071214D01*
X8692500Y-27056929D01*
X8678214Y-27028357D01*
X8678214Y-26914071D01*
X8692500Y-26885500D01*
X8721071Y-26871214D01*
X8778214Y-26871214D01*
X8806786Y-26885500D01*
X8821071Y-26914071D01*
X8821071Y-26942643D01*
X8678214Y-26971214D01*
X8935357Y-27056929D02*
X8963929Y-27071214D01*
X9021071Y-27071214D01*
X9049643Y-27056929D01*
X9063929Y-27028357D01*
X9063929Y-27014071D01*
X9049643Y-26985500D01*
X9021071Y-26971214D01*
X8978214Y-26971214D01*
X8949643Y-26956929D01*
X8935357Y-26928357D01*
X8935357Y-26914071D01*
X8949643Y-26885500D01*
X8978214Y-26871214D01*
X9021071Y-26871214D01*
X9049643Y-26885500D01*
X9163928Y-27185500D02*
X9178214Y-27171214D01*
X9206786Y-27128357D01*
X9221071Y-27099786D01*
X9235357Y-27056929D01*
X9249643Y-26985500D01*
X9249643Y-26928357D01*
X9235357Y-26856929D01*
X9221071Y-26814071D01*
X9206786Y-26785500D01*
X9178214Y-26742643D01*
X9163928Y-26728357D01*
X2627500Y-27266500D02*
X2627500Y-27396500D01*
X2562500Y-27331500D02*
X2692500Y-27331500D01*
X2692500Y-27331500D02*
G75*
G03X2692500Y-27331500I-65000J0D01*
G01*
X3121071Y-27467214D02*
X2949643Y-27467214D01*
X3035357Y-27467214D02*
X3035357Y-27167214D01*
X3006786Y-27210071D01*
X2978214Y-27238643D01*
X2949643Y-27252929D01*
X3249643Y-27438643D02*
X3263928Y-27452929D01*
X3249643Y-27467214D01*
X3235357Y-27452929D01*
X3249643Y-27438643D01*
X3249643Y-27467214D01*
X3363928Y-27167214D02*
X3549643Y-27167214D01*
X3449643Y-27281500D01*
X3492500Y-27281500D01*
X3521071Y-27295786D01*
X3535357Y-27310071D01*
X3549643Y-27338643D01*
X3549643Y-27410071D01*
X3535357Y-27438643D01*
X3521071Y-27452929D01*
X3492500Y-27467214D01*
X3406786Y-27467214D01*
X3378214Y-27452929D01*
X3363928Y-27438643D01*
X3735357Y-27167214D02*
X3763928Y-27167214D01*
X3792500Y-27181500D01*
X3806786Y-27195786D01*
X3821071Y-27224357D01*
X3835357Y-27281500D01*
X3835357Y-27352929D01*
X3821071Y-27410071D01*
X3806786Y-27438643D01*
X3792500Y-27452929D01*
X3763928Y-27467214D01*
X3735357Y-27467214D01*
X3706786Y-27452929D01*
X3692500Y-27438643D01*
X3678214Y-27410071D01*
X3663928Y-27352929D01*
X3663928Y-27281500D01*
X3678214Y-27224357D01*
X3692500Y-27195786D01*
X3706786Y-27181500D01*
X3735357Y-27167214D01*
X3963928Y-27467214D02*
X3963928Y-27267214D01*
X3963928Y-27295786D02*
X3978214Y-27281500D01*
X4006786Y-27267214D01*
X4049643Y-27267214D01*
X4078214Y-27281500D01*
X4092500Y-27310071D01*
X4092500Y-27467214D01*
X4092500Y-27310071D02*
X4106786Y-27281500D01*
X4135357Y-27267214D01*
X4178214Y-27267214D01*
X4206786Y-27281500D01*
X4221071Y-27310071D01*
X4221071Y-27467214D01*
X4363929Y-27467214D02*
X4363929Y-27267214D01*
X4363929Y-27295786D02*
X4378214Y-27281500D01*
X4406786Y-27267214D01*
X4449643Y-27267214D01*
X4478214Y-27281500D01*
X4492500Y-27310071D01*
X4492500Y-27467214D01*
X4492500Y-27310071D02*
X4506786Y-27281500D01*
X4535357Y-27267214D01*
X4578214Y-27267214D01*
X4606786Y-27281500D01*
X4621071Y-27310071D01*
X4621071Y-27467214D01*
X5206786Y-27152929D02*
X4949643Y-27538643D01*
X5592500Y-27167214D02*
X5621071Y-27167214D01*
X5649643Y-27181500D01*
X5663928Y-27195786D01*
X5678214Y-27224357D01*
X5692500Y-27281500D01*
X5692500Y-27352929D01*
X5678214Y-27410071D01*
X5663928Y-27438643D01*
X5649643Y-27452929D01*
X5621071Y-27467214D01*
X5592500Y-27467214D01*
X5563928Y-27452929D01*
X5549643Y-27438643D01*
X5535357Y-27410071D01*
X5521071Y-27352929D01*
X5521071Y-27281500D01*
X5535357Y-27224357D01*
X5549643Y-27195786D01*
X5563928Y-27181500D01*
X5592500Y-27167214D01*
X5821071Y-27438643D02*
X5835357Y-27452929D01*
X5821071Y-27467214D01*
X5806786Y-27452929D01*
X5821071Y-27438643D01*
X5821071Y-27467214D01*
X6021071Y-27167214D02*
X6049643Y-27167214D01*
X6078214Y-27181500D01*
X6092500Y-27195786D01*
X6106785Y-27224357D01*
X6121071Y-27281500D01*
X6121071Y-27352929D01*
X6106785Y-27410071D01*
X6092500Y-27438643D01*
X6078214Y-27452929D01*
X6049643Y-27467214D01*
X6021071Y-27467214D01*
X5992500Y-27452929D01*
X5978214Y-27438643D01*
X5963928Y-27410071D01*
X5949643Y-27352929D01*
X5949643Y-27281500D01*
X5963928Y-27224357D01*
X5978214Y-27195786D01*
X5992500Y-27181500D01*
X6021071Y-27167214D01*
X6392500Y-27167214D02*
X6249643Y-27167214D01*
X6235357Y-27310071D01*
X6249643Y-27295786D01*
X6278214Y-27281500D01*
X6349643Y-27281500D01*
X6378214Y-27295786D01*
X6392500Y-27310071D01*
X6406785Y-27338643D01*
X6406785Y-27410071D01*
X6392500Y-27438643D01*
X6378214Y-27452929D01*
X6349643Y-27467214D01*
X6278214Y-27467214D01*
X6249643Y-27452929D01*
X6235357Y-27438643D01*
X6692500Y-27467214D02*
X6521071Y-27467214D01*
X6606785Y-27467214D02*
X6606785Y-27167214D01*
X6578214Y-27210071D01*
X6549643Y-27238643D01*
X6521071Y-27252929D01*
X6806786Y-27167214D02*
X6806786Y-27224357D01*
X6921071Y-27167214D02*
X6921071Y-27224357D01*
X7363928Y-27581500D02*
X7349643Y-27567214D01*
X7321071Y-27524357D01*
X7306785Y-27495786D01*
X7292500Y-27452929D01*
X7278214Y-27381500D01*
X7278214Y-27324357D01*
X7292500Y-27252929D01*
X7306785Y-27210071D01*
X7321071Y-27181500D01*
X7349643Y-27138643D01*
X7363928Y-27124357D01*
X7449643Y-27167214D02*
X7635357Y-27167214D01*
X7535357Y-27281500D01*
X7578214Y-27281500D01*
X7606785Y-27295786D01*
X7621071Y-27310071D01*
X7635357Y-27338643D01*
X7635357Y-27410071D01*
X7621071Y-27438643D01*
X7606785Y-27452929D01*
X7578214Y-27467214D01*
X7492500Y-27467214D01*
X7463928Y-27452929D01*
X7449643Y-27438643D01*
X7992500Y-27467214D02*
X7992500Y-27167214D01*
X8121071Y-27467214D02*
X8121071Y-27310071D01*
X8106785Y-27281500D01*
X8078214Y-27267214D01*
X8035357Y-27267214D01*
X8006785Y-27281500D01*
X7992500Y-27295786D01*
X8306785Y-27467214D02*
X8278214Y-27452929D01*
X8263928Y-27438643D01*
X8249643Y-27410071D01*
X8249643Y-27324357D01*
X8263928Y-27295786D01*
X8278214Y-27281500D01*
X8306785Y-27267214D01*
X8349643Y-27267214D01*
X8378214Y-27281500D01*
X8392500Y-27295786D01*
X8406786Y-27324357D01*
X8406786Y-27410071D01*
X8392500Y-27438643D01*
X8378214Y-27452929D01*
X8349643Y-27467214D01*
X8306785Y-27467214D01*
X8578214Y-27467214D02*
X8549643Y-27452929D01*
X8535357Y-27424357D01*
X8535357Y-27167214D01*
X8806786Y-27452929D02*
X8778214Y-27467214D01*
X8721071Y-27467214D01*
X8692500Y-27452929D01*
X8678214Y-27424357D01*
X8678214Y-27310071D01*
X8692500Y-27281500D01*
X8721071Y-27267214D01*
X8778214Y-27267214D01*
X8806786Y-27281500D01*
X8821071Y-27310071D01*
X8821071Y-27338643D01*
X8678214Y-27367214D01*
X8935357Y-27452929D02*
X8963929Y-27467214D01*
X9021071Y-27467214D01*
X9049643Y-27452929D01*
X9063929Y-27424357D01*
X9063929Y-27410071D01*
X9049643Y-27381500D01*
X9021071Y-27367214D01*
X8978214Y-27367214D01*
X8949643Y-27352929D01*
X8935357Y-27324357D01*
X8935357Y-27310071D01*
X8949643Y-27281500D01*
X8978214Y-27267214D01*
X9021071Y-27267214D01*
X9049643Y-27281500D01*
X9163928Y-27581500D02*
X9178214Y-27567214D01*
X9206786Y-27524357D01*
X9221071Y-27495786D01*
X9235357Y-27452929D01*
X9249643Y-27381500D01*
X9249643Y-27324357D01*
X9235357Y-27252929D01*
X9221071Y-27210071D01*
X9206786Y-27181500D01*
X9178214Y-27138643D01*
X9163928Y-27124357D01*
X2673158Y-27774198D02*
X2673158Y-27680802D01*
X2579762Y-27680802D01*
X2579762Y-27774198D01*
X2673158Y-27774198D01*
X2692500Y-27727500D02*
G75*
G03X2692500Y-27727500I-66040J0D01*
G01*
X3121071Y-27863214D02*
X2949643Y-27863214D01*
X3035357Y-27863214D02*
X3035357Y-27563214D01*
X3006786Y-27606071D01*
X2978214Y-27634643D01*
X2949643Y-27648929D01*
X3249643Y-27834643D02*
X3263928Y-27848929D01*
X3249643Y-27863214D01*
X3235357Y-27848929D01*
X3249643Y-27834643D01*
X3249643Y-27863214D01*
X3363928Y-27563214D02*
X3549643Y-27563214D01*
X3449643Y-27677500D01*
X3492500Y-27677500D01*
X3521071Y-27691786D01*
X3535357Y-27706071D01*
X3549643Y-27734643D01*
X3549643Y-27806071D01*
X3535357Y-27834643D01*
X3521071Y-27848929D01*
X3492500Y-27863214D01*
X3406786Y-27863214D01*
X3378214Y-27848929D01*
X3363928Y-27834643D01*
X3663928Y-27591786D02*
X3678214Y-27577500D01*
X3706786Y-27563214D01*
X3778214Y-27563214D01*
X3806786Y-27577500D01*
X3821071Y-27591786D01*
X3835357Y-27620357D01*
X3835357Y-27648929D01*
X3821071Y-27691786D01*
X3649643Y-27863214D01*
X3835357Y-27863214D01*
X3963928Y-27863214D02*
X3963928Y-27663214D01*
X3963928Y-27691786D02*
X3978214Y-27677500D01*
X4006786Y-27663214D01*
X4049643Y-27663214D01*
X4078214Y-27677500D01*
X4092500Y-27706071D01*
X4092500Y-27863214D01*
X4092500Y-27706071D02*
X4106786Y-27677500D01*
X4135357Y-27663214D01*
X4178214Y-27663214D01*
X4206786Y-27677500D01*
X4221071Y-27706071D01*
X4221071Y-27863214D01*
X4363929Y-27863214D02*
X4363929Y-27663214D01*
X4363929Y-27691786D02*
X4378214Y-27677500D01*
X4406786Y-27663214D01*
X4449643Y-27663214D01*
X4478214Y-27677500D01*
X4492500Y-27706071D01*
X4492500Y-27863214D01*
X4492500Y-27706071D02*
X4506786Y-27677500D01*
X4535357Y-27663214D01*
X4578214Y-27663214D01*
X4606786Y-27677500D01*
X4621071Y-27706071D01*
X4621071Y-27863214D01*
X5206786Y-27548929D02*
X4949643Y-27934643D01*
X5592500Y-27563214D02*
X5621071Y-27563214D01*
X5649643Y-27577500D01*
X5663928Y-27591786D01*
X5678214Y-27620357D01*
X5692500Y-27677500D01*
X5692500Y-27748929D01*
X5678214Y-27806071D01*
X5663928Y-27834643D01*
X5649643Y-27848929D01*
X5621071Y-27863214D01*
X5592500Y-27863214D01*
X5563928Y-27848929D01*
X5549643Y-27834643D01*
X5535357Y-27806071D01*
X5521071Y-27748929D01*
X5521071Y-27677500D01*
X5535357Y-27620357D01*
X5549643Y-27591786D01*
X5563928Y-27577500D01*
X5592500Y-27563214D01*
X5821071Y-27834643D02*
X5835357Y-27848929D01*
X5821071Y-27863214D01*
X5806786Y-27848929D01*
X5821071Y-27834643D01*
X5821071Y-27863214D01*
X6021071Y-27563214D02*
X6049643Y-27563214D01*
X6078214Y-27577500D01*
X6092500Y-27591786D01*
X6106785Y-27620357D01*
X6121071Y-27677500D01*
X6121071Y-27748929D01*
X6106785Y-27806071D01*
X6092500Y-27834643D01*
X6078214Y-27848929D01*
X6049643Y-27863214D01*
X6021071Y-27863214D01*
X5992500Y-27848929D01*
X5978214Y-27834643D01*
X5963928Y-27806071D01*
X5949643Y-27748929D01*
X5949643Y-27677500D01*
X5963928Y-27620357D01*
X5978214Y-27591786D01*
X5992500Y-27577500D01*
X6021071Y-27563214D01*
X6392500Y-27563214D02*
X6249643Y-27563214D01*
X6235357Y-27706071D01*
X6249643Y-27691786D01*
X6278214Y-27677500D01*
X6349643Y-27677500D01*
X6378214Y-27691786D01*
X6392500Y-27706071D01*
X6406785Y-27734643D01*
X6406785Y-27806071D01*
X6392500Y-27834643D01*
X6378214Y-27848929D01*
X6349643Y-27863214D01*
X6278214Y-27863214D01*
X6249643Y-27848929D01*
X6235357Y-27834643D01*
X6521071Y-27591786D02*
X6535357Y-27577500D01*
X6563928Y-27563214D01*
X6635357Y-27563214D01*
X6663928Y-27577500D01*
X6678214Y-27591786D01*
X6692500Y-27620357D01*
X6692500Y-27648929D01*
X6678214Y-27691786D01*
X6506785Y-27863214D01*
X6692500Y-27863214D01*
X6806786Y-27563214D02*
X6806786Y-27620357D01*
X6921071Y-27563214D02*
X6921071Y-27620357D01*
X7363928Y-27977500D02*
X7349643Y-27963214D01*
X7321071Y-27920357D01*
X7306785Y-27891786D01*
X7292500Y-27848929D01*
X7278214Y-27777500D01*
X7278214Y-27720357D01*
X7292500Y-27648929D01*
X7306785Y-27606071D01*
X7321071Y-27577500D01*
X7349643Y-27534643D01*
X7363928Y-27520357D01*
X7635357Y-27863214D02*
X7463928Y-27863214D01*
X7549643Y-27863214D02*
X7549643Y-27563214D01*
X7521071Y-27606071D01*
X7492500Y-27634643D01*
X7463928Y-27648929D01*
X7906785Y-27563214D02*
X7763928Y-27563214D01*
X7749643Y-27706071D01*
X7763928Y-27691786D01*
X7792500Y-27677500D01*
X7863928Y-27677500D01*
X7892500Y-27691786D01*
X7906785Y-27706071D01*
X7921071Y-27734643D01*
X7921071Y-27806071D01*
X7906785Y-27834643D01*
X7892500Y-27848929D01*
X7863928Y-27863214D01*
X7792500Y-27863214D01*
X7763928Y-27848929D01*
X7749643Y-27834643D01*
X8278214Y-27863214D02*
X8278214Y-27563214D01*
X8406786Y-27863214D02*
X8406786Y-27706071D01*
X8392500Y-27677500D01*
X8363928Y-27663214D01*
X8321071Y-27663214D01*
X8292500Y-27677500D01*
X8278214Y-27691786D01*
X8592500Y-27863214D02*
X8563928Y-27848929D01*
X8549643Y-27834643D01*
X8535357Y-27806071D01*
X8535357Y-27720357D01*
X8549643Y-27691786D01*
X8563928Y-27677500D01*
X8592500Y-27663214D01*
X8635357Y-27663214D01*
X8663928Y-27677500D01*
X8678214Y-27691786D01*
X8692500Y-27720357D01*
X8692500Y-27806071D01*
X8678214Y-27834643D01*
X8663928Y-27848929D01*
X8635357Y-27863214D01*
X8592500Y-27863214D01*
X8863928Y-27863214D02*
X8835357Y-27848929D01*
X8821071Y-27820357D01*
X8821071Y-27563214D01*
X9092500Y-27848929D02*
X9063929Y-27863214D01*
X9006786Y-27863214D01*
X8978214Y-27848929D01*
X8963929Y-27820357D01*
X8963929Y-27706071D01*
X8978214Y-27677500D01*
X9006786Y-27663214D01*
X9063929Y-27663214D01*
X9092500Y-27677500D01*
X9106786Y-27706071D01*
X9106786Y-27734643D01*
X8963929Y-27763214D01*
X9221071Y-27848929D02*
X9249643Y-27863214D01*
X9306786Y-27863214D01*
X9335357Y-27848929D01*
X9349643Y-27820357D01*
X9349643Y-27806071D01*
X9335357Y-27777500D01*
X9306786Y-27763214D01*
X9263929Y-27763214D01*
X9235357Y-27748929D01*
X9221071Y-27720357D01*
X9221071Y-27706071D01*
X9235357Y-27677500D01*
X9263929Y-27663214D01*
X9306786Y-27663214D01*
X9335357Y-27677500D01*
X9449643Y-27977500D02*
X9463929Y-27963214D01*
X9492500Y-27920357D01*
X9506786Y-27891786D01*
X9521071Y-27848929D01*
X9535357Y-27777500D01*
X9535357Y-27720357D01*
X9521071Y-27648929D01*
X9506786Y-27606071D01*
X9492500Y-27577500D01*
X9463929Y-27534643D01*
X9449643Y-27520357D01*
X2617443Y-28198557D02*
X2692500Y-28123500D01*
X2617443Y-28048443D01*
X2542386Y-28123500D01*
X2617443Y-28198557D01*
X2692500Y-28123500D02*
G75*
G03X2692500Y-28123500I-75057J0D01*
G01*
X3121071Y-28259214D02*
X2949643Y-28259214D01*
X3035357Y-28259214D02*
X3035357Y-27959214D01*
X3006786Y-28002071D01*
X2978214Y-28030643D01*
X2949643Y-28044929D01*
X3249643Y-28230643D02*
X3263928Y-28244929D01*
X3249643Y-28259214D01*
X3235357Y-28244929D01*
X3249643Y-28230643D01*
X3249643Y-28259214D01*
X3535357Y-27959214D02*
X3392500Y-27959214D01*
X3378214Y-28102071D01*
X3392500Y-28087786D01*
X3421071Y-28073500D01*
X3492500Y-28073500D01*
X3521071Y-28087786D01*
X3535357Y-28102071D01*
X3549643Y-28130643D01*
X3549643Y-28202071D01*
X3535357Y-28230643D01*
X3521071Y-28244929D01*
X3492500Y-28259214D01*
X3421071Y-28259214D01*
X3392500Y-28244929D01*
X3378214Y-28230643D01*
X3735357Y-27959214D02*
X3763928Y-27959214D01*
X3792500Y-27973500D01*
X3806786Y-27987786D01*
X3821071Y-28016357D01*
X3835357Y-28073500D01*
X3835357Y-28144929D01*
X3821071Y-28202071D01*
X3806786Y-28230643D01*
X3792500Y-28244929D01*
X3763928Y-28259214D01*
X3735357Y-28259214D01*
X3706786Y-28244929D01*
X3692500Y-28230643D01*
X3678214Y-28202071D01*
X3663928Y-28144929D01*
X3663928Y-28073500D01*
X3678214Y-28016357D01*
X3692500Y-27987786D01*
X3706786Y-27973500D01*
X3735357Y-27959214D01*
X3963928Y-28259214D02*
X3963928Y-28059214D01*
X3963928Y-28087786D02*
X3978214Y-28073500D01*
X4006786Y-28059214D01*
X4049643Y-28059214D01*
X4078214Y-28073500D01*
X4092500Y-28102071D01*
X4092500Y-28259214D01*
X4092500Y-28102071D02*
X4106786Y-28073500D01*
X4135357Y-28059214D01*
X4178214Y-28059214D01*
X4206786Y-28073500D01*
X4221071Y-28102071D01*
X4221071Y-28259214D01*
X4363929Y-28259214D02*
X4363929Y-28059214D01*
X4363929Y-28087786D02*
X4378214Y-28073500D01*
X4406786Y-28059214D01*
X4449643Y-28059214D01*
X4478214Y-28073500D01*
X4492500Y-28102071D01*
X4492500Y-28259214D01*
X4492500Y-28102071D02*
X4506786Y-28073500D01*
X4535357Y-28059214D01*
X4578214Y-28059214D01*
X4606786Y-28073500D01*
X4621071Y-28102071D01*
X4621071Y-28259214D01*
X5206786Y-27944929D02*
X4949643Y-28330643D01*
X5592500Y-27959214D02*
X5621071Y-27959214D01*
X5649643Y-27973500D01*
X5663928Y-27987786D01*
X5678214Y-28016357D01*
X5692500Y-28073500D01*
X5692500Y-28144929D01*
X5678214Y-28202071D01*
X5663928Y-28230643D01*
X5649643Y-28244929D01*
X5621071Y-28259214D01*
X5592500Y-28259214D01*
X5563928Y-28244929D01*
X5549643Y-28230643D01*
X5535357Y-28202071D01*
X5521071Y-28144929D01*
X5521071Y-28073500D01*
X5535357Y-28016357D01*
X5549643Y-27987786D01*
X5563928Y-27973500D01*
X5592500Y-27959214D01*
X5821071Y-28230643D02*
X5835357Y-28244929D01*
X5821071Y-28259214D01*
X5806786Y-28244929D01*
X5821071Y-28230643D01*
X5821071Y-28259214D01*
X6021071Y-27959214D02*
X6049643Y-27959214D01*
X6078214Y-27973500D01*
X6092500Y-27987786D01*
X6106785Y-28016357D01*
X6121071Y-28073500D01*
X6121071Y-28144929D01*
X6106785Y-28202071D01*
X6092500Y-28230643D01*
X6078214Y-28244929D01*
X6049643Y-28259214D01*
X6021071Y-28259214D01*
X5992500Y-28244929D01*
X5978214Y-28230643D01*
X5963928Y-28202071D01*
X5949643Y-28144929D01*
X5949643Y-28073500D01*
X5963928Y-28016357D01*
X5978214Y-27987786D01*
X5992500Y-27973500D01*
X6021071Y-27959214D01*
X6392500Y-27959214D02*
X6249643Y-27959214D01*
X6235357Y-28102071D01*
X6249643Y-28087786D01*
X6278214Y-28073500D01*
X6349643Y-28073500D01*
X6378214Y-28087786D01*
X6392500Y-28102071D01*
X6406785Y-28130643D01*
X6406785Y-28202071D01*
X6392500Y-28230643D01*
X6378214Y-28244929D01*
X6349643Y-28259214D01*
X6278214Y-28259214D01*
X6249643Y-28244929D01*
X6235357Y-28230643D01*
X6549643Y-28259214D02*
X6606785Y-28259214D01*
X6635357Y-28244929D01*
X6649643Y-28230643D01*
X6678214Y-28187786D01*
X6692500Y-28130643D01*
X6692500Y-28016357D01*
X6678214Y-27987786D01*
X6663928Y-27973500D01*
X6635357Y-27959214D01*
X6578214Y-27959214D01*
X6549643Y-27973500D01*
X6535357Y-27987786D01*
X6521071Y-28016357D01*
X6521071Y-28087786D01*
X6535357Y-28116357D01*
X6549643Y-28130643D01*
X6578214Y-28144929D01*
X6635357Y-28144929D01*
X6663928Y-28130643D01*
X6678214Y-28116357D01*
X6692500Y-28087786D01*
X6806786Y-27959214D02*
X6806786Y-28016357D01*
X6921071Y-27959214D02*
X6921071Y-28016357D01*
X7363928Y-28373500D02*
X7349643Y-28359214D01*
X7321071Y-28316357D01*
X7306785Y-28287786D01*
X7292500Y-28244929D01*
X7278214Y-28173500D01*
X7278214Y-28116357D01*
X7292500Y-28044929D01*
X7306785Y-28002071D01*
X7321071Y-27973500D01*
X7349643Y-27930643D01*
X7363928Y-27916357D01*
X7463928Y-27987786D02*
X7478214Y-27973500D01*
X7506785Y-27959214D01*
X7578214Y-27959214D01*
X7606785Y-27973500D01*
X7621071Y-27987786D01*
X7635357Y-28016357D01*
X7635357Y-28044929D01*
X7621071Y-28087786D01*
X7449643Y-28259214D01*
X7635357Y-28259214D01*
X7992500Y-28259214D02*
X7992500Y-27959214D01*
X8121071Y-28259214D02*
X8121071Y-28102071D01*
X8106785Y-28073500D01*
X8078214Y-28059214D01*
X8035357Y-28059214D01*
X8006785Y-28073500D01*
X7992500Y-28087786D01*
X8306785Y-28259214D02*
X8278214Y-28244929D01*
X8263928Y-28230643D01*
X8249643Y-28202071D01*
X8249643Y-28116357D01*
X8263928Y-28087786D01*
X8278214Y-28073500D01*
X8306785Y-28059214D01*
X8349643Y-28059214D01*
X8378214Y-28073500D01*
X8392500Y-28087786D01*
X8406786Y-28116357D01*
X8406786Y-28202071D01*
X8392500Y-28230643D01*
X8378214Y-28244929D01*
X8349643Y-28259214D01*
X8306785Y-28259214D01*
X8578214Y-28259214D02*
X8549643Y-28244929D01*
X8535357Y-28216357D01*
X8535357Y-27959214D01*
X8806786Y-28244929D02*
X8778214Y-28259214D01*
X8721071Y-28259214D01*
X8692500Y-28244929D01*
X8678214Y-28216357D01*
X8678214Y-28102071D01*
X8692500Y-28073500D01*
X8721071Y-28059214D01*
X8778214Y-28059214D01*
X8806786Y-28073500D01*
X8821071Y-28102071D01*
X8821071Y-28130643D01*
X8678214Y-28159214D01*
X8935357Y-28244929D02*
X8963929Y-28259214D01*
X9021071Y-28259214D01*
X9049643Y-28244929D01*
X9063929Y-28216357D01*
X9063929Y-28202071D01*
X9049643Y-28173500D01*
X9021071Y-28159214D01*
X8978214Y-28159214D01*
X8949643Y-28144929D01*
X8935357Y-28116357D01*
X8935357Y-28102071D01*
X8949643Y-28073500D01*
X8978214Y-28059214D01*
X9021071Y-28059214D01*
X9049643Y-28073500D01*
X9163928Y-28373500D02*
X9178214Y-28359214D01*
X9206786Y-28316357D01*
X9221071Y-28287786D01*
X9235357Y-28244929D01*
X9249643Y-28173500D01*
X9249643Y-28116357D01*
X9235357Y-28044929D01*
X9221071Y-28002071D01*
X9206786Y-27973500D01*
X9178214Y-27930643D01*
X9163928Y-27916357D01*
X2616300Y-28443300D02*
X2616300Y-28595700D01*
X2540100Y-28519500D02*
X2692500Y-28519500D01*
X2670182Y-28573382D02*
X2670182Y-28465618D01*
X2562418Y-28465618D01*
X2562418Y-28573382D01*
X2670182Y-28573382D01*
X3121071Y-28655214D02*
X2949643Y-28655214D01*
X3035357Y-28655214D02*
X3035357Y-28355214D01*
X3006786Y-28398071D01*
X2978214Y-28426643D01*
X2949643Y-28440929D01*
X3249643Y-28626643D02*
X3263928Y-28640929D01*
X3249643Y-28655214D01*
X3235357Y-28640929D01*
X3249643Y-28626643D01*
X3249643Y-28655214D01*
X3535357Y-28355214D02*
X3392500Y-28355214D01*
X3378214Y-28498071D01*
X3392500Y-28483786D01*
X3421071Y-28469500D01*
X3492500Y-28469500D01*
X3521071Y-28483786D01*
X3535357Y-28498071D01*
X3549643Y-28526643D01*
X3549643Y-28598071D01*
X3535357Y-28626643D01*
X3521071Y-28640929D01*
X3492500Y-28655214D01*
X3421071Y-28655214D01*
X3392500Y-28640929D01*
X3378214Y-28626643D01*
X3663928Y-28383786D02*
X3678214Y-28369500D01*
X3706786Y-28355214D01*
X3778214Y-28355214D01*
X3806786Y-28369500D01*
X3821071Y-28383786D01*
X3835357Y-28412357D01*
X3835357Y-28440929D01*
X3821071Y-28483786D01*
X3649643Y-28655214D01*
X3835357Y-28655214D01*
X3963928Y-28655214D02*
X3963928Y-28455214D01*
X3963928Y-28483786D02*
X3978214Y-28469500D01*
X4006786Y-28455214D01*
X4049643Y-28455214D01*
X4078214Y-28469500D01*
X4092500Y-28498071D01*
X4092500Y-28655214D01*
X4092500Y-28498071D02*
X4106786Y-28469500D01*
X4135357Y-28455214D01*
X4178214Y-28455214D01*
X4206786Y-28469500D01*
X4221071Y-28498071D01*
X4221071Y-28655214D01*
X4363929Y-28655214D02*
X4363929Y-28455214D01*
X4363929Y-28483786D02*
X4378214Y-28469500D01*
X4406786Y-28455214D01*
X4449643Y-28455214D01*
X4478214Y-28469500D01*
X4492500Y-28498071D01*
X4492500Y-28655214D01*
X4492500Y-28498071D02*
X4506786Y-28469500D01*
X4535357Y-28455214D01*
X4578214Y-28455214D01*
X4606786Y-28469500D01*
X4621071Y-28498071D01*
X4621071Y-28655214D01*
X5206786Y-28340929D02*
X4949643Y-28726643D01*
X5592500Y-28355214D02*
X5621071Y-28355214D01*
X5649643Y-28369500D01*
X5663928Y-28383786D01*
X5678214Y-28412357D01*
X5692500Y-28469500D01*
X5692500Y-28540929D01*
X5678214Y-28598071D01*
X5663928Y-28626643D01*
X5649643Y-28640929D01*
X5621071Y-28655214D01*
X5592500Y-28655214D01*
X5563928Y-28640929D01*
X5549643Y-28626643D01*
X5535357Y-28598071D01*
X5521071Y-28540929D01*
X5521071Y-28469500D01*
X5535357Y-28412357D01*
X5549643Y-28383786D01*
X5563928Y-28369500D01*
X5592500Y-28355214D01*
X5821071Y-28626643D02*
X5835357Y-28640929D01*
X5821071Y-28655214D01*
X5806786Y-28640929D01*
X5821071Y-28626643D01*
X5821071Y-28655214D01*
X6021071Y-28355214D02*
X6049643Y-28355214D01*
X6078214Y-28369500D01*
X6092500Y-28383786D01*
X6106785Y-28412357D01*
X6121071Y-28469500D01*
X6121071Y-28540929D01*
X6106785Y-28598071D01*
X6092500Y-28626643D01*
X6078214Y-28640929D01*
X6049643Y-28655214D01*
X6021071Y-28655214D01*
X5992500Y-28640929D01*
X5978214Y-28626643D01*
X5963928Y-28598071D01*
X5949643Y-28540929D01*
X5949643Y-28469500D01*
X5963928Y-28412357D01*
X5978214Y-28383786D01*
X5992500Y-28369500D01*
X6021071Y-28355214D01*
X6378214Y-28355214D02*
X6321071Y-28355214D01*
X6292500Y-28369500D01*
X6278214Y-28383786D01*
X6249643Y-28426643D01*
X6235357Y-28483786D01*
X6235357Y-28598071D01*
X6249643Y-28626643D01*
X6263928Y-28640929D01*
X6292500Y-28655214D01*
X6349643Y-28655214D01*
X6378214Y-28640929D01*
X6392500Y-28626643D01*
X6406785Y-28598071D01*
X6406785Y-28526643D01*
X6392500Y-28498071D01*
X6378214Y-28483786D01*
X6349643Y-28469500D01*
X6292500Y-28469500D01*
X6263928Y-28483786D01*
X6249643Y-28498071D01*
X6235357Y-28526643D01*
X6592500Y-28355214D02*
X6621071Y-28355214D01*
X6649643Y-28369500D01*
X6663928Y-28383786D01*
X6678214Y-28412357D01*
X6692500Y-28469500D01*
X6692500Y-28540929D01*
X6678214Y-28598071D01*
X6663928Y-28626643D01*
X6649643Y-28640929D01*
X6621071Y-28655214D01*
X6592500Y-28655214D01*
X6563928Y-28640929D01*
X6549643Y-28626643D01*
X6535357Y-28598071D01*
X6521071Y-28540929D01*
X6521071Y-28469500D01*
X6535357Y-28412357D01*
X6549643Y-28383786D01*
X6563928Y-28369500D01*
X6592500Y-28355214D01*
X6806786Y-28355214D02*
X6806786Y-28412357D01*
X6921071Y-28355214D02*
X6921071Y-28412357D01*
X7363928Y-28769500D02*
X7349643Y-28755214D01*
X7321071Y-28712357D01*
X7306785Y-28683786D01*
X7292500Y-28640929D01*
X7278214Y-28569500D01*
X7278214Y-28512357D01*
X7292500Y-28440929D01*
X7306785Y-28398071D01*
X7321071Y-28369500D01*
X7349643Y-28326643D01*
X7363928Y-28312357D01*
X7521071Y-28483786D02*
X7492500Y-28469500D01*
X7478214Y-28455214D01*
X7463928Y-28426643D01*
X7463928Y-28412357D01*
X7478214Y-28383786D01*
X7492500Y-28369500D01*
X7521071Y-28355214D01*
X7578214Y-28355214D01*
X7606785Y-28369500D01*
X7621071Y-28383786D01*
X7635357Y-28412357D01*
X7635357Y-28426643D01*
X7621071Y-28455214D01*
X7606785Y-28469500D01*
X7578214Y-28483786D01*
X7521071Y-28483786D01*
X7492500Y-28498071D01*
X7478214Y-28512357D01*
X7463928Y-28540929D01*
X7463928Y-28598071D01*
X7478214Y-28626643D01*
X7492500Y-28640929D01*
X7521071Y-28655214D01*
X7578214Y-28655214D01*
X7606785Y-28640929D01*
X7621071Y-28626643D01*
X7635357Y-28598071D01*
X7635357Y-28540929D01*
X7621071Y-28512357D01*
X7606785Y-28498071D01*
X7578214Y-28483786D01*
X7992500Y-28655214D02*
X7992500Y-28355214D01*
X8121071Y-28655214D02*
X8121071Y-28498071D01*
X8106785Y-28469500D01*
X8078214Y-28455214D01*
X8035357Y-28455214D01*
X8006785Y-28469500D01*
X7992500Y-28483786D01*
X8306785Y-28655214D02*
X8278214Y-28640929D01*
X8263928Y-28626643D01*
X8249643Y-28598071D01*
X8249643Y-28512357D01*
X8263928Y-28483786D01*
X8278214Y-28469500D01*
X8306785Y-28455214D01*
X8349643Y-28455214D01*
X8378214Y-28469500D01*
X8392500Y-28483786D01*
X8406786Y-28512357D01*
X8406786Y-28598071D01*
X8392500Y-28626643D01*
X8378214Y-28640929D01*
X8349643Y-28655214D01*
X8306785Y-28655214D01*
X8578214Y-28655214D02*
X8549643Y-28640929D01*
X8535357Y-28612357D01*
X8535357Y-28355214D01*
X8806786Y-28640929D02*
X8778214Y-28655214D01*
X8721071Y-28655214D01*
X8692500Y-28640929D01*
X8678214Y-28612357D01*
X8678214Y-28498071D01*
X8692500Y-28469500D01*
X8721071Y-28455214D01*
X8778214Y-28455214D01*
X8806786Y-28469500D01*
X8821071Y-28498071D01*
X8821071Y-28526643D01*
X8678214Y-28555214D01*
X8935357Y-28640929D02*
X8963929Y-28655214D01*
X9021071Y-28655214D01*
X9049643Y-28640929D01*
X9063929Y-28612357D01*
X9063929Y-28598071D01*
X9049643Y-28569500D01*
X9021071Y-28555214D01*
X8978214Y-28555214D01*
X8949643Y-28540929D01*
X8935357Y-28512357D01*
X8935357Y-28498071D01*
X8949643Y-28469500D01*
X8978214Y-28455214D01*
X9021071Y-28455214D01*
X9049643Y-28469500D01*
X9163928Y-28769500D02*
X9178214Y-28755214D01*
X9206786Y-28712357D01*
X9221071Y-28683786D01*
X9235357Y-28640929D01*
X9249643Y-28569500D01*
X9249643Y-28512357D01*
X9235357Y-28440929D01*
X9221071Y-28398071D01*
X9206786Y-28369500D01*
X9178214Y-28326643D01*
X9163928Y-28312357D01*
X2612490Y-28835490D02*
X2612490Y-28995510D01*
X2532480Y-28915500D02*
X2692500Y-28915500D01*
X2612490Y-28995510D02*
X2692500Y-28915500D01*
X2612490Y-28835490D01*
X2532480Y-28915500D01*
X2612490Y-28995510D01*
X3121071Y-29051214D02*
X2949643Y-29051214D01*
X3035357Y-29051214D02*
X3035357Y-28751214D01*
X3006786Y-28794071D01*
X2978214Y-28822643D01*
X2949643Y-28836929D01*
X3249643Y-29022643D02*
X3263928Y-29036929D01*
X3249643Y-29051214D01*
X3235357Y-29036929D01*
X3249643Y-29022643D01*
X3249643Y-29051214D01*
X3521071Y-28751214D02*
X3463928Y-28751214D01*
X3435357Y-28765500D01*
X3421071Y-28779786D01*
X3392500Y-28822643D01*
X3378214Y-28879786D01*
X3378214Y-28994071D01*
X3392500Y-29022643D01*
X3406786Y-29036929D01*
X3435357Y-29051214D01*
X3492500Y-29051214D01*
X3521071Y-29036929D01*
X3535357Y-29022643D01*
X3549643Y-28994071D01*
X3549643Y-28922643D01*
X3535357Y-28894071D01*
X3521071Y-28879786D01*
X3492500Y-28865500D01*
X3435357Y-28865500D01*
X3406786Y-28879786D01*
X3392500Y-28894071D01*
X3378214Y-28922643D01*
X3735357Y-28751214D02*
X3763928Y-28751214D01*
X3792500Y-28765500D01*
X3806786Y-28779786D01*
X3821071Y-28808357D01*
X3835357Y-28865500D01*
X3835357Y-28936929D01*
X3821071Y-28994071D01*
X3806786Y-29022643D01*
X3792500Y-29036929D01*
X3763928Y-29051214D01*
X3735357Y-29051214D01*
X3706786Y-29036929D01*
X3692500Y-29022643D01*
X3678214Y-28994071D01*
X3663928Y-28936929D01*
X3663928Y-28865500D01*
X3678214Y-28808357D01*
X3692500Y-28779786D01*
X3706786Y-28765500D01*
X3735357Y-28751214D01*
X3963928Y-29051214D02*
X3963928Y-28851214D01*
X3963928Y-28879786D02*
X3978214Y-28865500D01*
X4006786Y-28851214D01*
X4049643Y-28851214D01*
X4078214Y-28865500D01*
X4092500Y-28894071D01*
X4092500Y-29051214D01*
X4092500Y-28894071D02*
X4106786Y-28865500D01*
X4135357Y-28851214D01*
X4178214Y-28851214D01*
X4206786Y-28865500D01*
X4221071Y-28894071D01*
X4221071Y-29051214D01*
X4363929Y-29051214D02*
X4363929Y-28851214D01*
X4363929Y-28879786D02*
X4378214Y-28865500D01*
X4406786Y-28851214D01*
X4449643Y-28851214D01*
X4478214Y-28865500D01*
X4492500Y-28894071D01*
X4492500Y-29051214D01*
X4492500Y-28894071D02*
X4506786Y-28865500D01*
X4535357Y-28851214D01*
X4578214Y-28851214D01*
X4606786Y-28865500D01*
X4621071Y-28894071D01*
X4621071Y-29051214D01*
X5206786Y-28736929D02*
X4949643Y-29122643D01*
X5592500Y-28751214D02*
X5621071Y-28751214D01*
X5649643Y-28765500D01*
X5663928Y-28779786D01*
X5678214Y-28808357D01*
X5692500Y-28865500D01*
X5692500Y-28936929D01*
X5678214Y-28994071D01*
X5663928Y-29022643D01*
X5649643Y-29036929D01*
X5621071Y-29051214D01*
X5592500Y-29051214D01*
X5563928Y-29036929D01*
X5549643Y-29022643D01*
X5535357Y-28994071D01*
X5521071Y-28936929D01*
X5521071Y-28865500D01*
X5535357Y-28808357D01*
X5549643Y-28779786D01*
X5563928Y-28765500D01*
X5592500Y-28751214D01*
X5821071Y-29022643D02*
X5835357Y-29036929D01*
X5821071Y-29051214D01*
X5806786Y-29036929D01*
X5821071Y-29022643D01*
X5821071Y-29051214D01*
X6021071Y-28751214D02*
X6049643Y-28751214D01*
X6078214Y-28765500D01*
X6092500Y-28779786D01*
X6106785Y-28808357D01*
X6121071Y-28865500D01*
X6121071Y-28936929D01*
X6106785Y-28994071D01*
X6092500Y-29022643D01*
X6078214Y-29036929D01*
X6049643Y-29051214D01*
X6021071Y-29051214D01*
X5992500Y-29036929D01*
X5978214Y-29022643D01*
X5963928Y-28994071D01*
X5949643Y-28936929D01*
X5949643Y-28865500D01*
X5963928Y-28808357D01*
X5978214Y-28779786D01*
X5992500Y-28765500D01*
X6021071Y-28751214D01*
X6378214Y-28751214D02*
X6321071Y-28751214D01*
X6292500Y-28765500D01*
X6278214Y-28779786D01*
X6249643Y-28822643D01*
X6235357Y-28879786D01*
X6235357Y-28994071D01*
X6249643Y-29022643D01*
X6263928Y-29036929D01*
X6292500Y-29051214D01*
X6349643Y-29051214D01*
X6378214Y-29036929D01*
X6392500Y-29022643D01*
X6406785Y-28994071D01*
X6406785Y-28922643D01*
X6392500Y-28894071D01*
X6378214Y-28879786D01*
X6349643Y-28865500D01*
X6292500Y-28865500D01*
X6263928Y-28879786D01*
X6249643Y-28894071D01*
X6235357Y-28922643D01*
X6506785Y-28751214D02*
X6692500Y-28751214D01*
X6592500Y-28865500D01*
X6635357Y-28865500D01*
X6663928Y-28879786D01*
X6678214Y-28894071D01*
X6692500Y-28922643D01*
X6692500Y-28994071D01*
X6678214Y-29022643D01*
X6663928Y-29036929D01*
X6635357Y-29051214D01*
X6549643Y-29051214D01*
X6521071Y-29036929D01*
X6506785Y-29022643D01*
X6806786Y-28751214D02*
X6806786Y-28808357D01*
X6921071Y-28751214D02*
X6921071Y-28808357D01*
X7363928Y-29165500D02*
X7349643Y-29151214D01*
X7321071Y-29108357D01*
X7306785Y-29079786D01*
X7292500Y-29036929D01*
X7278214Y-28965500D01*
X7278214Y-28908357D01*
X7292500Y-28836929D01*
X7306785Y-28794071D01*
X7321071Y-28765500D01*
X7349643Y-28722643D01*
X7363928Y-28708357D01*
X7521071Y-28879786D02*
X7492500Y-28865500D01*
X7478214Y-28851214D01*
X7463928Y-28822643D01*
X7463928Y-28808357D01*
X7478214Y-28779786D01*
X7492500Y-28765500D01*
X7521071Y-28751214D01*
X7578214Y-28751214D01*
X7606785Y-28765500D01*
X7621071Y-28779786D01*
X7635357Y-28808357D01*
X7635357Y-28822643D01*
X7621071Y-28851214D01*
X7606785Y-28865500D01*
X7578214Y-28879786D01*
X7521071Y-28879786D01*
X7492500Y-28894071D01*
X7478214Y-28908357D01*
X7463928Y-28936929D01*
X7463928Y-28994071D01*
X7478214Y-29022643D01*
X7492500Y-29036929D01*
X7521071Y-29051214D01*
X7578214Y-29051214D01*
X7606785Y-29036929D01*
X7621071Y-29022643D01*
X7635357Y-28994071D01*
X7635357Y-28936929D01*
X7621071Y-28908357D01*
X7606785Y-28894071D01*
X7578214Y-28879786D01*
X7992500Y-29051214D02*
X7992500Y-28751214D01*
X8121071Y-29051214D02*
X8121071Y-28894071D01*
X8106785Y-28865500D01*
X8078214Y-28851214D01*
X8035357Y-28851214D01*
X8006785Y-28865500D01*
X7992500Y-28879786D01*
X8306785Y-29051214D02*
X8278214Y-29036929D01*
X8263928Y-29022643D01*
X8249643Y-28994071D01*
X8249643Y-28908357D01*
X8263928Y-28879786D01*
X8278214Y-28865500D01*
X8306785Y-28851214D01*
X8349643Y-28851214D01*
X8378214Y-28865500D01*
X8392500Y-28879786D01*
X8406786Y-28908357D01*
X8406786Y-28994071D01*
X8392500Y-29022643D01*
X8378214Y-29036929D01*
X8349643Y-29051214D01*
X8306785Y-29051214D01*
X8578214Y-29051214D02*
X8549643Y-29036929D01*
X8535357Y-29008357D01*
X8535357Y-28751214D01*
X8806786Y-29036929D02*
X8778214Y-29051214D01*
X8721071Y-29051214D01*
X8692500Y-29036929D01*
X8678214Y-29008357D01*
X8678214Y-28894071D01*
X8692500Y-28865500D01*
X8721071Y-28851214D01*
X8778214Y-28851214D01*
X8806786Y-28865500D01*
X8821071Y-28894071D01*
X8821071Y-28922643D01*
X8678214Y-28951214D01*
X8935357Y-29036929D02*
X8963929Y-29051214D01*
X9021071Y-29051214D01*
X9049643Y-29036929D01*
X9063929Y-29008357D01*
X9063929Y-28994071D01*
X9049643Y-28965500D01*
X9021071Y-28951214D01*
X8978214Y-28951214D01*
X8949643Y-28936929D01*
X8935357Y-28908357D01*
X8935357Y-28894071D01*
X8949643Y-28865500D01*
X8978214Y-28851214D01*
X9021071Y-28851214D01*
X9049643Y-28865500D01*
X9163928Y-29165500D02*
X9178214Y-29151214D01*
X9206786Y-29108357D01*
X9221071Y-29079786D01*
X9235357Y-29036929D01*
X9249643Y-28965500D01*
X9249643Y-28908357D01*
X9235357Y-28836929D01*
X9221071Y-28794071D01*
X9206786Y-28765500D01*
X9178214Y-28722643D01*
X9163928Y-28708357D01*
X2542513Y-29461487D02*
X2692500Y-29311500D01*
X2542513Y-29161513D01*
X2392526Y-29311500D01*
X2542513Y-29461487D01*
X2648571Y-29417558D02*
X2648571Y-29205442D01*
X2436455Y-29205442D01*
X2436455Y-29417558D01*
X2648571Y-29417558D01*
X2935357Y-29147214D02*
X3121071Y-29147214D01*
X3021071Y-29261500D01*
X3063928Y-29261500D01*
X3092500Y-29275786D01*
X3106786Y-29290071D01*
X3121071Y-29318643D01*
X3121071Y-29390071D01*
X3106786Y-29418643D01*
X3092500Y-29432929D01*
X3063928Y-29447214D01*
X2978214Y-29447214D01*
X2949643Y-29432929D01*
X2935357Y-29418643D01*
X3249643Y-29418643D02*
X3263928Y-29432929D01*
X3249643Y-29447214D01*
X3235357Y-29432929D01*
X3249643Y-29418643D01*
X3249643Y-29447214D01*
X3449643Y-29147214D02*
X3478214Y-29147214D01*
X3506786Y-29161500D01*
X3521071Y-29175786D01*
X3535357Y-29204357D01*
X3549643Y-29261500D01*
X3549643Y-29332929D01*
X3535357Y-29390071D01*
X3521071Y-29418643D01*
X3506786Y-29432929D01*
X3478214Y-29447214D01*
X3449643Y-29447214D01*
X3421071Y-29432929D01*
X3406786Y-29418643D01*
X3392500Y-29390071D01*
X3378214Y-29332929D01*
X3378214Y-29261500D01*
X3392500Y-29204357D01*
X3406786Y-29175786D01*
X3421071Y-29161500D01*
X3449643Y-29147214D01*
X3735357Y-29147214D02*
X3763928Y-29147214D01*
X3792500Y-29161500D01*
X3806786Y-29175786D01*
X3821071Y-29204357D01*
X3835357Y-29261500D01*
X3835357Y-29332929D01*
X3821071Y-29390071D01*
X3806786Y-29418643D01*
X3792500Y-29432929D01*
X3763928Y-29447214D01*
X3735357Y-29447214D01*
X3706786Y-29432929D01*
X3692500Y-29418643D01*
X3678214Y-29390071D01*
X3663928Y-29332929D01*
X3663928Y-29261500D01*
X3678214Y-29204357D01*
X3692500Y-29175786D01*
X3706786Y-29161500D01*
X3735357Y-29147214D01*
X3963928Y-29447214D02*
X3963928Y-29247214D01*
X3963928Y-29275786D02*
X3978214Y-29261500D01*
X4006786Y-29247214D01*
X4049643Y-29247214D01*
X4078214Y-29261500D01*
X4092500Y-29290071D01*
X4092500Y-29447214D01*
X4092500Y-29290071D02*
X4106786Y-29261500D01*
X4135357Y-29247214D01*
X4178214Y-29247214D01*
X4206786Y-29261500D01*
X4221071Y-29290071D01*
X4221071Y-29447214D01*
X4363929Y-29447214D02*
X4363929Y-29247214D01*
X4363929Y-29275786D02*
X4378214Y-29261500D01*
X4406786Y-29247214D01*
X4449643Y-29247214D01*
X4478214Y-29261500D01*
X4492500Y-29290071D01*
X4492500Y-29447214D01*
X4492500Y-29290071D02*
X4506786Y-29261500D01*
X4535357Y-29247214D01*
X4578214Y-29247214D01*
X4606786Y-29261500D01*
X4621071Y-29290071D01*
X4621071Y-29447214D01*
X5206786Y-29132929D02*
X4949643Y-29518643D01*
X5592500Y-29147214D02*
X5621071Y-29147214D01*
X5649643Y-29161500D01*
X5663928Y-29175786D01*
X5678214Y-29204357D01*
X5692500Y-29261500D01*
X5692500Y-29332929D01*
X5678214Y-29390071D01*
X5663928Y-29418643D01*
X5649643Y-29432929D01*
X5621071Y-29447214D01*
X5592500Y-29447214D01*
X5563928Y-29432929D01*
X5549643Y-29418643D01*
X5535357Y-29390071D01*
X5521071Y-29332929D01*
X5521071Y-29261500D01*
X5535357Y-29204357D01*
X5549643Y-29175786D01*
X5563928Y-29161500D01*
X5592500Y-29147214D01*
X5821071Y-29418643D02*
X5835357Y-29432929D01*
X5821071Y-29447214D01*
X5806786Y-29432929D01*
X5821071Y-29418643D01*
X5821071Y-29447214D01*
X6121071Y-29447214D02*
X5949643Y-29447214D01*
X6035357Y-29447214D02*
X6035357Y-29147214D01*
X6006785Y-29190071D01*
X5978214Y-29218643D01*
X5949643Y-29232929D01*
X6406785Y-29447214D02*
X6235357Y-29447214D01*
X6321071Y-29447214D02*
X6321071Y-29147214D01*
X6292500Y-29190071D01*
X6263928Y-29218643D01*
X6235357Y-29232929D01*
X6578214Y-29275786D02*
X6549643Y-29261500D01*
X6535357Y-29247214D01*
X6521071Y-29218643D01*
X6521071Y-29204357D01*
X6535357Y-29175786D01*
X6549643Y-29161500D01*
X6578214Y-29147214D01*
X6635357Y-29147214D01*
X6663928Y-29161500D01*
X6678214Y-29175786D01*
X6692500Y-29204357D01*
X6692500Y-29218643D01*
X6678214Y-29247214D01*
X6663928Y-29261500D01*
X6635357Y-29275786D01*
X6578214Y-29275786D01*
X6549643Y-29290071D01*
X6535357Y-29304357D01*
X6521071Y-29332929D01*
X6521071Y-29390071D01*
X6535357Y-29418643D01*
X6549643Y-29432929D01*
X6578214Y-29447214D01*
X6635357Y-29447214D01*
X6663928Y-29432929D01*
X6678214Y-29418643D01*
X6692500Y-29390071D01*
X6692500Y-29332929D01*
X6678214Y-29304357D01*
X6663928Y-29290071D01*
X6635357Y-29275786D01*
X6806786Y-29147214D02*
X6806786Y-29204357D01*
X6921071Y-29147214D02*
X6921071Y-29204357D01*
X7363928Y-29561500D02*
X7349643Y-29547214D01*
X7321071Y-29504357D01*
X7306785Y-29475786D01*
X7292500Y-29432929D01*
X7278214Y-29361500D01*
X7278214Y-29304357D01*
X7292500Y-29232929D01*
X7306785Y-29190071D01*
X7321071Y-29161500D01*
X7349643Y-29118643D01*
X7363928Y-29104357D01*
X7635357Y-29447214D02*
X7463928Y-29447214D01*
X7549643Y-29447214D02*
X7549643Y-29147214D01*
X7521071Y-29190071D01*
X7492500Y-29218643D01*
X7463928Y-29232929D01*
X7821071Y-29147214D02*
X7849643Y-29147214D01*
X7878214Y-29161500D01*
X7892500Y-29175786D01*
X7906785Y-29204357D01*
X7921071Y-29261500D01*
X7921071Y-29332929D01*
X7906785Y-29390071D01*
X7892500Y-29418643D01*
X7878214Y-29432929D01*
X7849643Y-29447214D01*
X7821071Y-29447214D01*
X7792500Y-29432929D01*
X7778214Y-29418643D01*
X7763928Y-29390071D01*
X7749643Y-29332929D01*
X7749643Y-29261500D01*
X7763928Y-29204357D01*
X7778214Y-29175786D01*
X7792500Y-29161500D01*
X7821071Y-29147214D01*
X8278214Y-29447214D02*
X8278214Y-29147214D01*
X8406786Y-29447214D02*
X8406786Y-29290071D01*
X8392500Y-29261500D01*
X8363928Y-29247214D01*
X8321071Y-29247214D01*
X8292500Y-29261500D01*
X8278214Y-29275786D01*
X8592500Y-29447214D02*
X8563928Y-29432929D01*
X8549643Y-29418643D01*
X8535357Y-29390071D01*
X8535357Y-29304357D01*
X8549643Y-29275786D01*
X8563928Y-29261500D01*
X8592500Y-29247214D01*
X8635357Y-29247214D01*
X8663928Y-29261500D01*
X8678214Y-29275786D01*
X8692500Y-29304357D01*
X8692500Y-29390071D01*
X8678214Y-29418643D01*
X8663928Y-29432929D01*
X8635357Y-29447214D01*
X8592500Y-29447214D01*
X8863928Y-29447214D02*
X8835357Y-29432929D01*
X8821071Y-29404357D01*
X8821071Y-29147214D01*
X9092500Y-29432929D02*
X9063929Y-29447214D01*
X9006786Y-29447214D01*
X8978214Y-29432929D01*
X8963929Y-29404357D01*
X8963929Y-29290071D01*
X8978214Y-29261500D01*
X9006786Y-29247214D01*
X9063929Y-29247214D01*
X9092500Y-29261500D01*
X9106786Y-29290071D01*
X9106786Y-29318643D01*
X8963929Y-29347214D01*
X9221071Y-29432929D02*
X9249643Y-29447214D01*
X9306786Y-29447214D01*
X9335357Y-29432929D01*
X9349643Y-29404357D01*
X9349643Y-29390071D01*
X9335357Y-29361500D01*
X9306786Y-29347214D01*
X9263929Y-29347214D01*
X9235357Y-29332929D01*
X9221071Y-29304357D01*
X9221071Y-29290071D01*
X9235357Y-29261500D01*
X9263929Y-29247214D01*
X9306786Y-29247214D01*
X9335357Y-29261500D01*
X9449643Y-29561500D02*
X9463929Y-29547214D01*
X9492500Y-29504357D01*
X9506786Y-29475786D01*
X9521071Y-29432929D01*
X9535357Y-29361500D01*
X9535357Y-29304357D01*
X9521071Y-29232929D01*
X9506786Y-29190071D01*
X9492500Y-29161500D01*
X9463929Y-29118643D01*
X9449643Y-29104357D01*
M02*
