M48
;DRILL file {kicad (2015-01-19 BZR 5380)-product} date Mon 16 Feb 2015 20:04:18 CET
;FORMAT={-:-/ absolute / metric / decimal}
FMAT,2
METRIC,TZ
T1C0.635
T2C0.800
T3C0.813
T4C1.000
T5C1.001
T6C1.016
T7C1.070
T8C1.199
T9C1.270
T10C1.300
T11C1.321
T12C1.501
T13C1.524
T14C1.600
T15C3.000
%
G90
G05
M71
T1
X122.961Y-96.545
X159.639Y-65.024
X159.766Y-72.009
X161.798Y-54.356
X166.878Y-80.137
X166.878Y-92.456
X168.529Y-80.01
X168.529Y-89.916
X171.831Y-47.879
X172.212Y-52.832
X172.466Y-69.215
X173.99Y-58.42
X175.006Y-64.135
X175.26Y-62.865
X176.022Y-39.878
X176.022Y-78.994
X176.911Y-31.623
X180.467Y-64.643
X180.848Y-63.5
X181.483Y-46.101
X181.991Y-78.486
X183.261Y-51.816
X183.896Y-58.42
X184.785Y-43.18
X184.912Y-78.232
X186.436Y-45.72
X186.563Y-68.072
X186.817Y-57.404
X188.3Y-64.1
X190.246Y-126.619
X193.7Y-64.1
X195.58Y-91.948
X195.834Y-54.61
X197.612Y-68.072
X198.628Y-106.426
X198.882Y-95.25
X200.152Y-65.278
X201.168Y-71.12
X201.168Y-108.204
X202.184Y-106.172
X203.2Y-69.596
X203.708Y-104.394
X204.216Y-68.326
X204.216Y-108.458
X204.343Y-109.855
X204.724Y-64.516
X204.978Y-79.248
X209.296Y-102.108
X209.296Y-103.759
X211.328Y-97.282
X211.582Y-134.366
T2
X50.46Y-51.5
X55.54Y-51.5
X57.96Y-79.
X63.04Y-79.
X64.46Y-56.
X69.54Y-56.
X79.595Y-58.
X83.405Y-58.
X97.595Y-58.5
X101.405Y-58.5
X114.96Y-54.5
X120.04Y-54.5
X125.Y-67.96
X125.Y-73.04
X129.Y-78.46
X129.Y-83.54
X178.5Y-200.46
X178.5Y-205.54
X182.5Y-162.96
X182.5Y-168.04
X189.5Y-131.46
X189.5Y-136.54
X193.46Y-113.5
X198.54Y-113.5
X202.19Y-163.5
X209.81Y-163.5
X212.5Y-103.96
X212.5Y-109.04
T3
X61.73Y-51.5
X62.5Y-83.23
X62.5Y-85.77
X64.27Y-51.5
X118.23Y-49.
X120.77Y-49.
X123.5Y-78.23
X123.5Y-80.77
X169.672Y-58.928
X169.672Y-61.468
X202.438Y-134.874
X202.438Y-137.414
T4
X49.5Y-56.7
X49.5Y-60.1
X49.5Y-63.5
X49.5Y-66.9
X49.5Y-70.3
X54.58Y-55.
X54.58Y-58.4
X54.58Y-61.8
X54.58Y-65.2
X54.58Y-68.6
X54.58Y-72.
X129.92Y-55.
X129.92Y-58.4
X129.92Y-61.8
X129.92Y-65.2
X129.92Y-68.6
X129.92Y-72.
X135.Y-56.7
X135.Y-60.1
X135.Y-63.5
X135.Y-66.9
X135.Y-70.3
X168.55Y-128.95
X168.55Y-140.95
T5
X44.92Y-81.
X46.5Y-86.42
X46.5Y-96.58
X55.08Y-81.
X60.42Y-60.
X61.Y-65.92
X61.Y-76.08
X70.58Y-60.
X76.Y-35.92
X76.Y-46.08
X77.5Y-70.42
X77.5Y-80.58
X99.42Y-41.
X106.Y-70.42
X106.Y-80.58
X109.58Y-41.
X109.92Y-60.
X120.08Y-60.
X124.5Y-51.92
X124.5Y-62.08
X134.Y-74.92
X134.Y-85.08
X139.Y-75.92
X139.Y-86.08
X171.Y-182.001
X175.5Y-129.42
X188.Y-112.58
X193.81Y-162.5
T6
X66.5Y-91.46
X66.5Y-94.
X66.5Y-96.54
X136.Y-90.96
X136.Y-93.5
X136.Y-96.04
X164.Y-81.69
X164.Y-84.23
X164.Y-86.77
X164.Y-89.31
X181.5Y-130.96
X181.5Y-133.5
X181.5Y-136.04
X184.404Y-122.428
X186.944Y-122.428
X189.484Y-122.428
X202.5Y-119.92
X202.5Y-122.46
X202.5Y-125.
X202.5Y-127.54
X202.5Y-130.08
X211.23Y-39.87
X211.23Y-42.41
X211.23Y-44.95
X211.23Y-47.49
X211.23Y-50.03
X211.23Y-52.57
X211.23Y-55.11
X211.23Y-57.65
X211.23Y-60.19
X211.23Y-62.73
X211.23Y-65.27
X211.23Y-67.81
X211.23Y-70.35
X211.23Y-72.89
X211.23Y-75.43
X211.23Y-77.97
X211.23Y-80.51
X211.23Y-83.05
X211.23Y-85.59
X211.23Y-88.13
X213.77Y-39.87
X213.77Y-42.41
X213.77Y-44.95
X213.77Y-47.49
X213.77Y-50.03
X213.77Y-52.57
X213.77Y-55.11
X213.77Y-57.65
X213.77Y-60.19
X213.77Y-62.73
X213.77Y-65.27
X213.77Y-67.81
X213.77Y-70.35
X213.77Y-72.89
X213.77Y-75.43
X213.77Y-77.97
X213.77Y-80.51
X213.77Y-83.05
X213.77Y-85.59
X213.77Y-88.13
X214.63Y-116.332
X214.63Y-121.412
X214.63Y-126.492
X214.63Y-131.318
X214.63Y-136.652
X214.63Y-142.24
X214.63Y-144.78
X214.63Y-147.32
X217.17Y-116.332
X217.17Y-121.412
X217.17Y-126.492
X217.17Y-131.318
X217.17Y-136.652
X219.71Y-131.318
X222.25Y-131.318
T7
X197.5Y-173.61
X197.5Y-191.39
T8
X164.1Y-104.
X164.1Y-111.62
X169.18Y-104.
X169.18Y-111.62
X171.Y-206.999
X174.26Y-104.
X174.26Y-111.62
X181.88Y-104.
X181.88Y-111.62
X182.5Y-155.8
X184.199Y-152.8
X186.Y-155.8
X187.801Y-152.8
X189.5Y-155.8
T9
X52.46Y-95.08
X55.Y-84.92
X57.54Y-95.08
X119.92Y-87.46
X119.92Y-92.54
X130.08Y-90.
X175.5Y-139.58
X188.Y-102.42
X190.Y-162.5
T10
X156.3Y-141.
X156.35Y-128.95
X170.5Y-135.
T11
X45.974Y-37.084
X50.974Y-37.084
X133.43Y-37.084
X138.43Y-37.084
X157.5Y-186.5
X157.5Y-191.5
X157.5Y-196.5
X157.5Y-201.5
X157.5Y-209.5
X157.5Y-214.5
X169.Y-219.
X174.Y-219.
X211.Y-218.
X216.Y-218.
X221.Y-218.
T12
X181.499Y-219.5
X203.501Y-219.5
T13
X79.38Y-101.5
X84.46Y-101.5
X89.54Y-101.5
X94.62Y-101.5
X102.38Y-101.5
X107.46Y-101.5
X112.54Y-101.5
X117.62Y-101.5
T14
X152.34Y-165.5
X156.34Y-152.5
X172.66Y-165.5
X176.66Y-152.5
X186.Y-199.38
X186.Y-207.
X196.5Y-199.5
X196.5Y-207.12
T15
X34.076Y-63.94
X62.076Y-101.94
X154.076Y-221.94
X163.076Y-34.94
X173.076Y-34.94
X173.076Y-92.94
X176.076Y-122.94
X217.076Y-199.94
X222.076Y-34.94
X222.076Y-92.94
T0
M30
