G04 #@! TF.FileFunction,Copper,L1,Top,Mixed*
%FSLAX46Y46*%
G04 Gerber Fmt 4.6, Leading zero omitted, Abs format (unit mm)*
G04 Created by KiCad (PCBNEW (2015-01-19 BZR 5380)-product) date Thu 19 Feb 2015 00:57:00 CET*
%MOMM*%
G01*
G04 APERTURE LIST*
%ADD10C,0.020000*%
%ADD11C,0.300000*%
%ADD12C,0.150000*%
%ADD13O,3.524000X2.000000*%
%ADD14C,2.032000*%
%ADD15C,1.998980*%
%ADD16O,1.981200X3.962400*%
%ADD17R,1.998980X1.998980*%
%ADD18C,1.501140*%
%ADD19R,1.524000X1.524000*%
%ADD20C,1.524000*%
%ADD21R,2.999740X2.999740*%
%ADD22C,2.999740*%
%ADD23R,1.600000X1.000000*%
%ADD24R,1.000000X1.600000*%
%ADD25R,1.700000X0.900000*%
%ADD26R,0.900000X1.700000*%
%ADD27C,3.810000*%
%ADD28R,3.810000X3.810000*%
%ADD29O,4.000500X2.499360*%
%ADD30R,2.032000X2.032000*%
%ADD31O,2.032000X2.032000*%
%ADD32R,1.727200X1.727200*%
%ADD33O,1.727200X1.727200*%
%ADD34C,2.500000*%
%ADD35C,3.000000*%
%ADD36R,2.032000X1.727200*%
%ADD37O,2.032000X1.727200*%
%ADD38C,1.778000*%
%ADD39R,1.778000X1.778000*%
%ADD40R,0.800100X1.000760*%
%ADD41C,2.301240*%
%ADD42R,1.100000X0.400000*%
%ADD43R,1.500000X0.600000*%
%ADD44O,1.800860X2.499360*%
%ADD45O,3.962400X1.981200*%
%ADD46C,3.540760*%
%ADD47R,3.540760X3.540760*%
%ADD48R,0.508000X0.762000*%
%ADD49R,1.727200X2.032000*%
%ADD50O,1.727200X2.032000*%
%ADD51C,0.889000*%
%ADD52C,1.500000*%
%ADD53C,0.254000*%
%ADD54C,0.508000*%
%ADD55C,2.500000*%
G04 APERTURE END LIST*
D10*
D11*
X29968286Y-100603857D02*
X29468286Y-100603857D01*
X29468286Y-101389571D02*
X29468286Y-99889571D01*
X30182572Y-99889571D01*
X30754000Y-101389571D02*
X30754000Y-100389571D01*
X30754000Y-100675286D02*
X30825428Y-100532429D01*
X30896857Y-100461000D01*
X31039714Y-100389571D01*
X31182571Y-100389571D01*
X31896857Y-101389571D02*
X31753999Y-101318143D01*
X31682571Y-101246714D01*
X31611142Y-101103857D01*
X31611142Y-100675286D01*
X31682571Y-100532429D01*
X31753999Y-100461000D01*
X31896857Y-100389571D01*
X32111142Y-100389571D01*
X32253999Y-100461000D01*
X32325428Y-100532429D01*
X32396857Y-100675286D01*
X32396857Y-101103857D01*
X32325428Y-101246714D01*
X32253999Y-101318143D01*
X32111142Y-101389571D01*
X31896857Y-101389571D01*
X33039714Y-100389571D02*
X33039714Y-101389571D01*
X33039714Y-100532429D02*
X33111142Y-100461000D01*
X33254000Y-100389571D01*
X33468285Y-100389571D01*
X33611142Y-100461000D01*
X33682571Y-100603857D01*
X33682571Y-101389571D01*
X34182571Y-100389571D02*
X34754000Y-100389571D01*
X34396857Y-99889571D02*
X34396857Y-101175286D01*
X34468285Y-101318143D01*
X34611143Y-101389571D01*
X34754000Y-101389571D01*
D12*
X227000000Y-28000000D02*
X27000000Y-28000000D01*
X227000000Y-228000000D02*
X227000000Y-28000000D01*
X147000000Y-228000000D02*
X227000000Y-228000000D01*
X147000000Y-108000000D02*
X147000000Y-228000000D01*
X27000000Y-108000000D02*
X147000000Y-108000000D01*
X27000000Y-28000000D02*
X27000000Y-108000000D01*
D13*
X54580000Y-72000000D03*
X49500000Y-70300000D03*
X54580000Y-68600000D03*
X49500000Y-66900000D03*
X54580000Y-65200000D03*
X49500000Y-63500000D03*
X54580000Y-61800000D03*
X49500000Y-60100000D03*
X54580000Y-58400000D03*
X49500000Y-56700000D03*
X54580000Y-55000000D03*
D14*
X52460000Y-95080000D03*
X55000000Y-84920000D03*
X57540000Y-95080000D03*
D15*
X61000000Y-65920000D03*
X61000000Y-76080000D03*
X44920000Y-81000000D03*
X55080000Y-81000000D03*
D16*
X45974000Y-37084000D03*
X50974000Y-37084000D03*
D13*
X129920000Y-55000000D03*
X135000000Y-56700000D03*
X129920000Y-58400000D03*
X135000000Y-60100000D03*
X129920000Y-61800000D03*
X135000000Y-63500000D03*
X129920000Y-65200000D03*
X135000000Y-66900000D03*
X129920000Y-68600000D03*
X135000000Y-70300000D03*
X129920000Y-72000000D03*
D14*
X119920000Y-87460000D03*
X130080000Y-90000000D03*
X119920000Y-92540000D03*
D15*
X124500000Y-62080000D03*
X124500000Y-51920000D03*
X134000000Y-74920000D03*
X134000000Y-85080000D03*
D16*
X138430000Y-37084000D03*
X133430000Y-37084000D03*
D17*
X79595000Y-58000000D03*
D15*
X83405000Y-58000000D03*
D18*
X55540000Y-51500000D03*
X50460000Y-51500000D03*
X69540000Y-56000000D03*
X64460000Y-56000000D03*
D19*
X64270000Y-51500000D03*
D20*
X61730000Y-51500000D03*
D19*
X62500000Y-85770000D03*
D20*
X62500000Y-83230000D03*
D18*
X63040000Y-79000000D03*
X57960000Y-79000000D03*
D17*
X101405000Y-58500000D03*
D15*
X97595000Y-58500000D03*
D18*
X125000000Y-67960000D03*
X125000000Y-73040000D03*
X114960000Y-54500000D03*
X120040000Y-54500000D03*
D19*
X118230000Y-49000000D03*
D20*
X120770000Y-49000000D03*
D19*
X123500000Y-80770000D03*
D20*
X123500000Y-78230000D03*
D18*
X129000000Y-83540000D03*
X129000000Y-78460000D03*
X178500000Y-205540000D03*
X178500000Y-200460000D03*
D21*
X77500000Y-70420000D03*
D22*
X77500000Y-80580000D03*
D21*
X76000000Y-46080000D03*
D22*
X76000000Y-35920000D03*
D23*
X159766000Y-70080000D03*
X159766000Y-67080000D03*
X159639000Y-63222000D03*
X159639000Y-60222000D03*
X174117000Y-47903000D03*
X174117000Y-50903000D03*
D19*
X169672000Y-58928000D03*
D20*
X169672000Y-61468000D03*
D24*
X168206000Y-54500000D03*
X165206000Y-54500000D03*
D23*
X172466000Y-67159000D03*
X172466000Y-64159000D03*
X169000000Y-51500000D03*
X169000000Y-48500000D03*
D17*
X189500000Y-136540000D03*
D15*
X189500000Y-131460000D03*
D21*
X106000000Y-70420000D03*
D22*
X106000000Y-80580000D03*
D21*
X109580000Y-41000000D03*
D22*
X99420000Y-41000000D03*
D23*
X181483000Y-47903000D03*
X181483000Y-50903000D03*
X184277000Y-50014000D03*
X184277000Y-47014000D03*
D17*
X182500000Y-162960000D03*
D15*
X182500000Y-168040000D03*
D24*
X182000000Y-81000000D03*
X185000000Y-81000000D03*
D23*
X179578000Y-33298000D03*
X179578000Y-36298000D03*
D17*
X202190000Y-163500000D03*
D15*
X209810000Y-163500000D03*
D24*
X182729000Y-43688000D03*
X179729000Y-43688000D03*
D17*
X193460000Y-113500000D03*
D15*
X198540000Y-113500000D03*
D19*
X202438000Y-134874000D03*
D20*
X202438000Y-137414000D03*
D25*
X198628000Y-103812000D03*
X198628000Y-100912000D03*
D26*
X204351000Y-96077000D03*
X201451000Y-96077000D03*
D17*
X212500000Y-103960000D03*
D15*
X212500000Y-109040000D03*
D23*
X211328000Y-94972000D03*
X211328000Y-91972000D03*
D27*
X84460000Y-101500000D03*
X89540000Y-101500000D03*
D28*
X79380000Y-101500000D03*
D27*
X94620000Y-101500000D03*
X112540000Y-101500000D03*
X107460000Y-101500000D03*
D28*
X117620000Y-101500000D03*
D27*
X102380000Y-101500000D03*
D15*
X190000000Y-162500000D03*
D17*
X193810000Y-162500000D03*
D29*
X181499260Y-219500000D03*
X203500740Y-219500000D03*
D30*
X214630000Y-121412000D03*
D31*
X217170000Y-121412000D03*
D32*
X213770000Y-88130000D03*
D33*
X211230000Y-88130000D03*
X213770000Y-85590000D03*
X211230000Y-85590000D03*
X213770000Y-83050000D03*
X211230000Y-83050000D03*
X213770000Y-80510000D03*
X211230000Y-80510000D03*
X213770000Y-77970000D03*
X211230000Y-77970000D03*
X213770000Y-75430000D03*
X211230000Y-75430000D03*
X213770000Y-72890000D03*
X211230000Y-72890000D03*
X213770000Y-70350000D03*
X211230000Y-70350000D03*
X213770000Y-67810000D03*
X211230000Y-67810000D03*
X213770000Y-65270000D03*
X211230000Y-65270000D03*
X213770000Y-62730000D03*
X211230000Y-62730000D03*
X213770000Y-60190000D03*
X211230000Y-60190000D03*
X213770000Y-57650000D03*
X211230000Y-57650000D03*
X213770000Y-55110000D03*
X211230000Y-55110000D03*
X213770000Y-52570000D03*
X211230000Y-52570000D03*
X213770000Y-50030000D03*
X211230000Y-50030000D03*
X213770000Y-47490000D03*
X211230000Y-47490000D03*
X213770000Y-44950000D03*
X211230000Y-44950000D03*
X213770000Y-42410000D03*
X211230000Y-42410000D03*
X213770000Y-39870000D03*
X211230000Y-39870000D03*
D34*
X168550000Y-128950000D03*
D35*
X156350000Y-128950000D03*
X156300000Y-141000000D03*
D34*
X168550000Y-140950000D03*
D35*
X170500000Y-135000000D03*
D22*
X181880000Y-111620000D03*
X181880000Y-104000000D03*
X174260000Y-104000000D03*
X169180000Y-104000000D03*
X164100000Y-104000000D03*
X174260000Y-111620000D03*
X169180000Y-111620000D03*
X164100000Y-111620000D03*
D35*
X197500000Y-173610000D03*
X197500000Y-191390000D03*
D30*
X217170000Y-136652000D03*
D31*
X214630000Y-136652000D03*
D30*
X214630000Y-116332000D03*
D31*
X217170000Y-116332000D03*
D36*
X164000000Y-89310000D03*
D37*
X164000000Y-86770000D03*
X164000000Y-84230000D03*
X164000000Y-81690000D03*
D36*
X66500000Y-96540000D03*
D37*
X66500000Y-94000000D03*
X66500000Y-91460000D03*
D36*
X136000000Y-96040000D03*
D37*
X136000000Y-93500000D03*
X136000000Y-90960000D03*
D36*
X202500000Y-130080000D03*
D37*
X202500000Y-127540000D03*
X202500000Y-125000000D03*
X202500000Y-122460000D03*
X202500000Y-119920000D03*
D30*
X214630000Y-126492000D03*
D31*
X217170000Y-126492000D03*
D38*
X181500000Y-136040000D03*
X181500000Y-133500000D03*
D39*
X181500000Y-130960000D03*
D38*
X189484000Y-122428000D03*
X186944000Y-122428000D03*
D39*
X184404000Y-122428000D03*
D40*
X203246000Y-87070180D03*
X204198500Y-89269820D03*
X202293500Y-89269820D03*
X203246000Y-72599180D03*
X204198500Y-74798820D03*
X202293500Y-74798820D03*
X203246000Y-79599180D03*
X204198500Y-81798820D03*
X202293500Y-81798820D03*
D15*
X60420000Y-60000000D03*
X70580000Y-60000000D03*
X46500000Y-86420000D03*
X46500000Y-96580000D03*
X120080000Y-60000000D03*
X109920000Y-60000000D03*
X139000000Y-75920000D03*
X139000000Y-86080000D03*
X171000000Y-182000660D03*
D41*
X171000000Y-206999340D03*
D26*
X164137000Y-57785000D03*
X161237000Y-57785000D03*
X165661000Y-62357000D03*
X162761000Y-62357000D03*
X187632000Y-60960000D03*
X184732000Y-60960000D03*
D25*
X179324000Y-77904000D03*
X179324000Y-75004000D03*
X179324000Y-89588000D03*
X179324000Y-86688000D03*
X176000000Y-83950000D03*
X176000000Y-81050000D03*
D26*
X200196000Y-87670000D03*
X197296000Y-87670000D03*
X204196000Y-91670000D03*
X201296000Y-91670000D03*
X200196000Y-73199000D03*
X197296000Y-73199000D03*
X204196000Y-77199000D03*
X201296000Y-77199000D03*
X200196000Y-80199000D03*
X197296000Y-80199000D03*
X204196000Y-84199000D03*
X201296000Y-84199000D03*
D16*
X169000000Y-219000000D03*
X174000000Y-219000000D03*
X221000000Y-218000000D03*
X216000000Y-218000000D03*
X211000000Y-218000000D03*
D42*
X175650000Y-52775000D03*
X175650000Y-53425000D03*
X175650000Y-54075000D03*
X175650000Y-54725000D03*
X175650000Y-55375000D03*
X175650000Y-56025000D03*
X175650000Y-56675000D03*
X175650000Y-57325000D03*
X175650000Y-57975000D03*
X175650000Y-58625000D03*
X175650000Y-59275000D03*
X175650000Y-59925000D03*
X175650000Y-60575000D03*
X175650000Y-61225000D03*
X181350000Y-61225000D03*
X181350000Y-60575000D03*
X181350000Y-59925000D03*
X181350000Y-59275000D03*
X181350000Y-58625000D03*
X181350000Y-57975000D03*
X181350000Y-57325000D03*
X181350000Y-56675000D03*
X181350000Y-56025000D03*
X181350000Y-55375000D03*
X181350000Y-54725000D03*
X181350000Y-54075000D03*
X181350000Y-53425000D03*
X181350000Y-52775000D03*
D43*
X193700000Y-74445000D03*
X193700000Y-73175000D03*
X193700000Y-71905000D03*
X193700000Y-70635000D03*
X193700000Y-69365000D03*
X193700000Y-68095000D03*
X193700000Y-66825000D03*
X193700000Y-65555000D03*
X188300000Y-65555000D03*
X188300000Y-66825000D03*
X188300000Y-68095000D03*
X188300000Y-69365000D03*
X188300000Y-70635000D03*
X188300000Y-71905000D03*
X188300000Y-73175000D03*
X188300000Y-74445000D03*
X193700000Y-55945000D03*
X193700000Y-54675000D03*
X193700000Y-53405000D03*
X193700000Y-52135000D03*
X193700000Y-50865000D03*
X193700000Y-49595000D03*
X193700000Y-48325000D03*
X193700000Y-47055000D03*
X188300000Y-47055000D03*
X188300000Y-48325000D03*
X188300000Y-49595000D03*
X188300000Y-50865000D03*
X188300000Y-52135000D03*
X188300000Y-53405000D03*
X188300000Y-54675000D03*
X188300000Y-55945000D03*
D44*
X186000000Y-155799840D03*
X182499880Y-155799840D03*
X189500120Y-155799840D03*
X187800860Y-152800100D03*
X184199140Y-152800100D03*
D38*
X214630000Y-147320000D03*
X214630000Y-144780000D03*
D39*
X214630000Y-142240000D03*
D45*
X157500000Y-214500000D03*
X157500000Y-209500000D03*
X157500000Y-186500000D03*
X157500000Y-191500000D03*
X157500000Y-201500000D03*
X157500000Y-196500000D03*
D15*
X175500000Y-139580000D03*
D17*
X175500000Y-129420000D03*
D46*
X196500000Y-199500000D03*
D47*
X196500000Y-207120000D03*
D46*
X186000000Y-207000000D03*
D47*
X186000000Y-199380000D03*
D46*
X152340000Y-165500000D03*
D47*
X172660000Y-165500000D03*
D46*
X156340000Y-152500000D03*
D47*
X176660000Y-152500000D03*
D15*
X188000000Y-102420000D03*
D17*
X188000000Y-112580000D03*
D48*
X180403500Y-38608000D03*
X178498500Y-38608000D03*
X180403500Y-41148000D03*
X179451000Y-38608000D03*
X178498500Y-41148000D03*
X201231500Y-101854000D03*
X203136500Y-101854000D03*
X201231500Y-99314000D03*
X202184000Y-101854000D03*
X203136500Y-99314000D03*
D49*
X214630000Y-131318000D03*
D50*
X217170000Y-131318000D03*
X219710000Y-131318000D03*
X222250000Y-131318000D03*
D51*
X166878000Y-80137000D03*
X166878000Y-92456000D03*
X168529000Y-80010000D03*
X168529000Y-89916000D03*
X211582000Y-134366000D03*
X197612000Y-68072000D03*
X195580000Y-91948000D03*
X198882000Y-95250000D03*
X204216000Y-108458000D03*
X209296000Y-102108000D03*
X190246000Y-126619000D03*
X204343000Y-109855000D03*
X209296000Y-103759000D03*
X203200000Y-69596000D03*
X200152000Y-65278000D03*
X122961400Y-96545400D03*
X201168000Y-71120000D03*
X201168000Y-108204000D03*
X204978000Y-79248000D03*
X202184000Y-106172000D03*
X175006000Y-64135000D03*
X180467000Y-64643000D03*
X175260000Y-62865000D03*
X180848000Y-63500000D03*
X186563000Y-68072000D03*
X184912000Y-78232000D03*
X186436000Y-45720000D03*
X181991000Y-78486000D03*
X176022000Y-78994000D03*
X211328000Y-97282000D03*
X203708000Y-104394000D03*
X198628000Y-106426000D03*
X195834000Y-54610000D03*
X188300000Y-64100000D03*
X183896000Y-58420000D03*
X161798000Y-54356000D03*
X172212000Y-52832000D03*
X173990000Y-58420000D03*
X193700000Y-64100000D03*
X186817000Y-57404000D03*
X183261000Y-51816000D03*
X159639000Y-65024000D03*
X159766000Y-72009000D03*
X172466000Y-69215000D03*
X171831000Y-47879000D03*
X181483000Y-46101000D03*
X184785000Y-43180000D03*
X176022000Y-39878000D03*
X176911000Y-31623000D03*
X204216000Y-68326000D03*
X204724000Y-64516000D03*
D52*
X76000000Y-46080000D02*
X82580000Y-46080000D01*
X89540000Y-95040000D02*
X89540000Y-101500000D01*
X87500000Y-93000000D02*
X89540000Y-95040000D01*
X87500000Y-51000000D02*
X87500000Y-93000000D01*
X82580000Y-46080000D02*
X87500000Y-51000000D01*
X64270000Y-51500000D02*
X64270000Y-48230000D01*
X66420000Y-46080000D02*
X76000000Y-46080000D01*
X64270000Y-48230000D02*
X66420000Y-46080000D01*
X64460000Y-56000000D02*
X64460000Y-51690000D01*
X64460000Y-51690000D02*
X64270000Y-51500000D01*
X58500000Y-72000000D02*
X61500000Y-72000000D01*
X54580000Y-72000000D02*
X58500000Y-72000000D01*
X64460000Y-69040000D02*
X64460000Y-56000000D01*
X61500000Y-72000000D02*
X64460000Y-69040000D01*
X56700000Y-65200000D02*
X58500000Y-67000000D01*
X58500000Y-67000000D02*
X58500000Y-72000000D01*
X54580000Y-65200000D02*
X56700000Y-65200000D01*
X62500000Y-83230000D02*
X67770000Y-83230000D01*
X70420000Y-80580000D02*
X78580000Y-80580000D01*
X67770000Y-83230000D02*
X70420000Y-80580000D01*
X78580000Y-80580000D02*
X82000000Y-84000000D01*
X79380000Y-94620000D02*
X79380000Y-101500000D01*
X82000000Y-92000000D02*
X79380000Y-94620000D01*
X82000000Y-84000000D02*
X82000000Y-92000000D01*
X62500000Y-83230000D02*
X62500000Y-83040000D01*
X62500000Y-83040000D02*
X61230000Y-81770000D01*
X46500000Y-96580000D02*
X46500000Y-94500000D01*
X59500000Y-83500000D02*
X61230000Y-81770000D01*
X59500000Y-87000000D02*
X59500000Y-83500000D01*
X57500000Y-89000000D02*
X59500000Y-87000000D01*
X52000000Y-89000000D02*
X57500000Y-89000000D01*
X46500000Y-94500000D02*
X52000000Y-89000000D01*
X58460000Y-79000000D02*
X58460000Y-78960000D01*
X58460000Y-78960000D02*
X55000000Y-75500000D01*
X47100000Y-66900000D02*
X49500000Y-66900000D01*
X45500000Y-68500000D02*
X47100000Y-66900000D01*
X45500000Y-73000000D02*
X45500000Y-68500000D01*
X48000000Y-75500000D02*
X45500000Y-73000000D01*
X55000000Y-75500000D02*
X48000000Y-75500000D01*
X61230000Y-81770000D02*
X58460000Y-79000000D01*
D53*
X49500000Y-60100000D02*
X44400000Y-60100000D01*
X49000000Y-83920000D02*
X46500000Y-86420000D01*
X49000000Y-82000000D02*
X49000000Y-83920000D01*
X41500000Y-74500000D02*
X49000000Y-82000000D01*
X41500000Y-63000000D02*
X41500000Y-74500000D01*
X44400000Y-60100000D02*
X41500000Y-63000000D01*
D52*
X54580000Y-58400000D02*
X58820000Y-58400000D01*
X58820000Y-58400000D02*
X60420000Y-60000000D01*
X57540000Y-51540000D02*
X58500000Y-52500000D01*
X58500000Y-52500000D02*
X58500000Y-56500000D01*
X58500000Y-56500000D02*
X56600000Y-58400000D01*
X56600000Y-58400000D02*
X54580000Y-58400000D01*
X55500000Y-51540000D02*
X57540000Y-51540000D01*
X61000000Y-60580000D02*
X60420000Y-60000000D01*
X61000000Y-65920000D02*
X61000000Y-60580000D01*
X41500000Y-81000000D02*
X39500000Y-79000000D01*
X39500000Y-79000000D02*
X39500000Y-60500000D01*
X39500000Y-60500000D02*
X43300000Y-56700000D01*
X43300000Y-56700000D02*
X49500000Y-56700000D01*
X44920000Y-81000000D02*
X41500000Y-81000000D01*
X49500000Y-52460000D02*
X50460000Y-51500000D01*
X49500000Y-56700000D02*
X49500000Y-52460000D01*
X63500000Y-94000000D02*
X66500000Y-94000000D01*
X61500000Y-92000000D02*
X63500000Y-94000000D01*
X55500000Y-92000000D02*
X61500000Y-92000000D01*
X52460000Y-95040000D02*
X55500000Y-92000000D01*
X52460000Y-95080000D02*
X52460000Y-95040000D01*
X55080000Y-81000000D02*
X55080000Y-84840000D01*
X55080000Y-84840000D02*
X55000000Y-84920000D01*
X129920000Y-61800000D02*
X128348000Y-61800000D01*
X128348000Y-61800000D02*
X126238000Y-59690000D01*
X126238000Y-59690000D02*
X126238000Y-56896000D01*
X126238000Y-56896000D02*
X128134000Y-55000000D01*
X128134000Y-55000000D02*
X129920000Y-55000000D01*
X120540000Y-55000000D02*
X120040000Y-54500000D01*
X129920000Y-55000000D02*
X120540000Y-55000000D01*
X118230000Y-52730000D02*
X118230000Y-49000000D01*
X120000000Y-54500000D02*
X118230000Y-52730000D01*
X120040000Y-54500000D02*
X120000000Y-54500000D01*
X118230000Y-45230000D02*
X114000000Y-41000000D01*
X114000000Y-41000000D02*
X109580000Y-41000000D01*
X118230000Y-49000000D02*
X118230000Y-45230000D01*
X106500000Y-41000000D02*
X93500000Y-54000000D01*
X93500000Y-54000000D02*
X93500000Y-79500000D01*
X93500000Y-79500000D02*
X107460000Y-93460000D01*
X107460000Y-93460000D02*
X107460000Y-101500000D01*
X109580000Y-41000000D02*
X106500000Y-41000000D01*
X124500000Y-51014000D02*
X138430000Y-37084000D01*
X124500000Y-51920000D02*
X124500000Y-51014000D01*
X123500000Y-78230000D02*
X128770000Y-78230000D01*
X134960000Y-78460000D02*
X136500000Y-80000000D01*
X136500000Y-80000000D02*
X140500000Y-80000000D01*
X140500000Y-80000000D02*
X143500000Y-77000000D01*
X143500000Y-77500000D02*
X143500000Y-64000000D01*
X143500000Y-77000000D02*
X143500000Y-77500000D01*
X143500000Y-64000000D02*
X139600000Y-60100000D01*
X139600000Y-60100000D02*
X135000000Y-60100000D01*
X129000000Y-78460000D02*
X134960000Y-78460000D01*
X141420000Y-86080000D02*
X143000000Y-84500000D01*
X143000000Y-84500000D02*
X143000000Y-77500000D01*
X143000000Y-77500000D02*
X143500000Y-77500000D01*
X139000000Y-86080000D02*
X141420000Y-86080000D01*
X108350000Y-78230000D02*
X106000000Y-80580000D01*
X123500000Y-78230000D02*
X108350000Y-78230000D01*
X106000000Y-85000000D02*
X117620000Y-96620000D01*
X117620000Y-96620000D02*
X117620000Y-101500000D01*
X106000000Y-80580000D02*
X106000000Y-85000000D01*
D53*
X137400000Y-66900000D02*
X139000000Y-68500000D01*
X139000000Y-68500000D02*
X139000000Y-75920000D01*
X135000000Y-66900000D02*
X137400000Y-66900000D01*
D52*
X124500000Y-62080000D02*
X124564000Y-62080000D01*
X124564000Y-62080000D02*
X125000000Y-62516000D01*
X125000000Y-62516000D02*
X125000000Y-67960000D01*
X122080000Y-62080000D02*
X124500000Y-62080000D01*
X120080000Y-60080000D02*
X122080000Y-62080000D01*
X120080000Y-60000000D02*
X120080000Y-60080000D01*
X125640000Y-68600000D02*
X125000000Y-67960000D01*
X129920000Y-68600000D02*
X125640000Y-68600000D01*
X126920000Y-74920000D02*
X134000000Y-74920000D01*
X125040000Y-73040000D02*
X126920000Y-74920000D01*
X125000000Y-73040000D02*
X125040000Y-73040000D01*
X135000000Y-74000000D02*
X135000000Y-70300000D01*
X134080000Y-74920000D02*
X135000000Y-74000000D01*
X134000000Y-74920000D02*
X134080000Y-74920000D01*
X127500000Y-93500000D02*
X121460000Y-87460000D01*
X121460000Y-87460000D02*
X119920000Y-87460000D01*
X136000000Y-93500000D02*
X127500000Y-93500000D01*
X134000000Y-86080000D02*
X130080000Y-90000000D01*
X134000000Y-85080000D02*
X134000000Y-86080000D01*
X77595000Y-60000000D02*
X79595000Y-58000000D01*
X70580000Y-60000000D02*
X77595000Y-60000000D01*
X108420000Y-58500000D02*
X109920000Y-60000000D01*
X101405000Y-58500000D02*
X108420000Y-58500000D01*
D54*
X169180000Y-111620000D02*
X169180000Y-111522000D01*
X162761000Y-62357000D02*
X162761000Y-64085000D01*
X162761000Y-64085000D02*
X159766000Y-67080000D01*
X162761000Y-62357000D02*
X162761000Y-76020000D01*
X162761000Y-76020000D02*
X166878000Y-80137000D01*
X166878000Y-92456000D02*
X166878000Y-109220000D01*
X166878000Y-109220000D02*
X169180000Y-111522000D01*
X169180000Y-111522000D02*
X169180000Y-111620000D01*
X170000000Y-103180000D02*
X169180000Y-104000000D01*
X169180000Y-102820000D02*
X169180000Y-104000000D01*
X160528000Y-57785000D02*
X159639000Y-58674000D01*
X159639000Y-58674000D02*
X159639000Y-60222000D01*
X161237000Y-57785000D02*
X160528000Y-57785000D01*
X161237000Y-57785000D02*
X161417000Y-57785000D01*
X161417000Y-57785000D02*
X164211000Y-60579000D01*
X164211000Y-60579000D02*
X164211000Y-75692000D01*
X164211000Y-75692000D02*
X168529000Y-80010000D01*
X168529000Y-89916000D02*
X168529000Y-99822000D01*
X168529000Y-99822000D02*
X169180000Y-100473000D01*
X169180000Y-100473000D02*
X169180000Y-104000000D01*
D53*
X175650000Y-57325000D02*
X175675000Y-57300000D01*
X175650000Y-52775000D02*
X175725000Y-52700000D01*
X181350000Y-52775000D02*
X181275000Y-52700000D01*
X181350000Y-52775000D02*
X181425000Y-52700000D01*
X177095000Y-52775000D02*
X177292000Y-52578000D01*
X175650000Y-52775000D02*
X177095000Y-52775000D01*
X174949000Y-52775000D02*
X173990000Y-51816000D01*
X175650000Y-52775000D02*
X174949000Y-52775000D01*
X173307000Y-57325000D02*
X172974000Y-57658000D01*
X175650000Y-57325000D02*
X173307000Y-57325000D01*
X180156000Y-52775000D02*
X179959000Y-52578000D01*
X181350000Y-52775000D02*
X180156000Y-52775000D01*
X182175000Y-52775000D02*
X182372000Y-52578000D01*
X182372000Y-52578000D02*
X182372000Y-52070000D01*
X182372000Y-52070000D02*
X182118000Y-51816000D01*
X181350000Y-52775000D02*
X182175000Y-52775000D01*
X169081000Y-55375000D02*
X168206000Y-54500000D01*
X175650000Y-55375000D02*
X169081000Y-55375000D01*
X171311000Y-54725000D02*
X169000000Y-52414000D01*
X169000000Y-52414000D02*
X169000000Y-51500000D01*
X175650000Y-54725000D02*
X171311000Y-54725000D01*
X169150000Y-48500000D02*
X169000000Y-48500000D01*
X174075000Y-53425000D02*
X169150000Y-48500000D01*
X175650000Y-53425000D02*
X174075000Y-53425000D01*
D52*
X193460000Y-113500000D02*
X193460000Y-107880000D01*
X193460000Y-107880000D02*
X188000000Y-102420000D01*
X189500000Y-136540000D02*
X193460000Y-136540000D01*
X193460000Y-136540000D02*
X197500000Y-132500000D01*
X175500000Y-139580000D02*
X175500000Y-139500000D01*
X175500000Y-139500000D02*
X176500000Y-138500000D01*
X187540000Y-138500000D02*
X189500000Y-136540000D01*
X176500000Y-138500000D02*
X187540000Y-138500000D01*
X181880000Y-104000000D02*
X182000000Y-104000000D01*
X182000000Y-104000000D02*
X183580000Y-102420000D01*
X183580000Y-102420000D02*
X188000000Y-102420000D01*
X168550000Y-140950000D02*
X174130000Y-140950000D01*
X174130000Y-140950000D02*
X175500000Y-139580000D01*
X197500000Y-191390000D02*
X197610000Y-191390000D01*
X197610000Y-191390000D02*
X202190000Y-186810000D01*
X202190000Y-186810000D02*
X202190000Y-163500000D01*
D53*
X202438000Y-133223000D02*
X204343000Y-131318000D01*
X204343000Y-131318000D02*
X204343000Y-128016000D01*
X204343000Y-128016000D02*
X203867000Y-127540000D01*
X203867000Y-127540000D02*
X202500000Y-127540000D01*
X200533000Y-131318000D02*
X200533000Y-128016000D01*
X200533000Y-128016000D02*
X201009000Y-127540000D01*
X201009000Y-127540000D02*
X202500000Y-127540000D01*
X202438000Y-133223000D02*
X200533000Y-131318000D01*
X202438000Y-134874000D02*
X202438000Y-133223000D01*
X200289500Y-100912000D02*
X201231500Y-101854000D01*
X198628000Y-100912000D02*
X200289500Y-100912000D01*
X203136500Y-101282500D02*
X202766000Y-100912000D01*
X202766000Y-100912000D02*
X198628000Y-100912000D01*
X203136500Y-101854000D02*
X203136500Y-101282500D01*
X179578000Y-36298000D02*
X179475000Y-36298000D01*
X179475000Y-36298000D02*
X178498500Y-37274500D01*
X178498500Y-37274500D02*
X178498500Y-38608000D01*
X179578000Y-36298000D02*
X179578000Y-36449000D01*
X179578000Y-36449000D02*
X180403500Y-37274500D01*
X180403500Y-37274500D02*
X180403500Y-38608000D01*
X184277000Y-52451000D02*
X182653000Y-54075000D01*
X182653000Y-54075000D02*
X181350000Y-54075000D01*
X184277000Y-50014000D02*
X184277000Y-52451000D01*
D52*
X178299840Y-155799840D02*
X182499880Y-155799840D01*
X176660000Y-154160000D02*
X178299840Y-155799840D01*
X176660000Y-152500000D02*
X176660000Y-154160000D01*
X172660000Y-162840000D02*
X178500000Y-157000000D01*
X178500000Y-157000000D02*
X181299720Y-157000000D01*
X181299720Y-157000000D02*
X182499880Y-155799840D01*
X172660000Y-165500000D02*
X172660000Y-162840000D01*
X182499880Y-162959880D02*
X182500000Y-162960000D01*
X182499880Y-155799840D02*
X182499880Y-162959880D01*
D53*
X193700000Y-68095000D02*
X193795000Y-68000000D01*
X197589000Y-68095000D02*
X197612000Y-68072000D01*
X193700000Y-68095000D02*
X197589000Y-68095000D01*
D54*
X201451000Y-96077000D02*
X199709000Y-96077000D01*
X193700000Y-90068000D02*
X193700000Y-80772000D01*
X195580000Y-91948000D02*
X193700000Y-90068000D01*
X199709000Y-96077000D02*
X198882000Y-95250000D01*
X201296000Y-84199000D02*
X200241000Y-84199000D01*
X200251000Y-77199000D02*
X201296000Y-77199000D01*
X198746000Y-78704000D02*
X200251000Y-77199000D01*
X198746000Y-82704000D02*
X198746000Y-78704000D01*
X200241000Y-84199000D02*
X198746000Y-82704000D01*
X201296000Y-91670000D02*
X200212000Y-91670000D01*
X200501000Y-84199000D02*
X201296000Y-84199000D01*
X198746000Y-85954000D02*
X200501000Y-84199000D01*
X198746000Y-90204000D02*
X198746000Y-85954000D01*
X200212000Y-91670000D02*
X198746000Y-90204000D01*
X201451000Y-91825000D02*
X201296000Y-91670000D01*
X202293500Y-90672500D02*
X201296000Y-91670000D01*
X202293500Y-89269820D02*
X202293500Y-90672500D01*
X202293500Y-76201500D02*
X201296000Y-77199000D01*
X202293500Y-74798820D02*
X202293500Y-76201500D01*
X202293500Y-83201500D02*
X201296000Y-84199000D01*
X202293500Y-81798820D02*
X202293500Y-83201500D01*
X201451000Y-96077000D02*
X201401000Y-96077000D01*
X201231500Y-96296500D02*
X201451000Y-96077000D01*
X201231500Y-99314000D02*
X201231500Y-96296500D01*
X193700000Y-74445000D02*
X193700000Y-80772000D01*
X193700000Y-80772000D02*
X193700000Y-80924000D01*
X193700000Y-55945000D02*
X193700000Y-59284000D01*
X192151000Y-78867000D02*
X193700000Y-80924000D01*
X192151000Y-61087000D02*
X192151000Y-78867000D01*
X193700000Y-59284000D02*
X192151000Y-61087000D01*
X201231500Y-99314000D02*
X201168000Y-99314000D01*
X201451000Y-96077000D02*
X201451000Y-91825000D01*
D55*
X102380000Y-104380000D02*
X104000000Y-106000000D01*
X104000000Y-106000000D02*
X148000000Y-106000000D01*
X148000000Y-106000000D02*
X153500000Y-111500000D01*
X153500000Y-111500000D02*
X153500000Y-126100000D01*
X153500000Y-126100000D02*
X156350000Y-128950000D01*
X102380000Y-101500000D02*
X102380000Y-104380000D01*
X98888000Y-106000000D02*
X104000000Y-106000000D01*
X94620000Y-101732000D02*
X98888000Y-106000000D01*
X94620000Y-101500000D02*
X94620000Y-101732000D01*
D52*
X175500000Y-129420000D02*
X179960000Y-129420000D01*
X179960000Y-129420000D02*
X181500000Y-130960000D01*
X168550000Y-128950000D02*
X175030000Y-128950000D01*
X175030000Y-128950000D02*
X175500000Y-129420000D01*
D55*
X164500000Y-135000000D02*
X161000000Y-138500000D01*
X161000000Y-138500000D02*
X161000000Y-147840000D01*
X161000000Y-147840000D02*
X156340000Y-152500000D01*
X170500000Y-135000000D02*
X164500000Y-135000000D01*
X156340000Y-157340000D02*
X159500000Y-160500000D01*
X159500000Y-160500000D02*
X159500000Y-178500000D01*
X159500000Y-178500000D02*
X157500000Y-180500000D01*
X157500000Y-180500000D02*
X157500000Y-186500000D01*
X156340000Y-152500000D02*
X156340000Y-157340000D01*
D52*
X193810000Y-162500000D02*
X193810000Y-169920000D01*
X193810000Y-169920000D02*
X197500000Y-173610000D01*
X184199140Y-152800100D02*
X184199140Y-148800860D01*
X193810000Y-150310000D02*
X193810000Y-162500000D01*
X190500000Y-147000000D02*
X193810000Y-150310000D01*
X186000000Y-147000000D02*
X190500000Y-147000000D01*
X184199140Y-148800860D02*
X186000000Y-147000000D01*
X181880000Y-111620000D02*
X181880000Y-111880000D01*
X181880000Y-111880000D02*
X182580000Y-112580000D01*
X182580000Y-112580000D02*
X188000000Y-112580000D01*
X189738000Y-114554000D02*
X189738000Y-115824000D01*
X189738000Y-115824000D02*
X187706000Y-117856000D01*
X187706000Y-117856000D02*
X185928000Y-117856000D01*
X185928000Y-117856000D02*
X184404000Y-119380000D01*
X184404000Y-119380000D02*
X184404000Y-122428000D01*
X188000000Y-112816000D02*
X189738000Y-114554000D01*
X188000000Y-112580000D02*
X188000000Y-112816000D01*
D55*
X181499260Y-219500000D02*
X181499260Y-219500740D01*
X181499260Y-222000740D02*
X178500000Y-225000000D01*
X178500000Y-225000000D02*
X165500000Y-225000000D01*
X165500000Y-225000000D02*
X157500000Y-217000000D01*
X157500000Y-217000000D02*
X157500000Y-214500000D01*
X181499260Y-219500000D02*
X181499260Y-222000740D01*
X221000000Y-221000000D02*
X221000000Y-218000000D01*
X218500000Y-223500000D02*
X221000000Y-221000000D01*
X207500000Y-223500000D02*
X218500000Y-223500000D01*
X203500740Y-219500740D02*
X207500000Y-223500000D01*
X203500740Y-219500000D02*
X203500740Y-219500740D01*
D53*
X214630000Y-119761000D02*
X215773000Y-118618000D01*
X215773000Y-118618000D02*
X217805000Y-118618000D01*
X217805000Y-118618000D02*
X218821000Y-117602000D01*
X218821000Y-117602000D02*
X218821000Y-114300000D01*
X218821000Y-114300000D02*
X217043000Y-112522000D01*
X217043000Y-112522000D02*
X217043000Y-53303000D01*
X217043000Y-53303000D02*
X213770000Y-50030000D01*
X214630000Y-121412000D02*
X214630000Y-119761000D01*
X217170000Y-131318000D02*
X217170000Y-130556000D01*
X215265000Y-128905000D02*
X213741000Y-128905000D01*
X213741000Y-128905000D02*
X212852000Y-128016000D01*
X212852000Y-128016000D02*
X212852000Y-114935000D01*
X212852000Y-114935000D02*
X215773000Y-112014000D01*
X215773000Y-112014000D02*
X215773000Y-85053000D01*
X215773000Y-85053000D02*
X213770000Y-83050000D01*
X217170000Y-130810000D02*
X215265000Y-128905000D01*
X217170000Y-131318000D02*
X217170000Y-130810000D01*
X212344000Y-74168000D02*
X214630000Y-74168000D01*
X214630000Y-74168000D02*
X215392000Y-73406000D01*
X215392000Y-73406000D02*
X215392000Y-57150000D01*
X215392000Y-57150000D02*
X214630000Y-56388000D01*
X214630000Y-56388000D02*
X202057000Y-56388000D01*
X202057000Y-56388000D02*
X199074000Y-53405000D01*
X199074000Y-53405000D02*
X193700000Y-53405000D01*
X211230000Y-75282000D02*
X212344000Y-74168000D01*
X211230000Y-75430000D02*
X211230000Y-75282000D01*
X204216000Y-108458000D02*
X205232000Y-107442000D01*
X205232000Y-107442000D02*
X205232000Y-106172000D01*
X205232000Y-106172000D02*
X209296000Y-102108000D01*
X181500000Y-136040000D02*
X181500000Y-136000000D01*
X181500000Y-136040000D02*
X182222000Y-136040000D01*
X182730000Y-136040000D02*
X186690000Y-132080000D01*
X186690000Y-132080000D02*
X186690000Y-130175000D01*
X186690000Y-130175000D02*
X190246000Y-126619000D01*
X204343000Y-109855000D02*
X205867000Y-108331000D01*
X205867000Y-108331000D02*
X205867000Y-107188000D01*
X205867000Y-107188000D02*
X209296000Y-103759000D01*
X181500000Y-136040000D02*
X182730000Y-136040000D01*
X198351000Y-69365000D02*
X207526000Y-60190000D01*
X207526000Y-60190000D02*
X211230000Y-60190000D01*
X193700000Y-69365000D02*
X198351000Y-69365000D01*
D54*
X204198500Y-77196500D02*
X204196000Y-77199000D01*
X204198500Y-74798820D02*
X204198500Y-77196500D01*
D53*
X204198500Y-73931500D02*
X204724000Y-73406000D01*
X204724000Y-73406000D02*
X204724000Y-71120000D01*
X204724000Y-71120000D02*
X203200000Y-69596000D01*
X200152000Y-65278000D02*
X207780000Y-57650000D01*
X207780000Y-57650000D02*
X211230000Y-57650000D01*
X204198500Y-74798820D02*
X204198500Y-73931500D01*
X214630000Y-113919000D02*
X216408000Y-112141000D01*
X216408000Y-112141000D02*
X216408000Y-55208000D01*
X216408000Y-55208000D02*
X213770000Y-52570000D01*
X214630000Y-116332000D02*
X214630000Y-113919000D01*
X214630000Y-125095000D02*
X215900000Y-123825000D01*
X215900000Y-123825000D02*
X218186000Y-123825000D01*
X218186000Y-123825000D02*
X219456000Y-122555000D01*
X219456000Y-122555000D02*
X219456000Y-113792000D01*
X219456000Y-113792000D02*
X217678000Y-112014000D01*
X217678000Y-112014000D02*
X217678000Y-51398000D01*
X217678000Y-51398000D02*
X213770000Y-47490000D01*
X214630000Y-126492000D02*
X214630000Y-125095000D01*
X193700000Y-50865000D02*
X196085000Y-50865000D01*
X212495000Y-43675000D02*
X213770000Y-44950000D01*
X203275000Y-43675000D02*
X212495000Y-43675000D01*
X196085000Y-50865000D02*
X203275000Y-43675000D01*
X193700000Y-49595000D02*
X195905000Y-49595000D01*
X212510000Y-41150000D02*
X213770000Y-42410000D01*
X204350000Y-41150000D02*
X212510000Y-41150000D01*
X195905000Y-49595000D02*
X204350000Y-41150000D01*
X193700000Y-52135000D02*
X192135000Y-52135000D01*
X197630000Y-39870000D02*
X211230000Y-39870000D01*
X191500000Y-46000000D02*
X197630000Y-39870000D01*
X191500000Y-51500000D02*
X191500000Y-46000000D01*
X192135000Y-52135000D02*
X191500000Y-51500000D01*
D52*
X122961400Y-96545400D02*
X127508000Y-101092000D01*
X127508000Y-101092000D02*
X148336000Y-101092000D01*
X148336000Y-101092000D02*
X157480000Y-110236000D01*
X157480000Y-110236000D02*
X157480000Y-114554000D01*
X157480000Y-114554000D02*
X160782000Y-117856000D01*
X160782000Y-117856000D02*
X172974000Y-117856000D01*
X172974000Y-117856000D02*
X177800000Y-113030000D01*
X177800000Y-113030000D02*
X177800000Y-107540000D01*
X177800000Y-107540000D02*
X174260000Y-104000000D01*
X164100000Y-104000000D02*
X164100000Y-89410000D01*
X164100000Y-89410000D02*
X164000000Y-89310000D01*
X136000000Y-96040000D02*
X155540000Y-96040000D01*
X170880000Y-115000000D02*
X174260000Y-111620000D01*
X162500000Y-115000000D02*
X170880000Y-115000000D01*
X160500000Y-113000000D02*
X162500000Y-115000000D01*
X160500000Y-109000000D02*
X160500000Y-113000000D01*
X158000000Y-106500000D02*
X160500000Y-109000000D01*
X158000000Y-98500000D02*
X158000000Y-106500000D01*
X155540000Y-96040000D02*
X158000000Y-98500000D01*
X174260000Y-111620000D02*
X174380000Y-111620000D01*
X164100000Y-111620000D02*
X164100000Y-108600000D01*
X162270000Y-84230000D02*
X164000000Y-84230000D01*
X160500000Y-86000000D02*
X162270000Y-84230000D01*
X160500000Y-105000000D02*
X160500000Y-86000000D01*
X164100000Y-108600000D02*
X160500000Y-105000000D01*
X166780000Y-84230000D02*
X169238000Y-86688000D01*
X169238000Y-86688000D02*
X179324000Y-86688000D01*
X164000000Y-84230000D02*
X166780000Y-84230000D01*
X179324000Y-86688000D02*
X179324000Y-77904000D01*
X214630000Y-136652000D02*
X214630000Y-142240000D01*
D53*
X176000000Y-83950000D02*
X169450000Y-83950000D01*
X167190000Y-81690000D02*
X164000000Y-81690000D01*
X169450000Y-83950000D02*
X167190000Y-81690000D01*
D54*
X200845820Y-87070180D02*
X203246000Y-87070180D01*
X200246000Y-87670000D02*
X200845820Y-87070180D01*
X200196000Y-87670000D02*
X200246000Y-87670000D01*
D53*
X203246000Y-93010000D02*
X204470000Y-94234000D01*
X204470000Y-94234000D02*
X205232000Y-94234000D01*
X205232000Y-94234000D02*
X205740000Y-94742000D01*
X205740000Y-94742000D02*
X205740000Y-104394000D01*
X205740000Y-104394000D02*
X203073000Y-106934000D01*
X203073000Y-106934000D02*
X203073000Y-117856000D01*
X203073000Y-117856000D02*
X204470000Y-118618000D01*
X204470000Y-118618000D02*
X204470000Y-123030000D01*
X204470000Y-123030000D02*
X202500000Y-125000000D01*
X203246000Y-87070180D02*
X203246000Y-93010000D01*
D54*
X200845820Y-72599180D02*
X203246000Y-72599180D01*
X200246000Y-73199000D02*
X200845820Y-72599180D01*
X200196000Y-73199000D02*
X200246000Y-73199000D01*
D53*
X203246000Y-71928000D02*
X202438000Y-71120000D01*
X202438000Y-71120000D02*
X201168000Y-71120000D01*
X201168000Y-108204000D02*
X200660000Y-108712000D01*
X200660000Y-108712000D02*
X200660000Y-120620000D01*
X200660000Y-120620000D02*
X202500000Y-122460000D01*
X203246000Y-72599180D02*
X203246000Y-71928000D01*
D54*
X200845820Y-79599180D02*
X203246000Y-79599180D01*
X200246000Y-80199000D02*
X200845820Y-79599180D01*
X200196000Y-80199000D02*
X200246000Y-80199000D01*
D53*
X202184000Y-106172000D02*
X202119000Y-106488000D01*
X202119000Y-106488000D02*
X202119000Y-119920000D01*
X203246000Y-79599180D02*
X204626820Y-79599180D01*
X204626820Y-79599180D02*
X204978000Y-79248000D01*
X165897000Y-56025000D02*
X164137000Y-57785000D01*
X175650000Y-56025000D02*
X165897000Y-56025000D01*
X167861000Y-56675000D02*
X165661000Y-58875000D01*
X165661000Y-58875000D02*
X165661000Y-62357000D01*
X175650000Y-56675000D02*
X167861000Y-56675000D01*
X183697000Y-59925000D02*
X184732000Y-60960000D01*
X181350000Y-59925000D02*
X183697000Y-59925000D01*
D55*
X216000000Y-214000000D02*
X214500000Y-212500000D01*
X214500000Y-212500000D02*
X165500000Y-212500000D01*
X165500000Y-212500000D02*
X162500000Y-209500000D01*
X162500000Y-209500000D02*
X157500000Y-209500000D01*
X216000000Y-218000000D02*
X216000000Y-214000000D01*
D53*
X174405000Y-59275000D02*
X173609000Y-60071000D01*
X173609000Y-60071000D02*
X173609000Y-62738000D01*
X173609000Y-62738000D02*
X175006000Y-64135000D01*
X180467000Y-64643000D02*
X182753000Y-66929000D01*
X182753000Y-66929000D02*
X182753000Y-68961000D01*
X182753000Y-68961000D02*
X185697000Y-71905000D01*
X185697000Y-71905000D02*
X188300000Y-71905000D01*
X175650000Y-59275000D02*
X174405000Y-59275000D01*
X174644000Y-59925000D02*
X174371000Y-60198000D01*
X174371000Y-60198000D02*
X174371000Y-61976000D01*
X174371000Y-61976000D02*
X175260000Y-62865000D01*
X180848000Y-63500000D02*
X183642000Y-66294000D01*
X183642000Y-66294000D02*
X183642000Y-68199000D01*
X183642000Y-68199000D02*
X186078000Y-70635000D01*
X186078000Y-70635000D02*
X188300000Y-70635000D01*
X175650000Y-59925000D02*
X174644000Y-59925000D01*
X186332000Y-69365000D02*
X184531000Y-67564000D01*
X184531000Y-67564000D02*
X184531000Y-65151000D01*
X184531000Y-65151000D02*
X181864000Y-62484000D01*
X181864000Y-62484000D02*
X180340000Y-62484000D01*
X180340000Y-62484000D02*
X179959000Y-62103000D01*
X179959000Y-62103000D02*
X179959000Y-59817000D01*
X179959000Y-59817000D02*
X180501000Y-59275000D01*
X180501000Y-59275000D02*
X181350000Y-59275000D01*
X188300000Y-69365000D02*
X186332000Y-69365000D01*
X187641000Y-53405000D02*
X188300000Y-53405000D01*
X183086000Y-57325000D02*
X187006000Y-53405000D01*
X187006000Y-53405000D02*
X188300000Y-53405000D01*
X181350000Y-57325000D02*
X183086000Y-57325000D01*
X187895000Y-52135000D02*
X188300000Y-52135000D01*
X182720000Y-56675000D02*
X187260000Y-52135000D01*
X187260000Y-52135000D02*
X188300000Y-52135000D01*
X181350000Y-56675000D02*
X182720000Y-56675000D01*
X188238000Y-50927000D02*
X188300000Y-50865000D01*
X182481000Y-56025000D02*
X186690000Y-51816000D01*
X186690000Y-51816000D02*
X186690000Y-51435000D01*
X186690000Y-51435000D02*
X187198000Y-50927000D01*
X187198000Y-50927000D02*
X188238000Y-50927000D01*
X181350000Y-56025000D02*
X182481000Y-56025000D01*
X187655000Y-49595000D02*
X188300000Y-49595000D01*
X188238000Y-49657000D02*
X188300000Y-49595000D01*
X182892000Y-54725000D02*
X185928000Y-51689000D01*
X185928000Y-51689000D02*
X185928000Y-50546000D01*
X185928000Y-50546000D02*
X186817000Y-49657000D01*
X186817000Y-49657000D02*
X188238000Y-49657000D01*
X181350000Y-54725000D02*
X182892000Y-54725000D01*
X181176000Y-89588000D02*
X185000000Y-85764000D01*
X185000000Y-85764000D02*
X185000000Y-81000000D01*
X179324000Y-89588000D02*
X181176000Y-89588000D01*
X186586000Y-68095000D02*
X186563000Y-68072000D01*
X184912000Y-78232000D02*
X185000000Y-78320000D01*
X185000000Y-78320000D02*
X185000000Y-81000000D01*
X188300000Y-68095000D02*
X186586000Y-68095000D01*
X184277000Y-47014000D02*
X185142000Y-47014000D01*
X185142000Y-47014000D02*
X186436000Y-45720000D01*
X182000000Y-81000000D02*
X182000000Y-78495000D01*
X182000000Y-78495000D02*
X181991000Y-78486000D01*
X176000000Y-81050000D02*
X176000000Y-79016000D01*
X176000000Y-79016000D02*
X176022000Y-78994000D01*
X211328000Y-94972000D02*
X211328000Y-97282000D01*
X204351000Y-96077000D02*
X204351000Y-103751000D01*
X202184000Y-102870000D02*
X203708000Y-104394000D01*
X202184000Y-102870000D02*
X202184000Y-101854000D01*
X204351000Y-103751000D02*
X203708000Y-104394000D01*
X198628000Y-103812000D02*
X198628000Y-106426000D01*
X193700000Y-54675000D02*
X195769000Y-54675000D01*
X195769000Y-54675000D02*
X195834000Y-54610000D01*
X188300000Y-65555000D02*
X188300000Y-64100000D01*
X183451000Y-57975000D02*
X183896000Y-58420000D01*
X181350000Y-57975000D02*
X183451000Y-57975000D01*
X161942000Y-54500000D02*
X161798000Y-54356000D01*
X165206000Y-54500000D02*
X161942000Y-54500000D01*
X173455000Y-54075000D02*
X172212000Y-52832000D01*
X175650000Y-54075000D02*
X173455000Y-54075000D01*
X174195000Y-58625000D02*
X173990000Y-58420000D01*
X174435000Y-57975000D02*
X175650000Y-57975000D01*
X174435000Y-57975000D02*
X173990000Y-58420000D01*
X175650000Y-58625000D02*
X174195000Y-58625000D01*
X193700000Y-65555000D02*
X193700000Y-64100000D01*
X187387000Y-54675000D02*
X186817000Y-55245000D01*
X186817000Y-55245000D02*
X186817000Y-57404000D01*
X188300000Y-54675000D02*
X187387000Y-54675000D01*
X182287000Y-53425000D02*
X183261000Y-52451000D01*
X183261000Y-52451000D02*
X183261000Y-51816000D01*
X181350000Y-53425000D02*
X182287000Y-53425000D01*
X184277000Y-47014000D02*
X184277000Y-46736000D01*
X159639000Y-63222000D02*
X159639000Y-65024000D01*
X159766000Y-70080000D02*
X159766000Y-72009000D01*
X172466000Y-67159000D02*
X172466000Y-69215000D01*
X171855000Y-47903000D02*
X171831000Y-47879000D01*
X174117000Y-47903000D02*
X171855000Y-47903000D01*
X181483000Y-47903000D02*
X181483000Y-46101000D01*
X182729000Y-43688000D02*
X184277000Y-43688000D01*
X184277000Y-43688000D02*
X184785000Y-43180000D01*
X179451000Y-39497000D02*
X179070000Y-39878000D01*
X179070000Y-39878000D02*
X176022000Y-39878000D01*
X179451000Y-38608000D02*
X179451000Y-39497000D01*
X178586000Y-33298000D02*
X176911000Y-31623000D01*
X179578000Y-33298000D02*
X178586000Y-33298000D01*
D54*
X204198500Y-91667500D02*
X204196000Y-91670000D01*
X204198500Y-89269820D02*
X204198500Y-91667500D01*
D53*
X203962000Y-66548000D02*
X199136000Y-71374000D01*
X199136000Y-71374000D02*
X195834000Y-71374000D01*
X195834000Y-71374000D02*
X195303000Y-71905000D01*
X195303000Y-71905000D02*
X193700000Y-71905000D01*
X207518000Y-66548000D02*
X203962000Y-66548000D01*
X212598000Y-66548000D02*
X208280000Y-66548000D01*
X208280000Y-66548000D02*
X207518000Y-66548000D01*
X213770000Y-65376000D02*
X212598000Y-66548000D01*
X213770000Y-65270000D02*
X213770000Y-65376000D01*
X205116180Y-89269820D02*
X206756000Y-87630000D01*
X206756000Y-87630000D02*
X206756000Y-67310000D01*
X206756000Y-67310000D02*
X207518000Y-66548000D01*
X204198500Y-89269820D02*
X205116180Y-89269820D01*
X204198500Y-81798820D02*
X204459180Y-81798820D01*
D54*
X204198500Y-84196500D02*
X204196000Y-84199000D01*
X204198500Y-81798820D02*
X204198500Y-84196500D01*
D53*
X207772000Y-61468000D02*
X208026000Y-61468000D01*
X212492000Y-61468000D02*
X213770000Y-60190000D01*
X208026000Y-61468000D02*
X212492000Y-61468000D01*
X205740000Y-63500000D02*
X207772000Y-61468000D01*
X198605000Y-70635000D02*
X205740000Y-63500000D01*
X193700000Y-70635000D02*
X198605000Y-70635000D01*
X205221180Y-81798820D02*
X205994000Y-81026000D01*
X205994000Y-81026000D02*
X205994000Y-70104000D01*
X205994000Y-70104000D02*
X204216000Y-68326000D01*
X204724000Y-64516000D02*
X205740000Y-63500000D01*
X204198500Y-81798820D02*
X205221180Y-81798820D01*
X217678000Y-133350000D02*
X219710000Y-131318000D01*
X213233000Y-133350000D02*
X217678000Y-133350000D01*
X212090000Y-132207000D02*
X213233000Y-133350000D01*
X212090000Y-114935000D02*
X212090000Y-132207000D01*
X215138000Y-111887000D02*
X212090000Y-114935000D01*
X215138000Y-86614000D02*
X215138000Y-111887000D01*
X214114000Y-85590000D02*
X215138000Y-86614000D01*
X213770000Y-85590000D02*
X214114000Y-85590000D01*
G36*
X203764427Y-94606058D02*
X203658877Y-94626537D01*
X203446073Y-94766327D01*
X203303623Y-94977360D01*
X203253560Y-95227000D01*
X203253560Y-96927000D01*
X203300537Y-97169123D01*
X203440327Y-97381927D01*
X203589000Y-97482283D01*
X203589000Y-98325367D01*
X203390500Y-98285560D01*
X202882500Y-98285560D01*
X202640377Y-98332537D01*
X202427573Y-98472327D01*
X202285123Y-98683360D01*
X202235060Y-98933000D01*
X202235060Y-99695000D01*
X202282037Y-99937123D01*
X202421827Y-100149927D01*
X202632860Y-100292377D01*
X202882500Y-100342440D01*
X203390500Y-100342440D01*
X203589000Y-100303926D01*
X203589000Y-100867902D01*
X203516809Y-100838000D01*
X203422250Y-100838000D01*
X203263500Y-100996750D01*
X203263500Y-101727000D01*
X203283500Y-101727000D01*
X203283500Y-101981000D01*
X203263500Y-101981000D01*
X203263500Y-102001000D01*
X203085440Y-102001000D01*
X203085440Y-101473000D01*
X203038463Y-101230877D01*
X203009500Y-101186786D01*
X203009500Y-100996750D01*
X202850750Y-100838000D01*
X202756191Y-100838000D01*
X202672628Y-100872612D01*
X202438000Y-100825560D01*
X201930000Y-100825560D01*
X201803000Y-100850200D01*
X201803000Y-100245948D01*
X201940427Y-100155673D01*
X202082877Y-99944640D01*
X202132940Y-99695000D01*
X202132940Y-98933000D01*
X202120500Y-98868883D01*
X202120500Y-97531852D01*
X202143123Y-97527463D01*
X202355927Y-97387673D01*
X202498377Y-97176640D01*
X202548440Y-96927000D01*
X202548440Y-95227000D01*
X202501463Y-94984877D01*
X202361673Y-94772073D01*
X202340000Y-94757443D01*
X202340000Y-92774642D01*
X202343377Y-92769640D01*
X202393440Y-92520000D01*
X202393440Y-91829796D01*
X202484000Y-91739236D01*
X202484000Y-93010000D01*
X202542004Y-93301605D01*
X202707185Y-93548815D01*
X203764427Y-94606058D01*
X203764427Y-94606058D01*
G37*
X203764427Y-94606058D02*
X203658877Y-94626537D01*
X203446073Y-94766327D01*
X203303623Y-94977360D01*
X203253560Y-95227000D01*
X203253560Y-96927000D01*
X203300537Y-97169123D01*
X203440327Y-97381927D01*
X203589000Y-97482283D01*
X203589000Y-98325367D01*
X203390500Y-98285560D01*
X202882500Y-98285560D01*
X202640377Y-98332537D01*
X202427573Y-98472327D01*
X202285123Y-98683360D01*
X202235060Y-98933000D01*
X202235060Y-99695000D01*
X202282037Y-99937123D01*
X202421827Y-100149927D01*
X202632860Y-100292377D01*
X202882500Y-100342440D01*
X203390500Y-100342440D01*
X203589000Y-100303926D01*
X203589000Y-100867902D01*
X203516809Y-100838000D01*
X203422250Y-100838000D01*
X203263500Y-100996750D01*
X203263500Y-101727000D01*
X203283500Y-101727000D01*
X203283500Y-101981000D01*
X203263500Y-101981000D01*
X203263500Y-102001000D01*
X203085440Y-102001000D01*
X203085440Y-101473000D01*
X203038463Y-101230877D01*
X203009500Y-101186786D01*
X203009500Y-100996750D01*
X202850750Y-100838000D01*
X202756191Y-100838000D01*
X202672628Y-100872612D01*
X202438000Y-100825560D01*
X201930000Y-100825560D01*
X201803000Y-100850200D01*
X201803000Y-100245948D01*
X201940427Y-100155673D01*
X202082877Y-99944640D01*
X202132940Y-99695000D01*
X202132940Y-98933000D01*
X202120500Y-98868883D01*
X202120500Y-97531852D01*
X202143123Y-97527463D01*
X202355927Y-97387673D01*
X202498377Y-97176640D01*
X202548440Y-96927000D01*
X202548440Y-95227000D01*
X202501463Y-94984877D01*
X202361673Y-94772073D01*
X202340000Y-94757443D01*
X202340000Y-92774642D01*
X202343377Y-92769640D01*
X202393440Y-92520000D01*
X202393440Y-91829796D01*
X202484000Y-91739236D01*
X202484000Y-93010000D01*
X202542004Y-93301605D01*
X202707185Y-93548815D01*
X203764427Y-94606058D01*
G36*
X214915750Y-129667000D02*
X214757000Y-129825750D01*
X214757000Y-131191000D01*
X214777000Y-131191000D01*
X214777000Y-131445000D01*
X214757000Y-131445000D01*
X214757000Y-131465000D01*
X214503000Y-131465000D01*
X214503000Y-131445000D01*
X213290150Y-131445000D01*
X213131400Y-131603750D01*
X213131400Y-132170770D01*
X212852000Y-131891370D01*
X212852000Y-129093630D01*
X213202185Y-129443815D01*
X213449395Y-129608996D01*
X213449396Y-129608996D01*
X213741000Y-129667000D01*
X213640091Y-129667000D01*
X213406702Y-129763673D01*
X213228073Y-129942301D01*
X213131400Y-130175690D01*
X213131400Y-130428309D01*
X213131400Y-131032250D01*
X213290150Y-131191000D01*
X214503000Y-131191000D01*
X214503000Y-129825750D01*
X214344250Y-129667000D01*
X214915750Y-129667000D01*
X214915750Y-129667000D01*
G37*
X214915750Y-129667000D02*
X214757000Y-129825750D01*
X214757000Y-131191000D01*
X214777000Y-131191000D01*
X214777000Y-131445000D01*
X214757000Y-131445000D01*
X214757000Y-131465000D01*
X214503000Y-131465000D01*
X214503000Y-131445000D01*
X213290150Y-131445000D01*
X213131400Y-131603750D01*
X213131400Y-132170770D01*
X212852000Y-131891370D01*
X212852000Y-129093630D01*
X213202185Y-129443815D01*
X213449395Y-129608996D01*
X213449396Y-129608996D01*
X213741000Y-129667000D01*
X213640091Y-129667000D01*
X213406702Y-129763673D01*
X213228073Y-129942301D01*
X213131400Y-130175690D01*
X213131400Y-130428309D01*
X213131400Y-131032250D01*
X213290150Y-131191000D01*
X214503000Y-131191000D01*
X214503000Y-129825750D01*
X214344250Y-129667000D01*
X214915750Y-129667000D01*
G36*
X226290000Y-166412000D02*
X224211240Y-166412000D01*
X224211240Y-92517211D01*
X224211240Y-34517211D01*
X223886910Y-33732273D01*
X223286886Y-33131200D01*
X222502515Y-32805501D01*
X221653211Y-32804760D01*
X220868273Y-33129090D01*
X220267200Y-33729114D01*
X219941501Y-34513485D01*
X219940760Y-35362789D01*
X220265090Y-36147727D01*
X220865114Y-36748800D01*
X221649485Y-37074499D01*
X222498789Y-37075240D01*
X223283727Y-36750910D01*
X223884800Y-36150886D01*
X224210499Y-35366515D01*
X224211240Y-34517211D01*
X224211240Y-92517211D01*
X223886910Y-91732273D01*
X223286886Y-91131200D01*
X222502515Y-90805501D01*
X221653211Y-90804760D01*
X220868273Y-91129090D01*
X220267200Y-91729114D01*
X219941501Y-92513485D01*
X219940760Y-93362789D01*
X220265090Y-94147727D01*
X220865114Y-94748800D01*
X221649485Y-95074499D01*
X222498789Y-95075240D01*
X223283727Y-94750910D01*
X223884800Y-94150886D01*
X224210499Y-93366515D01*
X224211240Y-92517211D01*
X224211240Y-166412000D01*
X218821000Y-166412000D01*
X218821000Y-137794310D01*
X218821000Y-137541691D01*
X218821000Y-136937750D01*
X218821000Y-136366250D01*
X218821000Y-135762309D01*
X218821000Y-135509690D01*
X218724327Y-135276301D01*
X218545698Y-135097673D01*
X218312309Y-135001000D01*
X217455750Y-135001000D01*
X217297000Y-135159750D01*
X217297000Y-136525000D01*
X218662250Y-136525000D01*
X218821000Y-136366250D01*
X218821000Y-136937750D01*
X218662250Y-136779000D01*
X217297000Y-136779000D01*
X217297000Y-138144250D01*
X217455750Y-138303000D01*
X218312309Y-138303000D01*
X218545698Y-138206327D01*
X218724327Y-138027699D01*
X218821000Y-137794310D01*
X218821000Y-166412000D01*
X217043000Y-166412000D01*
X217043000Y-138144250D01*
X217043000Y-136779000D01*
X217023000Y-136779000D01*
X217023000Y-136525000D01*
X217043000Y-136525000D01*
X217043000Y-135159750D01*
X216884250Y-135001000D01*
X216027691Y-135001000D01*
X215794302Y-135097673D01*
X215615673Y-135276301D01*
X215594518Y-135327371D01*
X215294155Y-135126675D01*
X214662345Y-135001000D01*
X214597655Y-135001000D01*
X213965845Y-135126675D01*
X213430222Y-135484567D01*
X213072330Y-136020190D01*
X212946655Y-136652000D01*
X213072330Y-137283810D01*
X213245000Y-137542228D01*
X213245000Y-140951174D01*
X213143623Y-141101360D01*
X213093560Y-141351000D01*
X213093560Y-143129000D01*
X213140537Y-143371123D01*
X213280327Y-143583927D01*
X213491360Y-143726377D01*
X213522135Y-143732548D01*
X213338769Y-143915596D01*
X213106265Y-144475528D01*
X213105736Y-145081812D01*
X213337262Y-145642149D01*
X213744737Y-146050335D01*
X213338769Y-146455596D01*
X213106265Y-147015528D01*
X213105736Y-147621812D01*
X213337262Y-148182149D01*
X213765596Y-148611231D01*
X214325528Y-148843735D01*
X214931812Y-148844264D01*
X215492149Y-148612738D01*
X215921231Y-148184404D01*
X216153735Y-147624472D01*
X216154264Y-147018188D01*
X215922738Y-146457851D01*
X215515262Y-146049664D01*
X215921231Y-145644404D01*
X216153735Y-145084472D01*
X216154264Y-144478188D01*
X215922738Y-143917851D01*
X215738969Y-143733761D01*
X215761123Y-143729463D01*
X215973927Y-143589673D01*
X216116377Y-143378640D01*
X216166440Y-143129000D01*
X216166440Y-141351000D01*
X216119463Y-141108877D01*
X216015000Y-140949851D01*
X216015000Y-138297743D01*
X216027691Y-138303000D01*
X216884250Y-138303000D01*
X217043000Y-138144250D01*
X217043000Y-166412000D01*
X211444774Y-166412000D01*
X211444774Y-163176306D01*
X211196462Y-162575345D01*
X210737073Y-162115154D01*
X210136547Y-161865794D01*
X209486306Y-161865226D01*
X208885345Y-162113538D01*
X208425154Y-162572927D01*
X208175794Y-163173453D01*
X208175226Y-163823694D01*
X208423538Y-164424655D01*
X208882927Y-164884846D01*
X209483453Y-165134206D01*
X210133694Y-165134774D01*
X210734655Y-164886462D01*
X211194846Y-164427073D01*
X211444206Y-163826547D01*
X211444774Y-163176306D01*
X211444774Y-166412000D01*
X203835242Y-166412000D01*
X203835242Y-137137339D01*
X203623010Y-136623697D01*
X203270928Y-136271000D01*
X203326310Y-136271000D01*
X203559699Y-136174327D01*
X203738327Y-135995698D01*
X203835000Y-135762309D01*
X203835000Y-135159750D01*
X203676250Y-135001000D01*
X202565000Y-135001000D01*
X202565000Y-135021000D01*
X202311000Y-135021000D01*
X202311000Y-135001000D01*
X201199750Y-135001000D01*
X201041000Y-135159750D01*
X201041000Y-135762309D01*
X201137673Y-135995698D01*
X201316301Y-136174327D01*
X201549690Y-136271000D01*
X201605613Y-136271000D01*
X201254371Y-136621630D01*
X201041243Y-137134900D01*
X201040758Y-137690661D01*
X201252990Y-138204303D01*
X201645630Y-138597629D01*
X202158900Y-138810757D01*
X202714661Y-138811242D01*
X203228303Y-138599010D01*
X203621629Y-138206370D01*
X203834757Y-137693100D01*
X203835242Y-137137339D01*
X203835242Y-166412000D01*
X203824490Y-166412000D01*
X203824490Y-164625799D01*
X203824490Y-163785750D01*
X203824490Y-163214250D01*
X203824490Y-162374201D01*
X203727817Y-162140812D01*
X203549189Y-161962183D01*
X203315800Y-161865510D01*
X203063181Y-161865510D01*
X202475750Y-161865510D01*
X202317000Y-162024260D01*
X202317000Y-163373000D01*
X203665740Y-163373000D01*
X203824490Y-163214250D01*
X203824490Y-163785750D01*
X203665740Y-163627000D01*
X202317000Y-163627000D01*
X202317000Y-164975740D01*
X202475750Y-165134490D01*
X203063181Y-165134490D01*
X203315800Y-165134490D01*
X203549189Y-165037817D01*
X203727817Y-164859188D01*
X203824490Y-164625799D01*
X203824490Y-166412000D01*
X202063000Y-166412000D01*
X202063000Y-164975740D01*
X202063000Y-163627000D01*
X202063000Y-163373000D01*
X202063000Y-162024260D01*
X201904250Y-161865510D01*
X201316819Y-161865510D01*
X201064200Y-161865510D01*
X200830811Y-161962183D01*
X200652183Y-162140812D01*
X200555510Y-162374201D01*
X200555510Y-163214250D01*
X200714260Y-163373000D01*
X202063000Y-163373000D01*
X202063000Y-163627000D01*
X200714260Y-163627000D01*
X200555510Y-163785750D01*
X200555510Y-164625799D01*
X200652183Y-164859188D01*
X200830811Y-165037817D01*
X201064200Y-165134490D01*
X201316819Y-165134490D01*
X201904250Y-165134490D01*
X202063000Y-164975740D01*
X202063000Y-166412000D01*
X200127000Y-166412000D01*
X200127000Y-154481395D01*
X195094490Y-149448885D01*
X195094490Y-114625799D01*
X195094490Y-113785750D01*
X194935740Y-113627000D01*
X193587000Y-113627000D01*
X193587000Y-114975740D01*
X193745750Y-115134490D01*
X194333181Y-115134490D01*
X194585800Y-115134490D01*
X194819189Y-115037817D01*
X194997817Y-114859188D01*
X195094490Y-114625799D01*
X195094490Y-149448885D01*
X191897000Y-146251395D01*
X191897000Y-114798390D01*
X191922183Y-114859188D01*
X192100811Y-115037817D01*
X192334200Y-115134490D01*
X192586819Y-115134490D01*
X193174250Y-115134490D01*
X193333000Y-114975740D01*
X193333000Y-113627000D01*
X193313000Y-113627000D01*
X193313000Y-113373000D01*
X193333000Y-113373000D01*
X193333000Y-113353000D01*
X193587000Y-113353000D01*
X193587000Y-113373000D01*
X194935740Y-113373000D01*
X195094490Y-113214250D01*
X195094490Y-112374201D01*
X194997817Y-112140812D01*
X194934305Y-112077299D01*
X195326000Y-111685605D01*
X195326000Y-107262395D01*
X194437000Y-106373395D01*
X194437000Y-92062236D01*
X194500344Y-92125580D01*
X194500313Y-92161784D01*
X194664311Y-92558689D01*
X194967714Y-92862622D01*
X195364332Y-93027313D01*
X195793784Y-93027687D01*
X196190689Y-92863689D01*
X196494622Y-92560286D01*
X196659313Y-92163668D01*
X196659687Y-91734216D01*
X196495689Y-91337311D01*
X196192286Y-91033378D01*
X195795668Y-90868687D01*
X195757890Y-90868654D01*
X194589000Y-89699764D01*
X194589000Y-80924000D01*
X194589000Y-80772000D01*
X194589000Y-75365471D01*
X194692123Y-75345463D01*
X194904927Y-75205673D01*
X195047377Y-74994640D01*
X195097440Y-74745000D01*
X195097440Y-74145000D01*
X195050463Y-73902877D01*
X194989603Y-73810229D01*
X195047377Y-73724640D01*
X195097440Y-73475000D01*
X195097440Y-72875000D01*
X195057083Y-72667000D01*
X195303000Y-72667000D01*
X195303000Y-72666999D01*
X195594604Y-72608996D01*
X195594605Y-72608996D01*
X195841815Y-72443815D01*
X196149630Y-72136000D01*
X196246908Y-72136000D01*
X196211000Y-72222690D01*
X196211000Y-72475309D01*
X196211000Y-72913250D01*
X196369750Y-73072000D01*
X197169000Y-73072000D01*
X197169000Y-73052000D01*
X197423000Y-73052000D01*
X197423000Y-73072000D01*
X198222250Y-73072000D01*
X198381000Y-72913250D01*
X198381000Y-72475309D01*
X198381000Y-72222690D01*
X198345091Y-72136000D01*
X199136000Y-72136000D01*
X199136000Y-72135999D01*
X199141494Y-72134907D01*
X199098560Y-72349000D01*
X199098560Y-74049000D01*
X199145537Y-74291123D01*
X199285327Y-74503927D01*
X199496360Y-74646377D01*
X199746000Y-74696440D01*
X200646000Y-74696440D01*
X200888123Y-74649463D01*
X201100927Y-74509673D01*
X201243377Y-74298640D01*
X201293440Y-74049000D01*
X201293440Y-73488180D01*
X202341720Y-73488180D01*
X202385277Y-73554487D01*
X202528256Y-73651000D01*
X201893450Y-73651000D01*
X201651327Y-73697977D01*
X201438523Y-73837767D01*
X201296073Y-74048800D01*
X201246010Y-74298440D01*
X201246010Y-75299200D01*
X201292987Y-75541323D01*
X201398245Y-75701560D01*
X200846000Y-75701560D01*
X200603877Y-75748537D01*
X200391073Y-75888327D01*
X200248623Y-76099360D01*
X200204527Y-76319243D01*
X199910794Y-76377671D01*
X199622382Y-76570382D01*
X198381000Y-77811764D01*
X198381000Y-74175310D01*
X198381000Y-73922691D01*
X198381000Y-73484750D01*
X198222250Y-73326000D01*
X197423000Y-73326000D01*
X197423000Y-74525250D01*
X197581750Y-74684000D01*
X197872309Y-74684000D01*
X198105698Y-74587327D01*
X198284327Y-74408699D01*
X198381000Y-74175310D01*
X198381000Y-77811764D01*
X198117382Y-78075382D01*
X197924671Y-78363794D01*
X197857000Y-78704000D01*
X197857000Y-78714000D01*
X197581750Y-78714000D01*
X197423000Y-78872750D01*
X197423000Y-80072000D01*
X197443000Y-80072000D01*
X197443000Y-80326000D01*
X197423000Y-80326000D01*
X197423000Y-81525250D01*
X197581750Y-81684000D01*
X197857000Y-81684000D01*
X197857000Y-82704000D01*
X197924671Y-83044206D01*
X198117382Y-83332618D01*
X199113764Y-84329000D01*
X198117382Y-85325382D01*
X197924671Y-85613794D01*
X197857000Y-85954000D01*
X197857000Y-86185000D01*
X197581750Y-86185000D01*
X197423000Y-86343750D01*
X197423000Y-87543000D01*
X197443000Y-87543000D01*
X197443000Y-87797000D01*
X197423000Y-87797000D01*
X197423000Y-88996250D01*
X197581750Y-89155000D01*
X197857000Y-89155000D01*
X197857000Y-90204000D01*
X197924671Y-90544206D01*
X198117382Y-90832618D01*
X199583382Y-92298618D01*
X199871794Y-92491329D01*
X199871795Y-92491329D01*
X200205891Y-92557784D01*
X200245537Y-92762123D01*
X200385327Y-92974927D01*
X200562000Y-93094183D01*
X200562000Y-94755864D01*
X200546073Y-94766327D01*
X200403623Y-94977360D01*
X200361381Y-95188000D01*
X200077236Y-95188000D01*
X199961655Y-95072419D01*
X199961687Y-95036216D01*
X199797689Y-94639311D01*
X199494286Y-94335378D01*
X199097668Y-94170687D01*
X198668216Y-94170313D01*
X198271311Y-94334311D01*
X197967378Y-94637714D01*
X197802687Y-95034332D01*
X197802313Y-95463784D01*
X197966311Y-95860689D01*
X198269714Y-96164622D01*
X198666332Y-96329313D01*
X198704109Y-96329345D01*
X199080382Y-96705618D01*
X199368794Y-96898329D01*
X199368795Y-96898330D01*
X199709000Y-96966000D01*
X200342500Y-96966000D01*
X200342500Y-98870967D01*
X200330060Y-98933000D01*
X200330060Y-99057303D01*
X200279000Y-99314000D01*
X200330060Y-99570696D01*
X200330060Y-99695000D01*
X200377037Y-99937123D01*
X200468264Y-100076000D01*
X199990025Y-100076000D01*
X199837699Y-99923673D01*
X199604310Y-99827000D01*
X199351691Y-99827000D01*
X198913750Y-99827000D01*
X198755000Y-99985750D01*
X198755000Y-100785000D01*
X198775000Y-100785000D01*
X198775000Y-101039000D01*
X198755000Y-101039000D01*
X198755000Y-101838250D01*
X198913750Y-101997000D01*
X199136000Y-101997000D01*
X199136000Y-102714560D01*
X198501000Y-102714560D01*
X198501000Y-101838250D01*
X198501000Y-101039000D01*
X198501000Y-100785000D01*
X198501000Y-99985750D01*
X198342250Y-99827000D01*
X197904309Y-99827000D01*
X197651690Y-99827000D01*
X197418301Y-99923673D01*
X197239673Y-100102302D01*
X197169000Y-100272921D01*
X197169000Y-88996250D01*
X197169000Y-87797000D01*
X197169000Y-87543000D01*
X197169000Y-86343750D01*
X197169000Y-81525250D01*
X197169000Y-80326000D01*
X197169000Y-80072000D01*
X197169000Y-78872750D01*
X197169000Y-74525250D01*
X197169000Y-73326000D01*
X196369750Y-73326000D01*
X196211000Y-73484750D01*
X196211000Y-73922691D01*
X196211000Y-74175310D01*
X196307673Y-74408699D01*
X196486302Y-74587327D01*
X196719691Y-74684000D01*
X197010250Y-74684000D01*
X197169000Y-74525250D01*
X197169000Y-78872750D01*
X197010250Y-78714000D01*
X196719691Y-78714000D01*
X196486302Y-78810673D01*
X196307673Y-78989301D01*
X196211000Y-79222690D01*
X196211000Y-79475309D01*
X196211000Y-79913250D01*
X196369750Y-80072000D01*
X197169000Y-80072000D01*
X197169000Y-80326000D01*
X196369750Y-80326000D01*
X196211000Y-80484750D01*
X196211000Y-80922691D01*
X196211000Y-81175310D01*
X196307673Y-81408699D01*
X196486302Y-81587327D01*
X196719691Y-81684000D01*
X197010250Y-81684000D01*
X197169000Y-81525250D01*
X197169000Y-86343750D01*
X197010250Y-86185000D01*
X196719691Y-86185000D01*
X196486302Y-86281673D01*
X196307673Y-86460301D01*
X196211000Y-86693690D01*
X196211000Y-86946309D01*
X196211000Y-87384250D01*
X196369750Y-87543000D01*
X197169000Y-87543000D01*
X197169000Y-87797000D01*
X196369750Y-87797000D01*
X196211000Y-87955750D01*
X196211000Y-88393691D01*
X196211000Y-88646310D01*
X196307673Y-88879699D01*
X196486302Y-89058327D01*
X196719691Y-89155000D01*
X197010250Y-89155000D01*
X197169000Y-88996250D01*
X197169000Y-100272921D01*
X197143000Y-100335691D01*
X197143000Y-100626250D01*
X197301750Y-100785000D01*
X198501000Y-100785000D01*
X198501000Y-101039000D01*
X197301750Y-101039000D01*
X197143000Y-101197750D01*
X197143000Y-101488309D01*
X197239673Y-101721698D01*
X197418301Y-101900327D01*
X197651690Y-101997000D01*
X197904309Y-101997000D01*
X198342250Y-101997000D01*
X198501000Y-101838250D01*
X198501000Y-102714560D01*
X197778000Y-102714560D01*
X197535877Y-102761537D01*
X197323073Y-102901327D01*
X197180623Y-103112360D01*
X197130560Y-103362000D01*
X197130560Y-104262000D01*
X197177537Y-104504123D01*
X197317327Y-104716927D01*
X197528360Y-104859377D01*
X197778000Y-104909440D01*
X197866000Y-104909440D01*
X197866000Y-105661358D01*
X197713378Y-105813714D01*
X197548687Y-106210332D01*
X197548313Y-106639784D01*
X197712311Y-107036689D01*
X198015714Y-107340622D01*
X198412332Y-107505313D01*
X198841784Y-107505687D01*
X199238689Y-107341689D01*
X199542622Y-107038286D01*
X199707313Y-106641668D01*
X199707687Y-106212216D01*
X199543689Y-105815311D01*
X199390000Y-105661353D01*
X199390000Y-104909440D01*
X199478000Y-104909440D01*
X199720123Y-104862463D01*
X199932927Y-104722673D01*
X200075377Y-104511640D01*
X200125440Y-104262000D01*
X200125440Y-103362000D01*
X200078463Y-103119877D01*
X199938673Y-102907073D01*
X199727640Y-102764623D01*
X199619816Y-102743000D01*
X200587474Y-102743000D01*
X200617802Y-102773327D01*
X200851191Y-102870000D01*
X200945750Y-102870000D01*
X201072750Y-102743000D01*
X201390250Y-102743000D01*
X201422000Y-102774750D01*
X201422000Y-102870000D01*
X201480004Y-103161605D01*
X201645185Y-103408815D01*
X202628500Y-104392131D01*
X202628313Y-104607784D01*
X202792311Y-105004689D01*
X203095714Y-105308622D01*
X203492332Y-105473313D01*
X203501813Y-105473321D01*
X203187155Y-105772995D01*
X203099689Y-105561311D01*
X202796286Y-105257378D01*
X202399668Y-105092687D01*
X201970216Y-105092313D01*
X201573311Y-105256311D01*
X201269378Y-105559714D01*
X201104687Y-105956332D01*
X201104313Y-106385784D01*
X201268311Y-106782689D01*
X201357000Y-106871532D01*
X201357000Y-107124663D01*
X200954216Y-107124313D01*
X200557311Y-107288311D01*
X200253378Y-107591714D01*
X200088687Y-107988332D01*
X200088483Y-108222126D01*
X199956004Y-108420395D01*
X199898000Y-108712000D01*
X199898000Y-112546833D01*
X199467073Y-112115154D01*
X198866547Y-111865794D01*
X198216306Y-111865226D01*
X197615345Y-112113538D01*
X197155154Y-112572927D01*
X196905794Y-113173453D01*
X196905226Y-113823694D01*
X197153538Y-114424655D01*
X197612927Y-114884846D01*
X198213453Y-115134206D01*
X198863694Y-115134774D01*
X199464655Y-114886462D01*
X199898000Y-114453872D01*
X199898000Y-120620000D01*
X199956004Y-120911605D01*
X200121185Y-121158815D01*
X200917149Y-121954779D01*
X200816655Y-122460000D01*
X200930729Y-123033489D01*
X201255585Y-123519670D01*
X201570365Y-123730000D01*
X201255585Y-123940330D01*
X200930729Y-124426511D01*
X200816655Y-125000000D01*
X200930729Y-125573489D01*
X201255585Y-126059670D01*
X201332405Y-126111000D01*
X201115395Y-126111000D01*
X199771000Y-127455395D01*
X199771000Y-134239000D01*
X201041000Y-134239000D01*
X201041000Y-134588250D01*
X201199750Y-134747000D01*
X202311000Y-134747000D01*
X202311000Y-134727000D01*
X202565000Y-134727000D01*
X202565000Y-134747000D01*
X203676250Y-134747000D01*
X203835000Y-134588250D01*
X203835000Y-134239000D01*
X205105000Y-134239000D01*
X205105000Y-127455395D01*
X203760605Y-126111000D01*
X203667594Y-126111000D01*
X203744415Y-126059670D01*
X204069271Y-125573489D01*
X204183345Y-125000000D01*
X204082850Y-124494779D01*
X205008815Y-123568815D01*
X205008816Y-123568815D01*
X205107834Y-123420623D01*
X205173996Y-123321605D01*
X205173996Y-123321604D01*
X205232000Y-123030000D01*
X205232000Y-118618000D01*
X205210779Y-118511316D01*
X205201036Y-118402989D01*
X205182001Y-118366640D01*
X205173996Y-118326395D01*
X205113566Y-118235956D01*
X205063108Y-118139600D01*
X205031610Y-118113300D01*
X205008815Y-118079185D01*
X204918380Y-118018758D01*
X204834885Y-117949043D01*
X203835000Y-117403651D01*
X203835000Y-110812925D01*
X204127332Y-110934313D01*
X204556784Y-110934687D01*
X204953689Y-110770689D01*
X205257622Y-110467286D01*
X205422313Y-110070668D01*
X205422502Y-109853127D01*
X206405815Y-108869816D01*
X206405815Y-108869815D01*
X206570996Y-108622605D01*
X206628999Y-108331000D01*
X206629000Y-108331000D01*
X206629000Y-107503630D01*
X209294131Y-104838499D01*
X209509784Y-104838687D01*
X209906689Y-104674689D01*
X210210622Y-104371286D01*
X210375313Y-103974668D01*
X210375687Y-103545216D01*
X210211689Y-103148311D01*
X209997144Y-102933391D01*
X210210622Y-102720286D01*
X210375313Y-102323668D01*
X210375687Y-101894216D01*
X210211689Y-101497311D01*
X209908286Y-101193378D01*
X209511668Y-101028687D01*
X209082216Y-101028313D01*
X208685311Y-101192311D01*
X208381378Y-101495714D01*
X208216687Y-101892332D01*
X208216497Y-102109872D01*
X206502000Y-103824370D01*
X206502000Y-94742000D01*
X206443996Y-94450395D01*
X206278815Y-94203185D01*
X206278815Y-94203184D01*
X205770815Y-93695185D01*
X205523605Y-93530004D01*
X205232000Y-93472000D01*
X204785630Y-93472000D01*
X204481070Y-93167440D01*
X204646000Y-93167440D01*
X204888123Y-93120463D01*
X205100927Y-92980673D01*
X205243377Y-92769640D01*
X205293440Y-92520000D01*
X205293440Y-90820000D01*
X205246463Y-90577877D01*
X205106673Y-90365073D01*
X205087500Y-90352130D01*
X205087500Y-90180469D01*
X205195927Y-90019840D01*
X205196737Y-90015795D01*
X205196738Y-90015795D01*
X205407784Y-89973816D01*
X205407785Y-89973816D01*
X205654995Y-89808635D01*
X207294815Y-88168815D01*
X207294816Y-88168815D01*
X207393834Y-88020623D01*
X207459996Y-87921605D01*
X207459996Y-87921604D01*
X207518000Y-87630000D01*
X207518000Y-67625630D01*
X207833630Y-67310000D01*
X208280000Y-67310000D01*
X209825016Y-67310000D01*
X209731400Y-67780641D01*
X209731400Y-67839359D01*
X209845474Y-68412848D01*
X210170330Y-68899029D01*
X210441172Y-69080000D01*
X210170330Y-69260971D01*
X209845474Y-69747152D01*
X209731400Y-70320641D01*
X209731400Y-70379359D01*
X209845474Y-70952848D01*
X210170330Y-71439029D01*
X210441172Y-71620000D01*
X210170330Y-71800971D01*
X209845474Y-72287152D01*
X209731400Y-72860641D01*
X209731400Y-72919359D01*
X209845474Y-73492848D01*
X210170330Y-73979029D01*
X210441172Y-74160000D01*
X210170330Y-74340971D01*
X209845474Y-74827152D01*
X209731400Y-75400641D01*
X209731400Y-75459359D01*
X209845474Y-76032848D01*
X210170330Y-76519029D01*
X210441172Y-76700000D01*
X210170330Y-76880971D01*
X209845474Y-77367152D01*
X209731400Y-77940641D01*
X209731400Y-77999359D01*
X209845474Y-78572848D01*
X210170330Y-79059029D01*
X210441172Y-79240000D01*
X210170330Y-79420971D01*
X209845474Y-79907152D01*
X209731400Y-80480641D01*
X209731400Y-80539359D01*
X209845474Y-81112848D01*
X210170330Y-81599029D01*
X210441172Y-81780000D01*
X210170330Y-81960971D01*
X209845474Y-82447152D01*
X209731400Y-83020641D01*
X209731400Y-83079359D01*
X209845474Y-83652848D01*
X210170330Y-84139029D01*
X210441160Y-84319992D01*
X210023179Y-84701510D01*
X209775032Y-85230973D01*
X209895531Y-85463000D01*
X211103000Y-85463000D01*
X211103000Y-85443000D01*
X211357000Y-85443000D01*
X211357000Y-85463000D01*
X211377000Y-85463000D01*
X211377000Y-85717000D01*
X211357000Y-85717000D01*
X211357000Y-86796183D01*
X211357000Y-86923817D01*
X211357000Y-88003000D01*
X211377000Y-88003000D01*
X211377000Y-88257000D01*
X211357000Y-88257000D01*
X211357000Y-89463817D01*
X211589026Y-89584958D01*
X212004947Y-89412688D01*
X212289821Y-89152665D01*
X212305937Y-89235723D01*
X212445727Y-89448527D01*
X212656760Y-89590977D01*
X212906400Y-89641040D01*
X214376000Y-89641040D01*
X214376000Y-111571370D01*
X214134774Y-111812596D01*
X214134774Y-108716306D01*
X214134490Y-108715618D01*
X214134490Y-105085800D01*
X214134490Y-104833181D01*
X214134490Y-104245750D01*
X214134490Y-103674250D01*
X214134490Y-103086819D01*
X214134490Y-102834200D01*
X214037817Y-102600811D01*
X213859188Y-102422183D01*
X213625799Y-102325510D01*
X212785750Y-102325510D01*
X212775440Y-102335820D01*
X212775440Y-95472000D01*
X212775440Y-94472000D01*
X212763000Y-94407883D01*
X212763000Y-92598309D01*
X212763000Y-92257750D01*
X212763000Y-91686250D01*
X212763000Y-91345691D01*
X212666327Y-91112302D01*
X212487699Y-90933673D01*
X212254310Y-90837000D01*
X212001691Y-90837000D01*
X211613750Y-90837000D01*
X211455000Y-90995750D01*
X211455000Y-91845000D01*
X212604250Y-91845000D01*
X212763000Y-91686250D01*
X212763000Y-92257750D01*
X212604250Y-92099000D01*
X211455000Y-92099000D01*
X211455000Y-92948250D01*
X211613750Y-93107000D01*
X212001691Y-93107000D01*
X212254310Y-93107000D01*
X212487699Y-93010327D01*
X212666327Y-92831698D01*
X212763000Y-92598309D01*
X212763000Y-94407883D01*
X212728463Y-94229877D01*
X212588673Y-94017073D01*
X212377640Y-93874623D01*
X212128000Y-93824560D01*
X211201000Y-93824560D01*
X211201000Y-92948250D01*
X211201000Y-92099000D01*
X211201000Y-91845000D01*
X211201000Y-90995750D01*
X211103000Y-90897750D01*
X211103000Y-89463817D01*
X211103000Y-88257000D01*
X211103000Y-88003000D01*
X211103000Y-86923817D01*
X211103000Y-86796183D01*
X211103000Y-85717000D01*
X209895531Y-85717000D01*
X209775032Y-85949027D01*
X210023179Y-86478490D01*
X210441152Y-86860000D01*
X210023179Y-87241510D01*
X209775032Y-87770973D01*
X209895531Y-88003000D01*
X211103000Y-88003000D01*
X211103000Y-88257000D01*
X209895531Y-88257000D01*
X209775032Y-88489027D01*
X210023179Y-89018490D01*
X210455053Y-89412688D01*
X210870974Y-89584958D01*
X211103000Y-89463817D01*
X211103000Y-90897750D01*
X211042250Y-90837000D01*
X210654309Y-90837000D01*
X210401690Y-90837000D01*
X210168301Y-90933673D01*
X209989673Y-91112302D01*
X209893000Y-91345691D01*
X209893000Y-91686250D01*
X210051750Y-91845000D01*
X211201000Y-91845000D01*
X211201000Y-92099000D01*
X210051750Y-92099000D01*
X209893000Y-92257750D01*
X209893000Y-92598309D01*
X209989673Y-92831698D01*
X210168301Y-93010327D01*
X210401690Y-93107000D01*
X210654309Y-93107000D01*
X211042250Y-93107000D01*
X211201000Y-92948250D01*
X211201000Y-93824560D01*
X210528000Y-93824560D01*
X210285877Y-93871537D01*
X210073073Y-94011327D01*
X209930623Y-94222360D01*
X209880560Y-94472000D01*
X209880560Y-95472000D01*
X209927537Y-95714123D01*
X210067327Y-95926927D01*
X210278360Y-96069377D01*
X210528000Y-96119440D01*
X210566000Y-96119440D01*
X210566000Y-96517358D01*
X210413378Y-96669714D01*
X210248687Y-97066332D01*
X210248313Y-97495784D01*
X210412311Y-97892689D01*
X210715714Y-98196622D01*
X211112332Y-98361313D01*
X211541784Y-98361687D01*
X211938689Y-98197689D01*
X212242622Y-97894286D01*
X212407313Y-97497668D01*
X212407687Y-97068216D01*
X212243689Y-96671311D01*
X212090000Y-96517353D01*
X212090000Y-96119440D01*
X212128000Y-96119440D01*
X212370123Y-96072463D01*
X212582927Y-95932673D01*
X212725377Y-95721640D01*
X212775440Y-95472000D01*
X212775440Y-102335820D01*
X212627000Y-102484260D01*
X212627000Y-103833000D01*
X213975740Y-103833000D01*
X214134490Y-103674250D01*
X214134490Y-104245750D01*
X213975740Y-104087000D01*
X212627000Y-104087000D01*
X212627000Y-105435740D01*
X212785750Y-105594490D01*
X213625799Y-105594490D01*
X213859188Y-105497817D01*
X214037817Y-105319189D01*
X214134490Y-105085800D01*
X214134490Y-108715618D01*
X213886462Y-108115345D01*
X213427073Y-107655154D01*
X212826547Y-107405794D01*
X212373000Y-107405397D01*
X212373000Y-105435740D01*
X212373000Y-104087000D01*
X212373000Y-103833000D01*
X212373000Y-102484260D01*
X212214250Y-102325510D01*
X211374201Y-102325510D01*
X211140812Y-102422183D01*
X210962183Y-102600811D01*
X210865510Y-102834200D01*
X210865510Y-103086819D01*
X210865510Y-103674250D01*
X211024260Y-103833000D01*
X212373000Y-103833000D01*
X212373000Y-104087000D01*
X211024260Y-104087000D01*
X210865510Y-104245750D01*
X210865510Y-104833181D01*
X210865510Y-105085800D01*
X210962183Y-105319189D01*
X211140812Y-105497817D01*
X211374201Y-105594490D01*
X212214250Y-105594490D01*
X212373000Y-105435740D01*
X212373000Y-107405397D01*
X212176306Y-107405226D01*
X211575345Y-107653538D01*
X211115154Y-108112927D01*
X210865794Y-108713453D01*
X210865226Y-109363694D01*
X211113538Y-109964655D01*
X211572927Y-110424846D01*
X212173453Y-110674206D01*
X212823694Y-110674774D01*
X213424655Y-110426462D01*
X213884846Y-109967073D01*
X214134206Y-109366547D01*
X214134774Y-108716306D01*
X214134774Y-111812596D01*
X211551185Y-114396185D01*
X211386004Y-114643395D01*
X211328000Y-114935000D01*
X211328000Y-132207000D01*
X211386004Y-132498605D01*
X211551185Y-132745815D01*
X212694185Y-133888815D01*
X212941395Y-134053996D01*
X213233000Y-134112000D01*
X217678000Y-134112000D01*
X217678000Y-134111999D01*
X217969604Y-134053996D01*
X217969605Y-134053996D01*
X218216815Y-133888815D01*
X219204779Y-132900850D01*
X219710000Y-133001345D01*
X220283489Y-132887271D01*
X220769670Y-132562415D01*
X220980000Y-132247634D01*
X221190330Y-132562415D01*
X221676511Y-132887271D01*
X222250000Y-133001345D01*
X222823489Y-132887271D01*
X223309670Y-132562415D01*
X223634526Y-132076234D01*
X223748600Y-131502745D01*
X223748600Y-131133255D01*
X223634526Y-130559766D01*
X223309670Y-130073585D01*
X222823489Y-129748729D01*
X222250000Y-129634655D01*
X221676511Y-129748729D01*
X221190330Y-130073585D01*
X220980000Y-130388365D01*
X220769670Y-130073585D01*
X220283489Y-129748729D01*
X219710000Y-129634655D01*
X219136511Y-129748729D01*
X218650330Y-130073585D01*
X218440000Y-130388365D01*
X218229670Y-130073585D01*
X217743489Y-129748729D01*
X217170000Y-129634655D01*
X217088496Y-129650866D01*
X215803815Y-128366185D01*
X215556605Y-128201004D01*
X215327539Y-128155440D01*
X215646000Y-128155440D01*
X215888123Y-128108463D01*
X216100927Y-127968673D01*
X216204156Y-127815743D01*
X216505845Y-128017325D01*
X217137655Y-128143000D01*
X217202345Y-128143000D01*
X217834155Y-128017325D01*
X218369778Y-127659433D01*
X218727670Y-127123810D01*
X218853345Y-126492000D01*
X218727670Y-125860190D01*
X218369778Y-125324567D01*
X217834155Y-124966675D01*
X217202345Y-124841000D01*
X217137655Y-124841000D01*
X216505845Y-124966675D01*
X216203601Y-125168627D01*
X216106673Y-125021073D01*
X215912575Y-124890054D01*
X216215630Y-124587000D01*
X218186000Y-124587000D01*
X218186000Y-124586999D01*
X218477604Y-124528996D01*
X218477605Y-124528996D01*
X218724815Y-124363815D01*
X219994815Y-123093816D01*
X219994815Y-123093815D01*
X220159996Y-122846605D01*
X220217999Y-122555000D01*
X220218000Y-122555000D01*
X220218000Y-113792000D01*
X220159996Y-113500396D01*
X220159996Y-113500395D01*
X220093834Y-113401376D01*
X219994816Y-113253185D01*
X218440000Y-111698369D01*
X218440000Y-51398000D01*
X218381997Y-51106396D01*
X218381996Y-51106395D01*
X218216816Y-50859185D01*
X215203627Y-47845997D01*
X215268600Y-47519359D01*
X215268600Y-47460641D01*
X215154526Y-46887152D01*
X214829670Y-46400971D01*
X214558827Y-46220000D01*
X214829670Y-46039029D01*
X215154526Y-45552848D01*
X215268600Y-44979359D01*
X215268600Y-44920641D01*
X215154526Y-44347152D01*
X214829670Y-43860971D01*
X214558827Y-43680000D01*
X214829670Y-43499029D01*
X215154526Y-43012848D01*
X215268600Y-42439359D01*
X215268600Y-42380641D01*
X215154526Y-41807152D01*
X214829670Y-41320971D01*
X214558827Y-41140000D01*
X214829670Y-40959029D01*
X215154526Y-40472848D01*
X215268600Y-39899359D01*
X215268600Y-39840641D01*
X215154526Y-39267152D01*
X214829670Y-38780971D01*
X214343489Y-38456115D01*
X213770000Y-38342041D01*
X213196511Y-38456115D01*
X212710330Y-38780971D01*
X212500000Y-39095751D01*
X212289670Y-38780971D01*
X211803489Y-38456115D01*
X211230000Y-38342041D01*
X210656511Y-38456115D01*
X210170330Y-38780971D01*
X209951816Y-39108000D01*
X197630000Y-39108000D01*
X197338395Y-39166004D01*
X197091185Y-39331185D01*
X196405987Y-40016382D01*
X193981605Y-37592000D01*
X181025440Y-37592000D01*
X181025440Y-33798000D01*
X181025440Y-32798000D01*
X180978463Y-32555877D01*
X180838673Y-32343073D01*
X180627640Y-32200623D01*
X180378000Y-32150560D01*
X178778000Y-32150560D01*
X178558733Y-32193102D01*
X177990499Y-31624868D01*
X177990687Y-31409216D01*
X177826689Y-31012311D01*
X177523286Y-30708378D01*
X177126668Y-30543687D01*
X176697216Y-30543313D01*
X176300311Y-30707311D01*
X175996378Y-31010714D01*
X175831687Y-31407332D01*
X175831313Y-31836784D01*
X175995311Y-32233689D01*
X176298714Y-32537622D01*
X176695332Y-32702313D01*
X176912872Y-32702502D01*
X178047185Y-33836816D01*
X178151631Y-33906604D01*
X178177537Y-34040123D01*
X178317327Y-34252927D01*
X178528360Y-34395377D01*
X178778000Y-34445440D01*
X180378000Y-34445440D01*
X180620123Y-34398463D01*
X180832927Y-34258673D01*
X180975377Y-34047640D01*
X181025440Y-33798000D01*
X181025440Y-37592000D01*
X181013000Y-37592000D01*
X181013000Y-36924309D01*
X181013000Y-36583750D01*
X181013000Y-36012250D01*
X181013000Y-35671691D01*
X180916327Y-35438302D01*
X180737699Y-35259673D01*
X180504310Y-35163000D01*
X180251691Y-35163000D01*
X179863750Y-35163000D01*
X179705000Y-35321750D01*
X179705000Y-36171000D01*
X180854250Y-36171000D01*
X181013000Y-36012250D01*
X181013000Y-36583750D01*
X180854250Y-36425000D01*
X179705000Y-36425000D01*
X179705000Y-37274250D01*
X179863750Y-37433000D01*
X180251691Y-37433000D01*
X180504310Y-37433000D01*
X180737699Y-37336327D01*
X180916327Y-37157698D01*
X181013000Y-36924309D01*
X181013000Y-37592000D01*
X180783809Y-37592000D01*
X180689250Y-37592000D01*
X180530502Y-37592000D01*
X180276498Y-37592000D01*
X180117750Y-37592000D01*
X180023191Y-37592000D01*
X179767032Y-37592000D01*
X179705000Y-37579560D01*
X179451000Y-37579560D01*
X179451000Y-37274250D01*
X179451000Y-36425000D01*
X179451000Y-36171000D01*
X179451000Y-35321750D01*
X179292250Y-35163000D01*
X178904309Y-35163000D01*
X178651690Y-35163000D01*
X178418301Y-35259673D01*
X178239673Y-35438302D01*
X178143000Y-35671691D01*
X178143000Y-36012250D01*
X178301750Y-36171000D01*
X179451000Y-36171000D01*
X179451000Y-36425000D01*
X178301750Y-36425000D01*
X178143000Y-36583750D01*
X178143000Y-36924309D01*
X178239673Y-37157698D01*
X178418301Y-37336327D01*
X178651690Y-37433000D01*
X178904309Y-37433000D01*
X179292250Y-37433000D01*
X179451000Y-37274250D01*
X179451000Y-37579560D01*
X179197000Y-37579560D01*
X179132883Y-37592000D01*
X178878809Y-37592000D01*
X178784250Y-37592000D01*
X178625502Y-37592000D01*
X178371498Y-37592000D01*
X178212750Y-37592000D01*
X178118191Y-37592000D01*
X171831000Y-37592000D01*
X171831000Y-36714626D01*
X171865114Y-36748800D01*
X172649485Y-37074499D01*
X173498789Y-37075240D01*
X174283727Y-36750910D01*
X174884800Y-36150886D01*
X175210499Y-35366515D01*
X175211240Y-34517211D01*
X174886910Y-33732273D01*
X174286886Y-33131200D01*
X173502515Y-32805501D01*
X172653211Y-32804760D01*
X171868273Y-33129090D01*
X171831000Y-33166297D01*
X171831000Y-28710000D01*
X226290000Y-28710000D01*
X226290000Y-166412000D01*
X226290000Y-166412000D01*
G37*
X226290000Y-166412000D02*
X224211240Y-166412000D01*
X224211240Y-92517211D01*
X224211240Y-34517211D01*
X223886910Y-33732273D01*
X223286886Y-33131200D01*
X222502515Y-32805501D01*
X221653211Y-32804760D01*
X220868273Y-33129090D01*
X220267200Y-33729114D01*
X219941501Y-34513485D01*
X219940760Y-35362789D01*
X220265090Y-36147727D01*
X220865114Y-36748800D01*
X221649485Y-37074499D01*
X222498789Y-37075240D01*
X223283727Y-36750910D01*
X223884800Y-36150886D01*
X224210499Y-35366515D01*
X224211240Y-34517211D01*
X224211240Y-92517211D01*
X223886910Y-91732273D01*
X223286886Y-91131200D01*
X222502515Y-90805501D01*
X221653211Y-90804760D01*
X220868273Y-91129090D01*
X220267200Y-91729114D01*
X219941501Y-92513485D01*
X219940760Y-93362789D01*
X220265090Y-94147727D01*
X220865114Y-94748800D01*
X221649485Y-95074499D01*
X222498789Y-95075240D01*
X223283727Y-94750910D01*
X223884800Y-94150886D01*
X224210499Y-93366515D01*
X224211240Y-92517211D01*
X224211240Y-166412000D01*
X218821000Y-166412000D01*
X218821000Y-137794310D01*
X218821000Y-137541691D01*
X218821000Y-136937750D01*
X218821000Y-136366250D01*
X218821000Y-135762309D01*
X218821000Y-135509690D01*
X218724327Y-135276301D01*
X218545698Y-135097673D01*
X218312309Y-135001000D01*
X217455750Y-135001000D01*
X217297000Y-135159750D01*
X217297000Y-136525000D01*
X218662250Y-136525000D01*
X218821000Y-136366250D01*
X218821000Y-136937750D01*
X218662250Y-136779000D01*
X217297000Y-136779000D01*
X217297000Y-138144250D01*
X217455750Y-138303000D01*
X218312309Y-138303000D01*
X218545698Y-138206327D01*
X218724327Y-138027699D01*
X218821000Y-137794310D01*
X218821000Y-166412000D01*
X217043000Y-166412000D01*
X217043000Y-138144250D01*
X217043000Y-136779000D01*
X217023000Y-136779000D01*
X217023000Y-136525000D01*
X217043000Y-136525000D01*
X217043000Y-135159750D01*
X216884250Y-135001000D01*
X216027691Y-135001000D01*
X215794302Y-135097673D01*
X215615673Y-135276301D01*
X215594518Y-135327371D01*
X215294155Y-135126675D01*
X214662345Y-135001000D01*
X214597655Y-135001000D01*
X213965845Y-135126675D01*
X213430222Y-135484567D01*
X213072330Y-136020190D01*
X212946655Y-136652000D01*
X213072330Y-137283810D01*
X213245000Y-137542228D01*
X213245000Y-140951174D01*
X213143623Y-141101360D01*
X213093560Y-141351000D01*
X213093560Y-143129000D01*
X213140537Y-143371123D01*
X213280327Y-143583927D01*
X213491360Y-143726377D01*
X213522135Y-143732548D01*
X213338769Y-143915596D01*
X213106265Y-144475528D01*
X213105736Y-145081812D01*
X213337262Y-145642149D01*
X213744737Y-146050335D01*
X213338769Y-146455596D01*
X213106265Y-147015528D01*
X213105736Y-147621812D01*
X213337262Y-148182149D01*
X213765596Y-148611231D01*
X214325528Y-148843735D01*
X214931812Y-148844264D01*
X215492149Y-148612738D01*
X215921231Y-148184404D01*
X216153735Y-147624472D01*
X216154264Y-147018188D01*
X215922738Y-146457851D01*
X215515262Y-146049664D01*
X215921231Y-145644404D01*
X216153735Y-145084472D01*
X216154264Y-144478188D01*
X215922738Y-143917851D01*
X215738969Y-143733761D01*
X215761123Y-143729463D01*
X215973927Y-143589673D01*
X216116377Y-143378640D01*
X216166440Y-143129000D01*
X216166440Y-141351000D01*
X216119463Y-141108877D01*
X216015000Y-140949851D01*
X216015000Y-138297743D01*
X216027691Y-138303000D01*
X216884250Y-138303000D01*
X217043000Y-138144250D01*
X217043000Y-166412000D01*
X211444774Y-166412000D01*
X211444774Y-163176306D01*
X211196462Y-162575345D01*
X210737073Y-162115154D01*
X210136547Y-161865794D01*
X209486306Y-161865226D01*
X208885345Y-162113538D01*
X208425154Y-162572927D01*
X208175794Y-163173453D01*
X208175226Y-163823694D01*
X208423538Y-164424655D01*
X208882927Y-164884846D01*
X209483453Y-165134206D01*
X210133694Y-165134774D01*
X210734655Y-164886462D01*
X211194846Y-164427073D01*
X211444206Y-163826547D01*
X211444774Y-163176306D01*
X211444774Y-166412000D01*
X203835242Y-166412000D01*
X203835242Y-137137339D01*
X203623010Y-136623697D01*
X203270928Y-136271000D01*
X203326310Y-136271000D01*
X203559699Y-136174327D01*
X203738327Y-135995698D01*
X203835000Y-135762309D01*
X203835000Y-135159750D01*
X203676250Y-135001000D01*
X202565000Y-135001000D01*
X202565000Y-135021000D01*
X202311000Y-135021000D01*
X202311000Y-135001000D01*
X201199750Y-135001000D01*
X201041000Y-135159750D01*
X201041000Y-135762309D01*
X201137673Y-135995698D01*
X201316301Y-136174327D01*
X201549690Y-136271000D01*
X201605613Y-136271000D01*
X201254371Y-136621630D01*
X201041243Y-137134900D01*
X201040758Y-137690661D01*
X201252990Y-138204303D01*
X201645630Y-138597629D01*
X202158900Y-138810757D01*
X202714661Y-138811242D01*
X203228303Y-138599010D01*
X203621629Y-138206370D01*
X203834757Y-137693100D01*
X203835242Y-137137339D01*
X203835242Y-166412000D01*
X203824490Y-166412000D01*
X203824490Y-164625799D01*
X203824490Y-163785750D01*
X203824490Y-163214250D01*
X203824490Y-162374201D01*
X203727817Y-162140812D01*
X203549189Y-161962183D01*
X203315800Y-161865510D01*
X203063181Y-161865510D01*
X202475750Y-161865510D01*
X202317000Y-162024260D01*
X202317000Y-163373000D01*
X203665740Y-163373000D01*
X203824490Y-163214250D01*
X203824490Y-163785750D01*
X203665740Y-163627000D01*
X202317000Y-163627000D01*
X202317000Y-164975740D01*
X202475750Y-165134490D01*
X203063181Y-165134490D01*
X203315800Y-165134490D01*
X203549189Y-165037817D01*
X203727817Y-164859188D01*
X203824490Y-164625799D01*
X203824490Y-166412000D01*
X202063000Y-166412000D01*
X202063000Y-164975740D01*
X202063000Y-163627000D01*
X202063000Y-163373000D01*
X202063000Y-162024260D01*
X201904250Y-161865510D01*
X201316819Y-161865510D01*
X201064200Y-161865510D01*
X200830811Y-161962183D01*
X200652183Y-162140812D01*
X200555510Y-162374201D01*
X200555510Y-163214250D01*
X200714260Y-163373000D01*
X202063000Y-163373000D01*
X202063000Y-163627000D01*
X200714260Y-163627000D01*
X200555510Y-163785750D01*
X200555510Y-164625799D01*
X200652183Y-164859188D01*
X200830811Y-165037817D01*
X201064200Y-165134490D01*
X201316819Y-165134490D01*
X201904250Y-165134490D01*
X202063000Y-164975740D01*
X202063000Y-166412000D01*
X200127000Y-166412000D01*
X200127000Y-154481395D01*
X195094490Y-149448885D01*
X195094490Y-114625799D01*
X195094490Y-113785750D01*
X194935740Y-113627000D01*
X193587000Y-113627000D01*
X193587000Y-114975740D01*
X193745750Y-115134490D01*
X194333181Y-115134490D01*
X194585800Y-115134490D01*
X194819189Y-115037817D01*
X194997817Y-114859188D01*
X195094490Y-114625799D01*
X195094490Y-149448885D01*
X191897000Y-146251395D01*
X191897000Y-114798390D01*
X191922183Y-114859188D01*
X192100811Y-115037817D01*
X192334200Y-115134490D01*
X192586819Y-115134490D01*
X193174250Y-115134490D01*
X193333000Y-114975740D01*
X193333000Y-113627000D01*
X193313000Y-113627000D01*
X193313000Y-113373000D01*
X193333000Y-113373000D01*
X193333000Y-113353000D01*
X193587000Y-113353000D01*
X193587000Y-113373000D01*
X194935740Y-113373000D01*
X195094490Y-113214250D01*
X195094490Y-112374201D01*
X194997817Y-112140812D01*
X194934305Y-112077299D01*
X195326000Y-111685605D01*
X195326000Y-107262395D01*
X194437000Y-106373395D01*
X194437000Y-92062236D01*
X194500344Y-92125580D01*
X194500313Y-92161784D01*
X194664311Y-92558689D01*
X194967714Y-92862622D01*
X195364332Y-93027313D01*
X195793784Y-93027687D01*
X196190689Y-92863689D01*
X196494622Y-92560286D01*
X196659313Y-92163668D01*
X196659687Y-91734216D01*
X196495689Y-91337311D01*
X196192286Y-91033378D01*
X195795668Y-90868687D01*
X195757890Y-90868654D01*
X194589000Y-89699764D01*
X194589000Y-80924000D01*
X194589000Y-80772000D01*
X194589000Y-75365471D01*
X194692123Y-75345463D01*
X194904927Y-75205673D01*
X195047377Y-74994640D01*
X195097440Y-74745000D01*
X195097440Y-74145000D01*
X195050463Y-73902877D01*
X194989603Y-73810229D01*
X195047377Y-73724640D01*
X195097440Y-73475000D01*
X195097440Y-72875000D01*
X195057083Y-72667000D01*
X195303000Y-72667000D01*
X195303000Y-72666999D01*
X195594604Y-72608996D01*
X195594605Y-72608996D01*
X195841815Y-72443815D01*
X196149630Y-72136000D01*
X196246908Y-72136000D01*
X196211000Y-72222690D01*
X196211000Y-72475309D01*
X196211000Y-72913250D01*
X196369750Y-73072000D01*
X197169000Y-73072000D01*
X197169000Y-73052000D01*
X197423000Y-73052000D01*
X197423000Y-73072000D01*
X198222250Y-73072000D01*
X198381000Y-72913250D01*
X198381000Y-72475309D01*
X198381000Y-72222690D01*
X198345091Y-72136000D01*
X199136000Y-72136000D01*
X199136000Y-72135999D01*
X199141494Y-72134907D01*
X199098560Y-72349000D01*
X199098560Y-74049000D01*
X199145537Y-74291123D01*
X199285327Y-74503927D01*
X199496360Y-74646377D01*
X199746000Y-74696440D01*
X200646000Y-74696440D01*
X200888123Y-74649463D01*
X201100927Y-74509673D01*
X201243377Y-74298640D01*
X201293440Y-74049000D01*
X201293440Y-73488180D01*
X202341720Y-73488180D01*
X202385277Y-73554487D01*
X202528256Y-73651000D01*
X201893450Y-73651000D01*
X201651327Y-73697977D01*
X201438523Y-73837767D01*
X201296073Y-74048800D01*
X201246010Y-74298440D01*
X201246010Y-75299200D01*
X201292987Y-75541323D01*
X201398245Y-75701560D01*
X200846000Y-75701560D01*
X200603877Y-75748537D01*
X200391073Y-75888327D01*
X200248623Y-76099360D01*
X200204527Y-76319243D01*
X199910794Y-76377671D01*
X199622382Y-76570382D01*
X198381000Y-77811764D01*
X198381000Y-74175310D01*
X198381000Y-73922691D01*
X198381000Y-73484750D01*
X198222250Y-73326000D01*
X197423000Y-73326000D01*
X197423000Y-74525250D01*
X197581750Y-74684000D01*
X197872309Y-74684000D01*
X198105698Y-74587327D01*
X198284327Y-74408699D01*
X198381000Y-74175310D01*
X198381000Y-77811764D01*
X198117382Y-78075382D01*
X197924671Y-78363794D01*
X197857000Y-78704000D01*
X197857000Y-78714000D01*
X197581750Y-78714000D01*
X197423000Y-78872750D01*
X197423000Y-80072000D01*
X197443000Y-80072000D01*
X197443000Y-80326000D01*
X197423000Y-80326000D01*
X197423000Y-81525250D01*
X197581750Y-81684000D01*
X197857000Y-81684000D01*
X197857000Y-82704000D01*
X197924671Y-83044206D01*
X198117382Y-83332618D01*
X199113764Y-84329000D01*
X198117382Y-85325382D01*
X197924671Y-85613794D01*
X197857000Y-85954000D01*
X197857000Y-86185000D01*
X197581750Y-86185000D01*
X197423000Y-86343750D01*
X197423000Y-87543000D01*
X197443000Y-87543000D01*
X197443000Y-87797000D01*
X197423000Y-87797000D01*
X197423000Y-88996250D01*
X197581750Y-89155000D01*
X197857000Y-89155000D01*
X197857000Y-90204000D01*
X197924671Y-90544206D01*
X198117382Y-90832618D01*
X199583382Y-92298618D01*
X199871794Y-92491329D01*
X199871795Y-92491329D01*
X200205891Y-92557784D01*
X200245537Y-92762123D01*
X200385327Y-92974927D01*
X200562000Y-93094183D01*
X200562000Y-94755864D01*
X200546073Y-94766327D01*
X200403623Y-94977360D01*
X200361381Y-95188000D01*
X200077236Y-95188000D01*
X199961655Y-95072419D01*
X199961687Y-95036216D01*
X199797689Y-94639311D01*
X199494286Y-94335378D01*
X199097668Y-94170687D01*
X198668216Y-94170313D01*
X198271311Y-94334311D01*
X197967378Y-94637714D01*
X197802687Y-95034332D01*
X197802313Y-95463784D01*
X197966311Y-95860689D01*
X198269714Y-96164622D01*
X198666332Y-96329313D01*
X198704109Y-96329345D01*
X199080382Y-96705618D01*
X199368794Y-96898329D01*
X199368795Y-96898330D01*
X199709000Y-96966000D01*
X200342500Y-96966000D01*
X200342500Y-98870967D01*
X200330060Y-98933000D01*
X200330060Y-99057303D01*
X200279000Y-99314000D01*
X200330060Y-99570696D01*
X200330060Y-99695000D01*
X200377037Y-99937123D01*
X200468264Y-100076000D01*
X199990025Y-100076000D01*
X199837699Y-99923673D01*
X199604310Y-99827000D01*
X199351691Y-99827000D01*
X198913750Y-99827000D01*
X198755000Y-99985750D01*
X198755000Y-100785000D01*
X198775000Y-100785000D01*
X198775000Y-101039000D01*
X198755000Y-101039000D01*
X198755000Y-101838250D01*
X198913750Y-101997000D01*
X199136000Y-101997000D01*
X199136000Y-102714560D01*
X198501000Y-102714560D01*
X198501000Y-101838250D01*
X198501000Y-101039000D01*
X198501000Y-100785000D01*
X198501000Y-99985750D01*
X198342250Y-99827000D01*
X197904309Y-99827000D01*
X197651690Y-99827000D01*
X197418301Y-99923673D01*
X197239673Y-100102302D01*
X197169000Y-100272921D01*
X197169000Y-88996250D01*
X197169000Y-87797000D01*
X197169000Y-87543000D01*
X197169000Y-86343750D01*
X197169000Y-81525250D01*
X197169000Y-80326000D01*
X197169000Y-80072000D01*
X197169000Y-78872750D01*
X197169000Y-74525250D01*
X197169000Y-73326000D01*
X196369750Y-73326000D01*
X196211000Y-73484750D01*
X196211000Y-73922691D01*
X196211000Y-74175310D01*
X196307673Y-74408699D01*
X196486302Y-74587327D01*
X196719691Y-74684000D01*
X197010250Y-74684000D01*
X197169000Y-74525250D01*
X197169000Y-78872750D01*
X197010250Y-78714000D01*
X196719691Y-78714000D01*
X196486302Y-78810673D01*
X196307673Y-78989301D01*
X196211000Y-79222690D01*
X196211000Y-79475309D01*
X196211000Y-79913250D01*
X196369750Y-80072000D01*
X197169000Y-80072000D01*
X197169000Y-80326000D01*
X196369750Y-80326000D01*
X196211000Y-80484750D01*
X196211000Y-80922691D01*
X196211000Y-81175310D01*
X196307673Y-81408699D01*
X196486302Y-81587327D01*
X196719691Y-81684000D01*
X197010250Y-81684000D01*
X197169000Y-81525250D01*
X197169000Y-86343750D01*
X197010250Y-86185000D01*
X196719691Y-86185000D01*
X196486302Y-86281673D01*
X196307673Y-86460301D01*
X196211000Y-86693690D01*
X196211000Y-86946309D01*
X196211000Y-87384250D01*
X196369750Y-87543000D01*
X197169000Y-87543000D01*
X197169000Y-87797000D01*
X196369750Y-87797000D01*
X196211000Y-87955750D01*
X196211000Y-88393691D01*
X196211000Y-88646310D01*
X196307673Y-88879699D01*
X196486302Y-89058327D01*
X196719691Y-89155000D01*
X197010250Y-89155000D01*
X197169000Y-88996250D01*
X197169000Y-100272921D01*
X197143000Y-100335691D01*
X197143000Y-100626250D01*
X197301750Y-100785000D01*
X198501000Y-100785000D01*
X198501000Y-101039000D01*
X197301750Y-101039000D01*
X197143000Y-101197750D01*
X197143000Y-101488309D01*
X197239673Y-101721698D01*
X197418301Y-101900327D01*
X197651690Y-101997000D01*
X197904309Y-101997000D01*
X198342250Y-101997000D01*
X198501000Y-101838250D01*
X198501000Y-102714560D01*
X197778000Y-102714560D01*
X197535877Y-102761537D01*
X197323073Y-102901327D01*
X197180623Y-103112360D01*
X197130560Y-103362000D01*
X197130560Y-104262000D01*
X197177537Y-104504123D01*
X197317327Y-104716927D01*
X197528360Y-104859377D01*
X197778000Y-104909440D01*
X197866000Y-104909440D01*
X197866000Y-105661358D01*
X197713378Y-105813714D01*
X197548687Y-106210332D01*
X197548313Y-106639784D01*
X197712311Y-107036689D01*
X198015714Y-107340622D01*
X198412332Y-107505313D01*
X198841784Y-107505687D01*
X199238689Y-107341689D01*
X199542622Y-107038286D01*
X199707313Y-106641668D01*
X199707687Y-106212216D01*
X199543689Y-105815311D01*
X199390000Y-105661353D01*
X199390000Y-104909440D01*
X199478000Y-104909440D01*
X199720123Y-104862463D01*
X199932927Y-104722673D01*
X200075377Y-104511640D01*
X200125440Y-104262000D01*
X200125440Y-103362000D01*
X200078463Y-103119877D01*
X199938673Y-102907073D01*
X199727640Y-102764623D01*
X199619816Y-102743000D01*
X200587474Y-102743000D01*
X200617802Y-102773327D01*
X200851191Y-102870000D01*
X200945750Y-102870000D01*
X201072750Y-102743000D01*
X201390250Y-102743000D01*
X201422000Y-102774750D01*
X201422000Y-102870000D01*
X201480004Y-103161605D01*
X201645185Y-103408815D01*
X202628500Y-104392131D01*
X202628313Y-104607784D01*
X202792311Y-105004689D01*
X203095714Y-105308622D01*
X203492332Y-105473313D01*
X203501813Y-105473321D01*
X203187155Y-105772995D01*
X203099689Y-105561311D01*
X202796286Y-105257378D01*
X202399668Y-105092687D01*
X201970216Y-105092313D01*
X201573311Y-105256311D01*
X201269378Y-105559714D01*
X201104687Y-105956332D01*
X201104313Y-106385784D01*
X201268311Y-106782689D01*
X201357000Y-106871532D01*
X201357000Y-107124663D01*
X200954216Y-107124313D01*
X200557311Y-107288311D01*
X200253378Y-107591714D01*
X200088687Y-107988332D01*
X200088483Y-108222126D01*
X199956004Y-108420395D01*
X199898000Y-108712000D01*
X199898000Y-112546833D01*
X199467073Y-112115154D01*
X198866547Y-111865794D01*
X198216306Y-111865226D01*
X197615345Y-112113538D01*
X197155154Y-112572927D01*
X196905794Y-113173453D01*
X196905226Y-113823694D01*
X197153538Y-114424655D01*
X197612927Y-114884846D01*
X198213453Y-115134206D01*
X198863694Y-115134774D01*
X199464655Y-114886462D01*
X199898000Y-114453872D01*
X199898000Y-120620000D01*
X199956004Y-120911605D01*
X200121185Y-121158815D01*
X200917149Y-121954779D01*
X200816655Y-122460000D01*
X200930729Y-123033489D01*
X201255585Y-123519670D01*
X201570365Y-123730000D01*
X201255585Y-123940330D01*
X200930729Y-124426511D01*
X200816655Y-125000000D01*
X200930729Y-125573489D01*
X201255585Y-126059670D01*
X201332405Y-126111000D01*
X201115395Y-126111000D01*
X199771000Y-127455395D01*
X199771000Y-134239000D01*
X201041000Y-134239000D01*
X201041000Y-134588250D01*
X201199750Y-134747000D01*
X202311000Y-134747000D01*
X202311000Y-134727000D01*
X202565000Y-134727000D01*
X202565000Y-134747000D01*
X203676250Y-134747000D01*
X203835000Y-134588250D01*
X203835000Y-134239000D01*
X205105000Y-134239000D01*
X205105000Y-127455395D01*
X203760605Y-126111000D01*
X203667594Y-126111000D01*
X203744415Y-126059670D01*
X204069271Y-125573489D01*
X204183345Y-125000000D01*
X204082850Y-124494779D01*
X205008815Y-123568815D01*
X205008816Y-123568815D01*
X205107834Y-123420623D01*
X205173996Y-123321605D01*
X205173996Y-123321604D01*
X205232000Y-123030000D01*
X205232000Y-118618000D01*
X205210779Y-118511316D01*
X205201036Y-118402989D01*
X205182001Y-118366640D01*
X205173996Y-118326395D01*
X205113566Y-118235956D01*
X205063108Y-118139600D01*
X205031610Y-118113300D01*
X205008815Y-118079185D01*
X204918380Y-118018758D01*
X204834885Y-117949043D01*
X203835000Y-117403651D01*
X203835000Y-110812925D01*
X204127332Y-110934313D01*
X204556784Y-110934687D01*
X204953689Y-110770689D01*
X205257622Y-110467286D01*
X205422313Y-110070668D01*
X205422502Y-109853127D01*
X206405815Y-108869816D01*
X206405815Y-108869815D01*
X206570996Y-108622605D01*
X206628999Y-108331000D01*
X206629000Y-108331000D01*
X206629000Y-107503630D01*
X209294131Y-104838499D01*
X209509784Y-104838687D01*
X209906689Y-104674689D01*
X210210622Y-104371286D01*
X210375313Y-103974668D01*
X210375687Y-103545216D01*
X210211689Y-103148311D01*
X209997144Y-102933391D01*
X210210622Y-102720286D01*
X210375313Y-102323668D01*
X210375687Y-101894216D01*
X210211689Y-101497311D01*
X209908286Y-101193378D01*
X209511668Y-101028687D01*
X209082216Y-101028313D01*
X208685311Y-101192311D01*
X208381378Y-101495714D01*
X208216687Y-101892332D01*
X208216497Y-102109872D01*
X206502000Y-103824370D01*
X206502000Y-94742000D01*
X206443996Y-94450395D01*
X206278815Y-94203185D01*
X206278815Y-94203184D01*
X205770815Y-93695185D01*
X205523605Y-93530004D01*
X205232000Y-93472000D01*
X204785630Y-93472000D01*
X204481070Y-93167440D01*
X204646000Y-93167440D01*
X204888123Y-93120463D01*
X205100927Y-92980673D01*
X205243377Y-92769640D01*
X205293440Y-92520000D01*
X205293440Y-90820000D01*
X205246463Y-90577877D01*
X205106673Y-90365073D01*
X205087500Y-90352130D01*
X205087500Y-90180469D01*
X205195927Y-90019840D01*
X205196737Y-90015795D01*
X205196738Y-90015795D01*
X205407784Y-89973816D01*
X205407785Y-89973816D01*
X205654995Y-89808635D01*
X207294815Y-88168815D01*
X207294816Y-88168815D01*
X207393834Y-88020623D01*
X207459996Y-87921605D01*
X207459996Y-87921604D01*
X207518000Y-87630000D01*
X207518000Y-67625630D01*
X207833630Y-67310000D01*
X208280000Y-67310000D01*
X209825016Y-67310000D01*
X209731400Y-67780641D01*
X209731400Y-67839359D01*
X209845474Y-68412848D01*
X210170330Y-68899029D01*
X210441172Y-69080000D01*
X210170330Y-69260971D01*
X209845474Y-69747152D01*
X209731400Y-70320641D01*
X209731400Y-70379359D01*
X209845474Y-70952848D01*
X210170330Y-71439029D01*
X210441172Y-71620000D01*
X210170330Y-71800971D01*
X209845474Y-72287152D01*
X209731400Y-72860641D01*
X209731400Y-72919359D01*
X209845474Y-73492848D01*
X210170330Y-73979029D01*
X210441172Y-74160000D01*
X210170330Y-74340971D01*
X209845474Y-74827152D01*
X209731400Y-75400641D01*
X209731400Y-75459359D01*
X209845474Y-76032848D01*
X210170330Y-76519029D01*
X210441172Y-76700000D01*
X210170330Y-76880971D01*
X209845474Y-77367152D01*
X209731400Y-77940641D01*
X209731400Y-77999359D01*
X209845474Y-78572848D01*
X210170330Y-79059029D01*
X210441172Y-79240000D01*
X210170330Y-79420971D01*
X209845474Y-79907152D01*
X209731400Y-80480641D01*
X209731400Y-80539359D01*
X209845474Y-81112848D01*
X210170330Y-81599029D01*
X210441172Y-81780000D01*
X210170330Y-81960971D01*
X209845474Y-82447152D01*
X209731400Y-83020641D01*
X209731400Y-83079359D01*
X209845474Y-83652848D01*
X210170330Y-84139029D01*
X210441160Y-84319992D01*
X210023179Y-84701510D01*
X209775032Y-85230973D01*
X209895531Y-85463000D01*
X211103000Y-85463000D01*
X211103000Y-85443000D01*
X211357000Y-85443000D01*
X211357000Y-85463000D01*
X211377000Y-85463000D01*
X211377000Y-85717000D01*
X211357000Y-85717000D01*
X211357000Y-86796183D01*
X211357000Y-86923817D01*
X211357000Y-88003000D01*
X211377000Y-88003000D01*
X211377000Y-88257000D01*
X211357000Y-88257000D01*
X211357000Y-89463817D01*
X211589026Y-89584958D01*
X212004947Y-89412688D01*
X212289821Y-89152665D01*
X212305937Y-89235723D01*
X212445727Y-89448527D01*
X212656760Y-89590977D01*
X212906400Y-89641040D01*
X214376000Y-89641040D01*
X214376000Y-111571370D01*
X214134774Y-111812596D01*
X214134774Y-108716306D01*
X214134490Y-108715618D01*
X214134490Y-105085800D01*
X214134490Y-104833181D01*
X214134490Y-104245750D01*
X214134490Y-103674250D01*
X214134490Y-103086819D01*
X214134490Y-102834200D01*
X214037817Y-102600811D01*
X213859188Y-102422183D01*
X213625799Y-102325510D01*
X212785750Y-102325510D01*
X212775440Y-102335820D01*
X212775440Y-95472000D01*
X212775440Y-94472000D01*
X212763000Y-94407883D01*
X212763000Y-92598309D01*
X212763000Y-92257750D01*
X212763000Y-91686250D01*
X212763000Y-91345691D01*
X212666327Y-91112302D01*
X212487699Y-90933673D01*
X212254310Y-90837000D01*
X212001691Y-90837000D01*
X211613750Y-90837000D01*
X211455000Y-90995750D01*
X211455000Y-91845000D01*
X212604250Y-91845000D01*
X212763000Y-91686250D01*
X212763000Y-92257750D01*
X212604250Y-92099000D01*
X211455000Y-92099000D01*
X211455000Y-92948250D01*
X211613750Y-93107000D01*
X212001691Y-93107000D01*
X212254310Y-93107000D01*
X212487699Y-93010327D01*
X212666327Y-92831698D01*
X212763000Y-92598309D01*
X212763000Y-94407883D01*
X212728463Y-94229877D01*
X212588673Y-94017073D01*
X212377640Y-93874623D01*
X212128000Y-93824560D01*
X211201000Y-93824560D01*
X211201000Y-92948250D01*
X211201000Y-92099000D01*
X211201000Y-91845000D01*
X211201000Y-90995750D01*
X211103000Y-90897750D01*
X211103000Y-89463817D01*
X211103000Y-88257000D01*
X211103000Y-88003000D01*
X211103000Y-86923817D01*
X211103000Y-86796183D01*
X211103000Y-85717000D01*
X209895531Y-85717000D01*
X209775032Y-85949027D01*
X210023179Y-86478490D01*
X210441152Y-86860000D01*
X210023179Y-87241510D01*
X209775032Y-87770973D01*
X209895531Y-88003000D01*
X211103000Y-88003000D01*
X211103000Y-88257000D01*
X209895531Y-88257000D01*
X209775032Y-88489027D01*
X210023179Y-89018490D01*
X210455053Y-89412688D01*
X210870974Y-89584958D01*
X211103000Y-89463817D01*
X211103000Y-90897750D01*
X211042250Y-90837000D01*
X210654309Y-90837000D01*
X210401690Y-90837000D01*
X210168301Y-90933673D01*
X209989673Y-91112302D01*
X209893000Y-91345691D01*
X209893000Y-91686250D01*
X210051750Y-91845000D01*
X211201000Y-91845000D01*
X211201000Y-92099000D01*
X210051750Y-92099000D01*
X209893000Y-92257750D01*
X209893000Y-92598309D01*
X209989673Y-92831698D01*
X210168301Y-93010327D01*
X210401690Y-93107000D01*
X210654309Y-93107000D01*
X211042250Y-93107000D01*
X211201000Y-92948250D01*
X211201000Y-93824560D01*
X210528000Y-93824560D01*
X210285877Y-93871537D01*
X210073073Y-94011327D01*
X209930623Y-94222360D01*
X209880560Y-94472000D01*
X209880560Y-95472000D01*
X209927537Y-95714123D01*
X210067327Y-95926927D01*
X210278360Y-96069377D01*
X210528000Y-96119440D01*
X210566000Y-96119440D01*
X210566000Y-96517358D01*
X210413378Y-96669714D01*
X210248687Y-97066332D01*
X210248313Y-97495784D01*
X210412311Y-97892689D01*
X210715714Y-98196622D01*
X211112332Y-98361313D01*
X211541784Y-98361687D01*
X211938689Y-98197689D01*
X212242622Y-97894286D01*
X212407313Y-97497668D01*
X212407687Y-97068216D01*
X212243689Y-96671311D01*
X212090000Y-96517353D01*
X212090000Y-96119440D01*
X212128000Y-96119440D01*
X212370123Y-96072463D01*
X212582927Y-95932673D01*
X212725377Y-95721640D01*
X212775440Y-95472000D01*
X212775440Y-102335820D01*
X212627000Y-102484260D01*
X212627000Y-103833000D01*
X213975740Y-103833000D01*
X214134490Y-103674250D01*
X214134490Y-104245750D01*
X213975740Y-104087000D01*
X212627000Y-104087000D01*
X212627000Y-105435740D01*
X212785750Y-105594490D01*
X213625799Y-105594490D01*
X213859188Y-105497817D01*
X214037817Y-105319189D01*
X214134490Y-105085800D01*
X214134490Y-108715618D01*
X213886462Y-108115345D01*
X213427073Y-107655154D01*
X212826547Y-107405794D01*
X212373000Y-107405397D01*
X212373000Y-105435740D01*
X212373000Y-104087000D01*
X212373000Y-103833000D01*
X212373000Y-102484260D01*
X212214250Y-102325510D01*
X211374201Y-102325510D01*
X211140812Y-102422183D01*
X210962183Y-102600811D01*
X210865510Y-102834200D01*
X210865510Y-103086819D01*
X210865510Y-103674250D01*
X211024260Y-103833000D01*
X212373000Y-103833000D01*
X212373000Y-104087000D01*
X211024260Y-104087000D01*
X210865510Y-104245750D01*
X210865510Y-104833181D01*
X210865510Y-105085800D01*
X210962183Y-105319189D01*
X211140812Y-105497817D01*
X211374201Y-105594490D01*
X212214250Y-105594490D01*
X212373000Y-105435740D01*
X212373000Y-107405397D01*
X212176306Y-107405226D01*
X211575345Y-107653538D01*
X211115154Y-108112927D01*
X210865794Y-108713453D01*
X210865226Y-109363694D01*
X211113538Y-109964655D01*
X211572927Y-110424846D01*
X212173453Y-110674206D01*
X212823694Y-110674774D01*
X213424655Y-110426462D01*
X213884846Y-109967073D01*
X214134206Y-109366547D01*
X214134774Y-108716306D01*
X214134774Y-111812596D01*
X211551185Y-114396185D01*
X211386004Y-114643395D01*
X211328000Y-114935000D01*
X211328000Y-132207000D01*
X211386004Y-132498605D01*
X211551185Y-132745815D01*
X212694185Y-133888815D01*
X212941395Y-134053996D01*
X213233000Y-134112000D01*
X217678000Y-134112000D01*
X217678000Y-134111999D01*
X217969604Y-134053996D01*
X217969605Y-134053996D01*
X218216815Y-133888815D01*
X219204779Y-132900850D01*
X219710000Y-133001345D01*
X220283489Y-132887271D01*
X220769670Y-132562415D01*
X220980000Y-132247634D01*
X221190330Y-132562415D01*
X221676511Y-132887271D01*
X222250000Y-133001345D01*
X222823489Y-132887271D01*
X223309670Y-132562415D01*
X223634526Y-132076234D01*
X223748600Y-131502745D01*
X223748600Y-131133255D01*
X223634526Y-130559766D01*
X223309670Y-130073585D01*
X222823489Y-129748729D01*
X222250000Y-129634655D01*
X221676511Y-129748729D01*
X221190330Y-130073585D01*
X220980000Y-130388365D01*
X220769670Y-130073585D01*
X220283489Y-129748729D01*
X219710000Y-129634655D01*
X219136511Y-129748729D01*
X218650330Y-130073585D01*
X218440000Y-130388365D01*
X218229670Y-130073585D01*
X217743489Y-129748729D01*
X217170000Y-129634655D01*
X217088496Y-129650866D01*
X215803815Y-128366185D01*
X215556605Y-128201004D01*
X215327539Y-128155440D01*
X215646000Y-128155440D01*
X215888123Y-128108463D01*
X216100927Y-127968673D01*
X216204156Y-127815743D01*
X216505845Y-128017325D01*
X217137655Y-128143000D01*
X217202345Y-128143000D01*
X217834155Y-128017325D01*
X218369778Y-127659433D01*
X218727670Y-127123810D01*
X218853345Y-126492000D01*
X218727670Y-125860190D01*
X218369778Y-125324567D01*
X217834155Y-124966675D01*
X217202345Y-124841000D01*
X217137655Y-124841000D01*
X216505845Y-124966675D01*
X216203601Y-125168627D01*
X216106673Y-125021073D01*
X215912575Y-124890054D01*
X216215630Y-124587000D01*
X218186000Y-124587000D01*
X218186000Y-124586999D01*
X218477604Y-124528996D01*
X218477605Y-124528996D01*
X218724815Y-124363815D01*
X219994815Y-123093816D01*
X219994815Y-123093815D01*
X220159996Y-122846605D01*
X220217999Y-122555000D01*
X220218000Y-122555000D01*
X220218000Y-113792000D01*
X220159996Y-113500396D01*
X220159996Y-113500395D01*
X220093834Y-113401376D01*
X219994816Y-113253185D01*
X218440000Y-111698369D01*
X218440000Y-51398000D01*
X218381997Y-51106396D01*
X218381996Y-51106395D01*
X218216816Y-50859185D01*
X215203627Y-47845997D01*
X215268600Y-47519359D01*
X215268600Y-47460641D01*
X215154526Y-46887152D01*
X214829670Y-46400971D01*
X214558827Y-46220000D01*
X214829670Y-46039029D01*
X215154526Y-45552848D01*
X215268600Y-44979359D01*
X215268600Y-44920641D01*
X215154526Y-44347152D01*
X214829670Y-43860971D01*
X214558827Y-43680000D01*
X214829670Y-43499029D01*
X215154526Y-43012848D01*
X215268600Y-42439359D01*
X215268600Y-42380641D01*
X215154526Y-41807152D01*
X214829670Y-41320971D01*
X214558827Y-41140000D01*
X214829670Y-40959029D01*
X215154526Y-40472848D01*
X215268600Y-39899359D01*
X215268600Y-39840641D01*
X215154526Y-39267152D01*
X214829670Y-38780971D01*
X214343489Y-38456115D01*
X213770000Y-38342041D01*
X213196511Y-38456115D01*
X212710330Y-38780971D01*
X212500000Y-39095751D01*
X212289670Y-38780971D01*
X211803489Y-38456115D01*
X211230000Y-38342041D01*
X210656511Y-38456115D01*
X210170330Y-38780971D01*
X209951816Y-39108000D01*
X197630000Y-39108000D01*
X197338395Y-39166004D01*
X197091185Y-39331185D01*
X196405987Y-40016382D01*
X193981605Y-37592000D01*
X181025440Y-37592000D01*
X181025440Y-33798000D01*
X181025440Y-32798000D01*
X180978463Y-32555877D01*
X180838673Y-32343073D01*
X180627640Y-32200623D01*
X180378000Y-32150560D01*
X178778000Y-32150560D01*
X178558733Y-32193102D01*
X177990499Y-31624868D01*
X177990687Y-31409216D01*
X177826689Y-31012311D01*
X177523286Y-30708378D01*
X177126668Y-30543687D01*
X176697216Y-30543313D01*
X176300311Y-30707311D01*
X175996378Y-31010714D01*
X175831687Y-31407332D01*
X175831313Y-31836784D01*
X175995311Y-32233689D01*
X176298714Y-32537622D01*
X176695332Y-32702313D01*
X176912872Y-32702502D01*
X178047185Y-33836816D01*
X178151631Y-33906604D01*
X178177537Y-34040123D01*
X178317327Y-34252927D01*
X178528360Y-34395377D01*
X178778000Y-34445440D01*
X180378000Y-34445440D01*
X180620123Y-34398463D01*
X180832927Y-34258673D01*
X180975377Y-34047640D01*
X181025440Y-33798000D01*
X181025440Y-37592000D01*
X181013000Y-37592000D01*
X181013000Y-36924309D01*
X181013000Y-36583750D01*
X181013000Y-36012250D01*
X181013000Y-35671691D01*
X180916327Y-35438302D01*
X180737699Y-35259673D01*
X180504310Y-35163000D01*
X180251691Y-35163000D01*
X179863750Y-35163000D01*
X179705000Y-35321750D01*
X179705000Y-36171000D01*
X180854250Y-36171000D01*
X181013000Y-36012250D01*
X181013000Y-36583750D01*
X180854250Y-36425000D01*
X179705000Y-36425000D01*
X179705000Y-37274250D01*
X179863750Y-37433000D01*
X180251691Y-37433000D01*
X180504310Y-37433000D01*
X180737699Y-37336327D01*
X180916327Y-37157698D01*
X181013000Y-36924309D01*
X181013000Y-37592000D01*
X180783809Y-37592000D01*
X180689250Y-37592000D01*
X180530502Y-37592000D01*
X180276498Y-37592000D01*
X180117750Y-37592000D01*
X180023191Y-37592000D01*
X179767032Y-37592000D01*
X179705000Y-37579560D01*
X179451000Y-37579560D01*
X179451000Y-37274250D01*
X179451000Y-36425000D01*
X179451000Y-36171000D01*
X179451000Y-35321750D01*
X179292250Y-35163000D01*
X178904309Y-35163000D01*
X178651690Y-35163000D01*
X178418301Y-35259673D01*
X178239673Y-35438302D01*
X178143000Y-35671691D01*
X178143000Y-36012250D01*
X178301750Y-36171000D01*
X179451000Y-36171000D01*
X179451000Y-36425000D01*
X178301750Y-36425000D01*
X178143000Y-36583750D01*
X178143000Y-36924309D01*
X178239673Y-37157698D01*
X178418301Y-37336327D01*
X178651690Y-37433000D01*
X178904309Y-37433000D01*
X179292250Y-37433000D01*
X179451000Y-37274250D01*
X179451000Y-37579560D01*
X179197000Y-37579560D01*
X179132883Y-37592000D01*
X178878809Y-37592000D01*
X178784250Y-37592000D01*
X178625502Y-37592000D01*
X178371498Y-37592000D01*
X178212750Y-37592000D01*
X178118191Y-37592000D01*
X171831000Y-37592000D01*
X171831000Y-36714626D01*
X171865114Y-36748800D01*
X172649485Y-37074499D01*
X173498789Y-37075240D01*
X174283727Y-36750910D01*
X174884800Y-36150886D01*
X175210499Y-35366515D01*
X175211240Y-34517211D01*
X174886910Y-33732273D01*
X174286886Y-33131200D01*
X173502515Y-32805501D01*
X172653211Y-32804760D01*
X171868273Y-33129090D01*
X171831000Y-33166297D01*
X171831000Y-28710000D01*
X226290000Y-28710000D01*
X226290000Y-166412000D01*
G36*
X191008000Y-76581000D02*
X189697440Y-76581000D01*
X189697440Y-73475000D01*
X189697440Y-72875000D01*
X189650463Y-72632877D01*
X189589603Y-72540229D01*
X189647377Y-72454640D01*
X189697440Y-72205000D01*
X189697440Y-71605000D01*
X189650463Y-71362877D01*
X189589603Y-71270229D01*
X189647377Y-71184640D01*
X189697440Y-70935000D01*
X189697440Y-70335000D01*
X189650463Y-70092877D01*
X189589603Y-70000229D01*
X189647377Y-69914640D01*
X189697440Y-69665000D01*
X189697440Y-69065000D01*
X189650463Y-68822877D01*
X189589603Y-68730229D01*
X189647377Y-68644640D01*
X189697440Y-68395000D01*
X189697440Y-67795000D01*
X189650463Y-67552877D01*
X189589603Y-67460229D01*
X189647377Y-67374640D01*
X189697440Y-67125000D01*
X189697440Y-66525000D01*
X189650463Y-66282877D01*
X189589603Y-66190229D01*
X189647377Y-66104640D01*
X189697440Y-65855000D01*
X189697440Y-65255000D01*
X189685000Y-65190883D01*
X189685000Y-56371310D01*
X189685000Y-56230750D01*
X189526250Y-56072000D01*
X188427000Y-56072000D01*
X188427000Y-56721250D01*
X188585750Y-56880000D01*
X189176309Y-56880000D01*
X189409698Y-56783327D01*
X189588327Y-56604699D01*
X189685000Y-56371310D01*
X189685000Y-65190883D01*
X189650463Y-65012877D01*
X189510673Y-64800073D01*
X189299640Y-64657623D01*
X189242110Y-64646086D01*
X189379313Y-64315668D01*
X189379687Y-63886216D01*
X189215689Y-63489311D01*
X188912286Y-63185378D01*
X188717000Y-63104287D01*
X188717000Y-61936310D01*
X188717000Y-61683691D01*
X188717000Y-61245750D01*
X188717000Y-60674250D01*
X188717000Y-60236309D01*
X188717000Y-59983690D01*
X188620327Y-59750301D01*
X188441698Y-59571673D01*
X188208309Y-59475000D01*
X187917750Y-59475000D01*
X187759000Y-59633750D01*
X187759000Y-60833000D01*
X188558250Y-60833000D01*
X188717000Y-60674250D01*
X188717000Y-61245750D01*
X188558250Y-61087000D01*
X187759000Y-61087000D01*
X187759000Y-62286250D01*
X187917750Y-62445000D01*
X188208309Y-62445000D01*
X188441698Y-62348327D01*
X188620327Y-62169699D01*
X188717000Y-61936310D01*
X188717000Y-63104287D01*
X188515668Y-63020687D01*
X188086216Y-63020313D01*
X187689311Y-63184311D01*
X187505000Y-63368300D01*
X187505000Y-62286250D01*
X187505000Y-61087000D01*
X187505000Y-60833000D01*
X187505000Y-59633750D01*
X187346250Y-59475000D01*
X187055691Y-59475000D01*
X186822302Y-59571673D01*
X186643673Y-59750301D01*
X186547000Y-59983690D01*
X186547000Y-60236309D01*
X186547000Y-60674250D01*
X186705750Y-60833000D01*
X187505000Y-60833000D01*
X187505000Y-61087000D01*
X186705750Y-61087000D01*
X186547000Y-61245750D01*
X186547000Y-61683691D01*
X186547000Y-61936310D01*
X186643673Y-62169699D01*
X186822302Y-62348327D01*
X187055691Y-62445000D01*
X187346250Y-62445000D01*
X187505000Y-62286250D01*
X187505000Y-63368300D01*
X187385378Y-63487714D01*
X187220687Y-63884332D01*
X187220313Y-64313784D01*
X187357158Y-64644975D01*
X187307877Y-64654537D01*
X187095073Y-64794327D01*
X186952623Y-65005360D01*
X186902560Y-65255000D01*
X186902560Y-65855000D01*
X186949537Y-66097123D01*
X187010396Y-66189770D01*
X186952623Y-66275360D01*
X186902560Y-66525000D01*
X186902560Y-67044131D01*
X186778668Y-66992687D01*
X186349216Y-66992313D01*
X185952311Y-67156311D01*
X185648378Y-67459714D01*
X185606117Y-67561487D01*
X185293000Y-67248369D01*
X185293000Y-65151000D01*
X185234997Y-64859396D01*
X185234996Y-64859395D01*
X185069816Y-64612185D01*
X182402815Y-61945185D01*
X182334162Y-61899313D01*
X182334162Y-61899312D01*
X182354927Y-61885673D01*
X182497377Y-61674640D01*
X182547440Y-61425000D01*
X182547440Y-61025000D01*
X182522786Y-60897934D01*
X182547440Y-60775000D01*
X182547440Y-60687000D01*
X183381370Y-60687000D01*
X183634560Y-60940190D01*
X183634560Y-61810000D01*
X183681537Y-62052123D01*
X183821327Y-62264927D01*
X184032360Y-62407377D01*
X184282000Y-62457440D01*
X185182000Y-62457440D01*
X185424123Y-62410463D01*
X185636927Y-62270673D01*
X185779377Y-62059640D01*
X185829440Y-61810000D01*
X185829440Y-60110000D01*
X185782463Y-59867877D01*
X185642673Y-59655073D01*
X185431640Y-59512623D01*
X185182000Y-59462560D01*
X184312190Y-59462560D01*
X184279281Y-59429651D01*
X184506689Y-59335689D01*
X184810622Y-59032286D01*
X184975313Y-58635668D01*
X184975687Y-58206216D01*
X184811689Y-57809311D01*
X184508286Y-57505378D01*
X184137299Y-57351330D01*
X186055000Y-55433630D01*
X186055000Y-56639358D01*
X185902378Y-56791714D01*
X185737687Y-57188332D01*
X185737313Y-57617784D01*
X185901311Y-58014689D01*
X186204714Y-58318622D01*
X186601332Y-58483313D01*
X187030784Y-58483687D01*
X187427689Y-58319689D01*
X187731622Y-58016286D01*
X187896313Y-57619668D01*
X187896687Y-57190216D01*
X187768508Y-56880000D01*
X188014250Y-56880000D01*
X188173000Y-56721250D01*
X188173000Y-56072000D01*
X188153000Y-56072000D01*
X188153000Y-55818000D01*
X188173000Y-55818000D01*
X188173000Y-55798000D01*
X188427000Y-55798000D01*
X188427000Y-55818000D01*
X189526250Y-55818000D01*
X189685000Y-55659250D01*
X189685000Y-55518690D01*
X189595211Y-55301921D01*
X189647377Y-55224640D01*
X189697440Y-54975000D01*
X189697440Y-54375000D01*
X189650463Y-54132877D01*
X189589603Y-54040229D01*
X189647377Y-53954640D01*
X189697440Y-53705000D01*
X189697440Y-53105000D01*
X189650463Y-52862877D01*
X189589603Y-52770229D01*
X189647377Y-52684640D01*
X189697440Y-52435000D01*
X189697440Y-51835000D01*
X189650463Y-51592877D01*
X189589603Y-51500229D01*
X189647377Y-51414640D01*
X189697440Y-51165000D01*
X189697440Y-50565000D01*
X189650463Y-50322877D01*
X189589603Y-50230229D01*
X189647377Y-50144640D01*
X189697440Y-49895000D01*
X189697440Y-49295000D01*
X189650463Y-49052877D01*
X189589603Y-48960229D01*
X189647377Y-48874640D01*
X189697440Y-48625000D01*
X189697440Y-48025000D01*
X189650463Y-47782877D01*
X189589603Y-47690229D01*
X189647377Y-47604640D01*
X189697440Y-47355000D01*
X189697440Y-46755000D01*
X189650463Y-46512877D01*
X189510673Y-46300073D01*
X189299640Y-46157623D01*
X189050000Y-46107560D01*
X187550000Y-46107560D01*
X187434643Y-46129941D01*
X187515313Y-45935668D01*
X187515687Y-45506216D01*
X187351689Y-45109311D01*
X187048286Y-44805378D01*
X186651668Y-44640687D01*
X186222216Y-44640313D01*
X185864687Y-44788041D01*
X185864687Y-42966216D01*
X185700689Y-42569311D01*
X185397286Y-42265378D01*
X185000668Y-42100687D01*
X184571216Y-42100313D01*
X184174311Y-42264311D01*
X183870378Y-42567714D01*
X183832156Y-42659760D01*
X183829463Y-42645877D01*
X183689673Y-42433073D01*
X183478640Y-42290623D01*
X183229000Y-42240560D01*
X182229000Y-42240560D01*
X181986877Y-42287537D01*
X181774073Y-42427327D01*
X181631623Y-42638360D01*
X181581560Y-42888000D01*
X181581560Y-44488000D01*
X181628537Y-44730123D01*
X181768327Y-44942927D01*
X181979360Y-45085377D01*
X182229000Y-45135440D01*
X183229000Y-45135440D01*
X183471123Y-45088463D01*
X183683927Y-44948673D01*
X183826377Y-44737640D01*
X183876440Y-44488000D01*
X183876440Y-44450000D01*
X184277000Y-44450000D01*
X184277000Y-44449999D01*
X184568604Y-44391996D01*
X184568605Y-44391996D01*
X184766920Y-44259485D01*
X184998784Y-44259687D01*
X185395689Y-44095689D01*
X185699622Y-43792286D01*
X185864313Y-43395668D01*
X185864687Y-42966216D01*
X185864687Y-44788041D01*
X185825311Y-44804311D01*
X185521378Y-45107714D01*
X185356687Y-45504332D01*
X185356497Y-45721871D01*
X185189290Y-45889078D01*
X185077000Y-45866560D01*
X183477000Y-45866560D01*
X183234877Y-45913537D01*
X183022073Y-46053327D01*
X182879623Y-46264360D01*
X182829560Y-46514000D01*
X182829560Y-47078819D01*
X182743673Y-46948073D01*
X182532640Y-46805623D01*
X182343183Y-46767629D01*
X182397622Y-46713286D01*
X182562313Y-46316668D01*
X182562687Y-45887216D01*
X182398689Y-45490311D01*
X182095286Y-45186378D01*
X181698668Y-45021687D01*
X181292500Y-45021333D01*
X181292500Y-41655310D01*
X181292500Y-41433750D01*
X181133750Y-41275000D01*
X180530500Y-41275000D01*
X180530500Y-42005250D01*
X180689250Y-42164000D01*
X180783809Y-42164000D01*
X181017198Y-42067327D01*
X181195827Y-41888699D01*
X181292500Y-41655310D01*
X181292500Y-45021333D01*
X181269216Y-45021313D01*
X180872311Y-45185311D01*
X180864000Y-45193607D01*
X180864000Y-44614310D01*
X180864000Y-44361691D01*
X180864000Y-43973750D01*
X180864000Y-43402250D01*
X180864000Y-43014309D01*
X180864000Y-42761690D01*
X180767327Y-42528301D01*
X180588698Y-42349673D01*
X180355309Y-42253000D01*
X180276500Y-42253000D01*
X180276500Y-42005250D01*
X180276500Y-41275000D01*
X179673250Y-41275000D01*
X179514500Y-41433750D01*
X179514500Y-41655310D01*
X179611173Y-41888699D01*
X179789802Y-42067327D01*
X180023191Y-42164000D01*
X180117750Y-42164000D01*
X180276500Y-42005250D01*
X180276500Y-42253000D01*
X180014750Y-42253000D01*
X179856000Y-42411750D01*
X179856000Y-43561000D01*
X180705250Y-43561000D01*
X180864000Y-43402250D01*
X180864000Y-43973750D01*
X180705250Y-43815000D01*
X179856000Y-43815000D01*
X179856000Y-44964250D01*
X180014750Y-45123000D01*
X180355309Y-45123000D01*
X180588698Y-45026327D01*
X180767327Y-44847699D01*
X180864000Y-44614310D01*
X180864000Y-45193607D01*
X180568378Y-45488714D01*
X180403687Y-45885332D01*
X180403313Y-46314784D01*
X180567311Y-46711689D01*
X180622770Y-46767245D01*
X180440877Y-46802537D01*
X180228073Y-46942327D01*
X180085623Y-47153360D01*
X180035560Y-47403000D01*
X180035560Y-48403000D01*
X180082537Y-48645123D01*
X180222327Y-48857927D01*
X180433360Y-49000377D01*
X180683000Y-49050440D01*
X182283000Y-49050440D01*
X182525123Y-49003463D01*
X182737927Y-48863673D01*
X182880377Y-48652640D01*
X182930440Y-48403000D01*
X182930440Y-47838180D01*
X183016327Y-47968927D01*
X183227360Y-48111377D01*
X183477000Y-48161440D01*
X185077000Y-48161440D01*
X185319123Y-48114463D01*
X185531927Y-47974673D01*
X185674377Y-47763640D01*
X185724440Y-47514000D01*
X185724440Y-47509190D01*
X186434131Y-46799499D01*
X186649784Y-46799687D01*
X186915626Y-46689842D01*
X186902560Y-46755000D01*
X186902560Y-47355000D01*
X186949537Y-47597123D01*
X187010396Y-47689770D01*
X186952623Y-47775360D01*
X186902560Y-48025000D01*
X186902560Y-48625000D01*
X186949537Y-48867123D01*
X186967849Y-48895000D01*
X186817000Y-48895000D01*
X186525395Y-48953004D01*
X186278185Y-49118185D01*
X185724440Y-49671930D01*
X185724440Y-49514000D01*
X185677463Y-49271877D01*
X185537673Y-49059073D01*
X185326640Y-48916623D01*
X185077000Y-48866560D01*
X183477000Y-48866560D01*
X183234877Y-48913537D01*
X183022073Y-49053327D01*
X182879623Y-49264360D01*
X182829560Y-49514000D01*
X182829560Y-50063178D01*
X182821327Y-50043302D01*
X182642699Y-49864673D01*
X182409310Y-49768000D01*
X182156691Y-49768000D01*
X181768750Y-49768000D01*
X181610000Y-49926750D01*
X181610000Y-50776000D01*
X181630000Y-50776000D01*
X181630000Y-51030000D01*
X181610000Y-51030000D01*
X181610000Y-51879250D01*
X181670750Y-51940000D01*
X181635750Y-51940000D01*
X181477000Y-52098750D01*
X181477000Y-52577560D01*
X181223000Y-52577560D01*
X181223000Y-52098750D01*
X181162250Y-52038000D01*
X181197250Y-52038000D01*
X181356000Y-51879250D01*
X181356000Y-51030000D01*
X181356000Y-50776000D01*
X181356000Y-49926750D01*
X181197250Y-49768000D01*
X180809309Y-49768000D01*
X180556690Y-49768000D01*
X180323301Y-49864673D01*
X180144673Y-50043302D01*
X180048000Y-50276691D01*
X180048000Y-50617250D01*
X180206750Y-50776000D01*
X181356000Y-50776000D01*
X181356000Y-51030000D01*
X180206750Y-51030000D01*
X180048000Y-51188750D01*
X180048000Y-51529309D01*
X180144673Y-51762698D01*
X180323301Y-51941327D01*
X180496894Y-52013231D01*
X180440302Y-52036673D01*
X180261673Y-52215301D01*
X180165000Y-52448690D01*
X180165000Y-52516250D01*
X180323750Y-52675000D01*
X180481056Y-52675000D01*
X180345073Y-52764327D01*
X180202623Y-52975360D01*
X180197413Y-53001336D01*
X180165000Y-53033750D01*
X180165000Y-53101310D01*
X180173331Y-53121423D01*
X180152560Y-53225000D01*
X180152560Y-53625000D01*
X180177213Y-53752065D01*
X180152560Y-53875000D01*
X180152560Y-54275000D01*
X180177213Y-54402065D01*
X180152560Y-54525000D01*
X180152560Y-54925000D01*
X180177213Y-55052065D01*
X180152560Y-55175000D01*
X180152560Y-55575000D01*
X180177213Y-55702065D01*
X180152560Y-55825000D01*
X180152560Y-56225000D01*
X180177213Y-56352065D01*
X180152560Y-56475000D01*
X180152560Y-56875000D01*
X180177213Y-57002065D01*
X180152560Y-57125000D01*
X180152560Y-57525000D01*
X180177213Y-57652065D01*
X180152560Y-57775000D01*
X180152560Y-58175000D01*
X180177213Y-58302065D01*
X180152560Y-58425000D01*
X180152560Y-58608980D01*
X180110376Y-58637165D01*
X179962185Y-58736184D01*
X179602000Y-59096369D01*
X179602000Y-44964250D01*
X179602000Y-43815000D01*
X179602000Y-43561000D01*
X179602000Y-42411750D01*
X179443250Y-42253000D01*
X179102691Y-42253000D01*
X178869302Y-42349673D01*
X178690673Y-42528301D01*
X178594000Y-42761690D01*
X178594000Y-43014309D01*
X178594000Y-43402250D01*
X178752750Y-43561000D01*
X179602000Y-43561000D01*
X179602000Y-43815000D01*
X178752750Y-43815000D01*
X178594000Y-43973750D01*
X178594000Y-44361691D01*
X178594000Y-44614310D01*
X178690673Y-44847699D01*
X178869302Y-45026327D01*
X179102691Y-45123000D01*
X179443250Y-45123000D01*
X179602000Y-44964250D01*
X179602000Y-59096369D01*
X179420185Y-59278185D01*
X179255004Y-59525395D01*
X179197000Y-59817000D01*
X179197000Y-62103000D01*
X179255004Y-62394605D01*
X179420185Y-62641815D01*
X179801184Y-63022815D01*
X179801185Y-63022815D01*
X179860751Y-63062616D01*
X179768687Y-63284332D01*
X179768313Y-63713784D01*
X179797967Y-63785552D01*
X179552378Y-64030714D01*
X179387687Y-64427332D01*
X179387313Y-64856784D01*
X179551311Y-65253689D01*
X179854714Y-65557622D01*
X180251332Y-65722313D01*
X180468872Y-65722502D01*
X181991000Y-67244630D01*
X181991000Y-68961000D01*
X182049004Y-69252605D01*
X182214185Y-69499815D01*
X185158185Y-72443816D01*
X185306376Y-72542834D01*
X185405395Y-72608996D01*
X185405396Y-72608996D01*
X185697000Y-72667000D01*
X186944272Y-72667000D01*
X186902560Y-72875000D01*
X186902560Y-73475000D01*
X186949537Y-73717123D01*
X187004963Y-73801499D01*
X186915000Y-74018690D01*
X186915000Y-74159250D01*
X187073750Y-74318000D01*
X188173000Y-74318000D01*
X188173000Y-74298000D01*
X188427000Y-74298000D01*
X188427000Y-74318000D01*
X189526250Y-74318000D01*
X189685000Y-74159250D01*
X189685000Y-74018690D01*
X189595211Y-73801921D01*
X189647377Y-73724640D01*
X189697440Y-73475000D01*
X189697440Y-76581000D01*
X189685000Y-76581000D01*
X189685000Y-74871310D01*
X189685000Y-74730750D01*
X189526250Y-74572000D01*
X188427000Y-74572000D01*
X188427000Y-75221250D01*
X188585750Y-75380000D01*
X189176309Y-75380000D01*
X189409698Y-75283327D01*
X189588327Y-75104699D01*
X189685000Y-74871310D01*
X189685000Y-76581000D01*
X188173000Y-76581000D01*
X188173000Y-75221250D01*
X188173000Y-74572000D01*
X187073750Y-74572000D01*
X186915000Y-74730750D01*
X186915000Y-74871310D01*
X187011673Y-75104699D01*
X187190302Y-75283327D01*
X187423691Y-75380000D01*
X188014250Y-75380000D01*
X188173000Y-75221250D01*
X188173000Y-76581000D01*
X180809000Y-76581000D01*
X180809000Y-75580309D01*
X180809000Y-75289750D01*
X180809000Y-74718250D01*
X180809000Y-74427691D01*
X180712327Y-74194302D01*
X180533699Y-74015673D01*
X180300310Y-73919000D01*
X180047691Y-73919000D01*
X179609750Y-73919000D01*
X179451000Y-74077750D01*
X179451000Y-74877000D01*
X180650250Y-74877000D01*
X180809000Y-74718250D01*
X180809000Y-75289750D01*
X180650250Y-75131000D01*
X179451000Y-75131000D01*
X179451000Y-75930250D01*
X179609750Y-76089000D01*
X180047691Y-76089000D01*
X180300310Y-76089000D01*
X180533699Y-75992327D01*
X180712327Y-75813698D01*
X180809000Y-75580309D01*
X180809000Y-76581000D01*
X179635694Y-76581000D01*
X179324000Y-76519000D01*
X179197000Y-76544261D01*
X179197000Y-75930250D01*
X179197000Y-75131000D01*
X179197000Y-74877000D01*
X179197000Y-74077750D01*
X179038250Y-73919000D01*
X178600309Y-73919000D01*
X178347690Y-73919000D01*
X178114301Y-74015673D01*
X177935673Y-74194302D01*
X177839000Y-74427691D01*
X177839000Y-74718250D01*
X177997750Y-74877000D01*
X179197000Y-74877000D01*
X179197000Y-75131000D01*
X177997750Y-75131000D01*
X177839000Y-75289750D01*
X177839000Y-75580309D01*
X177935673Y-75813698D01*
X178114301Y-75992327D01*
X178347690Y-76089000D01*
X178600309Y-76089000D01*
X179038250Y-76089000D01*
X179197000Y-75930250D01*
X179197000Y-76544261D01*
X179012305Y-76581000D01*
X173913440Y-76581000D01*
X173913440Y-67659000D01*
X173913440Y-66659000D01*
X173901000Y-66594883D01*
X173901000Y-64785309D01*
X173901000Y-64444750D01*
X173742250Y-64286000D01*
X172593000Y-64286000D01*
X172593000Y-65135250D01*
X172751750Y-65294000D01*
X173139691Y-65294000D01*
X173392310Y-65294000D01*
X173625699Y-65197327D01*
X173804327Y-65018698D01*
X173901000Y-64785309D01*
X173901000Y-66594883D01*
X173866463Y-66416877D01*
X173726673Y-66204073D01*
X173515640Y-66061623D01*
X173266000Y-66011560D01*
X172339000Y-66011560D01*
X172339000Y-65135250D01*
X172339000Y-64286000D01*
X172339000Y-64032000D01*
X172339000Y-63182750D01*
X172180250Y-63024000D01*
X171792309Y-63024000D01*
X171539690Y-63024000D01*
X171306301Y-63120673D01*
X171127673Y-63299302D01*
X171069242Y-63440366D01*
X171069242Y-61191339D01*
X170857010Y-60677697D01*
X170504928Y-60325000D01*
X170560310Y-60325000D01*
X170793699Y-60228327D01*
X170972327Y-60049698D01*
X171069000Y-59816309D01*
X171069000Y-59213750D01*
X171069000Y-58642250D01*
X171069000Y-58039691D01*
X170972327Y-57806302D01*
X170793699Y-57627673D01*
X170560310Y-57531000D01*
X170307691Y-57531000D01*
X169957750Y-57531000D01*
X169799000Y-57689750D01*
X169799000Y-58801000D01*
X170910250Y-58801000D01*
X171069000Y-58642250D01*
X171069000Y-59213750D01*
X170910250Y-59055000D01*
X169799000Y-59055000D01*
X169799000Y-59075000D01*
X169545000Y-59075000D01*
X169545000Y-59055000D01*
X169545000Y-58801000D01*
X169545000Y-57689750D01*
X169386250Y-57531000D01*
X169036309Y-57531000D01*
X168783690Y-57531000D01*
X168550301Y-57627673D01*
X168371673Y-57806302D01*
X168275000Y-58039691D01*
X168275000Y-58642250D01*
X168433750Y-58801000D01*
X169545000Y-58801000D01*
X169545000Y-59055000D01*
X168433750Y-59055000D01*
X168275000Y-59213750D01*
X168275000Y-59816309D01*
X168371673Y-60049698D01*
X168550301Y-60228327D01*
X168783690Y-60325000D01*
X168839613Y-60325000D01*
X168488371Y-60675630D01*
X168275243Y-61188900D01*
X168274758Y-61744661D01*
X168486990Y-62258303D01*
X168879630Y-62651629D01*
X169392900Y-62864757D01*
X169948661Y-62865242D01*
X170462303Y-62653010D01*
X170855629Y-62260370D01*
X171068757Y-61747100D01*
X171069242Y-61191339D01*
X171069242Y-63440366D01*
X171031000Y-63532691D01*
X171031000Y-63873250D01*
X171189750Y-64032000D01*
X172339000Y-64032000D01*
X172339000Y-64286000D01*
X171189750Y-64286000D01*
X171031000Y-64444750D01*
X171031000Y-64785309D01*
X171127673Y-65018698D01*
X171306301Y-65197327D01*
X171539690Y-65294000D01*
X171792309Y-65294000D01*
X172180250Y-65294000D01*
X172339000Y-65135250D01*
X172339000Y-66011560D01*
X171666000Y-66011560D01*
X171423877Y-66058537D01*
X171211073Y-66198327D01*
X171068623Y-66409360D01*
X171018560Y-66659000D01*
X171018560Y-67659000D01*
X171065537Y-67901123D01*
X171205327Y-68113927D01*
X171416360Y-68256377D01*
X171666000Y-68306440D01*
X171704000Y-68306440D01*
X171704000Y-68450358D01*
X171551378Y-68602714D01*
X171386687Y-68999332D01*
X171386313Y-69428784D01*
X171550311Y-69825689D01*
X171853714Y-70129622D01*
X172250332Y-70294313D01*
X172679784Y-70294687D01*
X173076689Y-70130689D01*
X173380622Y-69827286D01*
X173545313Y-69430668D01*
X173545687Y-69001216D01*
X173381689Y-68604311D01*
X173228000Y-68450353D01*
X173228000Y-68306440D01*
X173266000Y-68306440D01*
X173508123Y-68259463D01*
X173720927Y-68119673D01*
X173863377Y-67908640D01*
X173913440Y-67659000D01*
X173913440Y-76581000D01*
X167259000Y-76581000D01*
X167259000Y-58354630D01*
X168176630Y-57437000D01*
X173542215Y-57437000D01*
X173379311Y-57504311D01*
X173075378Y-57807714D01*
X172910687Y-58204332D01*
X172910313Y-58633784D01*
X173074311Y-59030689D01*
X173322778Y-59279591D01*
X173070185Y-59532185D01*
X172905004Y-59779395D01*
X172847000Y-60071000D01*
X172847000Y-62738000D01*
X172903889Y-63024000D01*
X172751750Y-63024000D01*
X172593000Y-63182750D01*
X172593000Y-64032000D01*
X173742250Y-64032000D01*
X173783809Y-63990440D01*
X173926500Y-64133131D01*
X173926313Y-64348784D01*
X174090311Y-64745689D01*
X174393714Y-65049622D01*
X174790332Y-65214313D01*
X175219784Y-65214687D01*
X175616689Y-65050689D01*
X175920622Y-64747286D01*
X176085313Y-64350668D01*
X176085687Y-63921216D01*
X175981794Y-63669777D01*
X176174622Y-63477286D01*
X176339313Y-63080668D01*
X176339687Y-62651216D01*
X176175689Y-62254311D01*
X175994135Y-62072440D01*
X176200000Y-62072440D01*
X176442123Y-62025463D01*
X176654927Y-61885673D01*
X176797377Y-61674640D01*
X176847440Y-61425000D01*
X176847440Y-61025000D01*
X176822786Y-60897934D01*
X176847440Y-60775000D01*
X176847440Y-60375000D01*
X176822786Y-60247934D01*
X176847440Y-60125000D01*
X176847440Y-59725000D01*
X176822786Y-59597934D01*
X176847440Y-59475000D01*
X176847440Y-59075000D01*
X176822786Y-58947934D01*
X176847440Y-58825000D01*
X176847440Y-58425000D01*
X176822786Y-58297934D01*
X176847440Y-58175000D01*
X176847440Y-57775000D01*
X176827128Y-57670313D01*
X176835000Y-57651310D01*
X176835000Y-57583750D01*
X176804395Y-57553145D01*
X176800463Y-57532877D01*
X176663032Y-57323664D01*
X176797377Y-57124640D01*
X176802586Y-57098663D01*
X176835000Y-57066250D01*
X176835000Y-56998690D01*
X176826668Y-56978576D01*
X176847440Y-56875000D01*
X176847440Y-56475000D01*
X176822786Y-56347934D01*
X176847440Y-56225000D01*
X176847440Y-55825000D01*
X176822786Y-55697934D01*
X176847440Y-55575000D01*
X176847440Y-55175000D01*
X176822786Y-55047934D01*
X176847440Y-54925000D01*
X176847440Y-54525000D01*
X176822786Y-54397934D01*
X176847440Y-54275000D01*
X176847440Y-53875000D01*
X176822786Y-53747934D01*
X176847440Y-53625000D01*
X176847440Y-53225000D01*
X176827128Y-53120313D01*
X176835000Y-53101310D01*
X176835000Y-53033750D01*
X176804395Y-53003145D01*
X176800463Y-52982877D01*
X176660673Y-52770073D01*
X176519826Y-52675000D01*
X176676250Y-52675000D01*
X176835000Y-52516250D01*
X176835000Y-52448690D01*
X176738327Y-52215301D01*
X176559698Y-52036673D01*
X176326309Y-51940000D01*
X175935750Y-51940000D01*
X175777000Y-52098750D01*
X175777000Y-52577560D01*
X175564440Y-52577560D01*
X175564440Y-48403000D01*
X175564440Y-47403000D01*
X175517463Y-47160877D01*
X175377673Y-46948073D01*
X175166640Y-46805623D01*
X174917000Y-46755560D01*
X173317000Y-46755560D01*
X173074877Y-46802537D01*
X172862073Y-46942327D01*
X172727966Y-47141000D01*
X172619600Y-47141000D01*
X172443286Y-46964378D01*
X172046668Y-46799687D01*
X171617216Y-46799313D01*
X171220311Y-46963311D01*
X170916378Y-47266714D01*
X170751687Y-47663332D01*
X170751313Y-48092784D01*
X170915311Y-48489689D01*
X171218714Y-48793622D01*
X171615332Y-48958313D01*
X172044784Y-48958687D01*
X172441689Y-48794689D01*
X172571604Y-48665000D01*
X172729594Y-48665000D01*
X172856327Y-48857927D01*
X173067360Y-49000377D01*
X173317000Y-49050440D01*
X174917000Y-49050440D01*
X175159123Y-49003463D01*
X175371927Y-48863673D01*
X175514377Y-48652640D01*
X175564440Y-48403000D01*
X175564440Y-52577560D01*
X175523000Y-52577560D01*
X175523000Y-52098750D01*
X175364250Y-51940000D01*
X175278025Y-51940000D01*
X175455327Y-51762698D01*
X175552000Y-51529309D01*
X175552000Y-51188750D01*
X175552000Y-50617250D01*
X175552000Y-50276691D01*
X175455327Y-50043302D01*
X175276699Y-49864673D01*
X175043310Y-49768000D01*
X174790691Y-49768000D01*
X174402750Y-49768000D01*
X174244000Y-49926750D01*
X174244000Y-50776000D01*
X175393250Y-50776000D01*
X175552000Y-50617250D01*
X175552000Y-51188750D01*
X175393250Y-51030000D01*
X174244000Y-51030000D01*
X174244000Y-51879250D01*
X174402750Y-52038000D01*
X174738974Y-52038000D01*
X174561673Y-52215301D01*
X174465000Y-52448690D01*
X174465000Y-52516250D01*
X174596748Y-52647998D01*
X174465000Y-52647998D01*
X174465000Y-52663000D01*
X174390630Y-52663000D01*
X173765630Y-52038000D01*
X173831250Y-52038000D01*
X173990000Y-51879250D01*
X173990000Y-51030000D01*
X173990000Y-50776000D01*
X173990000Y-49926750D01*
X173831250Y-49768000D01*
X173443309Y-49768000D01*
X173190690Y-49768000D01*
X172957301Y-49864673D01*
X172778673Y-50043302D01*
X172682000Y-50276691D01*
X172682000Y-50617250D01*
X172840750Y-50776000D01*
X173990000Y-50776000D01*
X173990000Y-51030000D01*
X172840750Y-51030000D01*
X172799190Y-51071559D01*
X170447440Y-48719809D01*
X170447440Y-48000000D01*
X170400463Y-47757877D01*
X170260673Y-47545073D01*
X170049640Y-47402623D01*
X169800000Y-47352560D01*
X168200000Y-47352560D01*
X167957877Y-47399537D01*
X167745073Y-47539327D01*
X167602623Y-47750360D01*
X167552560Y-48000000D01*
X167552560Y-49000000D01*
X167599537Y-49242123D01*
X167739327Y-49454927D01*
X167950360Y-49597377D01*
X168200000Y-49647440D01*
X169219809Y-49647440D01*
X169956267Y-50383898D01*
X169800000Y-50352560D01*
X168200000Y-50352560D01*
X167957877Y-50399537D01*
X167745073Y-50539327D01*
X167602623Y-50750360D01*
X167552560Y-51000000D01*
X167552560Y-52000000D01*
X167599537Y-52242123D01*
X167739327Y-52454927D01*
X167950360Y-52597377D01*
X168200000Y-52647440D01*
X168284434Y-52647440D01*
X168296004Y-52705605D01*
X168461185Y-52952815D01*
X168560929Y-53052560D01*
X167706000Y-53052560D01*
X167463877Y-53099537D01*
X167259000Y-53234119D01*
X167259000Y-40259000D01*
X175011405Y-40259000D01*
X175106311Y-40488689D01*
X175409714Y-40792622D01*
X175806332Y-40957313D01*
X176235784Y-40957687D01*
X176632689Y-40793689D01*
X176786646Y-40640000D01*
X177622528Y-40640000D01*
X177597060Y-40767000D01*
X177597060Y-41529000D01*
X177644037Y-41771123D01*
X177783827Y-41983927D01*
X177994860Y-42126377D01*
X178244500Y-42176440D01*
X178752500Y-42176440D01*
X178994623Y-42129463D01*
X179207427Y-41989673D01*
X179349877Y-41778640D01*
X179399940Y-41529000D01*
X179399940Y-40767000D01*
X179363765Y-40580552D01*
X179606626Y-40418277D01*
X179514500Y-40640690D01*
X179514500Y-40862250D01*
X179673250Y-41021000D01*
X180276500Y-41021000D01*
X180276500Y-41001000D01*
X180530500Y-41001000D01*
X180530500Y-41021000D01*
X181133750Y-41021000D01*
X181292500Y-40862250D01*
X181292500Y-40640690D01*
X181195827Y-40407301D01*
X181047525Y-40259000D01*
X191008000Y-40259000D01*
X191008000Y-45414370D01*
X190961185Y-45461185D01*
X190796004Y-45708395D01*
X190738000Y-46000000D01*
X190738000Y-51500000D01*
X190796004Y-51791605D01*
X190961185Y-52038815D01*
X191008000Y-52085630D01*
X191008000Y-76581000D01*
X191008000Y-76581000D01*
G37*
X191008000Y-76581000D02*
X189697440Y-76581000D01*
X189697440Y-73475000D01*
X189697440Y-72875000D01*
X189650463Y-72632877D01*
X189589603Y-72540229D01*
X189647377Y-72454640D01*
X189697440Y-72205000D01*
X189697440Y-71605000D01*
X189650463Y-71362877D01*
X189589603Y-71270229D01*
X189647377Y-71184640D01*
X189697440Y-70935000D01*
X189697440Y-70335000D01*
X189650463Y-70092877D01*
X189589603Y-70000229D01*
X189647377Y-69914640D01*
X189697440Y-69665000D01*
X189697440Y-69065000D01*
X189650463Y-68822877D01*
X189589603Y-68730229D01*
X189647377Y-68644640D01*
X189697440Y-68395000D01*
X189697440Y-67795000D01*
X189650463Y-67552877D01*
X189589603Y-67460229D01*
X189647377Y-67374640D01*
X189697440Y-67125000D01*
X189697440Y-66525000D01*
X189650463Y-66282877D01*
X189589603Y-66190229D01*
X189647377Y-66104640D01*
X189697440Y-65855000D01*
X189697440Y-65255000D01*
X189685000Y-65190883D01*
X189685000Y-56371310D01*
X189685000Y-56230750D01*
X189526250Y-56072000D01*
X188427000Y-56072000D01*
X188427000Y-56721250D01*
X188585750Y-56880000D01*
X189176309Y-56880000D01*
X189409698Y-56783327D01*
X189588327Y-56604699D01*
X189685000Y-56371310D01*
X189685000Y-65190883D01*
X189650463Y-65012877D01*
X189510673Y-64800073D01*
X189299640Y-64657623D01*
X189242110Y-64646086D01*
X189379313Y-64315668D01*
X189379687Y-63886216D01*
X189215689Y-63489311D01*
X188912286Y-63185378D01*
X188717000Y-63104287D01*
X188717000Y-61936310D01*
X188717000Y-61683691D01*
X188717000Y-61245750D01*
X188717000Y-60674250D01*
X188717000Y-60236309D01*
X188717000Y-59983690D01*
X188620327Y-59750301D01*
X188441698Y-59571673D01*
X188208309Y-59475000D01*
X187917750Y-59475000D01*
X187759000Y-59633750D01*
X187759000Y-60833000D01*
X188558250Y-60833000D01*
X188717000Y-60674250D01*
X188717000Y-61245750D01*
X188558250Y-61087000D01*
X187759000Y-61087000D01*
X187759000Y-62286250D01*
X187917750Y-62445000D01*
X188208309Y-62445000D01*
X188441698Y-62348327D01*
X188620327Y-62169699D01*
X188717000Y-61936310D01*
X188717000Y-63104287D01*
X188515668Y-63020687D01*
X188086216Y-63020313D01*
X187689311Y-63184311D01*
X187505000Y-63368300D01*
X187505000Y-62286250D01*
X187505000Y-61087000D01*
X187505000Y-60833000D01*
X187505000Y-59633750D01*
X187346250Y-59475000D01*
X187055691Y-59475000D01*
X186822302Y-59571673D01*
X186643673Y-59750301D01*
X186547000Y-59983690D01*
X186547000Y-60236309D01*
X186547000Y-60674250D01*
X186705750Y-60833000D01*
X187505000Y-60833000D01*
X187505000Y-61087000D01*
X186705750Y-61087000D01*
X186547000Y-61245750D01*
X186547000Y-61683691D01*
X186547000Y-61936310D01*
X186643673Y-62169699D01*
X186822302Y-62348327D01*
X187055691Y-62445000D01*
X187346250Y-62445000D01*
X187505000Y-62286250D01*
X187505000Y-63368300D01*
X187385378Y-63487714D01*
X187220687Y-63884332D01*
X187220313Y-64313784D01*
X187357158Y-64644975D01*
X187307877Y-64654537D01*
X187095073Y-64794327D01*
X186952623Y-65005360D01*
X186902560Y-65255000D01*
X186902560Y-65855000D01*
X186949537Y-66097123D01*
X187010396Y-66189770D01*
X186952623Y-66275360D01*
X186902560Y-66525000D01*
X186902560Y-67044131D01*
X186778668Y-66992687D01*
X186349216Y-66992313D01*
X185952311Y-67156311D01*
X185648378Y-67459714D01*
X185606117Y-67561487D01*
X185293000Y-67248369D01*
X185293000Y-65151000D01*
X185234997Y-64859396D01*
X185234996Y-64859395D01*
X185069816Y-64612185D01*
X182402815Y-61945185D01*
X182334162Y-61899313D01*
X182334162Y-61899312D01*
X182354927Y-61885673D01*
X182497377Y-61674640D01*
X182547440Y-61425000D01*
X182547440Y-61025000D01*
X182522786Y-60897934D01*
X182547440Y-60775000D01*
X182547440Y-60687000D01*
X183381370Y-60687000D01*
X183634560Y-60940190D01*
X183634560Y-61810000D01*
X183681537Y-62052123D01*
X183821327Y-62264927D01*
X184032360Y-62407377D01*
X184282000Y-62457440D01*
X185182000Y-62457440D01*
X185424123Y-62410463D01*
X185636927Y-62270673D01*
X185779377Y-62059640D01*
X185829440Y-61810000D01*
X185829440Y-60110000D01*
X185782463Y-59867877D01*
X185642673Y-59655073D01*
X185431640Y-59512623D01*
X185182000Y-59462560D01*
X184312190Y-59462560D01*
X184279281Y-59429651D01*
X184506689Y-59335689D01*
X184810622Y-59032286D01*
X184975313Y-58635668D01*
X184975687Y-58206216D01*
X184811689Y-57809311D01*
X184508286Y-57505378D01*
X184137299Y-57351330D01*
X186055000Y-55433630D01*
X186055000Y-56639358D01*
X185902378Y-56791714D01*
X185737687Y-57188332D01*
X185737313Y-57617784D01*
X185901311Y-58014689D01*
X186204714Y-58318622D01*
X186601332Y-58483313D01*
X187030784Y-58483687D01*
X187427689Y-58319689D01*
X187731622Y-58016286D01*
X187896313Y-57619668D01*
X187896687Y-57190216D01*
X187768508Y-56880000D01*
X188014250Y-56880000D01*
X188173000Y-56721250D01*
X188173000Y-56072000D01*
X188153000Y-56072000D01*
X188153000Y-55818000D01*
X188173000Y-55818000D01*
X188173000Y-55798000D01*
X188427000Y-55798000D01*
X188427000Y-55818000D01*
X189526250Y-55818000D01*
X189685000Y-55659250D01*
X189685000Y-55518690D01*
X189595211Y-55301921D01*
X189647377Y-55224640D01*
X189697440Y-54975000D01*
X189697440Y-54375000D01*
X189650463Y-54132877D01*
X189589603Y-54040229D01*
X189647377Y-53954640D01*
X189697440Y-53705000D01*
X189697440Y-53105000D01*
X189650463Y-52862877D01*
X189589603Y-52770229D01*
X189647377Y-52684640D01*
X189697440Y-52435000D01*
X189697440Y-51835000D01*
X189650463Y-51592877D01*
X189589603Y-51500229D01*
X189647377Y-51414640D01*
X189697440Y-51165000D01*
X189697440Y-50565000D01*
X189650463Y-50322877D01*
X189589603Y-50230229D01*
X189647377Y-50144640D01*
X189697440Y-49895000D01*
X189697440Y-49295000D01*
X189650463Y-49052877D01*
X189589603Y-48960229D01*
X189647377Y-48874640D01*
X189697440Y-48625000D01*
X189697440Y-48025000D01*
X189650463Y-47782877D01*
X189589603Y-47690229D01*
X189647377Y-47604640D01*
X189697440Y-47355000D01*
X189697440Y-46755000D01*
X189650463Y-46512877D01*
X189510673Y-46300073D01*
X189299640Y-46157623D01*
X189050000Y-46107560D01*
X187550000Y-46107560D01*
X187434643Y-46129941D01*
X187515313Y-45935668D01*
X187515687Y-45506216D01*
X187351689Y-45109311D01*
X187048286Y-44805378D01*
X186651668Y-44640687D01*
X186222216Y-44640313D01*
X185864687Y-44788041D01*
X185864687Y-42966216D01*
X185700689Y-42569311D01*
X185397286Y-42265378D01*
X185000668Y-42100687D01*
X184571216Y-42100313D01*
X184174311Y-42264311D01*
X183870378Y-42567714D01*
X183832156Y-42659760D01*
X183829463Y-42645877D01*
X183689673Y-42433073D01*
X183478640Y-42290623D01*
X183229000Y-42240560D01*
X182229000Y-42240560D01*
X181986877Y-42287537D01*
X181774073Y-42427327D01*
X181631623Y-42638360D01*
X181581560Y-42888000D01*
X181581560Y-44488000D01*
X181628537Y-44730123D01*
X181768327Y-44942927D01*
X181979360Y-45085377D01*
X182229000Y-45135440D01*
X183229000Y-45135440D01*
X183471123Y-45088463D01*
X183683927Y-44948673D01*
X183826377Y-44737640D01*
X183876440Y-44488000D01*
X183876440Y-44450000D01*
X184277000Y-44450000D01*
X184277000Y-44449999D01*
X184568604Y-44391996D01*
X184568605Y-44391996D01*
X184766920Y-44259485D01*
X184998784Y-44259687D01*
X185395689Y-44095689D01*
X185699622Y-43792286D01*
X185864313Y-43395668D01*
X185864687Y-42966216D01*
X185864687Y-44788041D01*
X185825311Y-44804311D01*
X185521378Y-45107714D01*
X185356687Y-45504332D01*
X185356497Y-45721871D01*
X185189290Y-45889078D01*
X185077000Y-45866560D01*
X183477000Y-45866560D01*
X183234877Y-45913537D01*
X183022073Y-46053327D01*
X182879623Y-46264360D01*
X182829560Y-46514000D01*
X182829560Y-47078819D01*
X182743673Y-46948073D01*
X182532640Y-46805623D01*
X182343183Y-46767629D01*
X182397622Y-46713286D01*
X182562313Y-46316668D01*
X182562687Y-45887216D01*
X182398689Y-45490311D01*
X182095286Y-45186378D01*
X181698668Y-45021687D01*
X181292500Y-45021333D01*
X181292500Y-41655310D01*
X181292500Y-41433750D01*
X181133750Y-41275000D01*
X180530500Y-41275000D01*
X180530500Y-42005250D01*
X180689250Y-42164000D01*
X180783809Y-42164000D01*
X181017198Y-42067327D01*
X181195827Y-41888699D01*
X181292500Y-41655310D01*
X181292500Y-45021333D01*
X181269216Y-45021313D01*
X180872311Y-45185311D01*
X180864000Y-45193607D01*
X180864000Y-44614310D01*
X180864000Y-44361691D01*
X180864000Y-43973750D01*
X180864000Y-43402250D01*
X180864000Y-43014309D01*
X180864000Y-42761690D01*
X180767327Y-42528301D01*
X180588698Y-42349673D01*
X180355309Y-42253000D01*
X180276500Y-42253000D01*
X180276500Y-42005250D01*
X180276500Y-41275000D01*
X179673250Y-41275000D01*
X179514500Y-41433750D01*
X179514500Y-41655310D01*
X179611173Y-41888699D01*
X179789802Y-42067327D01*
X180023191Y-42164000D01*
X180117750Y-42164000D01*
X180276500Y-42005250D01*
X180276500Y-42253000D01*
X180014750Y-42253000D01*
X179856000Y-42411750D01*
X179856000Y-43561000D01*
X180705250Y-43561000D01*
X180864000Y-43402250D01*
X180864000Y-43973750D01*
X180705250Y-43815000D01*
X179856000Y-43815000D01*
X179856000Y-44964250D01*
X180014750Y-45123000D01*
X180355309Y-45123000D01*
X180588698Y-45026327D01*
X180767327Y-44847699D01*
X180864000Y-44614310D01*
X180864000Y-45193607D01*
X180568378Y-45488714D01*
X180403687Y-45885332D01*
X180403313Y-46314784D01*
X180567311Y-46711689D01*
X180622770Y-46767245D01*
X180440877Y-46802537D01*
X180228073Y-46942327D01*
X180085623Y-47153360D01*
X180035560Y-47403000D01*
X180035560Y-48403000D01*
X180082537Y-48645123D01*
X180222327Y-48857927D01*
X180433360Y-49000377D01*
X180683000Y-49050440D01*
X182283000Y-49050440D01*
X182525123Y-49003463D01*
X182737927Y-48863673D01*
X182880377Y-48652640D01*
X182930440Y-48403000D01*
X182930440Y-47838180D01*
X183016327Y-47968927D01*
X183227360Y-48111377D01*
X183477000Y-48161440D01*
X185077000Y-48161440D01*
X185319123Y-48114463D01*
X185531927Y-47974673D01*
X185674377Y-47763640D01*
X185724440Y-47514000D01*
X185724440Y-47509190D01*
X186434131Y-46799499D01*
X186649784Y-46799687D01*
X186915626Y-46689842D01*
X186902560Y-46755000D01*
X186902560Y-47355000D01*
X186949537Y-47597123D01*
X187010396Y-47689770D01*
X186952623Y-47775360D01*
X186902560Y-48025000D01*
X186902560Y-48625000D01*
X186949537Y-48867123D01*
X186967849Y-48895000D01*
X186817000Y-48895000D01*
X186525395Y-48953004D01*
X186278185Y-49118185D01*
X185724440Y-49671930D01*
X185724440Y-49514000D01*
X185677463Y-49271877D01*
X185537673Y-49059073D01*
X185326640Y-48916623D01*
X185077000Y-48866560D01*
X183477000Y-48866560D01*
X183234877Y-48913537D01*
X183022073Y-49053327D01*
X182879623Y-49264360D01*
X182829560Y-49514000D01*
X182829560Y-50063178D01*
X182821327Y-50043302D01*
X182642699Y-49864673D01*
X182409310Y-49768000D01*
X182156691Y-49768000D01*
X181768750Y-49768000D01*
X181610000Y-49926750D01*
X181610000Y-50776000D01*
X181630000Y-50776000D01*
X181630000Y-51030000D01*
X181610000Y-51030000D01*
X181610000Y-51879250D01*
X181670750Y-51940000D01*
X181635750Y-51940000D01*
X181477000Y-52098750D01*
X181477000Y-52577560D01*
X181223000Y-52577560D01*
X181223000Y-52098750D01*
X181162250Y-52038000D01*
X181197250Y-52038000D01*
X181356000Y-51879250D01*
X181356000Y-51030000D01*
X181356000Y-50776000D01*
X181356000Y-49926750D01*
X181197250Y-49768000D01*
X180809309Y-49768000D01*
X180556690Y-49768000D01*
X180323301Y-49864673D01*
X180144673Y-50043302D01*
X180048000Y-50276691D01*
X180048000Y-50617250D01*
X180206750Y-50776000D01*
X181356000Y-50776000D01*
X181356000Y-51030000D01*
X180206750Y-51030000D01*
X180048000Y-51188750D01*
X180048000Y-51529309D01*
X180144673Y-51762698D01*
X180323301Y-51941327D01*
X180496894Y-52013231D01*
X180440302Y-52036673D01*
X180261673Y-52215301D01*
X180165000Y-52448690D01*
X180165000Y-52516250D01*
X180323750Y-52675000D01*
X180481056Y-52675000D01*
X180345073Y-52764327D01*
X180202623Y-52975360D01*
X180197413Y-53001336D01*
X180165000Y-53033750D01*
X180165000Y-53101310D01*
X180173331Y-53121423D01*
X180152560Y-53225000D01*
X180152560Y-53625000D01*
X180177213Y-53752065D01*
X180152560Y-53875000D01*
X180152560Y-54275000D01*
X180177213Y-54402065D01*
X180152560Y-54525000D01*
X180152560Y-54925000D01*
X180177213Y-55052065D01*
X180152560Y-55175000D01*
X180152560Y-55575000D01*
X180177213Y-55702065D01*
X180152560Y-55825000D01*
X180152560Y-56225000D01*
X180177213Y-56352065D01*
X180152560Y-56475000D01*
X180152560Y-56875000D01*
X180177213Y-57002065D01*
X180152560Y-57125000D01*
X180152560Y-57525000D01*
X180177213Y-57652065D01*
X180152560Y-57775000D01*
X180152560Y-58175000D01*
X180177213Y-58302065D01*
X180152560Y-58425000D01*
X180152560Y-58608980D01*
X180110376Y-58637165D01*
X179962185Y-58736184D01*
X179602000Y-59096369D01*
X179602000Y-44964250D01*
X179602000Y-43815000D01*
X179602000Y-43561000D01*
X179602000Y-42411750D01*
X179443250Y-42253000D01*
X179102691Y-42253000D01*
X178869302Y-42349673D01*
X178690673Y-42528301D01*
X178594000Y-42761690D01*
X178594000Y-43014309D01*
X178594000Y-43402250D01*
X178752750Y-43561000D01*
X179602000Y-43561000D01*
X179602000Y-43815000D01*
X178752750Y-43815000D01*
X178594000Y-43973750D01*
X178594000Y-44361691D01*
X178594000Y-44614310D01*
X178690673Y-44847699D01*
X178869302Y-45026327D01*
X179102691Y-45123000D01*
X179443250Y-45123000D01*
X179602000Y-44964250D01*
X179602000Y-59096369D01*
X179420185Y-59278185D01*
X179255004Y-59525395D01*
X179197000Y-59817000D01*
X179197000Y-62103000D01*
X179255004Y-62394605D01*
X179420185Y-62641815D01*
X179801184Y-63022815D01*
X179801185Y-63022815D01*
X179860751Y-63062616D01*
X179768687Y-63284332D01*
X179768313Y-63713784D01*
X179797967Y-63785552D01*
X179552378Y-64030714D01*
X179387687Y-64427332D01*
X179387313Y-64856784D01*
X179551311Y-65253689D01*
X179854714Y-65557622D01*
X180251332Y-65722313D01*
X180468872Y-65722502D01*
X181991000Y-67244630D01*
X181991000Y-68961000D01*
X182049004Y-69252605D01*
X182214185Y-69499815D01*
X185158185Y-72443816D01*
X185306376Y-72542834D01*
X185405395Y-72608996D01*
X185405396Y-72608996D01*
X185697000Y-72667000D01*
X186944272Y-72667000D01*
X186902560Y-72875000D01*
X186902560Y-73475000D01*
X186949537Y-73717123D01*
X187004963Y-73801499D01*
X186915000Y-74018690D01*
X186915000Y-74159250D01*
X187073750Y-74318000D01*
X188173000Y-74318000D01*
X188173000Y-74298000D01*
X188427000Y-74298000D01*
X188427000Y-74318000D01*
X189526250Y-74318000D01*
X189685000Y-74159250D01*
X189685000Y-74018690D01*
X189595211Y-73801921D01*
X189647377Y-73724640D01*
X189697440Y-73475000D01*
X189697440Y-76581000D01*
X189685000Y-76581000D01*
X189685000Y-74871310D01*
X189685000Y-74730750D01*
X189526250Y-74572000D01*
X188427000Y-74572000D01*
X188427000Y-75221250D01*
X188585750Y-75380000D01*
X189176309Y-75380000D01*
X189409698Y-75283327D01*
X189588327Y-75104699D01*
X189685000Y-74871310D01*
X189685000Y-76581000D01*
X188173000Y-76581000D01*
X188173000Y-75221250D01*
X188173000Y-74572000D01*
X187073750Y-74572000D01*
X186915000Y-74730750D01*
X186915000Y-74871310D01*
X187011673Y-75104699D01*
X187190302Y-75283327D01*
X187423691Y-75380000D01*
X188014250Y-75380000D01*
X188173000Y-75221250D01*
X188173000Y-76581000D01*
X180809000Y-76581000D01*
X180809000Y-75580309D01*
X180809000Y-75289750D01*
X180809000Y-74718250D01*
X180809000Y-74427691D01*
X180712327Y-74194302D01*
X180533699Y-74015673D01*
X180300310Y-73919000D01*
X180047691Y-73919000D01*
X179609750Y-73919000D01*
X179451000Y-74077750D01*
X179451000Y-74877000D01*
X180650250Y-74877000D01*
X180809000Y-74718250D01*
X180809000Y-75289750D01*
X180650250Y-75131000D01*
X179451000Y-75131000D01*
X179451000Y-75930250D01*
X179609750Y-76089000D01*
X180047691Y-76089000D01*
X180300310Y-76089000D01*
X180533699Y-75992327D01*
X180712327Y-75813698D01*
X180809000Y-75580309D01*
X180809000Y-76581000D01*
X179635694Y-76581000D01*
X179324000Y-76519000D01*
X179197000Y-76544261D01*
X179197000Y-75930250D01*
X179197000Y-75131000D01*
X179197000Y-74877000D01*
X179197000Y-74077750D01*
X179038250Y-73919000D01*
X178600309Y-73919000D01*
X178347690Y-73919000D01*
X178114301Y-74015673D01*
X177935673Y-74194302D01*
X177839000Y-74427691D01*
X177839000Y-74718250D01*
X177997750Y-74877000D01*
X179197000Y-74877000D01*
X179197000Y-75131000D01*
X177997750Y-75131000D01*
X177839000Y-75289750D01*
X177839000Y-75580309D01*
X177935673Y-75813698D01*
X178114301Y-75992327D01*
X178347690Y-76089000D01*
X178600309Y-76089000D01*
X179038250Y-76089000D01*
X179197000Y-75930250D01*
X179197000Y-76544261D01*
X179012305Y-76581000D01*
X173913440Y-76581000D01*
X173913440Y-67659000D01*
X173913440Y-66659000D01*
X173901000Y-66594883D01*
X173901000Y-64785309D01*
X173901000Y-64444750D01*
X173742250Y-64286000D01*
X172593000Y-64286000D01*
X172593000Y-65135250D01*
X172751750Y-65294000D01*
X173139691Y-65294000D01*
X173392310Y-65294000D01*
X173625699Y-65197327D01*
X173804327Y-65018698D01*
X173901000Y-64785309D01*
X173901000Y-66594883D01*
X173866463Y-66416877D01*
X173726673Y-66204073D01*
X173515640Y-66061623D01*
X173266000Y-66011560D01*
X172339000Y-66011560D01*
X172339000Y-65135250D01*
X172339000Y-64286000D01*
X172339000Y-64032000D01*
X172339000Y-63182750D01*
X172180250Y-63024000D01*
X171792309Y-63024000D01*
X171539690Y-63024000D01*
X171306301Y-63120673D01*
X171127673Y-63299302D01*
X171069242Y-63440366D01*
X171069242Y-61191339D01*
X170857010Y-60677697D01*
X170504928Y-60325000D01*
X170560310Y-60325000D01*
X170793699Y-60228327D01*
X170972327Y-60049698D01*
X171069000Y-59816309D01*
X171069000Y-59213750D01*
X171069000Y-58642250D01*
X171069000Y-58039691D01*
X170972327Y-57806302D01*
X170793699Y-57627673D01*
X170560310Y-57531000D01*
X170307691Y-57531000D01*
X169957750Y-57531000D01*
X169799000Y-57689750D01*
X169799000Y-58801000D01*
X170910250Y-58801000D01*
X171069000Y-58642250D01*
X171069000Y-59213750D01*
X170910250Y-59055000D01*
X169799000Y-59055000D01*
X169799000Y-59075000D01*
X169545000Y-59075000D01*
X169545000Y-59055000D01*
X169545000Y-58801000D01*
X169545000Y-57689750D01*
X169386250Y-57531000D01*
X169036309Y-57531000D01*
X168783690Y-57531000D01*
X168550301Y-57627673D01*
X168371673Y-57806302D01*
X168275000Y-58039691D01*
X168275000Y-58642250D01*
X168433750Y-58801000D01*
X169545000Y-58801000D01*
X169545000Y-59055000D01*
X168433750Y-59055000D01*
X168275000Y-59213750D01*
X168275000Y-59816309D01*
X168371673Y-60049698D01*
X168550301Y-60228327D01*
X168783690Y-60325000D01*
X168839613Y-60325000D01*
X168488371Y-60675630D01*
X168275243Y-61188900D01*
X168274758Y-61744661D01*
X168486990Y-62258303D01*
X168879630Y-62651629D01*
X169392900Y-62864757D01*
X169948661Y-62865242D01*
X170462303Y-62653010D01*
X170855629Y-62260370D01*
X171068757Y-61747100D01*
X171069242Y-61191339D01*
X171069242Y-63440366D01*
X171031000Y-63532691D01*
X171031000Y-63873250D01*
X171189750Y-64032000D01*
X172339000Y-64032000D01*
X172339000Y-64286000D01*
X171189750Y-64286000D01*
X171031000Y-64444750D01*
X171031000Y-64785309D01*
X171127673Y-65018698D01*
X171306301Y-65197327D01*
X171539690Y-65294000D01*
X171792309Y-65294000D01*
X172180250Y-65294000D01*
X172339000Y-65135250D01*
X172339000Y-66011560D01*
X171666000Y-66011560D01*
X171423877Y-66058537D01*
X171211073Y-66198327D01*
X171068623Y-66409360D01*
X171018560Y-66659000D01*
X171018560Y-67659000D01*
X171065537Y-67901123D01*
X171205327Y-68113927D01*
X171416360Y-68256377D01*
X171666000Y-68306440D01*
X171704000Y-68306440D01*
X171704000Y-68450358D01*
X171551378Y-68602714D01*
X171386687Y-68999332D01*
X171386313Y-69428784D01*
X171550311Y-69825689D01*
X171853714Y-70129622D01*
X172250332Y-70294313D01*
X172679784Y-70294687D01*
X173076689Y-70130689D01*
X173380622Y-69827286D01*
X173545313Y-69430668D01*
X173545687Y-69001216D01*
X173381689Y-68604311D01*
X173228000Y-68450353D01*
X173228000Y-68306440D01*
X173266000Y-68306440D01*
X173508123Y-68259463D01*
X173720927Y-68119673D01*
X173863377Y-67908640D01*
X173913440Y-67659000D01*
X173913440Y-76581000D01*
X167259000Y-76581000D01*
X167259000Y-58354630D01*
X168176630Y-57437000D01*
X173542215Y-57437000D01*
X173379311Y-57504311D01*
X173075378Y-57807714D01*
X172910687Y-58204332D01*
X172910313Y-58633784D01*
X173074311Y-59030689D01*
X173322778Y-59279591D01*
X173070185Y-59532185D01*
X172905004Y-59779395D01*
X172847000Y-60071000D01*
X172847000Y-62738000D01*
X172903889Y-63024000D01*
X172751750Y-63024000D01*
X172593000Y-63182750D01*
X172593000Y-64032000D01*
X173742250Y-64032000D01*
X173783809Y-63990440D01*
X173926500Y-64133131D01*
X173926313Y-64348784D01*
X174090311Y-64745689D01*
X174393714Y-65049622D01*
X174790332Y-65214313D01*
X175219784Y-65214687D01*
X175616689Y-65050689D01*
X175920622Y-64747286D01*
X176085313Y-64350668D01*
X176085687Y-63921216D01*
X175981794Y-63669777D01*
X176174622Y-63477286D01*
X176339313Y-63080668D01*
X176339687Y-62651216D01*
X176175689Y-62254311D01*
X175994135Y-62072440D01*
X176200000Y-62072440D01*
X176442123Y-62025463D01*
X176654927Y-61885673D01*
X176797377Y-61674640D01*
X176847440Y-61425000D01*
X176847440Y-61025000D01*
X176822786Y-60897934D01*
X176847440Y-60775000D01*
X176847440Y-60375000D01*
X176822786Y-60247934D01*
X176847440Y-60125000D01*
X176847440Y-59725000D01*
X176822786Y-59597934D01*
X176847440Y-59475000D01*
X176847440Y-59075000D01*
X176822786Y-58947934D01*
X176847440Y-58825000D01*
X176847440Y-58425000D01*
X176822786Y-58297934D01*
X176847440Y-58175000D01*
X176847440Y-57775000D01*
X176827128Y-57670313D01*
X176835000Y-57651310D01*
X176835000Y-57583750D01*
X176804395Y-57553145D01*
X176800463Y-57532877D01*
X176663032Y-57323664D01*
X176797377Y-57124640D01*
X176802586Y-57098663D01*
X176835000Y-57066250D01*
X176835000Y-56998690D01*
X176826668Y-56978576D01*
X176847440Y-56875000D01*
X176847440Y-56475000D01*
X176822786Y-56347934D01*
X176847440Y-56225000D01*
X176847440Y-55825000D01*
X176822786Y-55697934D01*
X176847440Y-55575000D01*
X176847440Y-55175000D01*
X176822786Y-55047934D01*
X176847440Y-54925000D01*
X176847440Y-54525000D01*
X176822786Y-54397934D01*
X176847440Y-54275000D01*
X176847440Y-53875000D01*
X176822786Y-53747934D01*
X176847440Y-53625000D01*
X176847440Y-53225000D01*
X176827128Y-53120313D01*
X176835000Y-53101310D01*
X176835000Y-53033750D01*
X176804395Y-53003145D01*
X176800463Y-52982877D01*
X176660673Y-52770073D01*
X176519826Y-52675000D01*
X176676250Y-52675000D01*
X176835000Y-52516250D01*
X176835000Y-52448690D01*
X176738327Y-52215301D01*
X176559698Y-52036673D01*
X176326309Y-51940000D01*
X175935750Y-51940000D01*
X175777000Y-52098750D01*
X175777000Y-52577560D01*
X175564440Y-52577560D01*
X175564440Y-48403000D01*
X175564440Y-47403000D01*
X175517463Y-47160877D01*
X175377673Y-46948073D01*
X175166640Y-46805623D01*
X174917000Y-46755560D01*
X173317000Y-46755560D01*
X173074877Y-46802537D01*
X172862073Y-46942327D01*
X172727966Y-47141000D01*
X172619600Y-47141000D01*
X172443286Y-46964378D01*
X172046668Y-46799687D01*
X171617216Y-46799313D01*
X171220311Y-46963311D01*
X170916378Y-47266714D01*
X170751687Y-47663332D01*
X170751313Y-48092784D01*
X170915311Y-48489689D01*
X171218714Y-48793622D01*
X171615332Y-48958313D01*
X172044784Y-48958687D01*
X172441689Y-48794689D01*
X172571604Y-48665000D01*
X172729594Y-48665000D01*
X172856327Y-48857927D01*
X173067360Y-49000377D01*
X173317000Y-49050440D01*
X174917000Y-49050440D01*
X175159123Y-49003463D01*
X175371927Y-48863673D01*
X175514377Y-48652640D01*
X175564440Y-48403000D01*
X175564440Y-52577560D01*
X175523000Y-52577560D01*
X175523000Y-52098750D01*
X175364250Y-51940000D01*
X175278025Y-51940000D01*
X175455327Y-51762698D01*
X175552000Y-51529309D01*
X175552000Y-51188750D01*
X175552000Y-50617250D01*
X175552000Y-50276691D01*
X175455327Y-50043302D01*
X175276699Y-49864673D01*
X175043310Y-49768000D01*
X174790691Y-49768000D01*
X174402750Y-49768000D01*
X174244000Y-49926750D01*
X174244000Y-50776000D01*
X175393250Y-50776000D01*
X175552000Y-50617250D01*
X175552000Y-51188750D01*
X175393250Y-51030000D01*
X174244000Y-51030000D01*
X174244000Y-51879250D01*
X174402750Y-52038000D01*
X174738974Y-52038000D01*
X174561673Y-52215301D01*
X174465000Y-52448690D01*
X174465000Y-52516250D01*
X174596748Y-52647998D01*
X174465000Y-52647998D01*
X174465000Y-52663000D01*
X174390630Y-52663000D01*
X173765630Y-52038000D01*
X173831250Y-52038000D01*
X173990000Y-51879250D01*
X173990000Y-51030000D01*
X173990000Y-50776000D01*
X173990000Y-49926750D01*
X173831250Y-49768000D01*
X173443309Y-49768000D01*
X173190690Y-49768000D01*
X172957301Y-49864673D01*
X172778673Y-50043302D01*
X172682000Y-50276691D01*
X172682000Y-50617250D01*
X172840750Y-50776000D01*
X173990000Y-50776000D01*
X173990000Y-51030000D01*
X172840750Y-51030000D01*
X172799190Y-51071559D01*
X170447440Y-48719809D01*
X170447440Y-48000000D01*
X170400463Y-47757877D01*
X170260673Y-47545073D01*
X170049640Y-47402623D01*
X169800000Y-47352560D01*
X168200000Y-47352560D01*
X167957877Y-47399537D01*
X167745073Y-47539327D01*
X167602623Y-47750360D01*
X167552560Y-48000000D01*
X167552560Y-49000000D01*
X167599537Y-49242123D01*
X167739327Y-49454927D01*
X167950360Y-49597377D01*
X168200000Y-49647440D01*
X169219809Y-49647440D01*
X169956267Y-50383898D01*
X169800000Y-50352560D01*
X168200000Y-50352560D01*
X167957877Y-50399537D01*
X167745073Y-50539327D01*
X167602623Y-50750360D01*
X167552560Y-51000000D01*
X167552560Y-52000000D01*
X167599537Y-52242123D01*
X167739327Y-52454927D01*
X167950360Y-52597377D01*
X168200000Y-52647440D01*
X168284434Y-52647440D01*
X168296004Y-52705605D01*
X168461185Y-52952815D01*
X168560929Y-53052560D01*
X167706000Y-53052560D01*
X167463877Y-53099537D01*
X167259000Y-53234119D01*
X167259000Y-40259000D01*
X175011405Y-40259000D01*
X175106311Y-40488689D01*
X175409714Y-40792622D01*
X175806332Y-40957313D01*
X176235784Y-40957687D01*
X176632689Y-40793689D01*
X176786646Y-40640000D01*
X177622528Y-40640000D01*
X177597060Y-40767000D01*
X177597060Y-41529000D01*
X177644037Y-41771123D01*
X177783827Y-41983927D01*
X177994860Y-42126377D01*
X178244500Y-42176440D01*
X178752500Y-42176440D01*
X178994623Y-42129463D01*
X179207427Y-41989673D01*
X179349877Y-41778640D01*
X179399940Y-41529000D01*
X179399940Y-40767000D01*
X179363765Y-40580552D01*
X179606626Y-40418277D01*
X179514500Y-40640690D01*
X179514500Y-40862250D01*
X179673250Y-41021000D01*
X180276500Y-41021000D01*
X180276500Y-41001000D01*
X180530500Y-41001000D01*
X180530500Y-41021000D01*
X181133750Y-41021000D01*
X181292500Y-40862250D01*
X181292500Y-40640690D01*
X181195827Y-40407301D01*
X181047525Y-40259000D01*
X191008000Y-40259000D01*
X191008000Y-45414370D01*
X190961185Y-45461185D01*
X190796004Y-45708395D01*
X190738000Y-46000000D01*
X190738000Y-51500000D01*
X190796004Y-51791605D01*
X190961185Y-52038815D01*
X191008000Y-52085630D01*
X191008000Y-76581000D01*
G36*
X184912000Y-164898669D02*
X184134490Y-165335352D01*
X184134490Y-164085800D01*
X184134490Y-163833181D01*
X184134490Y-163245750D01*
X184134490Y-162674250D01*
X184134490Y-162086819D01*
X184134490Y-161834200D01*
X184037817Y-161600811D01*
X184035310Y-161598304D01*
X184035310Y-156276090D01*
X184035310Y-155926840D01*
X182626880Y-155926840D01*
X182626880Y-157519900D01*
X182864688Y-157640553D01*
X182970132Y-157616243D01*
X183495791Y-157324605D01*
X183869832Y-156854006D01*
X184035310Y-156276090D01*
X184035310Y-161598304D01*
X183859188Y-161422183D01*
X183625799Y-161325510D01*
X182785750Y-161325510D01*
X182627000Y-161484260D01*
X182627000Y-162833000D01*
X183975740Y-162833000D01*
X184134490Y-162674250D01*
X184134490Y-163245750D01*
X183975740Y-163087000D01*
X182627000Y-163087000D01*
X182627000Y-164435740D01*
X182785750Y-164594490D01*
X183625799Y-164594490D01*
X183859188Y-164497817D01*
X184037817Y-164319189D01*
X184134490Y-164085800D01*
X184134490Y-165335352D01*
X182373000Y-166324681D01*
X182373000Y-164435740D01*
X182373000Y-163087000D01*
X182373000Y-162833000D01*
X182373000Y-161484260D01*
X182372880Y-161484140D01*
X182372880Y-157519900D01*
X182372880Y-155926840D01*
X182372880Y-155672840D01*
X182372880Y-154079780D01*
X182135072Y-153959127D01*
X182029628Y-153983437D01*
X181503969Y-154275075D01*
X181129928Y-154745674D01*
X180964450Y-155323590D01*
X180964450Y-155672840D01*
X182372880Y-155672840D01*
X182372880Y-155926840D01*
X180964450Y-155926840D01*
X180964450Y-156276090D01*
X181129928Y-156854006D01*
X181503969Y-157324605D01*
X182029628Y-157616243D01*
X182135072Y-157640553D01*
X182372880Y-157519900D01*
X182372880Y-161484140D01*
X182214250Y-161325510D01*
X181374201Y-161325510D01*
X181140812Y-161422183D01*
X180962183Y-161600811D01*
X180865510Y-161834200D01*
X180865510Y-162086819D01*
X180865510Y-162674250D01*
X181024260Y-162833000D01*
X182373000Y-162833000D01*
X182373000Y-163087000D01*
X181024260Y-163087000D01*
X180865510Y-163245750D01*
X180865510Y-163833181D01*
X180865510Y-164085800D01*
X180962183Y-164319189D01*
X181140812Y-164497817D01*
X181374201Y-164594490D01*
X182214250Y-164594490D01*
X182373000Y-164435740D01*
X182373000Y-166324681D01*
X182229510Y-166405272D01*
X182176306Y-166405226D01*
X181575345Y-166653538D01*
X181302466Y-166925941D01*
X179065380Y-168182386D01*
X179065380Y-154396690D01*
X179065380Y-154144071D01*
X179065380Y-152785750D01*
X179065380Y-152214250D01*
X179065380Y-150855929D01*
X179065380Y-150603310D01*
X178968707Y-150369921D01*
X178790078Y-150191293D01*
X178556689Y-150094620D01*
X176945750Y-150094620D01*
X176787000Y-150253370D01*
X176787000Y-152373000D01*
X178906630Y-152373000D01*
X179065380Y-152214250D01*
X179065380Y-152785750D01*
X178906630Y-152627000D01*
X176787000Y-152627000D01*
X176787000Y-154746630D01*
X176945750Y-154905380D01*
X178556689Y-154905380D01*
X178790078Y-154808707D01*
X178968707Y-154630079D01*
X179065380Y-154396690D01*
X179065380Y-168182386D01*
X176533000Y-169604682D01*
X176533000Y-154746630D01*
X176533000Y-152627000D01*
X176533000Y-152373000D01*
X176533000Y-150253370D01*
X176374250Y-150094620D01*
X174763311Y-150094620D01*
X174529922Y-150191293D01*
X174351293Y-150369921D01*
X174254620Y-150603310D01*
X174254620Y-150855929D01*
X174254620Y-152214250D01*
X174413370Y-152373000D01*
X176533000Y-152373000D01*
X176533000Y-152627000D01*
X174413370Y-152627000D01*
X174254620Y-152785750D01*
X174254620Y-154144071D01*
X174254620Y-154396690D01*
X174351293Y-154630079D01*
X174529922Y-154808707D01*
X174763311Y-154905380D01*
X176374250Y-154905380D01*
X176533000Y-154746630D01*
X176533000Y-169604682D01*
X175734776Y-170053000D01*
X175065380Y-170053000D01*
X175065380Y-167396690D01*
X175065380Y-167144071D01*
X175065380Y-165785750D01*
X175065380Y-165214250D01*
X175065380Y-163855929D01*
X175065380Y-163603310D01*
X174968707Y-163369921D01*
X174790078Y-163191293D01*
X174556689Y-163094620D01*
X172945750Y-163094620D01*
X172787000Y-163253370D01*
X172787000Y-165373000D01*
X174906630Y-165373000D01*
X175065380Y-165214250D01*
X175065380Y-165785750D01*
X174906630Y-165627000D01*
X172787000Y-165627000D01*
X172787000Y-167746630D01*
X172945750Y-167905380D01*
X174556689Y-167905380D01*
X174790078Y-167808707D01*
X174968707Y-167630079D01*
X175065380Y-167396690D01*
X175065380Y-170053000D01*
X172533000Y-170053000D01*
X172533000Y-167746630D01*
X172533000Y-165627000D01*
X172533000Y-165373000D01*
X172533000Y-163253370D01*
X172374250Y-163094620D01*
X170763311Y-163094620D01*
X170529922Y-163191293D01*
X170351293Y-163369921D01*
X170254620Y-163603310D01*
X170254620Y-163855929D01*
X170254620Y-165214250D01*
X170413370Y-165373000D01*
X172533000Y-165373000D01*
X172533000Y-165627000D01*
X170413370Y-165627000D01*
X170254620Y-165785750D01*
X170254620Y-167144071D01*
X170254620Y-167396690D01*
X170351293Y-167630079D01*
X170529922Y-167808707D01*
X170763311Y-167905380D01*
X172374250Y-167905380D01*
X172533000Y-167746630D01*
X172533000Y-170053000D01*
X171629605Y-170053000D01*
X168656000Y-167079395D01*
X168656000Y-155119605D01*
X174169605Y-149606000D01*
X178382395Y-149606000D01*
X182778997Y-154002602D01*
X182626880Y-154079780D01*
X182626880Y-155672840D01*
X184035310Y-155672840D01*
X184035310Y-155323590D01*
X184009361Y-155232966D01*
X184464570Y-155688175D01*
X184464570Y-156186013D01*
X184581448Y-156773597D01*
X184912000Y-157268303D01*
X184912000Y-157480000D01*
X184912000Y-164898669D01*
X184912000Y-164898669D01*
G37*
X184912000Y-164898669D02*
X184134490Y-165335352D01*
X184134490Y-164085800D01*
X184134490Y-163833181D01*
X184134490Y-163245750D01*
X184134490Y-162674250D01*
X184134490Y-162086819D01*
X184134490Y-161834200D01*
X184037817Y-161600811D01*
X184035310Y-161598304D01*
X184035310Y-156276090D01*
X184035310Y-155926840D01*
X182626880Y-155926840D01*
X182626880Y-157519900D01*
X182864688Y-157640553D01*
X182970132Y-157616243D01*
X183495791Y-157324605D01*
X183869832Y-156854006D01*
X184035310Y-156276090D01*
X184035310Y-161598304D01*
X183859188Y-161422183D01*
X183625799Y-161325510D01*
X182785750Y-161325510D01*
X182627000Y-161484260D01*
X182627000Y-162833000D01*
X183975740Y-162833000D01*
X184134490Y-162674250D01*
X184134490Y-163245750D01*
X183975740Y-163087000D01*
X182627000Y-163087000D01*
X182627000Y-164435740D01*
X182785750Y-164594490D01*
X183625799Y-164594490D01*
X183859188Y-164497817D01*
X184037817Y-164319189D01*
X184134490Y-164085800D01*
X184134490Y-165335352D01*
X182373000Y-166324681D01*
X182373000Y-164435740D01*
X182373000Y-163087000D01*
X182373000Y-162833000D01*
X182373000Y-161484260D01*
X182372880Y-161484140D01*
X182372880Y-157519900D01*
X182372880Y-155926840D01*
X182372880Y-155672840D01*
X182372880Y-154079780D01*
X182135072Y-153959127D01*
X182029628Y-153983437D01*
X181503969Y-154275075D01*
X181129928Y-154745674D01*
X180964450Y-155323590D01*
X180964450Y-155672840D01*
X182372880Y-155672840D01*
X182372880Y-155926840D01*
X180964450Y-155926840D01*
X180964450Y-156276090D01*
X181129928Y-156854006D01*
X181503969Y-157324605D01*
X182029628Y-157616243D01*
X182135072Y-157640553D01*
X182372880Y-157519900D01*
X182372880Y-161484140D01*
X182214250Y-161325510D01*
X181374201Y-161325510D01*
X181140812Y-161422183D01*
X180962183Y-161600811D01*
X180865510Y-161834200D01*
X180865510Y-162086819D01*
X180865510Y-162674250D01*
X181024260Y-162833000D01*
X182373000Y-162833000D01*
X182373000Y-163087000D01*
X181024260Y-163087000D01*
X180865510Y-163245750D01*
X180865510Y-163833181D01*
X180865510Y-164085800D01*
X180962183Y-164319189D01*
X181140812Y-164497817D01*
X181374201Y-164594490D01*
X182214250Y-164594490D01*
X182373000Y-164435740D01*
X182373000Y-166324681D01*
X182229510Y-166405272D01*
X182176306Y-166405226D01*
X181575345Y-166653538D01*
X181302466Y-166925941D01*
X179065380Y-168182386D01*
X179065380Y-154396690D01*
X179065380Y-154144071D01*
X179065380Y-152785750D01*
X179065380Y-152214250D01*
X179065380Y-150855929D01*
X179065380Y-150603310D01*
X178968707Y-150369921D01*
X178790078Y-150191293D01*
X178556689Y-150094620D01*
X176945750Y-150094620D01*
X176787000Y-150253370D01*
X176787000Y-152373000D01*
X178906630Y-152373000D01*
X179065380Y-152214250D01*
X179065380Y-152785750D01*
X178906630Y-152627000D01*
X176787000Y-152627000D01*
X176787000Y-154746630D01*
X176945750Y-154905380D01*
X178556689Y-154905380D01*
X178790078Y-154808707D01*
X178968707Y-154630079D01*
X179065380Y-154396690D01*
X179065380Y-168182386D01*
X176533000Y-169604682D01*
X176533000Y-154746630D01*
X176533000Y-152627000D01*
X176533000Y-152373000D01*
X176533000Y-150253370D01*
X176374250Y-150094620D01*
X174763311Y-150094620D01*
X174529922Y-150191293D01*
X174351293Y-150369921D01*
X174254620Y-150603310D01*
X174254620Y-150855929D01*
X174254620Y-152214250D01*
X174413370Y-152373000D01*
X176533000Y-152373000D01*
X176533000Y-152627000D01*
X174413370Y-152627000D01*
X174254620Y-152785750D01*
X174254620Y-154144071D01*
X174254620Y-154396690D01*
X174351293Y-154630079D01*
X174529922Y-154808707D01*
X174763311Y-154905380D01*
X176374250Y-154905380D01*
X176533000Y-154746630D01*
X176533000Y-169604682D01*
X175734776Y-170053000D01*
X175065380Y-170053000D01*
X175065380Y-167396690D01*
X175065380Y-167144071D01*
X175065380Y-165785750D01*
X175065380Y-165214250D01*
X175065380Y-163855929D01*
X175065380Y-163603310D01*
X174968707Y-163369921D01*
X174790078Y-163191293D01*
X174556689Y-163094620D01*
X172945750Y-163094620D01*
X172787000Y-163253370D01*
X172787000Y-165373000D01*
X174906630Y-165373000D01*
X175065380Y-165214250D01*
X175065380Y-165785750D01*
X174906630Y-165627000D01*
X172787000Y-165627000D01*
X172787000Y-167746630D01*
X172945750Y-167905380D01*
X174556689Y-167905380D01*
X174790078Y-167808707D01*
X174968707Y-167630079D01*
X175065380Y-167396690D01*
X175065380Y-170053000D01*
X172533000Y-170053000D01*
X172533000Y-167746630D01*
X172533000Y-165627000D01*
X172533000Y-165373000D01*
X172533000Y-163253370D01*
X172374250Y-163094620D01*
X170763311Y-163094620D01*
X170529922Y-163191293D01*
X170351293Y-163369921D01*
X170254620Y-163603310D01*
X170254620Y-163855929D01*
X170254620Y-165214250D01*
X170413370Y-165373000D01*
X172533000Y-165373000D01*
X172533000Y-165627000D01*
X170413370Y-165627000D01*
X170254620Y-165785750D01*
X170254620Y-167144071D01*
X170254620Y-167396690D01*
X170351293Y-167630079D01*
X170529922Y-167808707D01*
X170763311Y-167905380D01*
X172374250Y-167905380D01*
X172533000Y-167746630D01*
X172533000Y-170053000D01*
X171629605Y-170053000D01*
X168656000Y-167079395D01*
X168656000Y-155119605D01*
X174169605Y-149606000D01*
X178382395Y-149606000D01*
X182778997Y-154002602D01*
X182626880Y-154079780D01*
X182626880Y-155672840D01*
X184035310Y-155672840D01*
X184035310Y-155323590D01*
X184009361Y-155232966D01*
X184464570Y-155688175D01*
X184464570Y-156186013D01*
X184581448Y-156773597D01*
X184912000Y-157268303D01*
X184912000Y-157480000D01*
X184912000Y-164898669D01*
M02*
