G04 #@! TF.FileFunction,Paste,Top*
%FSLAX46Y46*%
G04 Gerber Fmt 4.6, Leading zero omitted, Abs format (unit mm)*
G04 Created by KiCad (PCBNEW (2015-01-19 BZR 5380)-product) date Thu 19 Feb 2015 00:57:00 CET*
%MOMM*%
G01*
G04 APERTURE LIST*
%ADD10C,0.020000*%
%ADD11C,0.150000*%
%ADD12R,1.600000X1.000000*%
%ADD13R,1.000000X1.600000*%
%ADD14R,1.700000X0.900000*%
%ADD15R,0.900000X1.700000*%
%ADD16R,0.800100X1.000760*%
%ADD17R,1.100000X0.400000*%
%ADD18R,1.500000X0.600000*%
%ADD19R,0.508000X0.762000*%
G04 APERTURE END LIST*
D10*
D11*
X227000000Y-28000000D02*
X27000000Y-28000000D01*
X227000000Y-228000000D02*
X227000000Y-28000000D01*
X147000000Y-228000000D02*
X227000000Y-228000000D01*
X147000000Y-108000000D02*
X147000000Y-228000000D01*
X27000000Y-108000000D02*
X147000000Y-108000000D01*
X27000000Y-28000000D02*
X27000000Y-108000000D01*
D12*
X159766000Y-70080000D03*
X159766000Y-67080000D03*
X159639000Y-63222000D03*
X159639000Y-60222000D03*
X174117000Y-47903000D03*
X174117000Y-50903000D03*
D13*
X168206000Y-54500000D03*
X165206000Y-54500000D03*
D12*
X172466000Y-67159000D03*
X172466000Y-64159000D03*
X169000000Y-51500000D03*
X169000000Y-48500000D03*
X181483000Y-47903000D03*
X181483000Y-50903000D03*
X184277000Y-50014000D03*
X184277000Y-47014000D03*
D13*
X182000000Y-81000000D03*
X185000000Y-81000000D03*
D12*
X179578000Y-33298000D03*
X179578000Y-36298000D03*
D13*
X182729000Y-43688000D03*
X179729000Y-43688000D03*
D14*
X198628000Y-103812000D03*
X198628000Y-100912000D03*
D15*
X204351000Y-96077000D03*
X201451000Y-96077000D03*
D12*
X211328000Y-94972000D03*
X211328000Y-91972000D03*
D16*
X203246000Y-87070180D03*
X204198500Y-89269820D03*
X202293500Y-89269820D03*
X203246000Y-72599180D03*
X204198500Y-74798820D03*
X202293500Y-74798820D03*
X203246000Y-79599180D03*
X204198500Y-81798820D03*
X202293500Y-81798820D03*
D15*
X164137000Y-57785000D03*
X161237000Y-57785000D03*
X165661000Y-62357000D03*
X162761000Y-62357000D03*
X187632000Y-60960000D03*
X184732000Y-60960000D03*
D14*
X179324000Y-77904000D03*
X179324000Y-75004000D03*
X179324000Y-89588000D03*
X179324000Y-86688000D03*
X176000000Y-83950000D03*
X176000000Y-81050000D03*
D15*
X200196000Y-87670000D03*
X197296000Y-87670000D03*
X204196000Y-91670000D03*
X201296000Y-91670000D03*
X200196000Y-73199000D03*
X197296000Y-73199000D03*
X204196000Y-77199000D03*
X201296000Y-77199000D03*
X200196000Y-80199000D03*
X197296000Y-80199000D03*
X204196000Y-84199000D03*
X201296000Y-84199000D03*
D17*
X175650000Y-52775000D03*
X175650000Y-53425000D03*
X175650000Y-54075000D03*
X175650000Y-54725000D03*
X175650000Y-55375000D03*
X175650000Y-56025000D03*
X175650000Y-56675000D03*
X175650000Y-57325000D03*
X175650000Y-57975000D03*
X175650000Y-58625000D03*
X175650000Y-59275000D03*
X175650000Y-59925000D03*
X175650000Y-60575000D03*
X175650000Y-61225000D03*
X181350000Y-61225000D03*
X181350000Y-60575000D03*
X181350000Y-59925000D03*
X181350000Y-59275000D03*
X181350000Y-58625000D03*
X181350000Y-57975000D03*
X181350000Y-57325000D03*
X181350000Y-56675000D03*
X181350000Y-56025000D03*
X181350000Y-55375000D03*
X181350000Y-54725000D03*
X181350000Y-54075000D03*
X181350000Y-53425000D03*
X181350000Y-52775000D03*
D18*
X193700000Y-74445000D03*
X193700000Y-73175000D03*
X193700000Y-71905000D03*
X193700000Y-70635000D03*
X193700000Y-69365000D03*
X193700000Y-68095000D03*
X193700000Y-66825000D03*
X193700000Y-65555000D03*
X188300000Y-65555000D03*
X188300000Y-66825000D03*
X188300000Y-68095000D03*
X188300000Y-69365000D03*
X188300000Y-70635000D03*
X188300000Y-71905000D03*
X188300000Y-73175000D03*
X188300000Y-74445000D03*
X193700000Y-55945000D03*
X193700000Y-54675000D03*
X193700000Y-53405000D03*
X193700000Y-52135000D03*
X193700000Y-50865000D03*
X193700000Y-49595000D03*
X193700000Y-48325000D03*
X193700000Y-47055000D03*
X188300000Y-47055000D03*
X188300000Y-48325000D03*
X188300000Y-49595000D03*
X188300000Y-50865000D03*
X188300000Y-52135000D03*
X188300000Y-53405000D03*
X188300000Y-54675000D03*
X188300000Y-55945000D03*
D19*
X180403500Y-38608000D03*
X178498500Y-38608000D03*
X180403500Y-41148000D03*
X179451000Y-38608000D03*
X178498500Y-41148000D03*
X201231500Y-101854000D03*
X203136500Y-101854000D03*
X201231500Y-99314000D03*
X202184000Y-101854000D03*
X203136500Y-99314000D03*
M02*
